<svg
  viewBox="0 0 28 20"
  fill="currentColor"
  xmlns="http://www.w3.org/2000/svg"
  className="transform-origin h-4 w-4 rotate-180"
>
  <path
    d="M27.6274 9.10089L18.7182 0.35089C18.4781 0.123193 18.1566 -0.00280077 17.8229 4.72531e-05C17.4892 0.00289528 17.17 0.134357 16.934 0.366117C16.6981 0.597877 16.5642 0.911392 16.5613 1.23914C16.5584 1.56688 16.6867 1.88264 16.9185 2.11839L23.6551 8.73464H1.27274C0.935188 8.73464 0.611462 8.86634 0.372777 9.10076C0.134092 9.33518 0 9.65312 0 9.98464C0 10.3162 0.134092 10.6341 0.372777 10.8685C0.611462 11.1029 0.935188 11.2346 1.27274 11.2346H23.6551L16.9185 17.8509C16.797 17.9662 16.7 18.1041 16.6333 18.2566C16.5666 18.4091 16.5315 18.5732 16.53 18.7391C16.5286 18.9051 16.5608 19.0697 16.6248 19.2233C16.6887 19.377 16.7833 19.5165 16.9028 19.6339C17.0223 19.7512 17.1644 19.8441 17.3208 19.9069C17.4772 19.9698 17.6448 20.0014 17.8138 20C17.9828 19.9985 18.1498 19.964 18.3051 19.8985C18.4603 19.833 18.6008 19.7378 18.7182 19.6184L27.6274 10.8684C27.866 10.634 28 10.3161 28 9.98464C28 9.65318 27.866 9.3353 27.6274 9.10089Z"
  />
</svg>
