<svg
  xmlns="http://www.w3.org/2000/svg"
  viewBox="0 0 66 66"
  className="w-12 h-12"
>
  <path d="M65.6 42.4c-1-2.1-3.4-3.2-5.5-1.9L44.5 50.7c-.5.3-.6.9-.3 1.4.3.5.9.6 1.4.3l15.5-10.2c.9-.5 2.1-.2 2.7 1 .5 1.2.1 2.7-1 3.3L37.2 63.1c-1.5.9-3.3 1.1-4.9.6l-13.4-4.8c-.1 0-.2-.1-.4-.1L14 59V40.5c2.3-.6 9.5-2 12.7 2.1.6.7 1.5 1.2 2.5 1.2h11.5c1.1 0 2 1.1 2 2.4s-.9 2.4-2 2.4h-11c-1.1 0-2.1.6-2.7 1.7-.6 1.1-.5 2.5.2 3.6.3.5.9.5 1.4.2.5-.3.5-1 .2-1.4-.3-.5-.3-1.1-.1-1.5.1-.1.4-.6.9-.6h11c2.2 0 4-2 4-4.4s-1.8-4.4-4-4.4H29.2c-.2 0-.7-.1-1-.4-3.6-4.8-11.2-3.6-14.2-3v-2.1c0-.6-.4-1-1-1H1c-.6 0-1 .4-1 1v26.1c0 .6.4 1 1 1h12c.6 0 1-.4 1-1V61l4.4-.2 13.2 4.7c2.2.8 4.7.5 6.7-.8l25.6-16.5c1.9-1 2.6-3.7 1.7-5.8zM12 61.5H2V37.4h10v24.1z" />
  <path d="M23.4 11.2v23.6c0 2.3 1.9 4.2 4.2 4.2h33.9c2.3 0 4.2-1.9 4.2-4.2V11.2c0-.2-.1-.4-.1-.5l-5.4-9.3C59.6.6 58.7 0 57.7 0H31.4c-1 0-2 .5-2.5 1.4l-5.4 9.3c0 .1-.1.4-.1.5zm40.3 23.6c0 1.2-1 2.2-2.2 2.2H27.6c-1.2 0-2.2-1-2.2-2.2V12.2h11.3v6.7c0 .6.4 1 1 1h13.7c.6 0 1-.4 1-1v-6.7h11.3v22.6zm-16-32.7l2.3 8H39l2.3-8h6.4zm-9 10.1h11.7v5.7H38.7v-5.7zm19.7-9.8l4.5 7.8H52.2L49.8 2h7.9c.3 0 .6.2.7.4zm-27.8 0c.2-.2.5-.4.8-.4h7.9l-2.4 8.2H26.1l4.5-7.8z" />
  <path d="M37.3 26.1l1.4-1.4v6.4c0 .6.4 1 1 1s1-.4 1-1v-6.4l1.4 1.4c.4.4 1 .4 1.4 0 .4-.4.4-1 0-1.4l-3.1-3.2c-.2-.2-.5-.3-.7-.3-.3 0-.5.1-.7.3l-3.1 3.2c-.4.4-.4 1 0 1.4.4.4 1 .4 1.4 0zM50 21.6c0-.1 0-.1 0 0-.2-.2-.5-.3-.7-.3-.3 0-.5.1-.7.3l-3.1 3.2c-.4.4-.4 1 0 1.4.4.4 1 .4 1.4 0l1.4-1.4v6.4c0 .6.4 1 1 1s1-.4 1-1v-6.4l1.4 1.4c.4.4 1 .4 1.4 0 .4-.4.4-1 0-1.4L50 21.6zM51.9 33.2H37.1c-.6 0-1 .4-1 1s.4 1 1 1h14.8c.6 0 1-.4 1-1s-.4-1-1-1z" />
</svg>
