  <svg xmlns="http://www.w3.org/2000/svg" viewBox="0 0 64.02 64.001">
    <path d="M343.149,443.569a7.642,7.642,0,0,0-3.15-6.346,48.155,48.155,0,0,0-57.656-.012,7.664,7.664,0,0,0-3.169,6.34c-.006,2.289.054,4.582-.018,6.868-.032.975.234,1.233,1.222,1.233,10.237-.038,20.477-.024,30.714-.024q15.48-.027,30.965.03c.854,0,1.141-.186,1.115-1.087C343.105,448.233,343.149,445.9,343.149,443.569Z" transform="translate(-279.154 -387.657)"/>
    <path d="M311.149,419.668a16.005,16.005,0,1,0-15.986-16.281c0,.087,0,.173,0,.26A16.005,16.005,0,0,0,311.149,419.668Z" transform="translate(-279.154 -387.657)"/>
  </svg>
