<svg xmlns="http://www.w3.org/2000/svg" width="23.372" height="22.813" viewBox="0 0 23.372 22.813"><defs><style>.a{fill:#b88a65;fill-rule:evenodd;}</style></defs><g transform="translate(-0.136 -0.187)"><path class="a" d="M322.548,365.8a1.774,1.774,0,1,0-3.548,0,1.774,1.774,0,0,0,3.548,0Z" transform="translate(-301.979 -344.548)"/><path class="a" d="M148.548,365.8a1.774,1.774,0,1,0-3.548,0,1.774,1.774,0,0,0,3.548,0Z" transform="translate(-137.193 -344.548)"/><path class="a" d="M22.317,6.584,5.477,5.049,4.842,1.765a.884.884,0,0,0-.582-.635L1.135.23A.771.771,0,1,0,.711,1.712l2.648.794L6.536,17.758a.76.76,0,0,0,.794.688H20.887a.8.8,0,0,0,0-1.589L7.966,16.91l-.477-2.383H21.1a1.27,1.27,0,0,0,1.324-1.006l1.059-5.507A1.213,1.213,0,0,0,22.317,6.584Z" transform="translate(0)"/></g></svg>
