<svg xmlns="http://www.w3.org/2000/svg" xmlns:xlink="http://www.w3.org/1999/xlink" viewBox="0 0 59.997 114.134">
  <defs>
    <clipPath id="clip-path">
      <rect id="Rectangle_149" data-name="Rectangle 149" width="59.997" height="114.134" transform="translate(0 0)"
        fill="none" />
    </clipPath>
  </defs>
  <g id="Groupe_2584" data-name="Groupe 2584" transform="translate(93 -0.001)">
    <g id="Groupe_589" data-name="Groupe 589" transform="translate(-93 0.001)" clip-path="url(#clip-path)">
      <path id="Tracé_36" data-name="Tracé 36"
        d="M60.067,263.019a.21.21,0,0,0-.052.162A27.3,27.3,0,0,1,59.053,269a29.071,29.071,0,0,1-1.538,4.31,29.576,29.576,0,0,1-4.683,7.382c-.657.754-1.329,1.491-2.058,2.176a30.774,30.774,0,0,1-6.272,4.579,29.7,29.7,0,0,1-5.839,2.441,27.937,27.937,0,0,1-4.5.964c-.78.1-1.561.164-2.345.223a25.372,25.372,0,0,1-2.818.039,30.318,30.318,0,0,1-3.358-.317,29.7,29.7,0,0,1-5.492-1.355c-.953-.334-1.885-.722-2.8-1.147a30.049,30.049,0,0,1-3.806-2.137c-.786-.513-1.535-1.082-2.271-1.667a32.474,32.474,0,0,1-3.335-3.139A23.858,23.858,0,0,1,5.9,278.88a30.334,30.334,0,0,1-1.949-3.019,32.3,32.3,0,0,1-1.805-3.783A29.845,29.845,0,0,1,.6,266.669,28.93,28.93,0,0,1,.2,263.741,27.8,27.8,0,0,1,.1,260.115c.044-.972.115-1.942.244-2.909a31.977,31.977,0,0,1,.635-3.387,29.871,29.871,0,0,1,4.162-9.391,28.292,28.292,0,0,1,2.382-3.1c.446-.5.89-1,1.366-1.471a31.481,31.481,0,0,1,3.905-3.284,30.085,30.085,0,0,1,4.241-2.509,29.6,29.6,0,0,1,5.922-2.124,32.486,32.486,0,0,1,3.632-.65,28.819,28.819,0,0,1,4.923-.176,30.052,30.052,0,0,1,12.814,3.553,29.09,29.09,0,0,1,4.377,2.884,30.172,30.172,0,0,1,3.294,3.026,29.79,29.79,0,0,1,3.449,4.448,30.161,30.161,0,0,1,2.732,5.48,29.676,29.676,0,0,1,1.49,5.5,23.092,23.092,0,0,1,.351,3.075.173.173,0,0,0,.05.127ZM56.036,258.4c-.055-4.193-2.4-10.225-7.186-15.223a25.133,25.133,0,0,0-18.233-8.017,25.091,25.091,0,0,0-18.669,7.392,25.969,25.969,0,0,0-.58,36.545,25.226,25.226,0,0,0,18.742,7.99c14.294.057,25.992-11.67,25.926-28.686"
        transform="translate(-0.071 -214.757)" fill="#fff" />
      <path id="Tracé_37" data-name="Tracé 37"
        d="M725.228,1487.311c-.237-.057-.474-.111-.709-.173a4.222,4.222,0,0,1-2.76-2.184,4.9,4.9,0,0,1-.566-2.2,5.733,5.733,0,0,1,.345-2.282,4.3,4.3,0,0,1,3.242-2.787,4.885,4.885,0,0,1,2.935.225,3.526,3.526,0,0,1,2.228,2.546.8.8,0,0,1,.015.1c.032.293,0,.334-.285.336-.494,0-.988-.006-1.482,0a.311.311,0,0,1-.357-.252,1.679,1.679,0,0,0-.721-.968,2.216,2.216,0,0,0-1.484-.317,2.373,2.373,0,0,0-.749.179,2.538,2.538,0,0,0-1.207,1.277,4.807,4.807,0,0,0,.082,3.464,2.293,2.293,0,0,0,1.951,1.249,3.092,3.092,0,0,0,1.047-.1,1.818,1.818,0,0,0,1.381-1.757c-.093-.072-.2-.039-.3-.04-.506,0-1.011,0-1.517,0-.227,0-.246-.022-.25-.243-.007-.388,0-.777,0-1.165,0-.146.065-.218.212-.216.07,0,.141,0,.212,0h3.21l.247,0a.2.2,0,0,1,.225.215c0,.071,0,.141,0,.212q0,2.136,0,4.271c0,.071,0,.141,0,.212a.159.159,0,0,1-.174.177q-.547,0-1.093,0c-.148,0-.2-.1-.22-.227a4.471,4.471,0,0,0-.165-.735,3.185,3.185,0,0,1-2,1.118.3.3,0,0,0-.089.05Z"
        transform="translate(-670.241 -1373.177)" fill="#fff" />
      <path id="Tracé_38" data-name="Tracé 38"
        d="M30.149,1169.577H59.537c.558,0,.529-.07.529.535q0,1.5,0,3c0,.094,0,.188-.005.282a.162.162,0,0,1-.181.17l-.282,0H.609c-.477,0-.457.031-.457-.465q0-1.536,0-3.071c0-.082,0-.165,0-.247,0-.15.075-.211.219-.207.106,0,.212,0,.317,0H30.149"
        transform="translate(-0.141 -1086.949)" fill="#fff" />
      <path id="Tracé_39" data-name="Tracé 39"
        d="M9.458,4C9.153,4,8.847,4,8.541,4c-.177.005-.289-.041-.327-.233A2.392,2.392,0,0,0,5.39,2.141,2.617,2.617,0,0,0,3.3,4.1a5.007,5.007,0,0,0-.248,1.8,4.447,4.447,0,0,0,.556,2.124A2.486,2.486,0,0,0,5.539,9.292a2.748,2.748,0,0,0,1.346-.133A2.325,2.325,0,0,0,8.233,7.54a3.675,3.675,0,0,0,.082-.378c.049-.239.073-.267.327-.269q.917-.008,1.834,0c.23,0,.275.047.247.234a5.515,5.515,0,0,1-.652,2.031,4.279,4.279,0,0,1-2.8,2.079,5.618,5.618,0,0,1-3.615-.3A4.832,4.832,0,0,1,.9,7.73,6.719,6.719,0,0,1,1.08,3.206,4.75,4.75,0,0,1,4.411.213a5.345,5.345,0,0,1,4,.4,4.035,4.035,0,0,1,2.19,3.14c.033.243.024.248-.23.252-.306,0-.612,0-.917,0"
        transform="translate(-0.549 -0.001)" fill="#fff" />
      <path id="Tracé_40" data-name="Tracé 40"
        d="M255.8,1486.648a1.17,1.17,0,0,0,.034-.425q0-2.577,0-5.153c0-.094,0-.188,0-.282,0-.134.07-.188.2-.188q.829,0,1.658,0c.127,0,.2.055.2.189,0,.082,0,.165,0,.247q0,4.218,0,8.436c0,.48.021.459-.465.458-.47,0-.941-.01-1.411,0a.443.443,0,0,1-.432-.23q-.878-1.382-1.768-2.757-.972-1.51-1.948-3.017c0-.007-.021-.006-.052-.013v.39q0,2.594,0,5.188c0,.432,0,.433-.418.433-.459,0-.917,0-1.376,0-.247,0-.257-.019-.268-.26,0-.07,0-.141,0-.212q0-4.2,0-8.4c0-.473-.033-.458.465-.457.47,0,.941.005,1.411,0a.425.425,0,0,1,.4.222c.636,1,1.28,2,1.921,2.994l1.752,2.726a1.4,1.4,0,0,0,.092.11"
        transform="translate(-232.113 -1375.999)" fill="#fff" />
      <path id="Tracé_41" data-name="Tracé 41"
        d="M592.537,1486.7a1.037,1.037,0,0,0,.033-.409q0-2.611,0-5.222c0-.094,0-.188,0-.282a.171.171,0,0,1,.192-.2h1.622c.133,0,.189.073.187.2,0,.082,0,.165,0,.247q0,4.216,0,8.432c0,.459.033.45-.435.449s-.964-.006-1.446,0a.4.4,0,0,1-.4-.211c-1.01-1.583-2.033-3.157-3.047-4.737-.233-.363-.456-.731-.753-1.139v.456q0,2.576,0,5.151c0,.094,0,.188,0,.282a.17.17,0,0,1-.194.193q-.829,0-1.657,0c-.152,0-.207-.083-.2-.223,0-.071,0-.141,0-.212v-8.467c0-.024,0-.047,0-.071,0-.353,0-.355.35-.357.505,0,1.011.005,1.516,0a.429.429,0,0,1,.424.229c1.237,1.939,2.488,3.869,3.736,5.8a1.076,1.076,0,0,0,.074.084"
        transform="translate(-545.007 -1375.992)" fill="#fff" />
      <path id="Tracé_42" data-name="Tracé 42"
        d="M739.986,7.382c0-1.128,0-2.174,0-3.221,0-.657-.085-.586.576-.59.459,0,.917,0,1.376,0,.266,0,.3.043.311.31,0,.059,0,.118,0,.176q0,4.977,0,9.955c0,.442,0,.442-.444.442-.459,0-.917,0-1.376,0-.307,0-.308-.007-.313-.322,0-.176,0-.353,0-.527-.052-.007-.068.028-.089.054a2.9,2.9,0,0,1-2.827.959,3.2,3.2,0,0,1-1.706-.775,3.358,3.358,0,0,1-.942-1.427,5.348,5.348,0,0,1-.349-2.247,4.171,4.171,0,0,1,1.342-3.042,2.9,2.9,0,0,1,1.821-.748,3.218,3.218,0,0,1,1.619.245,2.583,2.583,0,0,1,.747.521c.063.067.134.126.253.237m.075,3.107a3.463,3.463,0,0,0-.184-1.291,1.7,1.7,0,0,0-3.192-.078,3.608,3.608,0,0,0-.061,2.548,1.7,1.7,0,0,0,2.269,1.205,1.178,1.178,0,0,0,.608-.4,2.063,2.063,0,0,0,.411-.772,3.925,3.925,0,0,0,.149-1.211"
        transform="translate(-682.326 -3.317)" fill="#fff" />
      <path id="Tracé_43" data-name="Tracé 43"
        d="M389.754,1485.229q0-2.081,0-4.163c0-.082,0-.165,0-.247.015-.207.052-.26.251-.261,1.434,0,2.868-.025,4.3.01a4.317,4.317,0,0,1,1.854.5,3.546,3.546,0,0,1,1.772,1.967,5.9,5.9,0,0,1-.115,4.594,3.732,3.732,0,0,1-2.884,2.182,5.666,5.666,0,0,1-1.086.075h-3.632l-.282,0a.16.16,0,0,1-.178-.173c0-.094,0-.188,0-.282q0-2.1,0-4.2m2.2-.013v2.574c0,.012,0,.024,0,.035.008.268.008.273.279.275.54,0,1.081,0,1.621,0a2.433,2.433,0,0,0,.725-.118,2.04,2.04,0,0,0,1.434-1.6,4.89,4.89,0,0,0-.025-2.3,2.1,2.1,0,0,0-1.926-1.687,13,13,0,0,0-1.756-.062c-.35,0-.352,0-.353.341q0,1.269,0,2.539"
        transform="translate(-362.218 -1375.954)" fill="#fff" />
      <path id="Tracé_44" data-name="Tracé 44"
        d="M126.9,1485.293q0-2.1,0-4.2c0-.094,0-.188,0-.282a.159.159,0,0,1,.174-.176c.082,0,.164,0,.247,0h6.454c.337.005.34.006.343.329q0,.565,0,1.129c0,.316-.006.321-.312.322-.647,0-1.293,0-1.94,0-.835,0-1.669,0-2.5,0-.314,0-.317,0-.318.3q0,.635,0,1.27c0,.311,0,.315.311.316q1.851,0,3.7,0c.141,0,.282,0,.423,0s.215.063.215.211q0,.635,0,1.27c0,.146-.062.219-.21.215-.082,0-.165,0-.247,0H129.5l-.282,0c-.114,0-.174.049-.173.169q0,.917,0,1.835c0,.118.054.172.17.17.094,0,.188,0,.282,0h4.267c.082,0,.165,0,.247,0,.217.013.236.026.24.255q.01.635,0,1.27c0,.236-.023.254-.274.256-.788,0-1.575,0-2.363,0h-4.2c-.082,0-.165,0-.247,0-.25-.01-.26-.019-.271-.258,0-.117,0-.235,0-.353v-4.058"
        transform="translate(-117.93 -1376.031)" fill="#fff" />
      <path id="Tracé_45" data-name="Tracé 45"
        d="M.216,1485.264v-4.126c0-.082,0-.165,0-.247.01-.251.016-.259.258-.27.07,0,.141,0,.211,0q1.974,0,3.948,0a4.077,4.077,0,0,1,1.247.185,2.848,2.848,0,0,1,1.565,1.134,3.068,3.068,0,0,1,.437,2.192,2.827,2.827,0,0,1-.48,1.273,2.919,2.919,0,0,1-1.872,1.15,3.821,3.821,0,0,1-.838.082c-.67-.006-1.339,0-2.009,0-.267,0-.273.008-.275.281,0,.67,0,1.34,0,2.01,0,.235,0,.47,0,.705,0,.312-.007.317-.317.319q-.775.005-1.551,0c-.313,0-.319-.008-.322-.313,0-.364,0-.729,0-1.093v-3.28m2.192-1.641c0,.376,0,.751,0,1.127,0,.229.011.242.245.238a15.782,15.782,0,0,0,2.035-.059,1.334,1.334,0,0,0,.956-2.009,1.219,1.219,0,0,0-1.06-.585c-.643-.036-1.29-.018-1.934-.015-.225,0-.237.017-.241.247-.006.352,0,.7,0,1.056"
        transform="translate(-0.2 -1376.02)" fill="#fff" />
      <path id="Tracé_46" data-name="Tracé 46"
        d="M154.863,47.7a4.676,4.676,0,0,1,.141.719,1.471,1.471,0,0,0,1.223,1.127,2.108,2.108,0,0,0,1.475-.174,1.756,1.756,0,0,0,.66-.618.281.281,0,0,1,.273-.168c.505,0,1.011,0,1.516,0,.208,0,.244.052.178.228a4.047,4.047,0,0,1-.8,1.394,3.344,3.344,0,0,1-1.83.985,4.739,4.739,0,0,1-2.5-.138,3.478,3.478,0,0,1-2.221-2.162,4.613,4.613,0,0,1,.076-3.6,3.673,3.673,0,0,1,2.772-2.215,4.172,4.172,0,0,1,2.123.087,3.428,3.428,0,0,1,2.017,1.707,4.731,4.731,0,0,1,.565,2.477c-.013.346-.007.35-.36.35q-2.433,0-4.867,0Zm.055-1.465a30.332,30.332,0,0,0,3.347-.023c-.189-1.04-.743-1.555-1.65-1.536a1.627,1.627,0,0,0-1.7,1.559"
        transform="translate(-141.862 -39.943)" fill="#fff" />
      <path id="Tracé_47" data-name="Tracé 47"
        d="M620.079,47.713h-2.434c-.082,0-.164,0-.247.007-.054,0-.1.039-.089.088a1.983,1.983,0,0,0,.625,1.442,2.039,2.039,0,0,0,2.831-.489.286.286,0,0,1,.283-.163c.506,0,1.011,0,1.517,0,.219,0,.245.051.17.26a3.717,3.717,0,0,1-1.1,1.654,3.248,3.248,0,0,1-1.25.628,4.751,4.751,0,0,1-2.541,0,3.521,3.521,0,0,1-2.539-2.467,4.605,4.605,0,0,1,.123-3.308,3.693,3.693,0,0,1,2.806-2.276,3.986,3.986,0,0,1,2.385.186,3.511,3.511,0,0,1,1.726,1.542,4.8,4.8,0,0,1,.593,2.611c-.012.268-.015.277-.287.278-.858,0-1.717,0-2.575,0m-2.747-1.469a.964.964,0,0,0,.373.03q1.266,0,2.532,0c.472,0,.492-.017.338-.47a1.426,1.426,0,0,0-.832-.985,1.974,1.974,0,0,0-1.439.017,1.533,1.533,0,0,0-.972,1.407"
        transform="translate(-571.608 -39.959)" fill="#fff" />
      <path id="Tracé_48" data-name="Tracé 48"
        d="M489.778,14.834c-.282,0-.564,0-.846,0-.161,0-.242-.06-.233-.227,0-.094,0-.188,0-.282q0-2.663,0-5.326c0-.071,0-.141,0-.212,0-.309,0-.311-.309-.314-.235,0-.47,0-.7,0s-.249-.021-.253-.24c-.007-.353,0-.705,0-1.058,0-.151.067-.21.214-.208.247,0,.494,0,.74,0,.314,0,.311,0,.317-.338a4.03,4.03,0,0,1,.063-.911A2.269,2.269,0,0,1,490.767,4a10.848,10.848,0,0,1,1.507.011c.237,0,.255.028.259.273q.009.582,0,1.164c0,.248-.055.3-.3.255a2.084,2.084,0,0,0-.837.007.5.5,0,0,0-.425.411c-.013.057-.037.112-.046.169-.1.626-.056.673.573.673.235,0,.47,0,.705,0a.169.169,0,0,1,.193.193c0,.364,0,.729,0,1.093,0,.172-.085.223-.241.221-.305,0-.611,0-.917,0-.321,0-.324,0-.324.336q0,2.716,0,5.432c0,.657.075.588-.575.592-.188,0-.376,0-.564,0Z"
        transform="translate(-452.993 -3.696)" fill="#fff" />
      <path id="Tracé_49" data-name="Tracé 49"
        d="M359.144,19.013c0-.741,0-1.482,0-2.223,0-.295,0-.3-.286-.3-.258,0-.517,0-.776,0-.228-.006-.251-.024-.256-.236q-.011-.511,0-1.023c0-.217.03-.24.25-.245.282-.007.564-.009.846,0,.167.006.228-.053.225-.223-.008-.564,0-1.129,0-1.693,0-.082,0-.165,0-.247a.183.183,0,0,1,.208-.218c.6,0,1.2,0,1.8,0,.175,0,.214.1.213.25,0,.576,0,1.153,0,1.729,0,.44-.034.4.4.4.306,0,.611,0,.917,0,.228.005.237.014.241.247q.01.494,0,.988c0,.247-.02.264-.26.269-.329.007-.658,0-.987,0-.3,0-.307.005-.307.318q0,1.782,0,3.563a1.443,1.443,0,0,0,.048.347.519.519,0,0,0,.526.427,6.787,6.787,0,0,0,.771-.013c.151,0,.213.055.212.2,0,.435,0,.87,0,1.305a.22.22,0,0,1-.2.243.2.2,0,0,1-.034.009,6.939,6.939,0,0,1-2.445-.146,1.5,1.5,0,0,1-1.09-1.477c-.013-.752,0-1.505,0-2.258Z"
        transform="translate(-332.541 -11.71)" fill="#fff" />
      <path id="Tracé_50" data-name="Tracé 50"
        d="M6.2,1298.544a2.246,2.246,0,0,0-.247,0,.541.541,0,0,1-.687-.427,1.432,1.432,0,0,0-1.359-.9,1.792,1.792,0,0,0-1.936,1.31,3.682,3.682,0,0,0,.039,2.554,1.86,1.86,0,0,0,2.624.974,1.716,1.716,0,0,0,.786-1.161c.085-.316.079-.318.412-.319.353,0,.705,0,1.058,0,.249,0,.295.044.255.3A3.273,3.273,0,0,1,6,1303.022a3.536,3.536,0,0,1-2.784.7,3.621,3.621,0,0,1-1.627-.618,3.551,3.551,0,0,1-1.42-2.121,4.63,4.63,0,0,1,.344-3.358,3.385,3.385,0,0,1,2.619-1.863,3.728,3.728,0,0,1,2.391.362,2.9,2.9,0,0,1,1.55,2.071c.058.281.012.339-.267.346-.2,0-.4,0-.6,0"
        transform="translate(0 -1204.172)" fill="#fff" />
      <path id="Tracé_51" data-name="Tracé 51"
        d="M265.468,1331.127c0,.634,0,1.244,0,1.854s.025.573-.583.57c-.27,0-.541,0-.811,0-.159,0-.245-.057-.235-.226,0-.07,0-.141,0-.212q0-3.335,0-6.671c0-.082,0-.165,0-.247a.17.17,0,0,1,.194-.194h1.129c.161,0,.234.088.234.244,0,.081,0,.162,0,.23a.094.094,0,0,0,.139-.027,2.32,2.32,0,0,1,2.886-.16,2.528,2.528,0,0,1,.974,1.507,3.923,3.923,0,0,1-.117,2.424,2.19,2.19,0,0,1-1.664,1.473,2.157,2.157,0,0,1-1.9-.411.462.462,0,0,0-.25-.154m2.464-2.135a2.706,2.706,0,0,0-.28-1.339,1.179,1.179,0,0,0-1.973-.041,2.84,2.84,0,0,0,.034,2.461,1.216,1.216,0,0,0,2-.178,2.328,2.328,0,0,0,.214-.9"
        transform="translate(-245.2 -1232.197)" fill="#fff" />
      <path id="Tracé_52" data-name="Tracé 52"
        d="M278.857,44.631c.144-.038.159-.145.211-.216a2.657,2.657,0,0,1,2.459-1.16c.262.019.3.062.307.324,0,.529.005,1.058,0,1.586,0,.209-.015.211-.23.186a3.6,3.6,0,0,0-1.088,0,1.852,1.852,0,0,0-1.5,1.689,6.821,6.821,0,0,0-.07,1.158c.006.917,0,1.833,0,2.75,0,.377,0,.38-.363.381-.529,0-1.057,0-1.586,0-.24,0-.254-.024-.265-.266,0-.07,0-.141,0-.212q0-3.455,0-6.91c0-.094,0-.188,0-.282,0-.129.057-.2.19-.2.575,0,1.151,0,1.726,0,.151,0,.211.074.211.216,0,.2,0,.4,0,.6,0,.113,0,.227,0,.353"
        transform="translate(-257.177 -40.192)" fill="#fff" />
      <path id="Tracé_53" data-name="Tracé 53"
        d="M508.61,1331.453a4.312,4.312,0,0,1-.766.029c-.188,0-.376,0-.564,0-.288-.005-.287-.007-.36-.312a.873.873,0,0,0-.048-.114,2.362,2.362,0,0,1-1.178.528,2.591,2.591,0,0,1-1.84-.259,1.358,1.358,0,0,1-.462-.474,1.656,1.656,0,0,1,.814-2.423,5.869,5.869,0,0,1,1.065-.219c.324-.05.654-.059.973-.141.057-.015.114-.029.169-.048.284-.1.417-.263.407-.5a.6.6,0,0,0-.479-.616,2.43,2.43,0,0,0-.808,0,.692.692,0,0,0-.545.5c-.1.274-.1.274-.388.275-.341,0-.682.005-1.023,0-.236,0-.262-.046-.217-.277a1.8,1.8,0,0,1,1.235-1.418,4.009,4.009,0,0,1,1.872-.193,3.6,3.6,0,0,1,1.058.237,1.382,1.382,0,0,1,.895,1.314c.014.906,0,1.811,0,2.717a3.323,3.323,0,0,0,.185,1.406m-1.785-2.571c-.194.05-.353.088-.509.132s-.325.045-.486.075a2.571,2.571,0,0,0-.711.189.7.7,0,0,0-.35.744.6.6,0,0,0,.527.5,1.833,1.833,0,0,0,.8-.036.912.912,0,0,0,.647-.642,2.061,2.061,0,0,0,.08-.958"
        transform="translate(-467.614 -1232.087)" fill="#fff" />
      <path id="Tracé_54" data-name="Tracé 54"
        d="M532.7,1485.291q0,2.1,0,4.195c0,.094,0,.188,0,.282,0,.133-.072.188-.2.187h-1.8a.173.173,0,0,1-.2-.191c0-.082,0-.165,0-.247q0-4.23,0-8.459c0-.431,0-.432.416-.432q.7,0,1.409,0c.37,0,.373,0,.373.366q0,1.8,0,3.6Z"
        transform="translate(-493.025 -1376.025)" fill="#fff" />
      <path id="Tracé_55" data-name="Tracé 55"
        d="M774.928,1326.671a2.1,2.1,0,0,1,1.775-.821,1.945,1.945,0,0,1,1.31.423,1.808,1.808,0,0,1,.589,1.24c.116,1.254.038,2.512.055,3.768,0,.283-.015.294-.3.3-.352,0-.7.005-1.057,0-.241,0-.261-.022-.263-.266-.005-.6,0-1.2,0-1.8q0-.617,0-1.234a2.487,2.487,0,0,0-.058-.487.758.758,0,0,0-.661-.641.984.984,0,0,0-1.227.718,2.673,2.673,0,0,0-.087.7c0,.858,0,1.716,0,2.574,0,.082,0,.164,0,.247a.171.171,0,0,1-.2.192h-1.233a.173.173,0,0,1-.194-.2c0-.07,0-.141,0-.211q0-2.38,0-4.76c0-.059,0-.118,0-.176,0-.155.068-.246.23-.247l1.128,0c.154,0,.2.085.2.225s0,.258,0,.459"
        transform="translate(-718.735 -1232.183)" fill="#fff" />
      <path id="Tracé_56" data-name="Tracé 56"
        d="M682.033,1331.726a2.48,2.48,0,0,1-.91-.1,2.573,2.573,0,0,1-1.854-1.9,3.327,3.327,0,0,1,.289-2.556,2.539,2.539,0,0,1,1.923-1.272,3.312,3.312,0,0,1,1.792.189,2.358,2.358,0,0,1,1.344,1.272,3.246,3.246,0,0,1-.2,3.223,2.493,2.493,0,0,1-2.007,1.134c-.128.01-.258,0-.381,0m1.28-2.881a2.506,2.506,0,0,0-.085-.833,1.228,1.228,0,0,0-1.813-.766,1.326,1.326,0,0,0-.616,1.014,2.829,2.829,0,0,0,0,1.115,1.239,1.239,0,0,0,1.727,1.058.953.953,0,0,0,.545-.471,1.913,1.913,0,0,0,.245-1.116"
        transform="translate(-631.16 -1232.193)" fill="#fff" />
      <path id="Tracé_57" data-name="Tracé 57"
        d="M109.847,1328.779a2.7,2.7,0,0,1,.27-1.392,2.562,2.562,0,0,1,1.742-1.411,3.4,3.4,0,0,1,1.9.064,2.433,2.433,0,0,1,1.63,1.583,3.371,3.371,0,0,1-.2,2.826,2.275,2.275,0,0,1-1.25,1.079,3.285,3.285,0,0,1-2.664-.085,2.582,2.582,0,0,1-1.429-2.232c-.014-.14,0-.282,0-.431m1.566.038a4.491,4.491,0,0,0,.04.491,2.74,2.74,0,0,0,.145.507,1,1,0,0,0,.726.661,1.172,1.172,0,0,0,1.539-.8,2.63,2.63,0,0,0-.064-1.894,1.208,1.208,0,0,0-2.136-.092,2.349,2.349,0,0,0-.251,1.124"
        transform="translate(-102.082 -1232.203)" fill="#fff" />
      <path id="Tracé_58" data-name="Tracé 58"
        d="M359.334,1328.614a2.836,2.836,0,0,1-.5,1.828,2.511,2.511,0,0,1-1.822,1.073,3.91,3.91,0,0,1-1.3-.042,2.654,2.654,0,0,1-2.116-2.56,3.455,3.455,0,0,1,.281-1.717,2.562,2.562,0,0,1,1.837-1.452,3.1,3.1,0,0,1,2.22.269,2.575,2.575,0,0,1,1.4,2.143,4.5,4.5,0,0,1,0,.458m-1.574,0a2.26,2.26,0,0,0-.226-1.087,1.218,1.218,0,0,0-2.044-.129,2.483,2.483,0,0,0-.064,2.323,1.017,1.017,0,0,0,1.021.6,1.093,1.093,0,0,0,1.075-.587,2.192,2.192,0,0,0,.237-1.123"
        transform="translate(-328.609 -1232)" fill="#fff" />
      <path id="Tracé_59" data-name="Tracé 59"
        d="M576.868,50.222q0,1.729,0,3.458c0,.094,0,.188,0,.282,0,.131-.066.192-.2.191H574.8a.172.172,0,0,1-.195-.194c0-.082,0-.165,0-.247q0-3.493,0-6.986c0-.44,0-.44.446-.441.494,0,.987,0,1.481,0,.329,0,.335.006.336.337q0,1.8,0,3.6"
        transform="translate(-534.01 -43.015)" fill="#fff" />
      <path id="Tracé_60" data-name="Tracé 60"
        d="M446.757,50.252q0,1.727,0,3.454c0,.094,0,.188,0,.282a.172.172,0,0,1-.192.2h-1.831c-.132,0-.189-.073-.189-.2,0-.07,0-.141,0-.211q0-3.524,0-7.048c0-.071,0-.141,0-.211a.168.168,0,0,1,.192-.194h1.831c.133,0,.19.068.189.2,0,.094,0,.188,0,.282q0,1.727,0,3.454"
        transform="translate(-413.136 -43.048)" fill="#fff" />
      <path id="Tracé_61" data-name="Tracé 61"
        d="M586.346,1309.148c0-.47,0-.94,0-1.41,0-.317,0-.317-.307-.323-.106,0-.211,0-.317,0-.274-.008-.284-.015-.291-.274-.005-.2-.006-.4,0-.6.007-.225.024-.24.242-.251.117-.006.235,0,.352,0,.315-.005.318-.006.321-.31,0-.341,0-.682,0-1.022,0-.281.019-.3.3-.3.364,0,.728,0,1.092,0,.165,0,.234.067.232.23,0,.341,0,.682,0,1.022,0,.379,0,.379.4.381.153,0,.305,0,.458,0s.23.078.225.239c-.006.223,0,.447,0,.67,0,.147-.066.216-.211.216-.211,0-.423.006-.634,0-.162,0-.234.06-.234.227,0,.87,0,1.739.006,2.609,0,.289.121.389.419.408.152.01.305,0,.458,0,.134,0,.194.058.194.188,0,.294,0,.588,0,.881,0,.127-.054.207-.183.208a7.841,7.841,0,0,1-1.438-.039,1.212,1.212,0,0,1-1.082-1.336c-.016-.469,0-.94,0-1.41"
        transform="translate(-544.068 -1212.485)" fill="#fff" />
      <path id="Tracé_62" data-name="Tracé 62"
        d="M449.3,1326.841a2.456,2.456,0,0,1,1.036-.851,1.773,1.773,0,0,1,.755-.132c.276.018.323.076.326.345,0,.329.006.658,0,.986-.005.2-.039.231-.237.189a1.752,1.752,0,0,0-.9.051,1.4,1.4,0,0,0-.892,1.385c-.012.74,0,1.48,0,2.22,0,.617.05.546-.545.55-.282,0-.564,0-.845,0-.161,0-.243-.06-.238-.226,0-.07,0-.141,0-.211q0-2.343,0-4.686c0-.082,0-.165,0-.247a.2.2,0,0,1,.218-.221c.364,0,.728,0,1.092,0a.211.211,0,0,1,.235.241c0,.175,0,.351,0,.606"
        transform="translate(-416.122 -1232.189)" fill="#fff" />
      <path id="Tracé_63" data-name="Tracé 63"
        d="M204.262,1326.688a3.735,3.735,0,0,1,.7-.612,2.389,2.389,0,0,1,.892-.306.8.8,0,0,1,.348.036.188.188,0,0,1,.161.2q0,.564,0,1.129c0,.162-.089.2-.232.165a1.633,1.633,0,0,0-.7-.008,1.26,1.26,0,0,0-1.021.955,2.179,2.179,0,0,0-.085.661c0,.717,0,1.435,0,2.152,0,.082,0,.165,0,.247a.171.171,0,0,1-.2.193h-1.2c-.112,0-.177-.048-.178-.167,0-.094,0-.188,0-.282q0-2.346,0-4.692c0-.071,0-.141,0-.212-.01-.162.061-.239.226-.238.353,0,.705,0,1.058,0,.168,0,.23.078.224.238-.006.182,0,.364,0,.545"
        transform="translate(-188.43 -1232.103)" fill="#fff" />
      <path id="Tracé_64" data-name="Tracé 64"
        d="M648.02,1330.545q0,1.18,0,2.361c0,.082,0,.165,0,.247,0,.109-.052.18-.169.181-.423,0-.845,0-1.268,0-.135,0-.186-.076-.186-.2,0-.059,0-.117,0-.176q0-2.414,0-4.828c0-.035,0-.071,0-.106.01-.265.016-.275.285-.28q.51-.008,1.021,0c.284,0,.319.04.321.334,0,.822,0,1.645,0,2.467"
        transform="translate(-600.726 -1233.941)" fill="#fff" />
      <path id="Tracé_65" data-name="Tracé 65"
        d="M575.765,3.579c.281,0,.563,0,.844,0,.165,0,.229.071.228.234,0,.457,0,.915,0,1.372,0,.22-.025.242-.247.244q-.879.008-1.759,0c-.221,0-.249-.027-.252-.241q-.011-.668,0-1.337c0-.221.051-.264.276-.27.3-.008.61,0,.914,0"
        transform="translate(-533.978 -3.324)" fill="#fff" />
      <path id="Tracé_66" data-name="Tracé 66"
        d="M445.638,3.6c.293,0,.586,0,.879,0,.163,0,.23.071.229.234,0,.469,0,.938,0,1.407,0,.148-.065.212-.212.211q-.9,0-1.793,0c-.148,0-.211-.066-.21-.213,0-.469,0-.938,0-1.407,0-.165.069-.234.231-.232.293,0,.586,0,.879,0"
        transform="translate(-413.124 -3.343)" fill="#fff" />
      <path id="Tracé_67" data-name="Tracé 67"
        d="M796.994,1088.129a1.817,1.817,0,0,1-1.825-1.837,1.844,1.844,0,0,1,3.688,0,1.81,1.81,0,0,1-1.862,1.834m.936-.718a1.328,1.328,0,0,0,.49-1.25,1.414,1.414,0,1,0-.685,1.439.394.394,0,0,0,.2-.192Z"
        transform="translate(-738.993 -1007.871)" fill="#fff" />
      <path id="Tracé_68" data-name="Tracé 68"
        d="M647.2,1299.814c-.188,0-.376,0-.564,0-.159,0-.242-.055-.239-.224q.006-.423,0-.846c0-.158.056-.24.225-.238q.582.007,1.163,0c.16,0,.242.058.24.224,0,.282.006.565,0,.846-.006.21-.032.229-.259.236-.188.006-.376,0-.564,0"
        transform="translate(-600.727 -1206.772)" fill="#fff" />
      <path id="Tracé_69" data-name="Tracé 69"
        d="M267.385,429.331a.8.8,0,0,0,.335.119,8.573,8.573,0,0,1,3.162,1.492,7.545,7.545,0,0,1,2.593,3.852,10.048,10.048,0,0,1,.342,3.8,9.546,9.546,0,0,1-1.459,4.4,9.271,9.271,0,0,1-1.7,2.011,9.415,9.415,0,0,1-3.077,1.815,11.916,11.916,0,0,1-3.229.656c-.7.048-1.408.049-2.112.049q-7.443,0-14.885,0c-.527,0-.492.033-.492-.5q0-16.658,0-33.316c0-.556-.033-.51.52-.51q6.667,0,13.333,0c.845,0,1.692.018,2.534.079a19.233,19.233,0,0,1,3.542.52,7.083,7.083,0,0,1,2.6,1.355,8.037,8.037,0,0,1,1.847,2.11,7.863,7.863,0,0,1,1.05,2.784,9.175,9.175,0,0,1,.127,2.176,8.362,8.362,0,0,1-1.115,3.781,7.7,7.7,0,0,1-2.415,2.52,8.215,8.215,0,0,1-1.5.8m-9.65,14.242c1.787,0,3.573,0,5.36,0a6.86,6.86,0,0,0,2.644-.505,5.241,5.241,0,0,0,3.122-3.286,7.073,7.073,0,0,0,.3-3.194,4.706,4.706,0,0,0-2.643-3.822,8.491,8.491,0,0,0-3.805-.888c-2.7-.044-5.407-.017-8.11-.019q-1.428,0-2.856,0c-.27,0-.27.007-.277.275,0,.047,0,.094,0,.141v10.867c0,.059,0,.118,0,.176.009.244.01.244.268.253.082,0,.165,0,.247,0h5.748m-6.263-21.06v5.011c0,.082,0,.165,0,.247-.008.141.064.188.193.18.059,0,.118,0,.176,0,3.055-.031,6.111.064,9.165-.051.457-.017.913-.024,1.37-.069a8.564,8.564,0,0,0,2.846-.735,4.094,4.094,0,0,0,1.906-1.716,5.654,5.654,0,0,0,.629-2.145,7.286,7.286,0,0,0-.168-2.514,3.96,3.96,0,0,0-1.811-2.584,6.09,6.09,0,0,0-1.66-.67,14.183,14.183,0,0,0-3.457-.342c-2.927-.031-5.854-.01-8.782-.01-.071,0-.142.005-.212,0-.159-.013-.206.069-.2.212.005.082,0,.165,0,.247v4.94"
        transform="translate(-229.42 -384.013)" fill="#fff" />
      <path id="Tracé_70" data-name="Tracé 70"
        d="M812.708,1096.919a.509.509,0,0,1-.6-.312c-.078-.157-.189-.3-.277-.45a.235.235,0,0,0-.291-.134c-.127.037-.084.152-.088.239-.007.153,0,.306,0,.459a.193.193,0,1,1-.387,0c0-.6,0-1.2,0-1.8,0-.107.04-.19.159-.189a4.206,4.206,0,0,1,.983.034c.235.057.42.174.437.439s.053.543-.268.7c-.2.094-.181.112-.062.319a2.061,2.061,0,0,1,.389.7Zm-.936-1.266a1.853,1.853,0,0,0,.3-.03.249.249,0,0,0,.192-.223.252.252,0,0,0-.1-.244,1.266,1.266,0,0,0-.645-.043.1.1,0,0,0-.044.05.743.743,0,0,0,.006.412c.048.116.184.061.3.077"
        transform="translate(-753.768 -1017.382)" fill="#fff" />
    </g>
  </g>
</svg>
