<?xml version="1.0" ?><svg data-name="Layer 1" id="Layer_1" viewBox="0 0 32 32" xmlns="http://www.w3.org/2000/svg"><path d="M16,30a1,1,0,0,1,0-2,12,12,0,0,0,6.43-1.86,1,1,0,1,1,1.07,1.68A13.9,13.9,0,0,1,16,30Z"/><path d="M27,23.93a1,1,0,0,1-.85-1.53A12,12,0,0,0,28,16a1,1,0,0,1,2,0,14,14,0,0,1-2.15,7.46A1,1,0,0,1,27,23.93Z"/><path d="M16,30A14,14,0,1,1,30,16a1,1,0,0,1-2,0A12,12,0,1,0,16,28a1,1,0,0,1,0,2Z"/><path d="M29,30a1.25,1.25,0,0,1-.32-.05l-6-2a1,1,0,1,1,.64-1.9l6,2A1,1,0,0,1,30,29.32,1,1,0,0,1,29,30Z"/><path d="M29,30a1,1,0,0,1-.95-.68l-2-6a1,1,0,0,1,1.9-.64l2,6A1,1,0,0,1,29.32,30,1.25,1.25,0,0,1,29,30Z"/><path d="M16,18a2,2,0,1,1,2-2A2,2,0,0,1,16,18Zm0-2h0Zm0,0h0Zm0,0h0Zm0,0h0Zm0,0h0Zm0,0h0Zm0,0h0Zm0,0h0Z"/><path d="M23,18a2,2,0,1,1,2-2A2,2,0,0,1,23,18Zm0-2h0Zm0,0h0Zm0,0h0Zm0,0h0Zm0,0h0Zm0,0h0Zm0,0h0Zm0,0h0Z"/><path d="M9,18a2,2,0,1,1,2-2A2,2,0,0,1,9,18Zm0-2H9Zm0,0H9Zm0,0H9Zm0,0H9Zm0,0H9Zm0,0H9Zm0,0H9Zm0,0H9Z"/></svg>