<?xml version="1.0" ?><svg data-name="Layer 1" id="Layer_1" viewBox="0 0 32 32" xmlns="http://www.w3.org/2000/svg"><path d="M19,14.46c-.6.15-1.19.28-1.78.37A10.46,10.46,0,0,1,15.6,15l-1.44-1.08.86-.05.81-.1c.27,0,.54-.08.82-.14l.88-.21-1.6-1.2c-.42.07-.85.13-1.3.18a7.39,7.39,0,0,1-1.33,0A5.9,5.9,0,0,1,12,12.15a4.1,4.1,0,0,1-1.24-.65,2,2,0,0,1-.65-.71.77.77,0,0,1,0-.66,1.42,1.42,0,0,1,.53-.62A5,5,0,0,1,11.66,9L10.9,8.4,12.32,8l.74.55c.45-.11.93-.2,1.44-.28A13.34,13.34,0,0,1,16,8.1l1.45,1.09a17.94,17.94,0,0,0-3,.42l1.62,1.23c.42-.07.86-.13,1.31-.17a7.39,7.39,0,0,1,1.33,0,6,6,0,0,1,1.31.26,4,4,0,0,1,1.23.64c.62.47.85.91.67,1.33A2.68,2.68,0,0,1,20.33,14l.76.57-1.42.4Zm-6.33-3.57a1.5,1.5,0,0,0,.75.27,4.53,4.53,0,0,0,1.12-.06L13.08,10c-.39.16-.61.3-.66.44S12.44,10.75,12.62,10.89Zm6.71,1.24a1.38,1.38,0,0,0-.73-.27,4.21,4.21,0,0,0-1.08.06l1.38,1C19.56,12.68,19.71,12.41,19.33,12.13Z"/><path d="M16,18C8.59,18,3,15.21,3,11.5S8.59,5,16,5s13,2.79,13,6.5S23.41,18,16,18ZM16,7C9.52,7,5,9.37,5,11.5S9.52,16,16,16s11-2.37,11-4.5S22.48,7,16,7Z"/><path d="M17.5,19c-.49,0-1,0-1.5,0s-1,0-1.5,0C9.08,18.7,4.84,17,3,14.44v.06C3,18.21,8.59,21,16,21s13-2.79,13-6.5v-.06C27.16,17,22.92,18.7,17.5,19Z"/><path d="M17.5,22c-.49,0-1,0-1.5,0s-1,0-1.5,0C9.08,21.7,4.84,20,3,17.44v.06C3,21.21,8.59,24,16,24s13-2.79,13-6.5v-.09C27.16,20,22.92,21.7,17.5,22Z"/><path d="M17.5,25c-.49,0-1,0-1.5,0s-1,0-1.5,0C9.08,24.7,4.84,23,3,20.44v.06C3,24.21,8.59,27,16,27s13-2.79,13-6.5v-.1C27.16,23,22.92,24.7,17.5,25Z"/></svg>