<svg xmlns="http://www.w3.org/2000/svg" width="70" height="70" viewBox="0 0 70 70">
  <g id="Groupe_18" data-name="Groupe 18" transform="translate(-0.474)">
    <g id="layer1" transform="translate(17.915 20.933)">
      <path id="path3244" d="M3.245,1.786A2.461,2.461,0,0,0,.793,4.23v21.2a1.647,1.647,0,0,0,1.633,1.631H5.787a3.661,3.661,0,0,0,7.143,0h9.986a3.66,3.66,0,0,0,7.141,0h3.363a1.646,1.646,0,0,0,1.631-1.631V16.527A.826.826,0,0,0,34.905,16q-3.666-5.308-7.339-10.6a.814.814,0,0,0-.674-.349h-6.52V4.23a2.461,2.461,0,0,0-2.451-2.443Zm0,1.631H7.319v7.34a.816.816,0,0,0,1.271.68l1.993-1.332,1.993,1.332a.816.816,0,0,0,1.271-.68V3.418h4.075a.8.8,0,0,1,.819.812v15.5H2.426V4.23a.8.8,0,0,1,.819-.812Zm5.707,0h3.262V9.233l-1.18-.788a.816.816,0,0,0-.9,0l-1.18.788ZM20.373,6.681h6.091l1.693,2.443H23.629a.816.816,0,0,0-.812.812v6.526a.816.816,0,0,0,.812.82h9.79v2.443H20.373Zm4.075,4.076h4.841l3.39,4.893H24.448ZM13.027,13.2a.816.816,0,0,0,0,1.631h3.264a.816.816,0,1,0,0-1.631Zm0,3.262a.816.816,0,0,0,0,1.633h3.264a.816.816,0,1,0,0-1.633Zm-10.6,4.895H33.419v4.076H30.055a3.658,3.658,0,0,0-7.138,0H12.928a3.659,3.659,0,0,0-7.139,0H2.426Zm6.935,2.854a2.037,2.037,0,1,1-2.042,2.04A2.024,2.024,0,0,1,9.361,24.213Zm17.128,0a2.037,2.037,0,1,1-2.042,2.04A2.024,2.024,0,0,1,26.49,24.213Z" transform="translate(-0.793 -1.786)"/>
    </g>
  </g>
</svg>
