<svg xmlns="http://www.w3.org/2000/svg" width="62" height="62" viewBox="0 0 62 62"><defs><style>.a{fill:#f7ba88;}</style></defs><g transform="translate(-16 -16)"><path class="a" d="M67.667,150.5H64.089l-1.757-2.08A52.682,52.682,0,0,1,55,137.067h1.3V135H54.053a51.975,51.975,0,0,1-2.971-9.3h1.072v-2.067H50.668c-.155-.9-.3-1.808-.413-2.713L48.137,104H45.825l-2.118,16.921c-.116.9-.245,1.808-.413,2.713h-1.46V125.7h1.072a51.975,51.975,0,0,1-2.971,9.3H37.7v2.067H39a52.856,52.856,0,0,1-7.337,11.354l-1.757,2.08H26.333v2.067H16v2.067H78v-2.067H67.667Zm-21.7-33.067h2.067v4.133H45.967Zm-.775,10.333h3.617L50.875,135H48.731l-1.472-5.167h-.517L45.269,135H43.125Zm-13.162,24.8,7.5-9.752a9.431,9.431,0,0,1,14.945,0l7.5,9.752Z" transform="translate(0 -76.633)"/><path class="a" d="M243.707,25.3l.426-.426V22.949L243.1,22.6V16h-2.067v6.6L240,22.949v1.925l.426.426Z" transform="translate(-195.067)"/><path class="a" d="M369.55,41.3h11.367a1.555,1.555,0,0,0,1.55-1.55V38.717a1.555,1.555,0,0,0-1.55-1.55A3.611,3.611,0,0,1,377.3,33.55,1.555,1.555,0,0,0,375.75,32h-1.033a1.555,1.555,0,0,0-1.55,1.55,3.611,3.611,0,0,1-3.617,3.617,1.555,1.555,0,0,0-1.55,1.55V39.75A1.555,1.555,0,0,0,369.55,41.3Z" transform="translate(-306.533 -13.933)"/><path class="a" d="M361.033,183.233h9.3a1.036,1.036,0,0,0,1.033-1.033v-1.033a1.036,1.036,0,0,0-1.033-1.033,3.109,3.109,0,0,1-3.1-3.1A1.036,1.036,0,0,0,366.2,176h-1.033a1.036,1.036,0,0,0-1.033,1.033,3.109,3.109,0,0,1-3.1,3.1A1.036,1.036,0,0,0,360,181.167V182.2A1.036,1.036,0,0,0,361.033,183.233Z" transform="translate(-299.567 -139.333)"/><path class="a" d="M41.3,225.55A1.555,1.555,0,0,0,39.75,224H38.717a1.555,1.555,0,0,0-1.55,1.55,3.611,3.611,0,0,1-3.617,3.617,1.555,1.555,0,0,0-1.55,1.55v1.033a1.555,1.555,0,0,0,1.55,1.55H44.917a1.555,1.555,0,0,0,1.55-1.55v-1.033a1.555,1.555,0,0,0-1.55-1.55A3.611,3.611,0,0,1,41.3,225.55Z" transform="translate(-13.933 -181.133)"/></g></svg>