<svg xmlns="http://www.w3.org/2000/svg" viewBox="0 0 21.458 20.478"><g transform="translate(0 0)"><path d="M19.753.668H1.707A1.7,1.7,0,0,0,0,2.373V19.441a1.705,1.705,0,0,0,1.707,1.7H19.753a1.708,1.708,0,0,0,1.705-1.7V2.373A1.707,1.707,0,0,0,19.753.668Zm-5.329,6.08a2.44,2.44,0,0,0-1.237-.465,1.487,1.487,0,0,0-.994.291,1.46,1.46,0,0,0-.283,1.048v.764h2.314l-.5,2.127H11.91v7.069H9V10.513H7.646V8.386H9V7.573a4,4,0,0,1,.3-1.789,2.54,2.54,0,0,1,1.137-1.154,5.24,5.24,0,0,1,2.176-.4,8.265,8.265,0,0,1,2.332.513Z" transform="translate(0 -0.668)"/></g></svg>
