<svg xmlns="http://www.w3.org/2000/svg" viewBox="0 0 19.176 15.275">
  <g id="Layer_15" data-name="Layer 15" transform="translate(23.968 331.003) rotate(90)">
    <path id="Tracé_34" data-name="Tracé 34"
      d="M3.281,19.176a.857.857,0,0,0,.857-.857V6.447a3.281,3.281,0,1,0-1.713,0V18.319A.857.857,0,0,0,3.281,19.176ZM1.713,3.3A1.567,1.567,0,1,1,3.281,4.863,1.567,1.567,0,0,1,1.713,3.3Z"
      transform="translate(-322.29 4.793)" fill="currentColor" />
    <path id="Tracé_35" data-name="Tracé 35"
      d="M2.418,12.728V18.3a.857.857,0,1,0,1.713,0V12.728a3.263,3.263,0,0,0,0-6.3V.857a.857.857,0,0,0-1.713,0V6.424a3.263,3.263,0,0,0,0,6.3Zm.857-4.72A1.567,1.567,0,1,1,1.716,9.576,1.567,1.567,0,0,1,3.275,8.009Z"
      transform="translate(-331.003 4.816)" fill="currentColor" />
  </g>
</svg>
