<svg xmlns="http://www.w3.org/2000/svg" viewBox="0 0 100 100"><defs><clipPath id="a"><path d="M0 0h100v100H0z"/></clipPath></defs><g clip-path="url(#a)"><path d="M72.702.001h-44.8a27.628 27.628 0 00-27.6 27.6v44.8a27.627 27.627 0 0027.6 27.6h44.8a27.628 27.628 0 0027.6-27.6v-44.8a27.628 27.628 0 00-27.6-27.6zm18.728 72.4A18.745 18.745 0 0172.702 91.13h-44.8A18.744 18.744 0 019.174 72.401v-44.8A18.745 18.745 0 0127.902 8.874h44.8A18.746 18.746 0 0191.43 27.601v44.8z"/><path data-name="Tracé 23" d="M50.301 23.757a26.245 26.245 0 1026.246 26.246 26.275 26.275 0 00-26.246-26.246zm0 43.452A17.208 17.208 0 1167.51 50.002a17.227 17.227 0 01-17.209 17.207z"/><path data-name="Tracé 24" d="M77.23 16.76a6.375 6.375 0 104.511 1.867 6.4 6.4 0 00-4.511-1.867z"/></g></svg>
