<svg xmlns="http://www.w3.org/2000/svg" viewBox="0 0 20.547 20.547">
  <path
    d="M18.492,0H2.055A2.061,2.061,0,0,0,0,2.055V18.492a2.061,2.061,0,0,0,2.055,2.055H18.492a2.061,2.061,0,0,0,2.055-2.055V2.055A2.061,2.061,0,0,0,18.492,0ZM6.164,17.465H3.082V8.219H6.164ZM4.623,6.472A1.849,1.849,0,1,1,6.472,4.623,1.842,1.842,0,0,1,4.623,6.472ZM17.465,17.465H14.383V12.02a1.541,1.541,0,1,0-3.082,0v5.445H8.219V8.219H11.3V9.452a3.319,3.319,0,0,1,2.568-1.438,3.64,3.64,0,0,1,3.6,3.6Z"
    fill="currentColor" />
</svg>
