<svg xmlns="http://www.w3.org/2000/svg" xmlns:xlink="http://www.w3.org/1999/xlink" width="70" height="70" viewBox="0 0 70 70">
  <defs>
    <clipPath id="clip-path">
      <rect id="Rectangle_145" data-name="Rectangle 145" width="34.537" height="34.9" fill="none"/>
    </clipPath>
  </defs>
  <g id="Groupe_19" data-name="Groupe 19" transform="translate(-0.132)">
    <g id="Groupe_57" data-name="Groupe 57" transform="translate(19.364 19.218)">
      <g id="Groupe_57-2" data-name="Groupe 57" clip-path="url(#clip-path)">
        <path id="Tracé_27" data-name="Tracé 27" d="M124.645,9.114a3.361,3.361,0,0,0,2.662-1.432,5.222,5.222,0,0,0,.983-3.125,5.222,5.222,0,0,0-.983-3.125,3.191,3.191,0,0,0-5.325,0A5.222,5.222,0,0,0,121,4.557a5.222,5.222,0,0,0,.983,3.125,3.361,3.361,0,0,0,2.662,1.432m0-7.291c.988,0,1.823,1.252,1.823,2.734s-.835,2.734-1.823,2.734-1.823-1.252-1.823-2.734.835-2.734,1.823-2.734" transform="translate(-113.648)"/>
        <path id="Tracé_28" data-name="Tracé 28" d="M274.645,9.114a3.361,3.361,0,0,0,2.662-1.432,5.222,5.222,0,0,0,.983-3.125,5.222,5.222,0,0,0-.983-3.125,3.191,3.191,0,0,0-5.325,0A5.222,5.222,0,0,0,271,4.557a5.222,5.222,0,0,0,.983,3.125,3.361,3.361,0,0,0,2.662,1.432m0-7.291c.988,0,1.823,1.252,1.823,2.734s-.835,2.734-1.823,2.734-1.823-1.252-1.823-2.734.835-2.734,1.823-2.734" transform="translate(-254.535)"/>
        <path id="Tracé_29" data-name="Tracé 29" d="M6.308,128.681a5.457,5.457,0,0,0,0-6.249A3.361,3.361,0,0,0,3.645,121a3.361,3.361,0,0,0-2.662,1.432,5.457,5.457,0,0,0,0,6.249,3.361,3.361,0,0,0,2.662,1.432,3.361,3.361,0,0,0,2.662-1.432m-2.662-.39c-.988,0-1.823-1.252-1.823-2.734s.835-2.734,1.823-2.734,1.823,1.252,1.823,2.734-.835,2.734-1.823,2.734" transform="translate(0 -113.648)"/>
        <path id="Tracé_30" data-name="Tracé 30" d="M398.308,122.432a3.191,3.191,0,0,0-5.325,0,5.457,5.457,0,0,0,0,6.249,3.191,3.191,0,0,0,5.325,0,5.457,5.457,0,0,0,0-6.249m-2.662,5.859c-.988,0-1.823-1.252-1.823-2.734s.835-2.734,1.823-2.734,1.823,1.252,1.823,2.734-.835,2.734-1.823,2.734" transform="translate(-368.183 -113.648)"/>
        <path id="Tracé_31" data-name="Tracé 31" d="M380.977,376.1a.908.908,0,0,1-.644-.267l-3-3a.911.911,0,0,1,1.289-1.289l2.357,2.357,4.183-4.183a.911.911,0,0,1,1.289,1.289l-4.827,4.827a.908.908,0,0,1-.644.267" transform="translate(-354.155 -347.005)"/>
        <path id="Tracé_32" data-name="Tracé 32" d="M90.986,216.651H80.943c-.024-.072-.046-.144-.064-.217a6.66,6.66,0,0,0-2.947-4.114,10.2,10.2,0,0,0-10.036,0,6.66,6.66,0,0,0-2.947,4.114,2.986,2.986,0,0,1-1.051,1.618l-.29.224c-1.7,1.306-3.042,2.338-2.353,5.4a7.282,7.282,0,0,0,5.641,5.467,7.361,7.361,0,0,0,4.375-.463,4.119,4.119,0,0,1,3.286,0,7.274,7.274,0,0,0,2.915.605,7.609,7.609,0,0,0,1.46-.142l.011,0a9.128,9.128,0,0,0,2.164,2.183,11.959,11.959,0,0,0,3.4,1.719.911.911,0,0,0,.5,0,11.959,11.959,0,0,0,3.4-1.719,7.829,7.829,0,0,0,3.488-6.461v-7.3a.911.911,0,0,0-.911-.911m-15.7,10.361a5.947,5.947,0,0,0-4.744,0,5.546,5.546,0,0,1-3.3.345,5.434,5.434,0,0,1-4.212-4.078c-.434-1.93.057-2.307,1.685-3.559l.295-.227a4.772,4.772,0,0,0,1.705-2.623c.624-2.534,2.94-4.047,6.2-4.047,3.16,0,5.435,1.426,6.136,3.828h-.52a.911.911,0,0,0-.911.911v7.3a7.52,7.52,0,0,0,.441,2.568,5.5,5.5,0,0,1-2.774-.422m14.788-2.147a5.987,5.987,0,0,1-2.7,4.957,10.5,10.5,0,0,1-2.62,1.387,10.413,10.413,0,0,1-2.576-1.356,6,6,0,0,1-2.739-4.988v-6.392H90.074Z" transform="translate(-57.36 -198.18)"/>
      </g>
    </g>
  </g>
</svg>
