<svg xmlns="http://www.w3.org/2000/svg" viewBox="0 0 100 100"><g clip-path="url(#a)"><path d="M32.033 100H10A10.03 10.03 0 010 90V10A10.029 10.029 0 0110 0h80a10.029 10.029 0 0110 10v80a10.03 10.03 0 01-10 10H35.07a30.177 30.177 0 006.25-11.1 101.8 101.8 0 003.426-13.923c.965.586 1.812 1.173 2.631 1.741 2.437 1.69 4.542 3.15 8.246 3.436.614.047 1.232.071 1.835.071a21.4 21.4 0 0016.474-7.7c6.136-7.036 9.043-18 7.585-28.622A23.961 23.961 0 0071.252 27.2a31.087 31.087 0 00-9.263-4.354 39.062 39.062 0 00-10.84-1.485 43.765 43.765 0 00-4.847.272 31.674 31.674 0 00-9.889 2.818 32.537 32.537 0 00-8.672 5.9 29.107 29.107 0 00-6.253 8.53A26.933 26.933 0 0018.856 49.6c-.188 5.144.523 9.113 2.175 12.134a12.227 12.227 0 003.569 4.087 15.136 15.136 0 005.643 2.42c2.573-4.541 1.21-6.786-.232-9.162a11.653 11.653 0 01-1.84-4.3 20.741 20.741 0 01.61-9.433 21.864 21.864 0 014.328-7.823 25.391 25.391 0 018.465-6.435 24.227 24.227 0 0110.243-2.36 19.439 19.439 0 0114.156 5.855c2.632 2.672 4.256 7.06 4.574 12.353a34.377 34.377 0 01-2.461 14.832 20.492 20.492 0 01-4.976 7.384A10.78 10.78 0 0155.8 72.1a11.432 11.432 0 01-2.247-.229 6.406 6.406 0 01-4.6-2.824c-.837-1.422-1.037-3.382-.609-5.992a56.168 56.168 0 012.019-7.48c1.057-3.325 2.151-6.764 2.235-9.586a7.237 7.237 0 00-.74-3.743 5.485 5.485 0 00-2.969-2.483 8.1 8.1 0 00-2.976-.6c-2.748 0-5.211 1.67-6.936 4.7a17.568 17.568 0 00-2.147 7.861 14.212 14.212 0 001.705 7.721c-.718 3.541-1.674 7.105-2.6 10.552-2.463 9.179-5.009 18.671-3.9 30.006z" /></g></svg>
