<svg xmlns="http://www.w3.org/2000/svg" width="70" height="70" viewBox="0 0 70 70">
  <g id="Groupe_19" data-name="Groupe 19" transform="translate(-0.132)">
    <g id="leaf" transform="translate(17.645 17.647)">
      <g id="Groupe_21" data-name="Groupe 21" transform="translate(10.818 0)">
        <g id="Groupe_20" data-name="Groupe 20">
          <path id="Tracé_23" data-name="Tracé 23" d="M182.74,1.306a.768.768,0,0,0-.554-.554C174.539-1.195,166.4.793,159.86,6.2a.767.767,0,0,0,.978,1.182A23.673,23.673,0,0,1,181.362,2.13a22.019,22.019,0,0,1,.5,6.874.767.767,0,0,0,.7.829c.022,0,.044,0,.066,0a.767.767,0,0,0,.763-.7A23.569,23.569,0,0,0,182.74,1.306Z" transform="translate(-159.582 -0.021)"/>
        </g>
      </g>
      <g id="Groupe_23" data-name="Groupe 23" transform="translate(20.249 11.144)">
        <g id="Groupe_22" data-name="Groupe 22">
          <path id="Tracé_24" data-name="Tracé 24" d="M312.036,164.416a.767.767,0,0,0-.909.592,25.932,25.932,0,0,1-12.052,16.622.767.767,0,1,0,.766,1.329,27.511,27.511,0,0,0,12.787-17.634A.767.767,0,0,0,312.036,164.416Z" transform="translate(-298.69 -164.399)"/>
        </g>
      </g>
      <g id="Groupe_25" data-name="Groupe 25" transform="translate(0 7.634)">
        <g id="Groupe_24" data-name="Groupe 24">
          <path id="Tracé_25" data-name="Tracé 25" d="M26.463,119.462l-4.244-.893,4.156-4.156a.767.767,0,0,0-1.085-1.085l-4.156,4.156-.893-4.244a.767.767,0,0,0-1.5.316l1.1,5.224-3.884,3.884-.893-4.244a.767.767,0,0,0-1.5.316l1.1,5.224-3.884,3.884L9.882,123.6a.767.767,0,0,0-1.5.316l1.1,5.224L6.039,132.58a9.556,9.556,0,0,1-1.763-8.258,20.876,20.876,0,0,1,5.747-10.073.767.767,0,1,0-1.1-1.073,22.414,22.414,0,0,0-6.154,10.842,11.022,11.022,0,0,0,2.179,9.651L.224,138.394a.767.767,0,0,0,1.085,1.085l4.726-4.726a10.357,10.357,0,0,0,6.9,2.461,15.494,15.494,0,0,0,5.668-1.159.767.767,0,1,0-.563-1.427,13.312,13.312,0,0,1-6.291.992,8.527,8.527,0,0,1-4.628-1.955l3.441-3.441,5.224,1.1a.767.767,0,1,0,.316-1.5l-4.244-.893,3.884-3.884,5.224,1.1a.777.777,0,0,0,.159.017.767.767,0,0,0,.157-1.518l-4.244-.893,3.884-3.884,5.224,1.1a.777.777,0,0,0,.159.017.767.767,0,0,0,.157-1.518Z" transform="translate(0 -112.631)"/>
        </g>
      </g>
    </g>
  </g>
</svg>
