<svg xmlns="http://www.w3.org/2000/svg" width="70" height="70" viewBox="0 0 70 70">
  <g id="Groupe_16" data-name="Groupe 16" transform="translate(-0.5)">
    <g id="layer1" transform="translate(17.372 23.339)">
      <path id="path1925" d="M3.245,1.918A2.468,2.468,0,0,0,.793,4.37V23.123a2.466,2.466,0,0,0,2.451,2.45h15.19V26.8a2.454,2.454,0,0,0,2.444,2.443h7.141A2.454,2.454,0,0,0,30.463,26.8V25.573h2.144a2.459,2.459,0,0,0,2.444-2.45V4.37a2.461,2.461,0,0,0-2.444-2.451Zm0,1.633H32.607a.8.8,0,0,1,.812.819V8.035H2.426V4.37A.8.8,0,0,1,3.245,3.551ZM2.426,9.668H33.419V23.123a.8.8,0,0,1-.812.819H30.463V21.407a2.449,2.449,0,0,0-1.735-2.326V17.615a4.28,4.28,0,0,0-8.56,0v1.467a2.449,2.449,0,0,0-1.733,2.326v2.534H3.245a.8.8,0,0,1-.819-.819Zm22.022,5.3A2.621,2.621,0,0,1,27.1,17.615v1.348h-5.3V17.615A2.626,2.626,0,0,1,24.448,14.972ZM6.507,16.194a.816.816,0,1,0,0,1.631h8.152a.816.816,0,1,0,0-1.631Zm0,4.075a.816.816,0,1,0,0,1.633h5.707a.816.816,0,0,0,0-1.633Zm14.371.327h7.141a.791.791,0,0,1,.812.812V26.8a.791.791,0,0,1-.812.812H20.878a.8.8,0,0,1-.819-.812c0-1.8,0-3.589.006-5.389A.739.739,0,0,1,20.878,20.595Zm3.57,1.469a.816.816,0,0,0-.819.819v2.439a.816.816,0,1,0,1.631,0V22.882A.815.815,0,0,0,24.448,22.064Z" transform="translate(-0.793 -1.918)"/>
    </g>
  </g>
</svg>
