<?xml version="1.0" ?><svg data-name="Layer 1" id="Layer_1" viewBox="0 0 32 32" xmlns="http://www.w3.org/2000/svg"><path d="M31.83,16.45l-4-6A1,1,0,0,0,27,10H19a1,1,0,0,0-1,1V23a1,1,0,0,0,1,1h2a4,4,0,0,1,.54-2H20V12h6.46L30,17.3V22H28.46A4,4,0,0,1,29,24h2a1,1,0,0,0,1-1V17A1,1,0,0,0,31.83,16.45Z"/><path d="M19,4H1A1,1,0,0,0,0,5V23a1,1,0,0,0,1,1H3a4,4,0,0,1,.54-2H2V6H18V22H10.46A4,4,0,0,1,11,24h8a1,1,0,0,0,1-1V5A1,1,0,0,0,19,4Z"/><path d="M27,18H22a1,1,0,0,1,0-2h5a1,1,0,0,1,0,2Z"/><path d="M27.4,18a1,1,0,0,1-.84-.45L24.86,15H23v2a1,1,0,0,1-2,0V14a1,1,0,0,1,1-1h3.39a1,1,0,0,1,.84.45l2,3A1,1,0,0,1,28,17.83.94.94,0,0,1,27.4,18Z"/><path d="M7,28a4,4,0,1,1,4-4A4,4,0,0,1,7,28Zm0-6a2,2,0,1,0,2,2A2,2,0,0,0,7,22Z"/><path d="M25,28a4,4,0,1,1,4-4A4,4,0,0,1,25,28Zm0-6a2,2,0,1,0,2,2A2,2,0,0,0,25,22Z"/></svg>