<svg xmlns="http://www.w3.org/2000/svg" viewBox="0 0 20.547 20.547"><path d="M18.492,0H2.055A2.061,2.061,0,0,0,0,2.055V18.492a2.061,2.061,0,0,0,2.055,2.055H18.492a2.061,2.061,0,0,0,2.055-2.055V2.055A2.061,2.061,0,0,0,18.492,0ZM16.129,7.5c-.1,4.726-3.082,8.013-7.6,8.219a7.478,7.478,0,0,1-4.418-1.233,5.454,5.454,0,0,0,4.007-1.13A2.775,2.775,0,0,1,5.548,11.4a4.144,4.144,0,0,0,1.13,0A2.8,2.8,0,0,1,4.52,8.63a2.071,2.071,0,0,0,1.13.308,3.038,3.038,0,0,1-.822-3.7,8.141,8.141,0,0,0,5.65,2.877C9.76,5.239,13.664,3.7,15.2,5.65a6.921,6.921,0,0,0,1.746-.616,2.9,2.9,0,0,1-1.13,1.541,5.889,5.889,0,0,0,1.438-.411C17.157,6.678,16.643,7.089,16.129,7.5Z"/></svg>
