<svg xmlns="http://www.w3.org/2000/svg" viewBox="0 0 18.353 20.455"><path d="M19.323,11.788v6.03a2.246,2.246,0,0,1-.24,1.036,2.679,2.679,0,0,1-.653.833,3.137,3.137,0,0,1-.954.562,3.3,3.3,0,0,1-1.174.206H3.977a3.26,3.26,0,0,1-1.16-.206,3.117,3.117,0,0,1-.955-.562,2.765,2.765,0,0,1-.655-.833A2.259,2.259,0,0,1,.97,17.817v-6.03a2.277,2.277,0,0,1,.24-1.023,2.6,2.6,0,0,1,.655-.838,3.327,3.327,0,0,1,.955-.564,3.171,3.171,0,0,1,1.16-.212H16.3a3.226,3.226,0,0,1,1.166.212,3.32,3.32,0,0,1,.961.564,2.58,2.58,0,0,1,.653.838A2.276,2.276,0,0,1,19.323,11.788ZM4.8,18.49V12.13H6.315v-.961H2.234V12.1H3.542V18.49Zm.617-14.8L3.73,0H5.2l.841,2.761L6.88,0H8.348L6.766,3.694V8H5.42Zm3.972,9.37H8.129v3.4c0,.246,0,.437.012.568s-.01.219-.055.255a.477.477,0,0,1-.325.323c-.174.067-.31-.028-.4-.3a.648.648,0,0,1-.012-.267c.009-.143.012-.328.012-.558l-.026-3.42H6.067L6.1,16.431c0,.264-.007.486-.015.664A1.6,1.6,0,0,0,6.1,17.5c.017.148.034.3.053.475a.53.53,0,0,0,.262.405.952.952,0,0,0,.513.139,1.745,1.745,0,0,0,.579-.1,2.056,2.056,0,0,0,.521-.266,1.169,1.169,0,0,0,.349-.365l-.025.672,1.044.027ZM8.236,4.259a4.85,4.85,0,0,1,.138-1.248,1.264,1.264,0,0,1,.538-.73A1.554,1.554,0,0,1,9.86,2a2,2,0,0,1,.852.165,1.189,1.189,0,0,1,.562.481,1.826,1.826,0,0,1,.248.565,4.29,4.29,0,0,1,.081.921v1.44a5.663,5.663,0,0,1-.081,1.129,1.617,1.617,0,0,1-.277.7,1.221,1.221,0,0,1-.533.453,1.789,1.789,0,0,1-.785.164A2.339,2.339,0,0,1,9.1,7.885a.85.85,0,0,1-.508-.4,1.93,1.93,0,0,1-.277-.62,5.782,5.782,0,0,1-.082-1.126V4.259ZM9.363,6.5a.551.551,0,0,0,.166.392.534.534,0,0,0,.4.17.552.552,0,0,0,.392-.165.527.527,0,0,0,.17-.4V3.517a.564.564,0,0,0-.17-.417.542.542,0,0,0-.391-.173.534.534,0,0,0-.39.173.567.567,0,0,0-.173.417Zm4.107,10.441V14.122a1.233,1.233,0,0,0-.574-1.153.885.885,0,0,0-.441-.111,1.865,1.865,0,0,0-1.044.426V11.169H10.148v7.267l1.045-.027.081-.453a2.355,2.355,0,0,0,.914.522.888.888,0,0,0,.687-.077,1.093,1.093,0,0,0,.439-.564A2.418,2.418,0,0,0,13.471,16.939ZM11.948,13.56a.625.625,0,0,1,.39.131.371.371,0,0,1,.171.294v3.188a.354.354,0,0,1-.171.287.656.656,0,0,1-.39.125.665.665,0,0,1-.394-.125.352.352,0,0,1-.168-.287V13.984a.371.371,0,0,1,.168-.294A.635.635,0,0,1,11.948,13.56Zm.588-6.126a.8.8,0,0,1-.067-.228,1.707,1.707,0,0,0-.043-.226,2.1,2.1,0,0,1-.026-.373V2.227h1.181V6.594a.4.4,0,0,0,.122.289.457.457,0,0,0,.331.124.478.478,0,0,0,.329-.124.377.377,0,0,0,.141-.289V2.227h1.1V7.832H14.2l.025-.453a2.216,2.216,0,0,1-.371.425.892.892,0,0,1-.481.138.932.932,0,0,1-.522-.138A1.045,1.045,0,0,1,12.537,7.433Zm4.918,9.15h-.946V17.2a.409.409,0,0,1-.158.342.585.585,0,0,1-.376.122h-.2a.533.533,0,0,1-.362-.122.427.427,0,0,1-.146-.342V15.894h2.185v-.755c0-.283,0-.556-.014-.816a3.016,3.016,0,0,0-.067-.61.9.9,0,0,0-.338-.6,1.545,1.545,0,0,0-.658-.308,2.089,2.089,0,0,0-.771-.028,1.534,1.534,0,0,0-.681.26,1.413,1.413,0,0,0-.534.675,3.35,3.35,0,0,0-.165,1.181v1.691a1.851,1.851,0,0,0,.565,1.524,1.712,1.712,0,0,0,1.1.426H16a1.7,1.7,0,0,0,1.141-.549,1.32,1.32,0,0,0,.371-.974C17.5,16.88,17.484,16.737,17.454,16.583Zm-.975-1.61H15.271L15.3,14.3a.469.469,0,0,1,.165-.365.584.584,0,0,1,.4-.145h.055a.658.658,0,0,1,.418.138.458.458,0,0,1,.172.373Z" transform="translate(-0.97)"/></svg>
