<svg xmlns="http://www.w3.org/2000/svg" width="24" height="16.91" viewBox="0 0 24 16.91">
  <path id="youtube"
    d="M23.5,6.186A3.016,3.016,0,0,0,21.376,4.05C19.5,3.545,12,3.545,12,3.545s-7.505,0-9.377.505A3.017,3.017,0,0,0,.5,6.186,31.6,31.6,0,0,0,0,12a31.6,31.6,0,0,0,.5,5.814A3.016,3.016,0,0,0,2.624,19.95c1.871.5,9.376.5,9.376.5s7.505,0,9.377-.5A3.015,3.015,0,0,0,23.5,17.814,31.665,31.665,0,0,0,24,12,31.6,31.6,0,0,0,23.5,6.186ZM9.545,15.568V8.432L15.818,12Z"
    transform="translate(0 -3.545)" fill="currentColor" />
</svg>
