<svg xmlns="http://www.w3.org/2000/svg" width="453.91" height="133.258" viewBox="0 0 453.91 133.258">
  <g id="Groupe_72" data-name="Groupe 72" transform="translate(-4896.228 849.102)">
    <path id="Tracé_128" data-name="Tracé 128" d="M5092.51-807.6c-8.486,0-15.846,2.145-21.854,6.3v-43.734l-20.146,5.94V-715.3h20.146V-762.78c0-15.876,7.738-24.982,21.227-24.982,14.656,0,16.844,11.044,16.844,17.626V-715.3h20.307v-54.834C5129.033-792.543,5114.355-807.6,5092.51-807.6Z" transform="translate(-85.732 -2.265)" fill="#fff"/>
    <path id="Tracé_129" data-name="Tracé 129" d="M5482.424-845.026l-20.146,5.94V-715.3h20.146Z" transform="translate(-314.543 -2.265)" fill="#fff"/>
    <path id="Tracé_130" data-name="Tracé 130" d="M5286.713-760.788c-13.139,0-25.09,4.852-33.662,13.66-8.406,8.635-13.037,20.479-13.037,33.348,0,27.24,19.9,47.01,47.322,47.01,16.865,0,31.6-7.725,39.4-20.664l-17.568-10.208c-3.781,6.911-11.883,11.038-21.672,11.038-12.4,0-21.836-6.459-25.537-16.944h68.6a48.7,48.7,0,0,0,.977-9.918,49.326,49.326,0,0,0-11.939-32.688A43.1,43.1,0,0,0,5286.713-760.788Zm-24.895,37.247c3.51-10.643,12.855-17.412,24.895-17.412,11.3,0,19.848,6.643,23.1,17.412Z" transform="translate(-191.035 -49.074)" fill="#fff"/>
    <rect id="Rectangle_83" data-name="Rectangle 83" width="20.148" height="90.575" transform="translate(5180.913 -808.14)" fill="#fff"/>
    <path id="Tracé_131" data-name="Tracé 131" d="M4933.746-766.917h23.32v-19.99h-23.32v-23.985l-20.3,5.971v18.013h-17.213v19.99h17.213v23.653h0a46.825,46.825,0,0,0,13.752,33.478,46.3,46.3,0,0,0,29.773,13.414v-19.98a26.786,26.786,0,0,1-23.219-26.912h0Z" transform="translate(0 -21.232)" fill="#fff"/>
    <path id="Tracé_132" data-name="Tracé 132" d="M5646.887-761.844a47.241,47.241,0,0,0-47.24,47.243,47.241,47.241,0,0,0,47.24,47.244,47.035,47.035,0,0,0,26.941-8.432v6.71h20.3V-714.6A47.245,47.245,0,0,0,5646.887-761.844Zm0,74.183a26.941,26.941,0,0,1-26.939-26.939,26.941,26.941,0,0,1,26.939-26.939,26.94,26.94,0,0,1,26.941,26.939h0A26.94,26.94,0,0,1,5646.887-687.661Z" transform="translate(-390.876 -48.488)" fill="#fff"/>
    <circle id="Ellipse_121" data-name="Ellipse 121" cx="12.004" cy="12.004" r="12.004" transform="translate(5179.069 -847.547)" fill="#fff"/>
    <path id="Tracé_133" data-name="Tracé 133" d="M5797.662-782.156s7.709-11.419,28.691-17.068c0,0-18.643,9.321-23.725,22.758,0,0,40.025,3.874,48.418-35.468C5851.047-811.934,5804.926-827.186,5797.662-782.156Z" transform="translate(-500.909 -19.271)" fill="#ec6351"/>
    <path id="Tracé_134" data-name="Tracé 134" d="M5771.508-809.605s3.053-8.431-2.018-21.635c0,0,2.242,13.38-2.881,21.2,0,0-17.373-19.573.105-39.066C5766.715-849.1,5792.412-830.685,5771.508-809.605Z" transform="translate(-479.381 0)" fill="#ec6351"/>
  </g>
</svg>
