<svg width="608" height="374" viewBox="0 0 608 374" fill="none" xmlns="http://www.w3.org/2000/svg">
<mask id="mask0_996_114730" style="mask-type:alpha" maskUnits="userSpaceOnUse" x="0" y="0" width="608" height="374">
<rect width="608" height="374" fill="#D9D9D9"/>
</mask>
<g mask="url(#mask0_996_114730)">
<path opacity="0.2" d="M271.335 374.084C374.734 374.084 458.556 371.949 458.556 369.315C458.556 366.68 374.734 364.545 271.335 364.545C167.935 364.545 84.1133 366.68 84.1133 369.315C84.1133 371.949 167.935 374.084 271.335 374.084Z" fill="#0B2252"/>
<path d="M395.488 18.4128C397.734 16.1669 400.833 14.7812 404.257 14.7812H416.592C418.429 6.32952 425.947 0 434.951 0C443.955 0 451.473 6.32952 453.31 14.7812H456.624C460.048 14.7812 463.148 16.1702 465.394 18.4128C467.64 20.6555 469.025 23.7583 469.025 27.1825C469.025 30.9715 467.328 34.3622 464.651 36.6382C462.488 38.4758 459.687 39.5871 456.624 39.5871H404.261C400.836 39.5871 397.737 38.198 395.491 35.9554C393.248 33.7128 391.859 30.61 391.859 27.1858C391.859 23.7616 393.248 20.6622 395.491 18.4162L395.488 18.4128Z" fill="#E9F3FC"/>
<path d="M244.71 37.0897C242.601 34.9809 239.689 33.6755 236.469 33.6755H224.881C223.154 25.736 216.091 19.7881 207.633 19.7881C199.175 19.7881 192.109 25.736 190.385 33.6755H187.272C184.055 33.6755 181.14 34.9809 179.031 37.0897C176.923 39.1984 175.617 42.1104 175.617 45.3304C175.617 48.8885 177.214 52.075 179.728 54.2138C181.759 55.941 184.393 56.982 187.269 56.982H236.469C239.686 56.982 242.601 55.6766 244.71 53.5678C246.818 51.4591 248.124 48.5471 248.124 45.3271C248.124 42.1104 246.818 39.195 244.71 37.0863V37.0897Z" fill="#E9F3FC"/>
<path d="M564.81 195.017V261C504.825 250.614 424.195 241.118 329.885 241.118C121.697 241.118 -41.5853 287.382 -41.5853 287.382C-53.7021 261.479 -40.2765 186.877 -8.6758 169.411C22.9283 151.949 50.3718 186.877 75.3217 174.402C100.272 161.927 76.925 51.6437 115.24 44.5477C153.552 37.4517 177.679 108.405 224.506 108.405C271.333 108.405 264.24 37.4517 319 34.6132C373.756 31.7748 372.31 107.257 405.25 107.257C438.19 107.257 424.834 76.9886 476.468 76.0982C528.105 75.2079 542.347 182.927 564.462 194.836C564.579 194.9 564.693 194.96 564.81 195.017Z" fill="url(#paint0_linear_996_114730)"/>
<path d="M83.5376 266.038C77.5361 265.857 71.0225 263.748 71.1664 254.109C71.3103 244.469 78.3059 242.969 79.0222 235.756C79.7385 228.543 79.772 221.832 83.5376 221.758C87.3065 221.688 84.92 224.77 86.6772 228.114C88.4312 231.458 91.8319 235.736 91.1725 241.985C90.5131 248.234 94.9615 250.627 94.7306 255.739C94.4963 260.85 91.303 266.272 83.5409 266.035L83.5376 266.038Z" fill="#DAEEFF"/>
<path d="M85.7563 241.422C85.6492 241.325 85.4886 241.332 85.3881 241.436C85.2877 241.539 85.2944 241.707 85.3982 241.804C85.4149 241.821 86.9613 243.377 86.804 248.709C86.6668 253.318 84.2769 260.451 83.5204 262.603C82.8108 260.923 81.8937 259.072 81.1238 257.512C80.6017 256.458 80.1532 255.551 79.9088 254.975C79.0185 252.88 80.3741 248.475 80.3875 248.431C80.431 248.294 80.354 248.147 80.2167 248.103C80.0795 248.06 79.9322 248.137 79.8887 248.274C79.8285 248.461 78.4595 252.906 79.4268 255.179C79.6778 255.768 80.1297 256.682 80.6552 257.743C82.061 260.585 84.1899 264.876 84.1564 266.546C84.1095 268.863 83.8317 272.186 83.8284 272.22C83.815 272.364 83.9221 272.491 84.066 272.504C84.0727 272.504 84.0794 272.504 84.0894 272.504C84.2233 272.504 84.3371 272.4 84.3505 272.263C84.3505 272.23 84.635 268.889 84.6819 266.556C84.6953 265.81 84.3438 264.648 83.8217 263.326C84.1664 262.379 87.1755 253.971 87.3329 248.723C87.5002 243.106 85.8333 241.486 85.763 241.419L85.7563 241.422Z" fill="#6AC1FF"/>
<path d="M493.684 241.51C488.566 241.356 483.016 239.558 483.137 231.341C483.257 223.124 489.225 221.845 489.834 215.696C490.444 209.548 490.474 203.824 493.684 203.764C496.897 203.703 494.862 206.331 496.358 209.183C497.854 212.035 500.753 215.68 500.191 221.008C499.628 226.337 503.421 228.376 503.223 232.734C503.022 237.088 500.301 241.711 493.684 241.513V241.51Z" fill="#DAEEFF"/>
<path d="M495.578 220.526C495.487 220.442 495.347 220.449 495.263 220.536C495.179 220.626 495.183 220.767 495.27 220.851C495.283 220.864 496.602 222.189 496.468 226.738C496.351 230.668 494.316 236.746 493.67 238.584C493.064 237.151 492.284 235.575 491.625 234.246C491.179 233.349 490.794 232.572 490.587 232.084C489.827 230.296 490.985 226.541 490.995 226.504C491.032 226.387 490.965 226.26 490.848 226.223C490.731 226.186 490.604 226.253 490.567 226.37C490.517 226.531 489.349 230.32 490.172 232.258C490.386 232.76 490.771 233.54 491.22 234.444C492.418 236.867 494.232 240.525 494.202 241.948C494.162 243.923 493.924 246.758 493.921 246.785C493.911 246.908 494.001 247.016 494.125 247.026C494.132 247.026 494.138 247.026 494.145 247.026C494.259 247.026 494.356 246.939 494.366 246.821C494.366 246.791 494.607 243.943 494.647 241.955C494.66 241.319 494.359 240.328 493.914 239.2C494.209 238.39 496.773 231.224 496.906 226.748C497.047 221.962 495.628 220.58 495.568 220.523L495.578 220.526Z" fill="#6AC1FF"/>
<path d="M134.442 219.06C130.924 218.952 127.105 217.717 127.189 212.064C127.273 206.411 131.376 205.53 131.795 201.303C132.213 197.072 132.233 193.139 134.442 193.095C136.651 193.052 135.252 194.863 136.283 196.821C137.314 198.779 139.306 201.289 138.921 204.955C138.536 208.62 141.143 210.022 141.006 213.018C140.869 216.014 138.998 219.193 134.442 219.056V219.06Z" fill="#DAEEFF"/>
<path d="M135.744 204.627C135.68 204.57 135.587 204.573 135.53 204.633C135.473 204.694 135.473 204.791 135.536 204.851C135.546 204.861 136.453 205.771 136.36 208.901C136.279 211.602 134.877 215.786 134.435 217.048C134.02 216.064 133.481 214.976 133.029 214.062C132.725 213.443 132.46 212.911 132.316 212.576C131.794 211.348 132.591 208.764 132.597 208.737C132.624 208.657 132.577 208.57 132.497 208.546C132.417 208.519 132.33 208.566 132.306 208.647C132.273 208.757 131.469 211.364 132.035 212.697C132.182 213.041 132.447 213.577 132.755 214.2C133.578 215.866 134.827 218.384 134.807 219.361C134.78 220.72 134.616 222.668 134.616 222.688C134.609 222.772 134.673 222.845 134.756 222.855C134.76 222.855 134.766 222.855 134.77 222.855C134.85 222.855 134.917 222.795 134.924 222.715C134.924 222.695 135.091 220.737 135.118 219.368C135.128 218.929 134.92 218.246 134.613 217.473C134.813 216.917 136.581 211.987 136.671 208.908C136.768 205.614 135.791 204.663 135.751 204.627H135.744Z" fill="#6AC1FF"/>
<path d="M481.708 345.821C475.556 345.634 468.882 343.475 469.026 333.594C469.173 323.713 476.346 322.173 477.079 314.783C477.812 307.389 477.846 300.507 481.708 300.437C485.571 300.363 483.127 303.523 484.925 306.95C486.722 310.378 490.207 314.763 489.534 321.169C488.861 327.576 493.42 330.029 493.179 335.268C492.938 340.506 489.668 346.062 481.708 345.825V345.821Z" fill="#DAEEFF"/>
<path d="M483.983 320.59C483.876 320.489 483.709 320.496 483.605 320.603C483.505 320.71 483.508 320.881 483.615 320.981C483.632 320.998 485.218 322.595 485.054 328.061C484.914 332.784 482.464 340.094 481.691 342.303C480.964 340.583 480.024 338.685 479.234 337.085C478.698 336.004 478.236 335.073 477.985 334.484C477.071 332.335 478.464 327.82 478.477 327.776C478.521 327.636 478.444 327.485 478.3 327.442C478.159 327.398 478.009 327.475 477.965 327.619C477.905 327.813 476.499 332.369 477.493 334.698C477.751 335.301 478.216 336.241 478.752 337.326C480.194 340.238 482.373 344.639 482.34 346.35C482.293 348.723 482.005 352.134 482.002 352.167C481.988 352.314 482.099 352.445 482.246 352.458C482.253 352.458 482.263 352.458 482.27 352.458C482.407 352.458 482.524 352.351 482.537 352.214C482.537 352.181 482.829 348.756 482.875 346.363C482.892 345.597 482.531 344.405 481.995 343.053C482.35 342.079 485.433 333.46 485.593 328.081C485.764 322.324 484.057 320.664 483.983 320.597V320.59Z" fill="#6AC1FF"/>
<path d="M167.73 298.996C172.051 300.435 168.804 306.514 168.804 310.808C168.804 315.103 170.953 326.918 166.656 329.064C162.361 331.213 155.918 335.507 155.918 339.802C155.918 344.096 154.843 349.468 150.549 351.614C146.254 353.763 141.957 353.763 141.957 356.983C141.957 360.203 144.106 361.277 143.031 364.5C141.957 367.72 139.808 368.795 140.882 369.869H112.96C112.96 369.869 107.591 361.277 108.666 355.908C109.74 350.539 115.109 350.539 116.183 346.241C117.258 341.947 122.627 340.873 122.627 336.575C122.627 332.277 124.776 325.837 127.996 323.688C131.216 321.539 137.662 323.688 139.808 319.394C141.957 315.099 139.808 310.802 143.031 308.656C146.251 306.507 152.698 309.73 155.918 306.507C159.141 303.287 164.51 297.915 167.73 298.989V298.996Z" fill="#3FB790"/>
<path d="M163.412 320.863C163.328 320.578 163.034 320.414 162.746 320.498C162.696 320.515 157.792 321.917 154.318 321.867C156.741 312.709 161.936 310.804 161.993 310.784C162.274 310.691 162.424 310.386 162.331 310.105C162.237 309.824 161.932 309.673 161.651 309.764C161.377 309.857 154.883 312.15 152.701 324.136C152.195 326.921 150.401 329.552 147.958 332.083C145.886 330.024 145.243 323.477 145.173 320.997C145.163 320.705 144.925 320.474 144.637 320.474H144.624C144.326 320.481 144.092 320.729 144.102 321.027C144.112 321.412 144.393 330.014 147.208 332.846C144.497 335.493 141.126 338.037 137.806 340.541C134.251 343.219 130.81 345.813 128.173 348.487C127.754 347.419 127.657 343.988 127.992 340.394C128.019 340.099 127.801 339.838 127.507 339.808C127.215 339.794 126.951 339.999 126.921 340.293C126.71 342.573 126.389 347.58 127.42 349.28C125.662 351.195 124.34 353.156 123.721 355.225C123.634 355.509 123.795 355.807 124.079 355.894C124.129 355.911 124.183 355.918 124.233 355.918C124.464 355.918 124.678 355.767 124.749 355.536C126.064 351.155 130.907 347.131 136.383 342.964C139.379 345.762 147.476 346.231 147.834 346.251C147.844 346.251 147.854 346.251 147.864 346.251C148.149 346.251 148.386 346.03 148.4 345.742C148.416 345.448 148.189 345.193 147.891 345.177C147.811 345.173 140.045 344.725 137.25 342.305C137.649 342.004 138.05 341.702 138.455 341.398C145.407 336.159 152.597 330.747 153.762 324.33C153.852 323.838 153.959 323.383 154.063 322.925C154.22 322.931 154.368 322.941 154.532 322.941C158.14 322.941 162.836 321.589 163.05 321.529C163.335 321.445 163.499 321.147 163.415 320.863H163.412Z" fill="#34916F"/>
<path d="M103.388 301.145C97.7886 303.946 103.388 316.18 102.314 320.475C101.24 324.769 98.0195 327.993 99.094 332.287C100.168 336.581 102.314 339.805 102.314 344.099C102.314 348.394 95.8706 352.691 96.9451 360.209C98.0195 367.727 101.24 369.876 101.24 369.876H124.864C124.864 369.876 127.013 367.727 127.013 363.433C127.013 359.138 121.644 354.84 122.718 352.695C123.793 350.546 128.087 346.251 127.013 338.734C125.938 331.216 122.718 331.216 121.644 326.921C120.569 322.627 122.718 320.478 121.644 317.255C120.569 314.035 115.201 310.811 114.126 308.663C113.052 306.514 109.832 297.925 103.388 301.145Z" fill="#90DAD8"/>
<path d="M121.451 338.858C121.227 338.671 120.886 338.697 120.695 338.925C119.627 340.204 116.889 343.303 115.125 344.709C115.172 343.963 115.199 343.219 115.199 342.49C115.199 339.146 115.196 335.749 115.038 332.482C115.038 332.458 115.038 332.438 115.035 332.415C114.891 329.493 114.627 326.678 114.118 324.127C113.033 318.705 107.805 311.344 107.584 311.033C107.41 310.792 107.079 310.738 106.834 310.909C106.593 311.083 106.536 311.418 106.71 311.659C106.764 311.733 112.026 319.143 113.063 324.338C113.462 326.326 113.709 328.485 113.867 330.735C111.915 328.723 108.635 327.059 108.461 326.976C108.2 326.842 107.875 326.949 107.741 327.213C107.607 327.478 107.715 327.802 107.979 327.936C108.029 327.96 112.752 330.353 113.97 332.626C114.121 335.839 114.128 339.193 114.128 342.49C114.128 345.332 113.703 348.404 113.328 351.115C112.97 353.696 112.672 355.875 112.786 357.395C110.914 356.317 107.788 355.055 107.346 354.878C107.072 354.767 106.761 354.901 106.65 355.176C106.54 355.45 106.674 355.761 106.948 355.872C108.391 356.448 112.257 358.101 113.157 358.931C114.365 361.375 116.29 366.415 116.461 369.897C116.474 370.184 116.712 370.409 116.996 370.409C117.006 370.409 117.013 370.409 117.023 370.409C117.318 370.395 117.549 370.144 117.532 369.846C117.354 366.161 115.316 360.842 114.074 358.355C113.555 357.314 113.96 354.376 114.392 351.259C114.616 349.633 114.851 347.875 115.011 346.108C117.17 344.796 121.338 339.829 121.522 339.608C121.712 339.38 121.682 339.042 121.455 338.851L121.451 338.858Z" fill="white"/>
<path d="M293.198 203.669H281.801V370.265H293.198V203.669Z" fill="#E0E9F3"/>
<path d="M447.493 203.669H436.096V370.265H447.493V203.669Z" fill="#E0E9F3"/>
<path d="M455.627 187.907H273.664V224.428H455.627V187.907Z" fill="url(#paint1_linear_996_114730)"/>
<path d="M292.73 187.907L277.654 224.428H273.664V210.932L283.17 187.907H292.73Z" fill="#14336A"/>
<path d="M312.613 187.907L297.537 224.428H287.975L303.05 187.907H312.613Z" fill="#14336A"/>
<path d="M332.498 187.907L317.422 224.428H307.859L322.938 187.907H332.498Z" fill="#14336A"/>
<path d="M352.385 187.907L337.306 224.428H327.746L342.822 187.907H352.385Z" fill="#14336A"/>
<path d="M372.268 187.907L357.192 224.428H347.633L362.709 187.907H372.268Z" fill="#14336A"/>
<path d="M392.152 187.907L377.077 224.428H367.514L382.589 187.907H392.152Z" fill="#14336A"/>
<path d="M412.039 187.907L396.963 224.428H387.4L402.479 187.907H412.039Z" fill="#14336A"/>
<path d="M431.918 187.907L416.839 224.428H407.279L422.355 187.907H431.918Z" fill="#14336A"/>
<path d="M451.806 187.907L436.73 224.428H427.174L442.25 187.907H451.806Z" fill="#14336A"/>
<path d="M455.629 203.669V224.428H447.057L455.629 203.669Z" fill="#14336A"/>
<path d="M455.627 239.162H273.664V257.424H455.627V239.162Z" fill="url(#paint2_linear_996_114730)"/>
<path d="M285.192 239.162L277.654 257.424H273.664V243.925L275.632 239.162H285.192Z" fill="#14336A"/>
<path d="M305.075 239.162L297.537 257.424H287.975L295.512 239.162H305.075Z" fill="#14336A"/>
<path d="M324.96 239.162L317.422 257.424H307.859L315.397 239.162H324.96Z" fill="#14336A"/>
<path d="M344.844 239.162L337.306 257.424H327.746L335.284 239.162H344.844Z" fill="#14336A"/>
<path d="M364.73 239.162L357.192 257.424H347.633L355.171 239.162H364.73Z" fill="#14336A"/>
<path d="M384.614 239.162L377.077 257.424H367.514L375.052 239.162H384.614Z" fill="#14336A"/>
<path d="M404.501 239.162L396.963 257.424H387.4L394.942 239.162H404.501Z" fill="#14336A"/>
<path d="M424.38 239.162L416.839 257.424H407.279L414.817 239.162H424.38Z" fill="#14336A"/>
<path d="M444.268 239.162L436.73 257.424H427.174L434.712 239.162H444.268Z" fill="#14336A"/>
<path d="M455.629 239.162V257.424H447.057L454.595 239.162H455.629Z" fill="#14336A"/>
<path d="M161.011 352.946L159.184 362.262H190.453L192.448 352.946H161.011Z" fill="#FFAA9D"/>
<path d="M159.184 362.262L157.701 369.528C157.607 369.987 157.955 370.412 158.424 370.412H193.479C193.904 370.412 194.185 369.967 193.998 369.582L190.453 362.262H159.184Z" fill="#0B2252"/>
<path d="M208.509 352.946L206.678 362.262H237.95L239.945 352.946H208.509Z" fill="#FFAA9D"/>
<path d="M206.678 362.262L205.195 369.528C205.101 369.987 205.449 370.412 205.918 370.412H240.973C241.398 370.412 241.679 369.967 241.492 369.582L237.951 362.262H206.681H206.678Z" fill="#0B2252"/>
<path d="M157.947 207.454C157.947 207.454 167.199 275.231 164.283 305.673C161.368 336.116 158.131 356.517 158.131 356.517H193.755C193.755 356.517 203.148 318.302 203.794 295.632C203.794 295.632 209.624 325.425 206.06 356.517H240.713C240.713 356.517 250.246 247.891 230.166 206.761L157.947 207.454Z" fill="url(#paint3_linear_996_114730)"/>
<path d="M203.435 102.55C203.435 102.55 169.856 107.889 157.431 136.952C145.006 166.016 150.285 176.151 154.854 180.767C159.422 185.383 168.647 189.68 168.647 189.68L203.435 102.55Z" fill="url(#paint4_linear_996_114730)"/>
<path d="M237.047 220.484C233.422 225.328 156.611 222.245 154.844 209.874C153.076 197.506 168.253 119.882 184.376 109.007C199.458 98.8345 209.968 100.796 219.689 103.109C229.409 105.425 240.173 124.611 236.197 141.227C232.221 157.842 228.585 158.997 229.037 175.609C229.586 195.789 240.773 215.504 237.047 220.481V220.484Z" fill="url(#paint5_linear_996_114730)"/>
<path d="M233.116 81.5055L234.665 92.6014L232.999 92.7554C232.999 92.7554 232.811 102.121 226.133 101.478C224.216 101.294 221.635 100.009 220.989 100.41C220.219 100.886 220.182 103.45 220.088 104.199C219.727 107.071 209.632 105.471 210.857 102.419C212.018 99.5234 213.796 95.5436 213.197 94.5763C211.098 91.199 209.525 82.3557 218.114 78.2688C224.955 75.012 232.563 77.7132 233.119 81.5055H233.116Z" fill="#FFAA9D"/>
<path d="M210.854 102.42C212.015 99.5243 213.792 95.5445 213.193 94.5771C213.193 94.5771 217.675 99.8958 221.257 100.341C221.263 100.341 221.267 100.344 221.277 100.348C221.163 100.354 221.063 100.371 220.989 100.415C220.219 100.89 220.182 103.454 220.088 104.204C219.727 107.076 209.632 105.476 210.857 102.423L210.854 102.42Z" fill="#FF9F91"/>
<path d="M218.756 88.8298C214.481 88.6356 218.24 97.6396 213.588 97.904C208.935 98.1651 204.467 88.4817 206.887 80.2844C209.307 72.0872 215.797 71.719 222.066 72.0169C228.335 72.3148 236.201 74.1524 236.774 78.7949C238.153 89.9645 223.773 82.2392 223.315 85.7035C222.963 88.3846 222.856 96.0229 225.571 95.8622C228.285 95.7015 230.749 93.1409 232.948 93.4455C234.213 93.6229 239.405 107.848 230.658 109.432C222.006 110.998 218.846 103.584 219.901 97.0739C220.905 90.8816 220.841 88.9235 218.752 88.8298H218.756Z" fill="#14336A"/>
<path d="M224.981 230.091C224.981 230.091 240.207 233.462 246.028 233.214C251.849 232.966 254.406 232.762 254.292 231.403C254.179 230.041 242.701 225.776 242.504 224.428C242.306 223.079 244.425 222.252 244.204 220.732C243.983 219.213 233.603 219.527 232.767 217.927C231.93 216.327 224.469 227.758 224.984 230.094L224.981 230.091Z" fill="#FFAA9D"/>
<path d="M236.22 215.959L226.483 231.721C226.483 231.721 186.628 224.765 174.558 189.533C162.488 154.3 171.777 117.863 194.277 111.614C212.057 106.673 208.311 141.37 206.373 154.103C204.432 166.835 202.484 190.647 236.22 215.959Z" fill="url(#paint6_linear_996_114730)"/>
</g>
<defs>
<linearGradient id="paint0_linear_996_114730" x1="259.403" y1="53.3006" x2="259.403" y2="208.807" gradientUnits="userSpaceOnUse">
<stop stop-color="#E9F3FC"/>
<stop offset="1" stop-color="white"/>
</linearGradient>
<linearGradient id="paint1_linear_996_114730" x1="364.647" y1="220.8" x2="364.647" y2="184.279" gradientUnits="userSpaceOnUse">
<stop stop-color="#F2C43C"/>
<stop offset="0.76" stop-color="#FFAC00"/>
</linearGradient>
<linearGradient id="paint2_linear_996_114730" x1="-45.9984" y1="255.61" x2="-45.6637" y2="237.348" gradientUnits="userSpaceOnUse">
<stop stop-color="#F2C43C"/>
<stop offset="0.76" stop-color="#FFAC00"/>
</linearGradient>
<linearGradient id="paint3_linear_996_114730" x1="201.046" y1="359.322" x2="199.58" y2="260.071" gradientUnits="userSpaceOnUse">
<stop stop-color="#14336D"/>
<stop offset="0.97" stop-color="#0E2253"/>
</linearGradient>
<linearGradient id="paint4_linear_996_114730" x1="177.032" y1="138.01" x2="188.081" y2="178.307" gradientUnits="userSpaceOnUse">
<stop stop-color="#3162DF"/>
<stop offset="0.96" stop-color="#173DB8"/>
</linearGradient>
<linearGradient id="paint5_linear_996_114730" x1="175.446" y1="145.37" x2="251.557" y2="214.235" gradientUnits="userSpaceOnUse">
<stop stop-color="#3162DF"/>
<stop offset="0.96" stop-color="#173DB8"/>
</linearGradient>
<linearGradient id="paint6_linear_996_114730" x1="215.223" y1="158.498" x2="169.629" y2="226.586" gradientUnits="userSpaceOnUse">
<stop stop-color="#3162DF"/>
<stop offset="0.96" stop-color="#173DB8"/>
</linearGradient>
</defs>
</svg>
