<svg width="608" height="374" viewBox="0 0 608 374" fill="none" xmlns="http://www.w3.org/2000/svg">
<mask id="mask0_996_114798" style="mask-type:alpha" maskUnits="userSpaceOnUse" x="0" y="0" width="608" height="374">
<rect width="608" height="374" fill="#D9D9D9"/>
</mask>
<g mask="url(#mask0_996_114798)">
<g clip-path="url(#clip0_996_114798)">
<path d="M395.389 18.4118C397.635 16.1663 400.734 14.7809 404.157 14.7809H416.489C418.326 6.33107 425.842 0.00292969 434.844 0.00292969C443.846 0.00292969 451.362 6.33107 453.199 14.7809H456.512C459.936 14.7809 463.034 16.1696 465.28 18.4118C467.525 20.6539 468.911 23.756 468.911 27.1794C468.911 30.9676 467.214 34.3576 464.537 36.6332C462.375 38.4704 459.574 39.5814 456.512 39.5814H404.16C400.737 39.5814 397.638 38.1926 395.393 35.9505C393.15 33.7084 391.762 30.6062 391.762 27.1828C391.762 23.7594 393.15 20.6606 395.393 18.4151L395.389 18.4118Z" fill="#E9F3FC"/>
<path d="M244.646 37.0849C242.538 34.9766 239.626 33.6715 236.407 33.6715H224.821C223.095 25.7338 216.034 19.7871 207.577 19.7871C199.121 19.7871 192.056 25.7338 190.333 33.6715H187.221C184.005 33.6715 181.09 34.9766 178.982 37.0849C176.873 39.1932 175.568 42.1046 175.568 45.3239C175.568 48.8811 177.165 52.067 179.678 54.2053C181.709 55.9321 184.343 56.9729 187.217 56.9729H236.407C239.623 56.9729 242.538 55.6677 244.646 53.5595C246.754 51.4512 248.059 48.5398 248.059 45.3205C248.059 42.1046 246.754 39.1898 244.646 37.0816V37.0849Z" fill="#E9F3FC"/>
<path d="M564.677 194.978V260.946C504.705 250.562 424.092 241.069 329.803 241.069C121.66 241.069 -41.5863 287.323 -41.5863 287.323C-53.7004 261.425 -40.2778 186.839 -8.68396 169.378C22.9132 151.919 50.3508 186.839 75.2952 174.367C100.24 161.895 76.8982 51.6361 115.205 44.5416C153.508 37.4471 177.63 108.385 224.446 108.385C271.263 108.385 264.172 37.4471 318.92 34.6093C373.665 31.7715 372.219 107.237 405.151 107.237C438.084 107.237 424.732 76.9754 476.354 76.0852C527.98 75.1951 542.219 182.891 564.329 194.797C564.446 194.861 564.56 194.921 564.677 194.978Z" fill="url(#paint0_linear_996_114798)"/>
<path d="M93.5095 303.439C87.5093 303.259 80.9971 301.15 81.141 291.513C81.2849 281.875 88.279 280.376 88.9951 273.164C89.7113 265.952 89.7447 259.243 93.5095 259.169C97.2776 259.099 94.8916 262.181 96.6485 265.524C98.402 268.867 101.802 273.144 101.143 279.392C100.483 285.64 104.931 288.032 104.7 293.142C104.466 298.252 101.273 303.674 93.5128 303.436L93.5095 303.439Z" fill="#DAEEFF"/>
<path d="M95.7275 278.83C95.6204 278.732 95.4598 278.739 95.3594 278.843C95.259 278.947 95.2657 279.114 95.3695 279.211C95.3862 279.228 96.9323 280.784 96.775 286.115C96.6378 290.723 94.2484 297.854 93.4921 300.006C92.7827 298.326 91.8657 296.475 91.096 294.916C90.574 293.862 90.1256 292.955 89.8813 292.379C88.9911 290.284 90.3464 285.881 90.3598 285.837C90.4033 285.7 90.3264 285.553 90.1892 285.509C90.052 285.466 89.9047 285.543 89.8612 285.68C89.801 285.867 88.4323 290.311 89.3994 292.583C89.6504 293.172 90.1022 294.086 90.6275 295.147C92.0331 297.988 94.1614 302.278 94.1279 303.948C94.0811 306.264 93.8033 309.587 93.8 309.62C93.7866 309.764 93.8937 309.891 94.0376 309.905C94.0443 309.905 94.051 309.905 94.061 309.905C94.1949 309.905 94.3086 309.801 94.322 309.664C94.322 309.63 94.6065 306.29 94.6533 303.958C94.6667 303.212 94.3153 302.051 93.7933 300.729C94.138 299.782 97.1464 291.375 97.3037 286.128C97.471 280.513 95.8045 278.893 95.7342 278.826L95.7275 278.83Z" fill="#6AC1FF"/>
<path d="M434.574 225.4C429.457 225.246 423.909 223.449 424.029 215.234C424.15 207.018 430.116 205.74 430.725 199.592C431.335 193.445 431.365 187.722 434.574 187.662C437.786 187.602 435.752 190.229 437.248 193.08C438.744 195.931 441.642 199.575 441.079 204.903C440.517 210.231 444.309 212.269 444.111 216.626C443.91 220.979 441.19 225.601 434.574 225.403V225.4Z" fill="#DAEEFF"/>
<path d="M436.469 204.421C436.379 204.338 436.238 204.344 436.154 204.431C436.071 204.522 436.074 204.662 436.161 204.746C436.175 204.759 437.493 206.085 437.359 210.632C437.242 214.561 435.207 220.638 434.562 222.476C433.956 221.043 433.176 219.467 432.517 218.139C432.072 217.242 431.687 216.465 431.479 215.977C430.72 214.19 431.878 210.435 431.888 210.398C431.925 210.281 431.858 210.154 431.74 210.117C431.623 210.08 431.496 210.147 431.459 210.264C431.409 210.425 430.241 214.213 431.064 216.151C431.279 216.653 431.663 217.432 432.112 218.336C433.31 220.759 435.124 224.416 435.094 225.839C435.053 227.813 434.816 230.648 434.812 230.674C434.802 230.798 434.893 230.905 435.017 230.915C435.023 230.915 435.03 230.915 435.037 230.915C435.15 230.915 435.248 230.828 435.258 230.711C435.258 230.681 435.498 227.833 435.539 225.845C435.552 225.21 435.251 224.219 434.806 223.091C435.1 222.281 437.664 215.117 437.797 210.642C437.938 205.857 436.519 204.475 436.459 204.418L436.469 204.421Z" fill="#6AC1FF"/>
<path d="M154.353 214.628C150.836 214.521 147.017 213.286 147.101 207.634C147.185 201.982 151.287 201.102 151.706 196.875C152.124 192.649 152.144 188.713 154.353 188.67C156.561 188.626 155.163 190.437 156.193 192.394C157.224 194.352 159.215 196.862 158.83 200.526C158.445 204.191 161.052 205.593 160.915 208.588C160.778 211.583 158.907 214.762 154.353 214.625V214.628Z" fill="#DAEEFF"/>
<path d="M155.655 200.198C155.592 200.141 155.498 200.144 155.441 200.205C155.384 200.265 155.384 200.362 155.448 200.422C155.458 200.432 156.365 201.342 156.271 204.471C156.191 207.172 154.788 211.355 154.347 212.617C153.932 211.633 153.393 210.545 152.941 209.632C152.637 209.016 152.372 208.48 152.228 208.146C151.706 206.918 152.503 204.334 152.509 204.307C152.536 204.227 152.489 204.14 152.409 204.117C152.329 204.09 152.242 204.137 152.218 204.217C152.185 204.327 151.382 206.934 151.947 208.266C152.094 208.611 152.359 209.146 152.667 209.769C153.49 211.435 154.738 213.952 154.718 214.929C154.691 216.288 154.527 218.235 154.527 218.255C154.521 218.339 154.584 218.413 154.668 218.423C154.671 218.423 154.678 218.423 154.681 218.423C154.762 218.423 154.829 218.362 154.835 218.282C154.835 218.262 155.003 216.304 155.029 214.936C155.039 214.497 154.832 213.815 154.524 213.042C154.725 212.486 156.492 207.557 156.582 204.478C156.679 201.185 155.702 200.235 155.662 200.198H155.655Z" fill="#6AC1FF"/>
<path d="M487.698 329.281C481.547 329.094 474.874 326.935 475.018 317.056C475.165 307.178 482.337 305.638 483.069 298.249C483.802 290.857 483.836 283.977 487.698 283.907C491.559 283.833 489.117 286.992 490.914 290.419C492.711 293.845 496.194 298.229 495.522 304.634C494.849 311.04 499.407 313.492 499.166 318.73C498.925 323.967 495.655 329.522 487.698 329.284V329.281Z" fill="#DAEEFF"/>
<path d="M489.974 304.056C489.867 303.955 489.7 303.962 489.596 304.069C489.496 304.176 489.499 304.347 489.606 304.447C489.623 304.464 491.209 306.06 491.045 311.525C490.904 316.247 488.455 323.555 487.682 325.764C486.956 324.044 486.015 322.147 485.225 320.547C484.69 319.466 484.228 318.536 483.977 317.947C483.064 315.798 484.456 311.284 484.469 311.24C484.513 311.1 484.436 310.949 484.292 310.906C484.151 310.862 484.001 310.939 483.957 311.083C483.897 311.277 482.491 315.832 483.485 318.161C483.743 318.763 484.208 319.704 484.744 320.788C486.186 323.699 488.364 328.1 488.331 329.81C488.284 332.183 487.996 335.593 487.993 335.626C487.98 335.773 488.09 335.904 488.237 335.917C488.244 335.917 488.254 335.917 488.261 335.917C488.398 335.917 488.515 335.81 488.528 335.673C488.528 335.639 488.82 332.216 488.866 329.823C488.883 329.057 488.522 327.866 487.986 326.514C488.341 325.54 491.423 316.923 491.584 311.545C491.754 305.789 490.048 304.129 489.974 304.062V304.056Z" fill="#6AC1FF"/>
<path d="M432.864 370.061C432.864 372.223 369.93 373.976 292.296 373.976C214.662 373.976 151.729 372.223 151.729 370.061C151.729 367.899 214.662 366.146 292.296 366.146C369.93 366.146 432.864 367.899 432.864 370.061Z" fill="url(#paint1_radial_996_114798)"/>
<path d="M259.567 132.322C259.567 132.322 247.091 120.275 246.593 120.573C246.097 120.871 246.546 123.943 246.546 123.943C246.546 123.943 242.594 120.382 240.613 121.998C238.631 123.615 246.599 139.062 251.806 140.983L259.567 132.322Z" fill="#FFAA9D"/>
<path d="M256.69 127.561L246.918 138.724C246.918 138.724 261.626 167.587 291.432 168.531C321.239 169.475 346.94 153.783 346.425 135.093C346.016 120.322 320.346 131.359 311.056 135.84C301.77 140.324 284.003 147.422 256.686 127.561H256.69Z" fill="url(#paint2_linear_996_114798)"/>
<path d="M344.685 350.38L346.378 359.586H316.096L312.559 350.38H344.685Z" fill="#FFAA9D"/>
<path d="M316.094 359.586H347.176L348.612 369.177H306.697L316.094 359.586Z" fill="#0B2252"/>
<path d="M346.378 350.38C346.378 350.38 340.973 305.334 340.779 301.817C340.585 298.3 340.448 286.577 346.378 281.691C352.308 276.805 366.319 258.671 368.133 242.18C369.95 225.685 368.133 198.057 368.133 198.057H330.315C330.315 198.057 301.234 243.783 301.234 270.156C301.234 303.574 307.415 347.449 309.162 350.38H346.378Z" fill="url(#paint3_linear_996_114798)"/>
<path d="M379.404 198.057L406.393 350.38H370.974L325.553 210.328L379.404 198.057Z" fill="#14336D"/>
<path d="M376.158 359.586H406.44L408.705 369.177H370.295L376.158 359.586Z" fill="#0B2252"/>
<path d="M404.745 350.38L406.438 359.586H376.156L372.619 350.38H404.745Z" fill="#FFAA9D"/>
<path d="M371.71 134.859C371.71 134.859 384.838 204.14 382.881 207.922C376.278 220.678 317.491 217.847 319.894 211.067C326.46 192.545 325.288 142.315 331.747 133.728C337.727 125.78 345.903 124.796 352.816 124.796C367.618 124.796 370.546 128.075 371.707 134.859H371.71Z" fill="url(#paint4_linear_996_114798)"/>
<path d="M336.549 107.602L335.094 117.076L336.516 117.227C336.516 117.227 336.566 125.238 342.282 124.766C343.925 124.629 346.144 123.565 346.693 123.913C347.345 124.328 347.345 126.52 347.419 127.162C347.693 129.625 356.347 128.374 355.336 125.75C354.376 123.26 352.904 119.837 353.429 119.014C355.263 116.149 356.715 108.606 349.417 105.009C343.604 102.141 337.065 104.363 336.546 107.599L336.549 107.602Z" fill="#FFAA9D"/>
<path d="M355.339 125.75C354.379 123.26 352.906 119.837 353.432 119.014C353.432 119.014 349.537 123.508 346.468 123.846C346.461 123.846 346.458 123.849 346.451 123.849C346.548 123.856 346.635 123.873 346.695 123.91C347.348 124.324 347.348 126.516 347.422 127.159C347.696 129.622 356.35 128.37 355.339 125.747V125.75Z" fill="#FF9F91"/>
<path d="M348.74 114.034C352.398 113.917 349.075 121.577 353.05 121.854C357.026 122.136 360.961 113.903 358.99 106.866C357.019 99.8281 351.471 99.4332 346.106 99.6139C340.742 99.7946 333.992 101.274 333.447 105.236C332.135 114.77 344.527 108.335 344.875 111.303C345.146 113.599 345.143 120.134 342.824 119.964C340.504 119.793 338.426 117.574 336.546 117.809C335.461 117.942 330.853 130.05 338.313 131.509C345.691 132.951 348.486 126.647 347.659 121.068C346.873 115.761 346.953 114.087 348.737 114.03L348.74 114.034Z" fill="#14336A"/>
<path d="M356.43 213.858C356.43 213.858 343.322 225.216 343.576 225.735C343.827 226.257 346.929 226.083 346.929 226.083C346.929 226.083 343.03 229.704 344.466 231.822C345.898 233.94 361.995 227.375 364.371 222.358L356.433 213.862L356.43 213.858Z" fill="#FFAA9D"/>
<path d="M351.431 216.304L361.681 227.026C361.681 227.026 391.736 214.939 395.323 185.333C398.907 155.727 385.562 128.735 366.898 127.59C352.147 126.683 360.861 153.234 364.502 162.885C368.143 172.533 373.638 190.861 351.428 216.304H351.431Z" fill="url(#paint5_linear_996_114798)"/>
<path d="M150.546 281.018C149.854 284.479 154.007 285.171 154.699 290.017C155.392 294.863 153.314 296.248 154.007 299.016C154.699 301.783 158.852 302.476 159.545 309.4C160.238 316.323 157.467 315.631 158.16 319.784C158.852 323.937 163.005 323.937 163.698 327.4C164.391 330.86 164.391 335.706 165.776 339.862C167.161 344.015 171.314 350.246 173.393 350.246C175.471 350.246 181.009 338.477 179.624 335.017C178.238 331.556 176.163 330.864 176.163 328.093C176.163 325.322 178.931 318.402 178.242 313.556C177.549 308.71 171.318 306.632 170.625 303.172C169.932 299.712 172.01 290.71 167.165 286.557C162.319 282.404 151.242 277.558 150.55 281.018H150.546Z" fill="#3FB790"/>
<path d="M173.075 349.058C172.884 349.058 172.73 348.905 172.73 348.714C172.73 348.623 172.67 339.628 170.033 336.991C167.359 334.317 165.833 326.132 165.087 310.457C164.407 296.215 154.201 284.482 154.097 284.365C153.97 284.221 153.983 284.003 154.127 283.876C154.271 283.749 154.489 283.763 154.616 283.906C154.719 284.024 165.087 295.934 165.776 310.424C166.506 325.707 168.012 333.993 170.521 336.503C173.359 339.34 173.419 348.329 173.419 348.71C173.419 348.901 173.265 349.058 173.075 349.058Z" fill="#34916F"/>
<path d="M213.912 291.496C216.358 293.943 208.374 294.957 207.681 299.802C206.988 304.648 206.988 306.726 204.221 309.494C201.453 312.261 197.297 312.954 197.989 317.11C198.682 321.263 200.068 325.416 197.989 327.494C195.911 329.572 191.066 329.572 189.684 333.033C188.298 336.493 188.991 340.649 186.223 344.109C183.456 347.57 179.3 354.493 175.839 353.108C172.379 351.722 174.454 335.8 175.839 333.033C177.225 330.265 178.607 328.187 178.607 326.109C178.607 324.031 177.914 320.57 179.3 317.11C180.685 313.65 188.298 312.264 188.991 310.186C189.684 308.108 190.376 297.035 194.529 294.264C198.682 291.493 209.759 287.34 213.912 291.496Z" fill="#4FC7A0"/>
<path d="M176.914 351.92C176.853 351.92 176.79 351.904 176.736 351.87C176.572 351.773 176.519 351.559 176.619 351.395C176.646 351.348 179.42 346.713 180.006 344.371C180.156 343.768 180.34 342.851 180.548 341.794C181.314 337.952 182.469 332.143 184.249 330.366C186.832 327.782 190.959 319.871 193.853 309.748C197.417 297.276 209.197 293.625 209.317 293.588C209.505 293.535 209.695 293.639 209.749 293.819C209.802 294.003 209.699 294.194 209.518 294.251C209.404 294.284 197.979 297.835 194.523 309.936C191.598 320.173 187.388 328.207 184.744 330.854C183.115 332.484 181.937 338.397 181.234 341.931C181.02 342.999 180.839 343.919 180.682 344.541C180.073 346.984 177.332 351.562 177.218 351.756C177.155 351.863 177.037 351.924 176.92 351.924L176.914 351.92Z" fill="#3FB690"/>
<path d="M176.03 299.424C167.724 300.116 170.491 325.037 170.491 325.037C172.57 346.498 175.337 356.19 177.415 356.882C179.493 357.575 183.646 326.423 183.646 318.806C183.646 318.806 184.339 298.731 176.03 299.424Z" fill="#90DAD8"/>
<path d="M177.067 353.419C177.067 353.419 177.037 353.419 177.024 353.419C176.833 353.395 176.699 353.225 176.723 353.034C179.453 330.492 176.063 302.175 176.03 301.89C176.007 301.699 176.14 301.529 176.331 301.505C176.515 301.479 176.693 301.616 176.716 301.806C176.753 302.091 180.149 330.492 177.409 353.118C177.389 353.295 177.238 353.422 177.067 353.422V353.419Z" fill="white"/>
<path d="M187.385 369.178H166.319C165.616 369.178 165.024 368.749 164.943 368.18L161.881 346.338C161.744 345.354 162.507 344.478 163.501 344.478H190.202C191.196 344.478 191.959 345.354 191.822 346.338L188.76 368.18C188.68 368.749 188.087 369.178 187.385 369.178Z" fill="#D0DAED"/>
<path d="M251.335 207.864H232.303C231.711 207.864 231.232 207.386 231.232 206.794C231.232 206.201 231.711 205.723 232.303 205.723H251.335C251.927 205.723 252.405 206.201 252.405 206.794C252.405 207.386 251.927 207.864 251.335 207.864Z" fill="#50C6A1"/>
<path d="M245.049 218.75C244.835 218.75 244.665 218.58 244.665 218.365V133.279C244.665 131.709 243.386 130.431 241.817 130.431C240.247 130.431 238.969 131.709 238.969 133.279V218.365C238.969 218.58 238.798 218.75 238.584 218.75C238.37 218.75 238.199 218.58 238.199 218.365V133.279C238.199 131.284 239.822 129.661 241.817 129.661C243.811 129.661 245.434 131.284 245.434 133.279V218.365C245.434 218.58 245.264 218.75 245.049 218.75Z" fill="#14336A"/>
<path d="M251.984 218.75C251.769 218.75 251.599 218.58 251.599 218.365V140.212C251.599 134.818 247.211 130.431 241.817 130.431C236.423 130.431 232.035 134.818 232.035 140.212V218.365C232.035 218.58 231.865 218.75 231.65 218.75C231.436 218.75 231.266 218.58 231.266 218.365V140.212C231.266 134.396 235.998 129.661 241.817 129.661C247.636 129.661 252.368 134.393 252.368 140.212V218.365C252.368 218.58 252.198 218.75 251.984 218.75Z" fill="#14336A"/>
<path d="M259.126 218.75C258.911 218.75 258.741 218.58 258.741 218.365V147.354C258.741 138.024 251.151 130.431 241.818 130.431C232.484 130.431 224.895 138.021 224.895 147.354V218.365C224.895 218.58 224.724 218.75 224.51 218.75C224.296 218.75 224.125 218.58 224.125 218.365V147.354C224.125 137.599 232.063 129.661 241.818 129.661C251.573 129.661 259.51 137.599 259.51 147.354V218.365C259.51 218.58 259.34 218.75 259.126 218.75Z" fill="#14336A"/>
<path d="M266.312 218.75C266.098 218.75 265.928 218.58 265.928 218.365V154.542C265.928 141.247 255.112 130.431 241.816 130.431C228.521 130.431 217.705 141.247 217.705 154.542V218.365C217.705 218.58 217.535 218.75 217.32 218.75C217.106 218.75 216.936 218.58 216.936 218.365V154.542C216.936 140.822 228.096 129.661 241.816 129.661C255.537 129.661 266.697 140.822 266.697 154.542V218.365C266.697 218.58 266.527 218.75 266.312 218.75Z" fill="#14336A"/>
<path d="M273.915 218.75C273.701 218.75 273.53 218.58 273.53 218.365V162.145C273.53 144.657 259.305 130.431 241.816 130.431C224.327 130.431 210.102 144.657 210.102 162.145V218.365C210.102 218.58 209.931 218.75 209.717 218.75C209.503 218.75 209.332 218.58 209.332 218.365V162.145C209.332 144.235 223.906 129.661 241.816 129.661C259.726 129.661 274.3 144.235 274.3 162.145V218.365C274.3 218.58 274.129 218.75 273.915 218.75Z" fill="#14336A"/>
<path d="M274.277 220.113H209.356C208.392 220.113 207.609 219.33 207.609 218.366C207.609 217.402 208.392 216.619 209.356 216.619H274.277C275.241 216.619 276.024 217.402 276.024 218.366C276.024 219.33 275.241 220.113 274.277 220.113Z" fill="#50C6A1"/>
<path d="M280.318 205.379H266.313C266.099 205.379 265.928 205.208 265.928 204.994C265.928 204.78 266.099 204.609 266.313 204.609H279.933V178.51H259.125C258.911 178.51 258.74 178.339 258.74 178.125C258.74 177.911 258.911 177.74 259.125 177.74H280.318C280.529 177.74 280.703 177.911 280.703 178.125V204.994C280.703 205.208 280.532 205.379 280.318 205.379Z" fill="#14336A"/>
<path d="M273.915 162.53H209.717C209.503 162.53 209.332 162.36 209.332 162.146C209.332 161.931 209.503 161.761 209.717 161.761H273.915C274.126 161.761 274.3 161.931 274.3 162.146C274.3 162.36 274.129 162.53 273.915 162.53Z" fill="#14336A"/>
<path d="M241.817 148.224C233.397 148.224 225.238 145.222 218.84 139.768C218.679 139.63 218.659 139.386 218.796 139.226C218.933 139.065 219.178 139.045 219.338 139.182C225.596 144.516 233.581 147.454 241.817 147.454C250.052 147.454 258.033 144.516 264.295 139.182C264.455 139.045 264.7 139.065 264.837 139.226C264.974 139.386 264.954 139.63 264.793 139.768C258.395 145.219 250.236 148.224 241.817 148.224Z" fill="#14336A"/>
<path d="M241.817 127.433C240.067 127.433 238.645 126.011 238.645 124.26C238.645 122.51 240.067 121.088 241.817 121.088C243.567 121.088 244.989 122.51 244.989 124.26C244.989 126.011 243.567 127.433 241.817 127.433ZM241.817 121.854C240.492 121.854 239.414 122.932 239.414 124.257C239.414 125.582 240.492 126.66 241.817 126.66C243.142 126.66 244.22 125.582 244.22 124.257C244.22 122.932 243.142 121.854 241.817 121.854Z" fill="#14336A"/>
<path d="M241.816 130.431C241.606 130.431 241.432 130.261 241.432 130.046V127.048C241.432 126.834 241.602 126.663 241.816 126.663C242.031 126.663 242.201 126.834 242.201 127.048V130.046C242.201 130.261 242.031 130.431 241.816 130.431Z" fill="#14336A"/>
<path d="M287.385 228.62C287.385 228.62 292.578 223.346 295.965 223.158C295.965 223.158 295.192 230.965 287.385 228.62Z" fill="#50C6A1"/>
<path d="M287.801 228.633C287.767 228.633 287.734 228.613 287.72 228.576C287.704 228.533 287.727 228.486 287.77 228.469C287.837 228.446 294.493 226.09 296.495 222.094C296.515 222.054 296.565 222.037 296.605 222.057C296.645 222.077 296.662 222.128 296.642 222.168C294.611 226.224 287.891 228.603 287.824 228.626C287.814 228.626 287.807 228.63 287.797 228.63L287.801 228.633Z" fill="#14336A"/>
<path d="M273.723 282.323C273.723 282.323 275.332 275.095 278.1 273.144C278.1 273.144 281.583 280.171 273.723 282.323Z" fill="#50C6A1"/>
<path d="M274.077 282.112C274.047 282.129 274.01 282.129 273.98 282.105C273.943 282.075 273.94 282.025 273.967 281.988C274.01 281.931 278.408 276.406 277.986 271.959C277.983 271.912 278.016 271.872 278.059 271.868C278.106 271.865 278.147 271.899 278.15 271.942C278.578 276.46 274.141 282.038 274.097 282.092C274.091 282.099 274.084 282.105 274.077 282.112Z" fill="#14336A"/>
<path d="M261.217 244.86C261.217 244.86 256.023 239.586 252.637 239.398C252.637 239.398 253.41 247.206 261.217 244.86Z" fill="#50C6A1"/>
<path d="M260.805 244.873C260.838 244.873 260.872 244.853 260.885 244.816C260.902 244.773 260.879 244.726 260.835 244.709C260.768 244.686 254.112 242.33 252.111 238.334C252.091 238.294 252.041 238.277 252 238.298C251.96 238.318 251.944 238.368 251.964 238.408C253.995 242.464 260.715 244.843 260.781 244.867C260.792 244.867 260.798 244.87 260.808 244.87L260.805 244.873Z" fill="#14336A"/>
</g>
</g>
<defs>
<linearGradient id="paint0_linear_996_114798" x1="259.337" y1="53.2926" x2="259.337" y2="208.765" gradientUnits="userSpaceOnUse">
<stop stop-color="#E9F3FC"/>
<stop offset="1" stop-color="white"/>
</linearGradient>
<radialGradient id="paint1_radial_996_114798" cx="0" cy="0" r="1" gradientUnits="userSpaceOnUse" gradientTransform="translate(291.857 371.316) scale(145.131 173.639)">
<stop stop-color="#D0DFF3"/>
<stop offset="0.99" stop-color="#D0DFF3"/>
</radialGradient>
<linearGradient id="paint2_linear_996_114798" x1="260.685" y1="127.905" x2="401.153" y2="182.928" gradientUnits="userSpaceOnUse">
<stop stop-color="#3162DF"/>
<stop offset="0.96" stop-color="#173DB8"/>
</linearGradient>
<linearGradient id="paint3_linear_996_114798" x1="301.509" y1="319.864" x2="344.032" y2="267.174" gradientUnits="userSpaceOnUse">
<stop stop-color="#14336D"/>
<stop offset="0.97" stop-color="#0E2253"/>
</linearGradient>
<linearGradient id="paint4_linear_996_114798" x1="329.548" y1="156.852" x2="388.188" y2="209.906" gradientUnits="userSpaceOnUse">
<stop stop-color="#3162DF"/>
<stop offset="0.96" stop-color="#173DB8"/>
</linearGradient>
<linearGradient id="paint5_linear_996_114798" x1="358.237" y1="167.87" x2="405.292" y2="213.602" gradientUnits="userSpaceOnUse">
<stop stop-color="#3162DF"/>
<stop offset="0.96" stop-color="#173DB8"/>
</linearGradient>
<clipPath id="clip0_996_114798">
<rect width="610.677" height="373.976" fill="white" transform="translate(-46)"/>
</clipPath>
</defs>
</svg>
