<svg width="608" height="374" viewBox="0 0 608 374" fill="none" xmlns="http://www.w3.org/2000/svg">
<mask id="mask0_996_114486" style="mask-type:alpha" maskUnits="userSpaceOnUse" x="0" y="0" width="608" height="374">
<rect width="608" height="374" fill="#D9D9D9"/>
</mask>
<g mask="url(#mask0_996_114486)">
<path opacity="0.2" d="M321.873 374.148C420.982 374.148 501.326 371.92 501.326 369.171C501.326 366.422 420.982 364.193 321.873 364.193C222.764 364.193 142.42 366.422 142.42 369.171C142.42 371.92 222.764 374.148 321.873 374.148Z" fill="#0B2252"/>
<path d="M587.586 187.282V256.138C525.013 245.299 440.902 235.39 342.522 235.39C125.349 235.39 -44.9807 283.669 -44.9807 283.669C-57.6204 256.637 -43.6155 178.787 -10.6508 160.561C22.3172 142.338 50.9452 178.787 76.9719 165.769C102.999 152.751 78.6444 37.666 118.613 30.261C158.579 22.856 183.746 96.8989 232.594 96.8989C281.443 96.8989 274.044 22.856 331.167 19.894C388.287 16.932 386.779 95.7008 421.14 95.7008C455.501 95.7008 441.569 64.1144 495.432 63.1852C549.297 62.2561 564.154 174.665 587.223 187.093C587.346 187.159 587.464 187.222 587.586 187.282Z" fill="url(#paint0_linear_996_114486)"/>
<path d="M107.74 262.449C101.479 262.261 94.6843 260.06 94.8345 250.001C94.9846 239.941 102.282 238.376 103.029 230.849C103.773 223.322 103.808 216.318 107.74 216.241C111.671 216.168 109.182 219.385 111.015 222.875C112.844 226.364 116.392 230.828 115.704 237.349C115.016 243.87 119.657 246.368 119.416 251.702C119.171 257.035 115.84 262.694 107.743 262.446L107.74 262.449Z" fill="#DAEEFF"/>
<path d="M110.05 236.762C109.939 236.661 109.771 236.668 109.666 236.776C109.561 236.884 109.568 237.059 109.677 237.16C109.694 237.178 111.307 238.802 111.143 244.366C111 249.176 108.507 256.619 107.718 258.865C106.978 257.112 106.021 255.18 105.218 253.553C104.673 252.452 104.205 251.506 103.95 250.905C103.022 248.718 104.436 244.122 104.45 244.076C104.495 243.933 104.415 243.78 104.272 243.734C104.128 243.689 103.975 243.769 103.929 243.912C103.867 244.108 102.438 248.746 103.448 251.118C103.709 251.733 104.181 252.686 104.729 253.794C106.195 256.759 108.416 261.237 108.381 262.98C108.332 265.397 108.043 268.866 108.039 268.901C108.025 269.051 108.137 269.184 108.287 269.197C108.294 269.197 108.301 269.197 108.311 269.197C108.451 269.197 108.57 269.089 108.584 268.946C108.584 268.911 108.881 265.425 108.929 262.991C108.943 262.212 108.577 261 108.032 259.62C108.392 258.631 111.531 249.857 111.695 244.38C111.869 238.519 110.131 236.829 110.057 236.759L110.05 236.762Z" fill="#6AC1FF"/>
<path d="M563.969 229.095C558.63 228.934 552.841 227.058 552.967 218.483C553.093 209.908 559.318 208.574 559.954 202.157C560.589 195.741 560.621 189.768 563.969 189.705C567.321 189.642 565.198 192.384 566.759 195.36C568.32 198.336 571.343 202.14 570.757 207.701C570.17 213.261 574.126 215.389 573.92 219.936C573.711 224.481 570.872 229.304 563.969 229.098V229.095Z" fill="#DAEEFF"/>
<path d="M565.943 207.197C565.848 207.11 565.702 207.117 565.615 207.208C565.527 207.302 565.531 207.449 565.621 207.536C565.635 207.55 567.011 208.933 566.872 213.68C566.749 217.781 564.626 224.124 563.953 226.042C563.321 224.547 562.507 222.902 561.819 221.515C561.355 220.579 560.953 219.768 560.737 219.259C559.944 217.393 561.152 213.474 561.163 213.436C561.201 213.314 561.131 213.181 561.009 213.142C560.887 213.104 560.754 213.174 560.716 213.296C560.663 213.464 559.445 217.418 560.304 219.44C560.527 219.964 560.929 220.778 561.397 221.721C562.647 224.25 564.539 228.068 564.508 229.552C564.466 231.613 564.218 234.571 564.214 234.599C564.204 234.729 564.298 234.84 564.427 234.851C564.434 234.851 564.441 234.851 564.448 234.851C564.567 234.851 564.668 234.76 564.679 234.638C564.679 234.606 564.93 231.634 564.972 229.559C564.986 228.895 564.672 227.862 564.207 226.684C564.515 225.839 567.189 218.361 567.329 213.691C567.476 208.696 565.995 207.253 565.932 207.194L565.943 207.197Z" fill="#6AC1FF"/>
<path d="M180.531 217.019C176.861 216.907 172.877 215.619 172.964 209.719C173.052 203.819 177.332 202.901 177.769 198.489C178.205 194.074 178.226 189.97 180.531 189.925C182.835 189.879 181.376 191.769 182.451 193.812C183.523 195.859 185.604 198.475 185.203 202.3C184.801 206.125 187.521 207.588 187.378 210.714C187.235 213.841 185.283 217.159 180.534 217.016L180.531 217.019Z" fill="#DAEEFF"/>
<path d="M181.889 201.958C181.823 201.899 181.725 201.903 181.666 201.965C181.606 202.028 181.606 202.13 181.673 202.192C181.683 202.203 182.629 203.153 182.532 206.419C182.448 209.238 180.985 213.604 180.524 214.921C180.091 213.894 179.529 212.759 179.057 211.805C178.74 211.159 178.464 210.603 178.314 210.254C177.769 208.972 178.6 206.276 178.607 206.248C178.635 206.164 178.586 206.073 178.502 206.049C178.418 206.021 178.328 206.07 178.303 206.153C178.268 206.269 177.43 208.99 178.02 210.38C178.174 210.74 178.45 211.299 178.771 211.948C179.63 213.688 180.932 216.314 180.912 217.334C180.884 218.752 180.712 220.785 180.712 220.806C180.705 220.894 180.772 220.97 180.859 220.981C180.863 220.981 180.87 220.981 180.873 220.981C180.957 220.981 181.027 220.918 181.034 220.834C181.034 220.813 181.208 218.77 181.236 217.341C181.247 216.884 181.03 216.171 180.709 215.364C180.918 214.784 182.762 209.639 182.856 206.426C182.958 202.989 181.938 201.997 181.896 201.958H181.889Z" fill="#6AC1FF"/>
<path d="M498.771 283.079C492.354 282.883 485.391 280.63 485.541 270.319C485.695 260.008 493.178 258.401 493.942 250.689C494.707 242.973 494.742 235.791 498.771 235.718C502.801 235.641 500.252 238.939 502.127 242.515C504.002 246.092 507.637 250.668 506.935 257.353C506.229 264.039 510.989 266.599 510.737 272.065C510.486 277.532 507.074 283.33 498.771 283.082V283.079Z" fill="#DAEEFF"/>
<path d="M501.144 256.749C501.032 256.644 500.858 256.651 500.749 256.763C500.645 256.875 500.648 257.053 500.76 257.158C500.777 257.175 502.432 258.841 502.261 264.545C502.115 269.474 499.559 277.102 498.752 279.408C497.995 277.612 497.013 275.632 496.189 273.962C495.631 272.834 495.149 271.863 494.887 271.248C493.934 269.006 495.386 264.294 495.4 264.249C495.446 264.102 495.365 263.945 495.215 263.899C495.069 263.854 494.911 263.934 494.866 264.084C494.803 264.287 493.337 269.041 494.374 271.472C494.643 272.101 495.128 273.082 495.687 274.214C497.191 277.253 499.465 281.846 499.43 283.631C499.381 286.107 499.08 289.666 499.077 289.701C499.063 289.855 499.178 289.991 499.332 290.005C499.339 290.005 499.349 290.005 499.356 290.005C499.499 290.005 499.622 289.894 499.636 289.75C499.636 289.715 499.939 286.142 499.988 283.645C500.006 282.845 499.629 281.601 499.07 280.19C499.44 279.174 502.656 270.179 502.824 264.566C503.002 258.559 501.221 256.826 501.144 256.756V256.749Z" fill="#6AC1FF"/>
<path d="M397.354 231.394C384.501 231.394 374.082 220.971 374.082 208.113V198.099C374.082 195.937 375.835 194.187 377.993 194.187C380.154 194.187 381.903 195.941 381.903 198.099V201.285C381.903 202.804 383.136 204.034 384.655 204.034C386.174 204.034 387.406 202.801 387.406 201.285V187.732C387.406 185.912 388.88 184.435 390.702 184.435C392.521 184.435 393.998 185.909 393.998 187.732V190.876C393.998 192.689 395.468 194.159 397.28 194.159C399.093 194.159 400.563 192.689 400.563 190.876V176.743C400.563 174.938 402.026 173.478 403.827 173.478C405.633 173.478 407.092 174.941 407.092 176.743V189.227C407.092 190.806 408.373 192.088 409.952 192.088C411.53 192.088 412.811 190.806 412.811 189.227V184.127C412.811 181.969 414.561 180.219 416.718 180.219C418.876 180.219 420.626 181.969 420.626 184.127V208.11C420.626 220.967 410.207 231.39 397.354 231.39V231.394Z" fill="url(#paint1_linear_996_114486)"/>
<path d="M469.646 366.995H393.784C392.432 366.995 391.207 366.447 390.32 365.56C389.433 364.673 388.885 363.45 388.885 362.095V218.309C388.885 216.957 389.433 215.731 390.32 214.844C391.207 213.957 392.429 213.408 393.784 213.408H469.646C470.75 213.408 471.769 213.775 472.586 214.39C473.774 215.284 474.542 216.706 474.542 218.305V362.091C474.542 363.443 473.994 364.669 473.107 365.556C472.22 366.443 470.998 366.992 469.643 366.992L469.646 366.995Z" fill="white"/>
<path d="M469.65 369.682H393.787C391.762 369.682 389.859 368.892 388.428 367.46C386.996 366.028 386.207 364.125 386.207 362.099V218.313C386.207 216.287 386.996 214.383 388.428 212.951C389.859 211.519 391.762 210.729 393.787 210.729H469.65C471.309 210.729 472.884 211.257 474.207 212.249C476.103 213.674 477.234 215.941 477.234 218.313V362.099C477.234 364.125 476.445 366.028 475.013 367.46C473.582 368.892 471.679 369.682 469.654 369.682H469.65ZM393.787 216.098C393.197 216.098 392.639 216.329 392.223 216.744C391.804 217.163 391.574 217.719 391.574 218.309V362.095C391.574 362.685 391.804 363.244 392.22 363.66C392.639 364.079 393.194 364.31 393.784 364.31H469.647C470.237 364.31 470.792 364.079 471.211 363.66C471.63 363.241 471.857 362.685 471.857 362.095V218.309C471.857 217.607 471.536 216.961 470.974 216.538C470.705 216.336 470.258 216.095 469.647 216.095H393.784L393.787 216.098Z" fill="#E0E9F3"/>
<path d="M461.384 357.651H402.043C401.586 357.651 401.167 357.473 400.856 357.183C400.514 356.866 400.301 356.411 400.301 355.905V344.305C400.301 343.84 400.482 343.418 400.776 343.107C401.093 342.772 401.544 342.559 402.043 342.559H461.384C461.796 342.559 462.173 342.702 462.47 342.939C462.871 343.261 463.129 343.753 463.129 344.305V355.905C463.129 356.338 462.972 356.736 462.71 357.04C462.389 357.414 461.914 357.648 461.387 357.648L461.384 357.651Z" fill="#D0DAED"/>
<path d="M446.865 355.293H424.48C424.2 355.293 423.949 355.182 423.767 354.996C423.586 354.815 423.471 354.56 423.471 354.284V345.932C423.471 345.653 423.582 345.401 423.767 345.22C423.953 345.038 424.204 344.923 424.48 344.923H446.865C447.134 344.923 447.374 345.028 447.556 345.195C447.752 345.38 447.874 345.642 447.874 345.932V354.284C447.874 354.563 447.762 354.815 447.577 354.996C447.395 355.178 447.141 355.293 446.865 355.293Z" fill="white"/>
<path d="M454.074 350.079C454.074 351.375 453.023 352.426 451.727 352.426C450.432 352.426 449.381 351.375 449.381 350.079C449.381 348.783 450.432 347.731 451.727 347.731C453.023 347.731 454.074 348.783 454.074 350.079Z" fill="#50C6A1"/>
<path d="M460.56 350.079C460.56 351.375 459.509 352.426 458.214 352.426C456.918 352.426 455.867 351.375 455.867 350.079C455.867 348.783 456.918 347.731 458.214 347.731C459.509 347.731 460.56 348.783 460.56 350.079Z" fill="white"/>
<path d="M406.558 346.662C406.558 347.623 405.779 348.402 404.819 348.402C403.859 348.402 403.08 347.623 403.08 346.662C403.08 345.702 403.859 344.923 404.819 344.923C405.779 344.923 406.558 345.702 406.558 346.662Z" fill="white"/>
<path d="M419.099 346.662C419.099 347.623 418.32 348.402 417.36 348.402C416.4 348.402 415.621 347.623 415.621 346.662C415.621 345.702 416.4 344.923 417.36 344.923C418.32 344.923 419.099 345.702 419.099 346.662Z" fill="#50C6A1"/>
<path d="M412.831 346.662C412.831 347.623 412.053 348.402 411.092 348.402C410.132 348.402 409.354 347.623 409.354 346.662C409.354 345.702 410.132 344.923 411.092 344.923C412.053 344.923 412.831 345.702 412.831 346.662Z" fill="white"/>
<path d="M406.558 353.554C406.558 354.514 405.779 355.293 404.819 355.293C403.859 355.293 403.08 354.514 403.08 353.554C403.08 352.593 403.859 351.814 404.819 351.814C405.779 351.814 406.558 352.593 406.558 353.554Z" fill="white"/>
<path d="M419.099 353.554C419.099 354.514 418.32 355.293 417.36 355.293C416.4 355.293 415.621 354.514 415.621 353.554C415.621 352.593 416.4 351.814 417.36 351.814C418.32 351.814 419.099 352.593 419.099 353.554Z" fill="white"/>
<path d="M412.831 353.554C412.831 354.514 412.053 355.293 411.092 355.293C410.132 355.293 409.354 354.514 409.354 353.554C409.354 352.593 410.132 351.814 411.092 351.814C412.053 351.814 412.831 352.593 412.831 353.554Z" fill="#50C6A1"/>
<path d="M461.384 337.686H402.043C401.586 337.686 401.167 337.508 400.856 337.218C400.514 336.9 400.301 336.446 400.301 335.939V324.339C400.301 323.875 400.482 323.452 400.776 323.141C401.093 322.806 401.544 322.593 402.043 322.593H461.384C461.796 322.593 462.173 322.736 462.47 322.973C462.871 323.295 463.129 323.787 463.129 324.339V335.939C463.129 336.372 462.972 336.771 462.71 337.074C462.389 337.448 461.914 337.682 461.387 337.682L461.384 337.686Z" fill="#D0DAED"/>
<path d="M446.865 335.325H424.48C424.2 335.325 423.949 335.213 423.767 335.028C423.586 334.846 423.471 334.591 423.471 334.315V325.964C423.471 325.684 423.582 325.433 423.767 325.251C423.953 325.069 424.204 324.954 424.48 324.954H446.865C447.134 324.954 447.374 325.059 447.556 325.227C447.752 325.412 447.874 325.674 447.874 325.964V334.315C447.874 334.595 447.762 334.846 447.577 335.028C447.395 335.209 447.141 335.325 446.865 335.325Z" fill="white"/>
<path d="M454.074 330.11C454.074 331.406 453.023 332.457 451.727 332.457C450.432 332.457 449.381 331.406 449.381 330.11C449.381 328.814 450.432 327.763 451.727 327.763C453.023 327.763 454.074 328.814 454.074 330.11Z" fill="#50C6A1"/>
<path d="M460.56 330.11C460.56 331.406 459.509 332.457 458.214 332.457C456.918 332.457 455.867 331.406 455.867 330.11C455.867 328.814 456.918 327.763 458.214 327.763C459.509 327.763 460.56 328.814 460.56 330.11Z" fill="white"/>
<path d="M406.558 326.694C406.558 327.654 405.779 328.433 404.819 328.433C403.859 328.433 403.08 327.654 403.08 326.694C403.08 325.733 403.859 324.954 404.819 324.954C405.779 324.954 406.558 325.733 406.558 326.694Z" fill="white"/>
<path d="M419.099 326.694C419.099 327.654 418.32 328.433 417.36 328.433C416.4 328.433 415.621 327.654 415.621 326.694C415.621 325.733 416.4 324.954 417.36 324.954C418.32 324.954 419.099 325.733 419.099 326.694Z" fill="#50C6A1"/>
<path d="M412.831 326.694C412.831 327.654 412.053 328.433 411.092 328.433C410.132 328.433 409.354 327.654 409.354 326.694C409.354 325.733 410.132 324.954 411.092 324.954C412.053 324.954 412.831 325.733 412.831 326.694Z" fill="white"/>
<path d="M406.558 333.585C406.558 334.546 405.779 335.325 404.819 335.325C403.859 335.325 403.08 334.546 403.08 333.585C403.08 332.625 403.859 331.846 404.819 331.846C405.779 331.846 406.558 332.625 406.558 333.585Z" fill="white"/>
<path d="M419.099 333.585C419.099 334.546 418.32 335.325 417.36 335.325C416.4 335.325 415.621 334.546 415.621 333.585C415.621 332.625 416.4 331.846 417.36 331.846C418.32 331.846 419.099 332.625 419.099 333.585Z" fill="white"/>
<path d="M412.831 333.585C412.831 334.546 412.053 335.325 411.092 335.325C410.132 335.325 409.354 334.546 409.354 333.585C409.354 332.625 410.132 331.846 411.092 331.846C412.053 331.846 412.831 332.625 412.831 333.585Z" fill="#50C6A1"/>
<path d="M461.384 317.717H402.043C401.586 317.717 401.167 317.539 400.856 317.249C400.514 316.931 400.301 316.477 400.301 315.97V304.37C400.301 303.906 400.482 303.483 400.776 303.172C401.093 302.837 401.544 302.624 402.043 302.624H461.384C461.796 302.624 462.173 302.767 462.47 303.005C462.871 303.326 463.129 303.819 463.129 304.37V315.97C463.129 316.404 462.972 316.802 462.71 317.106C462.389 317.479 461.914 317.713 461.387 317.713L461.384 317.717Z" fill="#D0DAED"/>
<path d="M446.865 315.359H424.48C424.2 315.359 423.949 315.247 423.767 315.062C423.586 314.88 423.471 314.625 423.471 314.349V305.998C423.471 305.718 423.582 305.467 423.767 305.285C423.949 305.104 424.204 304.988 424.48 304.988H446.865C447.134 304.988 447.374 305.093 447.556 305.261C447.752 305.446 447.874 305.708 447.874 305.998V314.349C447.874 314.629 447.762 314.88 447.577 315.062C447.395 315.244 447.141 315.359 446.865 315.359Z" fill="white"/>
<path d="M454.074 310.14C454.074 311.436 453.023 312.487 451.727 312.487C450.432 312.487 449.381 311.436 449.381 310.14C449.381 308.844 450.432 307.793 451.727 307.793C453.023 307.793 454.074 308.844 454.074 310.14Z" fill="#50C6A1"/>
<path d="M460.56 310.14C460.56 311.436 459.509 312.487 458.214 312.487C456.918 312.487 455.867 311.436 455.867 310.14C455.867 308.844 456.918 307.793 458.214 307.793C459.509 307.793 460.56 308.844 460.56 310.14Z" fill="white"/>
<path d="M406.558 306.724C406.558 307.684 405.779 308.463 404.819 308.463C403.859 308.463 403.08 307.684 403.08 306.724C403.08 305.763 403.859 304.984 404.819 304.984C405.779 304.984 406.558 305.763 406.558 306.724Z" fill="white"/>
<path d="M419.099 306.724C419.099 307.684 418.32 308.463 417.36 308.463C416.4 308.463 415.621 307.684 415.621 306.724C415.621 305.763 416.4 304.984 417.36 304.984C418.32 304.984 419.099 305.763 419.099 306.724Z" fill="#50C6A1"/>
<path d="M412.831 306.724C412.831 307.684 412.053 308.463 411.092 308.463C410.132 308.463 409.354 307.684 409.354 306.724C409.354 305.763 410.132 304.984 411.092 304.984C412.053 304.984 412.831 305.763 412.831 306.724Z" fill="white"/>
<path d="M406.558 313.615C406.558 314.576 405.779 315.355 404.819 315.355C403.859 315.355 403.08 314.576 403.08 313.615C403.08 312.655 403.859 311.876 404.819 311.876C405.779 311.876 406.558 312.655 406.558 313.615Z" fill="white"/>
<path d="M419.099 313.615C419.099 314.576 418.32 315.355 417.36 315.355C416.4 315.355 415.621 314.576 415.621 313.615C415.621 312.655 416.4 311.876 417.36 311.876C418.32 311.876 419.099 312.655 419.099 313.615Z" fill="white"/>
<path d="M412.831 313.615C412.831 314.576 412.053 315.355 411.092 315.355C410.132 315.355 409.354 314.576 409.354 313.615C409.354 312.655 410.132 311.876 411.092 311.876C412.053 311.876 412.831 312.655 412.831 313.615Z" fill="#50C6A1"/>
<path d="M461.384 297.747H402.043C401.586 297.747 401.167 297.569 400.856 297.279C400.514 296.961 400.301 296.507 400.301 296.001V284.401C400.301 283.936 400.482 283.514 400.776 283.203C401.093 282.867 401.544 282.654 402.043 282.654H461.384C461.796 282.654 462.173 282.798 462.47 283.035C462.871 283.356 463.129 283.849 463.129 284.401V296.001C463.129 296.434 462.972 296.832 462.71 297.136C462.389 297.51 461.914 297.744 461.387 297.744L461.384 297.747Z" fill="#D0DAED"/>
<path d="M446.865 295.389H424.48C424.2 295.389 423.949 295.277 423.767 295.092C423.586 294.91 423.471 294.656 423.471 294.38V286.028C423.471 285.749 423.582 285.497 423.767 285.315C423.953 285.134 424.204 285.019 424.48 285.019H446.865C447.134 285.019 447.374 285.123 447.556 285.291C447.752 285.476 447.874 285.738 447.874 286.028V294.38C447.874 294.659 447.762 294.91 447.577 295.092C447.395 295.274 447.141 295.389 446.865 295.389Z" fill="white"/>
<path d="M454.074 290.17C454.074 291.466 453.023 292.518 451.727 292.518C450.432 292.518 449.381 291.466 449.381 290.17C449.381 288.875 450.432 287.823 451.727 287.823C453.023 287.823 454.074 288.875 454.074 290.17Z" fill="#50C6A1"/>
<path d="M460.56 290.17C460.56 291.466 459.509 292.518 458.214 292.518C456.918 292.518 455.867 291.466 455.867 290.17C455.867 288.875 456.918 287.823 458.214 287.823C459.509 287.823 460.56 288.875 460.56 290.17Z" fill="white"/>
<path d="M406.558 286.758C406.558 287.719 405.779 288.497 404.819 288.497C403.859 288.497 403.08 287.719 403.08 286.758C403.08 285.797 403.859 285.019 404.819 285.019C405.779 285.019 406.558 285.797 406.558 286.758Z" fill="white"/>
<path d="M419.099 286.758C419.099 287.719 418.32 288.497 417.36 288.497C416.4 288.497 415.621 287.719 415.621 286.758C415.621 285.797 416.4 285.019 417.36 285.019C418.32 285.019 419.099 285.797 419.099 286.758Z" fill="#50C6A1"/>
<path d="M412.831 286.758C412.831 287.719 412.053 288.497 411.092 288.497C410.132 288.497 409.354 287.719 409.354 286.758C409.354 285.797 410.132 285.019 411.092 285.019C412.053 285.019 412.831 285.797 412.831 286.758Z" fill="white"/>
<path d="M406.558 293.647C406.558 294.607 405.779 295.386 404.819 295.386C403.859 295.386 403.08 294.607 403.08 293.647C403.08 292.686 403.859 291.907 404.819 291.907C405.779 291.907 406.558 292.686 406.558 293.647Z" fill="white"/>
<path d="M419.099 293.647C419.099 294.607 418.32 295.386 417.36 295.386C416.4 295.386 415.621 294.607 415.621 293.647C415.621 292.686 416.4 291.907 417.36 291.907C418.32 291.907 419.099 292.686 419.099 293.647Z" fill="white"/>
<path d="M412.831 293.647C412.831 294.607 412.053 295.386 411.092 295.386C410.132 295.386 409.354 294.607 409.354 293.647C409.354 292.686 410.132 291.907 411.092 291.907C412.053 291.907 412.831 292.686 412.831 293.647Z" fill="#50C6A1"/>
<path d="M461.384 277.778H402.043C401.586 277.778 401.167 277.6 400.856 277.31C400.514 276.993 400.301 276.538 400.301 276.032V264.432C400.301 263.967 400.482 263.545 400.776 263.234C401.093 262.899 401.544 262.686 402.043 262.686H461.384C461.796 262.686 462.173 262.829 462.47 263.066C462.871 263.388 463.129 263.88 463.129 264.432V276.032C463.129 276.465 462.972 276.863 462.71 277.167C462.389 277.541 461.914 277.775 461.387 277.775L461.384 277.778Z" fill="#D0DAED"/>
<path d="M446.865 275.421H424.48C424.2 275.421 423.949 275.309 423.767 275.124C423.586 274.943 423.471 274.688 423.471 274.412V266.06C423.471 265.781 423.582 265.529 423.767 265.348C423.949 265.166 424.204 265.051 424.48 265.051H446.865C447.134 265.051 447.374 265.156 447.556 265.323C447.752 265.508 447.874 265.77 447.874 266.06V274.412C447.874 274.691 447.762 274.943 447.577 275.124C447.395 275.306 447.141 275.421 446.865 275.421Z" fill="white"/>
<path d="M454.074 270.203C454.074 271.499 453.023 272.55 451.727 272.55C450.432 272.55 449.381 271.499 449.381 270.203C449.381 268.907 450.432 267.855 451.727 267.855C453.023 267.855 454.074 268.907 454.074 270.203Z" fill="#50C6A1"/>
<path d="M460.56 270.203C460.56 271.499 459.509 272.55 458.214 272.55C456.918 272.55 455.867 271.499 455.867 270.203C455.867 268.907 456.918 267.855 458.214 267.855C459.509 267.855 460.56 268.907 460.56 270.203Z" fill="white"/>
<path d="M406.558 266.79C406.558 267.751 405.779 268.53 404.819 268.53C403.859 268.53 403.08 267.751 403.08 266.79C403.08 265.83 403.859 265.051 404.819 265.051C405.779 265.051 406.558 265.83 406.558 266.79Z" fill="white"/>
<path d="M419.099 266.79C419.099 267.751 418.32 268.53 417.36 268.53C416.4 268.53 415.621 267.751 415.621 266.79C415.621 265.83 416.4 265.051 417.36 265.051C418.32 265.051 419.099 265.83 419.099 266.79Z" fill="#50C6A1"/>
<path d="M412.831 266.79C412.831 267.751 412.053 268.53 411.092 268.53C410.132 268.53 409.354 267.751 409.354 266.79C409.354 265.83 410.132 265.051 411.092 265.051C412.053 265.051 412.831 265.83 412.831 266.79Z" fill="white"/>
<path d="M406.558 273.681C406.558 274.641 405.779 275.42 404.819 275.42C403.859 275.42 403.08 274.641 403.08 273.681C403.08 272.72 403.859 271.941 404.819 271.941C405.779 271.941 406.558 272.72 406.558 273.681Z" fill="white"/>
<path d="M419.099 273.681C419.099 274.641 418.32 275.42 417.36 275.42C416.4 275.42 415.621 274.641 415.621 273.681C415.621 272.72 416.4 271.941 417.36 271.941C418.32 271.941 419.099 272.72 419.099 273.681Z" fill="white"/>
<path d="M412.831 273.681C412.831 274.641 412.053 275.42 411.092 275.42C410.132 275.42 409.354 274.641 409.354 273.681C409.354 272.72 410.132 271.941 411.092 271.941C412.053 271.941 412.831 272.72 412.831 273.681Z" fill="#50C6A1"/>
<path d="M461.384 257.81H402.043C401.586 257.81 401.167 257.632 400.856 257.342C400.514 257.024 400.301 256.57 400.301 256.063V244.463C400.301 243.999 400.482 243.576 400.776 243.265C401.093 242.93 401.544 242.717 402.043 242.717H461.384C461.796 242.717 462.173 242.86 462.47 243.098C462.871 243.419 463.129 243.911 463.129 244.463V256.063C463.129 256.496 462.972 256.895 462.71 257.198C462.389 257.572 461.914 257.806 461.387 257.806L461.384 257.81Z" fill="#D0DAED"/>
<path d="M446.865 255.452H424.48C424.2 255.452 423.949 255.34 423.767 255.155C423.586 254.973 423.471 254.718 423.471 254.442V246.091C423.471 245.811 423.582 245.56 423.767 245.378C423.953 245.196 424.204 245.081 424.48 245.081H446.865C447.134 245.081 447.374 245.186 447.556 245.354C447.752 245.539 447.874 245.801 447.874 246.091V254.442C447.874 254.722 447.762 254.973 447.577 255.155C447.395 255.336 447.141 255.452 446.865 255.452Z" fill="white"/>
<path d="M454.074 250.237C454.074 251.533 453.023 252.584 451.727 252.584C450.432 252.584 449.381 251.533 449.381 250.237C449.381 248.941 450.432 247.89 451.727 247.89C453.023 247.89 454.074 248.941 454.074 250.237Z" fill="#50C6A1"/>
<path d="M460.56 250.237C460.56 251.533 459.509 252.584 458.214 252.584C456.918 252.584 455.867 251.533 455.867 250.237C455.867 248.941 456.918 247.89 458.214 247.89C459.509 247.89 460.56 248.941 460.56 250.237Z" fill="white"/>
<path d="M406.558 246.821C406.558 247.781 405.779 248.56 404.819 248.56C403.859 248.56 403.08 247.781 403.08 246.821C403.08 245.86 403.859 245.081 404.819 245.081C405.779 245.081 406.558 245.86 406.558 246.821Z" fill="white"/>
<path d="M419.099 246.821C419.099 247.781 418.32 248.56 417.36 248.56C416.4 248.56 415.621 247.781 415.621 246.821C415.621 245.86 416.4 245.081 417.36 245.081C418.32 245.081 419.099 245.86 419.099 246.821Z" fill="#50C6A1"/>
<path d="M412.831 246.821C412.831 247.781 412.053 248.56 411.092 248.56C410.132 248.56 409.354 247.781 409.354 246.821C409.354 245.86 410.132 245.081 411.092 245.081C412.053 245.081 412.831 245.86 412.831 246.821Z" fill="white"/>
<path d="M406.558 253.712C406.558 254.673 405.779 255.452 404.819 255.452C403.859 255.452 403.08 254.673 403.08 253.712C403.08 252.752 403.859 251.973 404.819 251.973C405.779 251.973 406.558 252.752 406.558 253.712Z" fill="white"/>
<path d="M419.099 253.712C419.099 254.673 418.32 255.452 417.36 255.452C416.4 255.452 415.621 254.673 415.621 253.712C415.621 252.752 416.4 251.973 417.36 251.973C418.32 251.973 419.099 252.752 419.099 253.712Z" fill="white"/>
<path d="M412.831 253.712C412.831 254.673 412.053 255.452 411.092 255.452C410.132 255.452 409.354 254.673 409.354 253.712C409.354 252.752 410.132 251.973 411.092 251.973C412.053 251.973 412.831 252.752 412.831 253.712Z" fill="#50C6A1"/>
<path d="M461.384 237.844H402.043C401.586 237.844 401.167 237.666 400.856 237.376C400.514 237.058 400.301 236.604 400.301 236.097V224.497C400.301 224.033 400.482 223.61 400.776 223.299C401.093 222.964 401.544 222.751 402.043 222.751H461.384C461.796 222.751 462.173 222.894 462.47 223.132C462.871 223.453 463.129 223.946 463.129 224.497V236.097C463.129 236.531 462.972 236.929 462.71 237.233C462.389 237.606 461.914 237.84 461.387 237.84L461.384 237.844Z" fill="#D0DAED"/>
<path d="M446.865 235.483H424.48C424.2 235.483 423.949 235.371 423.767 235.186C423.586 235.004 423.471 234.749 423.471 234.473V226.122C423.471 225.842 423.582 225.591 423.767 225.409C423.949 225.228 424.204 225.112 424.48 225.112H446.865C447.134 225.112 447.374 225.217 447.556 225.385C447.752 225.57 447.874 225.832 447.874 226.122V234.473C447.874 234.753 447.762 235.004 447.577 235.186C447.395 235.368 447.141 235.483 446.865 235.483Z" fill="white"/>
<path d="M454.074 230.267C454.074 231.563 453.023 232.614 451.727 232.614C450.432 232.614 449.381 231.563 449.381 230.267C449.381 228.971 450.432 227.92 451.727 227.92C453.023 227.92 454.074 228.971 454.074 230.267Z" fill="#50C6A1"/>
<path d="M460.56 230.267C460.56 231.563 459.509 232.614 458.214 232.614C456.918 232.614 455.867 231.563 455.867 230.267C455.867 228.971 456.918 227.92 458.214 227.92C459.509 227.92 460.56 228.971 460.56 230.267Z" fill="white"/>
<path d="M406.558 226.852C406.558 227.812 405.779 228.591 404.819 228.591C403.859 228.591 403.08 227.812 403.08 226.852C403.08 225.891 403.859 225.112 404.819 225.112C405.779 225.112 406.558 225.891 406.558 226.852Z" fill="white"/>
<path d="M419.099 226.852C419.099 227.812 418.32 228.591 417.36 228.591C416.4 228.591 415.621 227.812 415.621 226.852C415.621 225.891 416.4 225.112 417.36 225.112C418.32 225.112 419.099 225.891 419.099 226.852Z" fill="#50C6A1"/>
<path d="M412.831 226.852C412.831 227.812 412.053 228.591 411.092 228.591C410.132 228.591 409.354 227.812 409.354 226.852C409.354 225.891 410.132 225.112 411.092 225.112C412.053 225.112 412.831 225.891 412.831 226.852Z" fill="white"/>
<path d="M406.558 233.743C406.558 234.704 405.779 235.483 404.819 235.483C403.859 235.483 403.08 234.704 403.08 233.743C403.08 232.783 403.859 232.004 404.819 232.004C405.779 232.004 406.558 232.783 406.558 233.743Z" fill="white"/>
<path d="M419.099 233.743C419.099 234.704 418.32 235.483 417.36 235.483C416.4 235.483 415.621 234.704 415.621 233.743C415.621 232.783 416.4 232.004 417.36 232.004C418.32 232.004 419.099 232.783 419.099 233.743Z" fill="white"/>
<path d="M412.831 233.743C412.831 234.704 412.053 235.483 411.092 235.483C410.132 235.483 409.354 234.704 409.354 233.743C409.354 232.783 410.132 232.004 411.092 232.004C412.053 232.004 412.831 232.783 412.831 233.743Z" fill="#50C6A1"/>
<path d="M467.651 229.448C476.272 229.448 483.262 222.455 483.262 213.831V207.114C483.262 205.665 482.089 204.487 480.636 204.487C479.187 204.487 478.011 205.665 478.011 207.114V209.252C478.011 210.272 477.183 211.096 476.167 211.096C475.148 211.096 474.324 210.268 474.324 209.252V200.16C474.324 198.937 473.335 197.949 472.113 197.949C470.891 197.949 469.903 198.937 469.903 200.16V202.269C469.903 203.485 468.918 204.47 467.703 204.47C466.488 204.47 465.504 203.485 465.504 202.269V192.79C465.504 191.578 464.522 190.6 463.314 190.6C462.103 190.6 461.125 191.581 461.125 192.79V201.166C461.125 202.224 460.266 203.083 459.208 203.083C458.15 203.083 457.291 202.224 457.291 201.166V197.743C457.291 196.293 456.118 195.119 454.669 195.119C453.22 195.119 452.047 196.293 452.047 197.743V213.831C452.047 222.455 459.037 229.448 467.658 229.448H467.651Z" fill="url(#paint2_linear_996_114486)"/>
<path d="M377.773 182.942C375.734 182.942 374.082 181.29 374.082 179.25V171.954C374.082 169.914 375.734 168.262 377.773 168.262C379.812 168.262 381.463 169.914 381.463 171.954V179.25C381.463 181.29 379.812 182.942 377.773 182.942Z" fill="url(#paint3_linear_996_114486)"/>
<path d="M472.24 192.897C470.965 192.897 469.932 191.863 469.932 190.588V184.755C469.932 183.48 470.965 182.446 472.24 182.446C473.514 182.446 474.551 183.48 474.551 184.755V190.588C474.551 191.863 473.518 192.897 472.24 192.897Z" fill="url(#paint4_linear_996_114486)"/>
<path opacity="0.43" d="M420.659 191.158C420.659 181.458 412.8 173.592 403.1 173.592C402.897 173.592 402.698 173.599 402.499 173.606C401.469 172.418 399.954 171.664 398.261 171.664C397.503 171.664 396.777 171.817 396.117 172.09C394.259 170.424 391.815 169.4 389.123 169.4C384.87 169.4 381.214 171.94 379.57 175.579C377.168 175.73 375.181 177.385 374.535 179.617C369.35 179.729 365.062 183.501 364.168 188.458L346.504 189.911L346.525 194.825L364.929 194.752C365.32 195.632 365.823 196.453 366.424 197.19C365.624 198.161 365.146 199.405 365.146 200.76C365.146 203.519 367.14 205.811 369.762 206.282C369.65 207.082 369.591 207.896 369.591 208.724C369.591 218.424 377.45 226.29 387.15 226.29C395.355 226.29 402.248 220.655 404.172 213.044C404.905 213.394 405.722 213.596 406.588 213.596C409.689 213.596 412.203 211.081 412.203 207.98C412.203 207.403 412.115 206.844 411.951 206.321C417.157 203.271 420.652 197.623 420.652 191.154L420.659 191.158Z" fill="#D0DAED"/>
<path d="M266.242 350.915L264.58 359.955H294.301L297.772 350.915H266.242Z" fill="#FFAA9D"/>
<path d="M294.302 359.954H263.796L262.389 369.371H303.52L294.302 359.954Z" fill="#0B2252"/>
<path d="M264.58 350.915C264.58 350.915 269.884 306.691 270.076 303.24C270.268 299.786 270.401 288.276 264.58 283.481C258.76 278.685 245.01 260.881 243.229 244.688C241.448 228.495 243.229 201.369 243.229 201.369H280.345C280.345 201.369 308.886 246.26 308.886 272.153C308.886 304.962 302.821 348.037 301.103 350.915H264.58Z" fill="url(#paint5_linear_996_114486)"/>
<path d="M232.167 201.372L205.68 350.914H240.439L285.017 213.419L232.167 201.372Z" fill="#14336D"/>
<path d="M235.352 359.954H205.634L203.41 369.371H241.106L235.352 359.954Z" fill="#0B2252"/>
<path d="M207.297 350.915L205.635 359.955H235.352L238.823 350.915H207.297Z" fill="#FFAA9D"/>
<path d="M316.934 199.169C316.934 199.169 328.428 199.144 332.576 198.026C336.724 196.909 338.53 196.353 338.229 195.393C337.929 194.432 328.987 193.21 328.627 192.27C328.268 191.331 329.657 190.394 329.256 189.34C328.851 188.281 321.438 190.178 320.575 189.161C319.717 188.145 316.19 197.569 316.937 199.169H316.934Z" fill="#FFAA9D"/>
<path d="M268.899 135.712C270.753 139.659 272.237 177.208 275.268 179.307C278.299 181.407 318.882 187.907 320.164 188.396C321.445 188.885 322.349 198.847 321.738 199.668C321.131 200.485 274.929 213.06 254.426 198.812C233.923 184.564 247.701 142.53 248.655 140.484C255.68 125.415 267.045 131.765 268.899 135.712Z" fill="url(#paint6_linear_996_114486)"/>
<path d="M239.718 139.328C239.718 139.328 226.833 207.349 228.754 211.058C235.234 223.584 292.927 220.804 290.57 214.146C284.128 195.962 285.277 146.649 278.936 138.217C273.066 130.414 265.046 129.446 258.258 129.446C243.733 129.446 240.856 132.667 239.721 139.324L239.718 139.328Z" fill="url(#paint7_linear_996_114486)"/>
<path d="M285.016 221.628C284.345 221.628 283.671 221.377 283.151 220.874C282.086 219.843 282.055 218.142 283.085 217.077C290.201 209.71 296.545 209.005 305.096 210.273C309.705 210.957 313.267 212.547 316.13 213.825C319.349 215.264 321.095 215.984 322.408 215.268C324.094 214.349 324.122 211.663 323.965 207.353C323.794 202.606 323.598 197.227 327.394 193.388C330.285 190.468 334.915 189.134 341.552 189.294C343.033 189.333 344.206 190.562 344.168 192.047C344.129 193.528 342.886 194.691 341.416 194.663C336.416 194.534 332.977 195.379 331.21 197.164C329.045 199.354 329.185 203.144 329.328 207.157C329.503 211.963 329.698 217.409 324.974 219.983C321.266 222.002 317.708 220.413 313.941 218.729C311.245 217.524 308.186 216.162 304.311 215.585C296.859 214.482 292.586 214.971 286.947 220.807C286.419 221.352 285.718 221.625 285.016 221.625V221.628Z" fill="#0B2252"/>
<path d="M281.116 216.413C281.116 216.413 292.439 218.386 296.717 218.009C300.994 217.632 302.869 217.398 302.74 216.399C302.611 215.4 294.018 212.644 293.826 211.655C293.634 210.667 295.166 209.989 294.953 208.879C294.74 207.768 287.108 208.344 286.437 207.195C285.767 206.042 280.659 214.712 281.112 216.416L281.116 216.413Z" fill="#FFAA9D"/>
<path d="M256.94 138.962C257.289 143.307 245.497 178.987 247.599 182.019C249.701 185.051 285.414 205.393 286.444 206.302C287.471 207.21 284.82 216.854 283.961 217.409C283.102 217.961 235.431 213.504 221.238 192.962C207.044 172.42 234.698 137.903 236.311 136.321C248.179 124.679 256.59 134.616 256.94 138.965V138.962Z" fill="url(#paint8_linear_996_114486)"/>
<path d="M306.966 277.035L293.764 273.581C290.643 272.763 288.771 269.567 289.588 266.444L298.321 233.045C300.091 226.276 307.011 222.221 313.782 223.992C320.548 225.762 324.602 232.685 322.832 239.458L314.099 272.857C313.282 275.98 310.088 277.852 306.966 277.035Z" fill="#ED3232"/>
<path d="M306.551 224.237C306.551 224.237 309.438 222.854 309.945 220.922C310.364 219.326 311.453 215.155 311.453 215.155L320.14 217.429C320.14 217.429 319.002 221.785 318.632 223.196C318.126 225.131 319.973 227.751 319.973 227.751L306.554 224.24L306.551 224.237Z" fill="#ED3232"/>
<path d="M320.953 217.471C320.212 220.297 317.325 221.991 314.497 221.25C311.672 220.51 309.978 217.621 310.719 214.792C311.459 211.966 314.346 210.272 317.175 211.013C319.999 211.753 321.693 214.642 320.953 217.471Z" fill="#D0DAED"/>
<path d="M318.556 216.843C318.162 218.345 316.629 219.246 315.124 218.851C313.622 218.456 312.722 216.923 313.116 215.418C313.511 213.916 315.044 213.014 316.548 213.409C318.05 213.8 318.951 215.337 318.556 216.843Z" fill="#ED3232"/>
<path d="M320.884 246.894L296.373 240.479L292.905 253.743L317.415 260.157L320.884 246.894Z" fill="#D0DAED"/>
<path d="M355.009 196.703L342.227 196.008C341.811 195.987 341.486 195.641 341.486 195.225V189.151C341.486 188.736 341.811 188.393 342.227 188.369L355.009 187.674C355.718 187.635 356.315 188.201 356.315 188.91V195.466C356.315 196.175 355.718 196.741 355.009 196.703Z" fill="#0B2252"/>
<path d="M276.494 114.367L276.634 123.774L275.23 123.728C275.23 123.728 274.106 131.514 268.61 130.285C267.032 129.932 265.017 128.594 264.438 128.863C263.75 129.181 263.45 131.312 263.296 131.926C262.699 134.284 254.452 131.902 255.789 129.485C257.056 127.193 258.949 124.06 258.547 123.191C257.151 120.159 256.753 112.628 264.33 110.11C270.367 108.105 276.425 111.143 276.494 114.364V114.367Z" fill="#FFAA9D"/>
<path d="M255.787 129.488C257.055 127.196 258.947 124.063 258.545 123.193C258.545 123.193 261.73 128.09 264.666 128.831C264.673 128.831 264.677 128.834 264.68 128.838C264.586 128.831 264.499 128.838 264.436 128.862C263.748 129.18 263.448 131.311 263.294 131.926C262.697 134.283 254.45 131.901 255.787 129.484V129.488Z" fill="#FF9F91"/>
<path d="M263.776 118.984C260.235 118.38 262.435 126.274 258.531 126.009C254.628 125.747 251.911 117.213 254.774 110.633C257.637 104.052 263.084 104.419 268.276 105.317C273.469 106.214 279.83 108.561 279.827 112.487C279.816 121.936 268.64 114.01 267.903 116.85C267.33 119.047 266.454 125.401 268.73 125.551C271.007 125.698 273.325 123.819 275.124 124.301C276.161 124.58 279.01 136.973 271.562 137.385C264.195 137.794 262.327 131.286 263.881 125.974C265.357 120.919 265.508 119.281 263.779 118.984H263.776Z" fill="#14336A"/>
<path d="M163.444 281.049C159.798 281.999 145.989 281.444 148.625 274.625C151.558 267.046 159.386 273.672 162.745 277.874C161.471 271.171 161.296 264.342 161.317 260.689C158.835 257.706 153.59 238.743 163.922 239.682C177.459 240.912 165.465 258.862 162.347 260.898C162.347 265.271 162.641 273.937 164.62 281.454C165.039 276.676 169.805 263.088 176.136 267.881C185.319 274.831 167.749 283.221 165.085 283.078C165.923 285.82 167.005 288.349 168.419 290.371C169.439 291.828 170.563 293.512 171.729 295.345C171.75 295.366 171.771 295.391 171.792 295.412C172.382 290.382 177.075 277.462 183.273 282.153C191.845 288.642 177.099 296.386 172.937 297.27C175.521 301.472 178.182 306.278 180.235 310.906C180.525 306.362 189.435 297.078 192.973 302.387C194.945 305.349 184.502 314.997 181.059 312.834C183.021 317.634 184.205 322.119 183.796 325.391C183.646 326.596 183.426 328.022 183.171 329.562C185.612 326.862 194.425 317.812 197.051 324.815C199.226 330.624 191.956 333.991 188.898 333.991C186.506 333.991 183.968 331.728 182.976 330.739C182.836 331.574 182.686 332.433 182.536 333.31C181.307 340.456 179.83 349.059 180.263 354.232C182.344 350.191 191.646 333.369 197.054 344.187C199.827 349.734 191.96 354.383 188.901 355.403C186.394 356.237 181.907 355.486 180.375 355.19C180.458 355.773 180.57 356.311 180.724 356.772C182.718 362.752 186.74 368.826 186.778 368.885C186.935 369.119 186.873 369.437 186.639 369.591C186.551 369.65 186.454 369.678 186.356 369.678C186.192 369.678 186.028 369.598 185.93 369.451C185.895 369.399 182.906 364.879 180.762 359.755C178.36 359.451 169.132 358.193 166.478 356.423C163.419 354.383 157.948 347.683 162.4 345.207C169.296 341.375 176.523 351.56 179.69 356.856C178.51 352.905 179.554 344.994 180.78 337.571C178.311 338.312 170.291 336.876 167.494 335.011C164.435 332.971 159.166 327.69 162.4 324.815C170.504 317.609 179.062 332.873 180.951 336.534C181.146 335.378 181.342 334.239 181.53 333.135C182.04 330.173 182.522 327.379 182.787 325.259C183.168 322.22 182.037 317.847 180.019 312.946C178.409 313.456 172.969 314.962 166.988 314.106C159.854 313.086 156.237 307.529 158.835 304.93C163.259 300.504 176.328 309.673 179.704 312.171C177.648 307.347 174.764 302.059 171.604 297.015C167.445 297.979 150.881 297.626 153.122 291.046C155.361 284.472 163.842 288.894 168.824 292.75C168.416 292.146 168.004 291.542 167.592 290.951C165.706 288.258 164.383 284.755 163.454 281.045L163.444 281.049Z" fill="url(#paint9_linear_996_114486)"/>
<path d="M192.963 344.191C201.517 340.767 203.609 353.866 204.063 358.162C205.948 351.896 206.748 344.274 205.896 338.067C204.594 338.036 199.548 337.798 196.022 336.035C191.943 333.995 189.429 325.828 192.963 324.819C198.899 323.121 204.126 333.418 205.714 336.929C205.575 336.136 205.411 335.371 205.212 334.641C203.909 329.87 202.967 323.719 202.561 317.676C200.952 317.648 196.462 317.491 193.983 316.663C190.924 315.643 185.749 307.655 189.904 306.467C195.634 304.829 200.704 313.051 202.478 316.355C202.136 310.054 202.394 303.987 203.466 299.855C203.008 298.039 202.132 294.186 202.132 291.175C202.132 287.095 206.863 279.069 211.305 283.019C219.419 290.235 207.258 298.667 204.342 300.519C203.358 304.588 203.138 310.466 203.494 316.562C205.316 311.975 212.677 295.468 221.497 303.411C224.884 306.46 217.418 313.607 212.324 315.646C208.27 317.267 204.814 317.609 203.564 317.683C203.972 323.621 204.908 329.67 206.189 334.372C206.423 335.224 206.608 336.129 206.762 337.061C208.693 333.16 217.687 316.579 227.611 323.799C231.731 326.796 223.532 333.995 219.458 336.035C215.959 337.785 208.832 337.875 206.884 337.868C207.729 344.051 206.964 351.62 205.131 357.967C208.127 353.436 216.881 341.801 223.536 349.29C227.485 353.733 217.265 357.499 214.363 358.466C211.807 359.318 206.346 359.573 204.615 359.633C203.166 364.013 201.193 367.646 198.892 369.563C198.798 369.643 198.682 369.682 198.567 369.682C198.42 369.682 198.277 369.619 198.176 369.5C197.994 369.284 198.026 368.962 198.242 368.781C200.439 366.95 202.317 363.482 203.703 359.294C202.376 358.742 198.518 357.076 196.018 355.41C192.959 353.37 188.228 346.087 192.959 344.194L192.963 344.191Z" fill="#F2BE3C"/>
<path d="M171.053 369.681H217.425C217.708 369.681 217.935 369.454 217.935 369.171C217.935 368.888 217.708 368.661 217.425 368.661H171.053C170.77 368.661 170.543 368.888 170.543 369.171C170.543 369.454 170.77 369.681 171.053 369.681Z" fill="#14336A"/>
<path d="M154.744 369.681H165.446C165.729 369.681 165.956 369.454 165.956 369.171C165.956 368.888 165.729 368.661 165.446 368.661H154.744C154.461 368.661 154.234 368.888 154.234 369.171C154.234 369.454 154.461 369.681 154.744 369.681Z" fill="#14336A"/>
</g>
<defs>
<linearGradient id="paint0_linear_996_114486" x1="268.998" y1="39.3985" x2="268.998" y2="201.676" gradientUnits="userSpaceOnUse">
<stop stop-color="#E9F3FC"/>
<stop offset="1" stop-color="white"/>
</linearGradient>
<linearGradient id="paint1_linear_996_114486" x1="397.354" y1="166.841" x2="397.354" y2="231.638" gradientUnits="userSpaceOnUse">
<stop stop-color="#F40808"/>
<stop offset="1" stop-color="#F98008"/>
</linearGradient>
<linearGradient id="paint2_linear_996_114486" x1="467.651" y1="186.143" x2="467.651" y2="229.612" gradientUnits="userSpaceOnUse">
<stop stop-color="#F40808"/>
<stop offset="1" stop-color="#F98008"/>
</linearGradient>
<linearGradient id="paint3_linear_996_114486" x1="377.773" y1="166.578" x2="377.773" y2="183.005" gradientUnits="userSpaceOnUse">
<stop stop-color="#F40808"/>
<stop offset="1" stop-color="#F98008"/>
</linearGradient>
<linearGradient id="paint4_linear_996_114486" x1="472.24" y1="181.245" x2="472.24" y2="192.943" gradientUnits="userSpaceOnUse">
<stop stop-color="#F40808"/>
<stop offset="1" stop-color="#F98008"/>
</linearGradient>
<linearGradient id="paint5_linear_996_114486" x1="308.613" y1="320.96" x2="266.866" y2="269.244" gradientUnits="userSpaceOnUse">
<stop stop-color="#14336D"/>
<stop offset="0.97" stop-color="#0E2253"/>
</linearGradient>
<linearGradient id="paint6_linear_996_114486" x1="255.36" y1="150.572" x2="304.783" y2="218.614" gradientUnits="userSpaceOnUse">
<stop stop-color="#3162DF"/>
<stop offset="0.96" stop-color="#173DB8"/>
</linearGradient>
<linearGradient id="paint7_linear_996_114486" x1="281.1" y1="160.917" x2="223.529" y2="212.986" gradientUnits="userSpaceOnUse">
<stop stop-color="#3162DF"/>
<stop offset="0.96" stop-color="#173DB8"/>
</linearGradient>
<linearGradient id="paint8_linear_996_114486" x1="239.043" y1="148.131" x2="261.416" y2="229.208" gradientUnits="userSpaceOnUse">
<stop stop-color="#3162DF"/>
<stop offset="0.96" stop-color="#173DB8"/>
</linearGradient>
<linearGradient id="paint9_linear_996_114486" x1="171.153" y1="293.634" x2="182.785" y2="357.804" gradientUnits="userSpaceOnUse">
<stop stop-color="#3162DF"/>
<stop offset="0.96" stop-color="#173DB8"/>
</linearGradient>
</defs>
</svg>
