<svg width="608" height="374" viewBox="0 0 608 374" fill="none" xmlns="http://www.w3.org/2000/svg">
<mask id="mask0_996_114615" style="mask-type:alpha" maskUnits="userSpaceOnUse" x="0" y="0" width="608" height="374">
<rect width="608" height="374" fill="#D9D9D9"/>
</mask>
<g mask="url(#mask0_996_114615)">
<path d="M586.633 194.961V260.924C526.665 250.541 446.059 241.048 351.776 241.048C143.648 241.048 -19.5866 287.299 -19.5866 287.299C-31.6999 261.403 -18.2782 186.823 13.3134 169.362C44.9083 151.905 72.3438 186.823 97.2865 174.351C122.229 161.88 98.8893 51.629 137.193 44.535C175.494 37.441 199.614 108.374 246.427 108.374C293.241 108.374 286.15 37.441 340.894 34.6035C395.635 31.7659 394.189 107.226 427.119 107.226C460.049 107.226 446.698 76.9665 498.316 76.0764C549.938 75.1863 564.177 182.874 586.285 194.78C586.402 194.843 586.516 194.904 586.633 194.961Z" fill="url(#paint0_linear_996_114615)"/>
<path d="M417.358 18.4075C419.603 16.1622 422.702 14.7769 426.125 14.7769H438.456C440.293 6.32768 447.808 0 456.81 0C465.811 0 473.326 6.32768 475.164 14.7769H478.476C481.899 14.7769 484.998 16.1655 487.243 18.4075C489.489 20.6495 490.874 23.7514 490.874 27.1746C490.874 30.9625 489.177 34.3522 486.5 36.6276C484.339 38.4647 481.538 39.5756 478.476 39.5756H426.128C422.705 39.5756 419.606 38.1869 417.361 35.945C415.119 33.703 413.73 30.6011 413.73 27.1779C413.73 23.7547 415.119 20.6562 417.361 18.4108L417.358 18.4075Z" fill="#E9F3FC"/>
<path d="M266.623 37.0798C264.515 34.9716 261.604 33.6666 258.385 33.6666H246.8C245.074 25.7294 238.013 19.7832 229.557 19.7832C221.101 19.7832 214.038 25.7294 212.314 33.6666H209.202C205.987 33.6666 203.072 34.9716 200.964 37.0798C198.856 39.1879 197.551 42.0991 197.551 45.3181C197.551 48.8752 199.147 52.0607 201.66 54.199C203.691 55.9256 206.325 56.9663 209.199 56.9663H258.385C261.601 56.9663 264.515 55.6613 266.623 53.5532C268.731 51.445 270.036 48.5338 270.036 45.3148C270.036 42.0991 268.731 39.1845 266.623 37.0764V37.0798Z" fill="#E9F3FC"/>
<path d="M75.7645 316.525C69.7647 316.344 63.253 314.236 63.3969 304.599C63.5408 294.962 70.5343 293.463 71.2504 286.252C71.9665 279.041 72 272.332 75.7645 272.258C79.5323 272.188 77.1464 275.27 78.9032 278.612C80.6566 281.955 84.0564 286.232 83.3972 292.479C82.738 298.727 87.1851 301.119 86.9542 306.229C86.7199 311.338 83.5277 316.759 75.7678 316.522L75.7645 316.525Z" fill="#DAEEFF"/>
<path d="M77.9829 291.92C77.8758 291.823 77.7152 291.83 77.6148 291.934C77.5144 292.037 77.5211 292.205 77.6249 292.302C77.6416 292.319 79.1875 293.875 79.0303 299.205C78.8931 303.813 76.5039 310.944 75.7476 313.095C75.0382 311.415 74.1214 309.565 73.3518 308.006C72.8297 306.952 72.3814 306.045 72.1371 305.469C71.247 303.374 72.6022 298.971 72.6156 298.927C72.6591 298.79 72.5821 298.643 72.4449 298.599C72.3077 298.556 72.1605 298.633 72.117 298.77C72.0568 298.957 70.6882 303.401 71.6552 305.673C71.9062 306.262 72.3579 307.176 72.8833 308.236C74.2887 311.077 76.4169 315.367 76.3834 317.037C76.3366 319.353 76.0588 322.675 76.0555 322.709C76.0421 322.853 76.1492 322.98 76.2931 322.993C76.2998 322.993 76.3065 322.993 76.3165 322.993C76.4504 322.993 76.5641 322.89 76.5775 322.752C76.5775 322.719 76.8619 319.379 76.9088 317.047C76.9222 316.301 76.5708 315.14 76.0488 313.818C76.3935 312.871 79.4017 304.465 79.559 299.218C79.7263 293.603 78.0599 291.984 77.9896 291.917L77.9829 291.92Z" fill="#6AC1FF"/>
<path d="M130.006 208.908C126.49 208.8 122.672 207.566 122.755 201.914C122.839 196.262 126.941 195.382 127.36 191.156C127.778 186.926 127.798 182.994 130.006 182.951C132.215 182.907 130.816 184.718 131.847 186.675C132.878 188.633 134.869 191.142 134.484 194.807C134.099 198.471 136.706 199.873 136.568 202.868C136.431 205.862 134.561 209.041 130.006 208.904V208.908Z" fill="#DAEEFF"/>
<path d="M131.309 194.479C131.246 194.422 131.152 194.426 131.095 194.486C131.038 194.546 131.038 194.643 131.102 194.703C131.112 194.713 132.019 195.624 131.925 198.752C131.845 201.453 130.442 205.635 130.001 206.897C129.586 205.913 129.047 204.826 128.595 203.912C128.291 203.296 128.026 202.761 127.883 202.426C127.361 201.198 128.157 198.615 128.164 198.588C128.19 198.508 128.144 198.421 128.063 198.398C127.983 198.371 127.896 198.418 127.873 198.498C127.839 198.608 127.036 201.215 127.602 202.547C127.749 202.892 128.013 203.427 128.321 204.049C129.144 205.716 130.392 208.232 130.372 209.209C130.345 210.568 130.181 212.515 130.181 212.535C130.175 212.619 130.238 212.693 130.322 212.703C130.325 212.703 130.332 212.703 130.335 212.703C130.416 212.703 130.483 212.642 130.489 212.562C130.489 212.542 130.657 210.584 130.683 209.216C130.693 208.777 130.486 208.095 130.178 207.322C130.379 206.766 132.146 201.837 132.236 198.759C132.333 195.466 131.356 194.516 131.316 194.479H131.309Z" fill="#6AC1FF"/>
<path d="M469.022 208.676C465.505 208.569 461.687 207.334 461.771 201.682C461.855 196.031 465.957 195.151 466.375 190.924C466.794 186.698 466.814 182.763 469.022 182.72C471.231 182.676 469.832 184.486 470.863 186.444C471.89 188.405 473.884 190.911 473.499 194.575C473.115 198.239 475.721 199.641 475.584 202.636C475.447 205.631 473.576 208.81 469.025 208.673L469.022 208.676Z" fill="#DAEEFF"/>
<path d="M470.325 194.244C470.261 194.187 470.167 194.19 470.111 194.25C470.054 194.311 470.054 194.408 470.117 194.468C470.127 194.478 471.034 195.388 470.94 198.517C470.86 201.217 469.458 205.4 469.016 206.662C468.601 205.678 468.063 204.59 467.611 203.677C467.306 203.061 467.042 202.526 466.898 202.191C466.376 200.963 467.173 198.38 467.179 198.353C467.206 198.273 467.159 198.186 467.079 198.162C466.999 198.135 466.912 198.182 466.888 198.263C466.855 198.373 466.052 200.98 466.617 202.311C466.764 202.656 467.029 203.192 467.337 203.814C468.16 205.48 469.408 207.997 469.388 208.974C469.361 210.332 469.197 212.28 469.197 212.3C469.19 212.384 469.254 212.457 469.338 212.467C469.341 212.467 469.348 212.467 469.351 212.467C469.431 212.467 469.498 212.407 469.505 212.327C469.505 212.307 469.672 210.349 469.699 208.98C469.709 208.542 469.502 207.86 469.194 207.087C469.395 206.531 471.161 201.602 471.252 198.524C471.349 195.231 470.372 194.281 470.331 194.244H470.325Z" fill="#6AC1FF"/>
<path d="M514.019 291.799C507.869 291.612 501.196 289.454 501.34 279.576C501.487 269.698 508.658 268.158 509.391 260.77C510.124 253.378 510.157 246.498 514.019 246.428C517.88 246.354 515.438 249.513 517.235 252.94C519.032 256.366 522.515 260.75 521.842 267.154C521.166 273.559 525.727 276.012 525.486 281.249C525.246 286.485 521.976 292.04 514.019 291.803V291.799Z" fill="#DAEEFF"/>
<path d="M516.294 266.575C516.187 266.475 516.02 266.482 515.916 266.589C515.815 266.696 515.819 266.866 515.926 266.967C515.943 266.983 517.529 268.576 517.365 274.044C517.224 278.765 514.775 286.074 514.002 288.282C513.276 286.562 512.335 284.665 511.546 283.065C511.01 281.984 510.548 281.054 510.297 280.465C509.384 278.317 510.776 273.803 510.789 273.76C510.833 273.619 510.756 273.468 510.612 273.425C510.472 273.381 510.321 273.458 510.277 273.602C510.217 273.796 508.812 278.351 509.806 280.679C510.063 281.282 510.528 282.222 511.064 283.306C512.506 286.217 514.684 290.618 514.651 292.328C514.604 294.7 514.316 298.11 514.313 298.143C514.3 298.291 514.41 298.421 514.557 298.434C514.564 298.434 514.574 298.434 514.581 298.434C514.718 298.434 514.835 298.327 514.848 298.19C514.848 298.157 515.139 294.73 515.186 292.341C515.203 291.575 514.842 290.383 514.306 289.032C514.661 288.058 517.743 279.441 517.903 274.064C518.074 268.309 516.368 266.649 516.294 266.582V266.575Z" fill="#6AC1FF"/>
<path d="M490.587 369.967C490.587 372.182 403.244 373.976 295.506 373.976C187.769 373.976 100.426 372.182 100.426 369.967C100.426 367.752 187.769 365.958 295.506 365.958C403.244 365.958 490.587 367.752 490.587 369.967Z" fill="url(#paint1_radial_996_114615)"/>
<path d="M255.528 42.5771H247.166V368.963H255.528V42.5771Z" fill="#D0DAED"/>
<path d="M204.732 242.55C204.244 242.55 203.765 242.313 203.477 241.878C203.019 241.185 203.206 240.251 203.899 239.79C228.972 223.156 247.272 202.714 258.288 179.032C267.102 160.089 271.308 139.022 270.796 116.418C269.92 77.8162 255.374 47.7204 255.226 47.4193C254.862 46.6731 255.17 45.7696 255.916 45.4048C256.662 45.0368 257.565 45.348 257.93 46.0942C258.081 46.3987 272.888 76.9998 273.805 116.241C274.343 139.33 270.053 160.862 261.049 180.244C249.799 204.464 231.13 225.341 205.565 242.299C205.308 242.47 205.02 242.55 204.735 242.55H204.732Z" fill="#14336A"/>
<path d="M434.444 42.5771H426.082V368.963H434.444V42.5771Z" fill="#D0DAED"/>
<path d="M260.295 274.764L208.125 250.397C204.604 248.754 203.082 244.565 204.728 241.044C206.371 237.524 210.561 236.002 214.081 237.648L266.252 262.015C269.772 263.658 271.294 267.848 269.648 271.368C268.005 274.888 263.815 276.411 260.295 274.764Z" fill="#D0DAED"/>
<path d="M404.05 160.893C403.842 160.893 403.635 160.849 403.434 160.759C402.675 160.418 402.337 159.528 402.678 158.768C415.758 129.679 421.019 100.808 423.127 81.7115C425.415 60.9951 424.592 46.9879 424.582 46.8473C424.532 46.0175 425.161 45.3014 425.991 45.2512C426.828 45.1977 427.537 45.8301 427.587 46.66C427.597 46.8005 428.437 61.0119 426.128 81.9658C424 101.297 418.68 130.526 405.425 159.999C405.174 160.558 404.625 160.89 404.05 160.89V160.893Z" fill="#14336A"/>
<path d="M434.441 50.9393V42.5771L247.368 42.5771V50.9393L434.441 50.9393Z" fill="#D0DAED"/>
<path d="M265.712 271.448C265.023 271.448 264.401 270.973 264.243 270.27C264.063 269.461 264.571 268.654 265.385 268.47C303.461 259.944 335.488 243.417 360.567 219.348C361.166 218.772 362.12 218.792 362.696 219.391C363.271 219.99 363.251 220.944 362.652 221.519C337.167 245.974 304.662 262.758 266.04 271.408C265.93 271.431 265.82 271.445 265.709 271.445L265.712 271.448Z" fill="#14336A"/>
<path d="M371.787 222.075C371.747 222.075 371.704 222.075 371.664 222.068L367.216 221.603C366.574 221.536 366.105 220.96 366.172 220.315C366.239 219.672 366.815 219.2 367.461 219.271L371.908 219.736C372.55 219.803 373.019 220.378 372.952 221.024C372.888 221.626 372.38 222.071 371.787 222.071V222.075Z" fill="#14336A"/>
<path d="M361.613 216.319C360.967 216.319 360.441 215.794 360.441 215.148V211.849C360.441 211.203 360.967 210.678 361.613 210.678C362.258 210.678 362.784 211.203 362.784 211.849V215.148C362.784 215.794 362.258 216.319 361.613 216.319Z" fill="#14336A"/>
<path d="M367.34 216.002C367.052 216.002 366.761 215.895 366.533 215.681C366.065 215.236 366.045 214.496 366.486 214.024L368.681 211.705C369.126 211.237 369.866 211.213 370.338 211.659C370.806 212.104 370.826 212.843 370.385 213.315L368.19 215.634C367.959 215.878 367.651 215.999 367.34 215.999V216.002Z" fill="#14336A"/>
<path d="M271.004 112.928C271.004 112.928 277.231 94.862 276.703 94.504C276.174 94.1459 273.313 96.0231 273.313 96.0231C273.313 96.0231 275.03 90.4216 272.493 89.1935C269.957 87.9655 258.238 103.11 258.74 109.207L271.001 112.925L271.004 112.928Z" fill="#FFAA9D"/>
<path d="M274.415 107.839L258.722 103.274C258.722 103.274 236.737 131.393 249.663 161.599C262.59 191.805 290.216 210.172 308.644 200.96C323.206 193.682 300.241 173.177 291.441 165.986C282.644 158.795 267.288 144.356 274.412 107.835L274.415 107.839Z" fill="url(#paint2_linear_996_114615)"/>
<path d="M126.393 239.953L115.213 240.619L112.031 213.02L124.232 209.104L126.393 239.953Z" fill="#FFAA9D"/>
<path d="M116.857 240.519C116.857 240.519 108.016 242.202 107.207 241.523C106.397 240.843 105.119 206.18 105.771 205.661C106.42 205.139 113.648 212.501 113.648 212.501L116.86 240.522L116.857 240.519Z" fill="url(#paint3_linear_996_114615)"/>
<path d="M124.021 207.425C124.021 207.425 125.861 241.48 126.551 242.072C127.24 242.664 268.872 250.381 268.872 250.381L246.455 203.269C246.455 203.269 189.657 176.466 124.018 207.425H124.021Z" fill="url(#paint4_linear_996_114615)"/>
<path d="M200.259 282.584L196.471 293.122L169.846 285.184L171.054 272.429L200.259 282.584Z" fill="#FFAA9D"/>
<path d="M243.644 200.853C243.644 200.853 208.017 181.228 196.619 189.212C185.222 197.196 178.004 210.42 175.103 230.655C172.202 250.886 168.454 272.389 169.803 274.35C169.803 274.35 199.869 284.586 201.334 283.903C202.8 283.22 216.195 241.232 216.195 241.232C216.195 241.232 244.273 262.26 263.908 251.917L243.644 200.85V200.853Z" fill="url(#paint5_linear_996_114615)"/>
<path d="M241.612 198.946C239.808 200.492 255.074 249.487 261.773 253.503C268.472 257.518 296.721 239.887 310.082 220.091C323.443 200.291 318.906 172.949 311.009 167.267C303.115 161.585 293.261 165.102 282.85 175.208C267.582 190.032 243.623 197.223 241.612 198.946Z" fill="url(#paint6_linear_996_114615)"/>
<path d="M197.025 291.572C197.025 291.572 195.091 300.363 194.148 300.838C193.204 301.316 160.839 288.842 160.615 288.039C160.391 287.236 170.005 283.491 170.005 283.491L197.025 291.572Z" fill="url(#paint7_linear_996_114615)"/>
<path d="M302.982 139.065L295.754 147.237L297.022 148.257C297.022 148.257 292.134 155.957 297.899 159.029C299.556 159.912 302.34 160.257 302.647 160.929C303.016 161.729 301.667 163.831 301.339 164.49C300.084 167.016 309.142 171.149 309.788 168.013C310.404 165.038 311.103 160.852 312.111 160.391C315.631 158.778 321.667 152.45 316.896 144.513C313.094 138.189 305.468 136.285 302.975 139.065H302.982Z" fill="#FFAA9D"/>
<path d="M309.793 168.013C310.409 165.039 311.108 160.852 312.115 160.391C312.115 160.391 305.617 162.295 302.471 160.729C302.465 160.729 302.458 160.729 302.455 160.722C302.542 160.789 302.619 160.856 302.652 160.929C303.02 161.729 301.672 163.831 301.344 164.49C300.089 167.016 309.147 171.149 309.793 168.013Z" fill="#FF9F91"/>
<path d="M310.692 152.731C314.265 154.873 306.368 160.16 310.002 162.874C313.636 165.591 322.474 160.136 324.92 152.182C327.366 144.229 322.296 140.437 317.05 137.305C311.803 134.173 304.428 131.433 301.466 134.893C294.339 143.215 310.163 144.684 308.671 147.739C307.513 150.104 303.491 156.359 301.373 154.769C299.258 153.18 298.635 149.773 296.688 148.84C295.567 148.301 283.698 157.055 289.942 163.044C296.119 168.97 302.674 164.654 305.321 158.805C307.837 153.24 308.945 151.687 310.688 152.731H310.692Z" fill="#14336A"/>
<path d="M379.076 162.388C379.076 162.388 388.93 146.019 389.546 146.193C390.158 146.367 390.553 149.766 390.553 149.766C390.553 149.766 393.745 144.854 396.315 146.009C398.885 147.167 394.793 165.872 389.793 169.399L379.072 162.385L379.076 162.388Z" fill="#FFAA9D"/>
<path d="M380.785 156.502L394.358 165.607C394.358 165.607 386.906 200.512 355.448 209.988C323.987 219.465 292.171 210.068 287.406 190.025C283.642 174.184 314.105 178.634 325.265 180.766C336.425 182.897 357.355 185.404 380.785 156.499V156.502Z" fill="url(#paint8_linear_996_114615)"/>
<path d="M408.056 278.803C407.347 282.346 411.6 283.056 412.309 288.018C413.018 292.981 410.89 294.396 411.6 297.234C412.309 300.068 416.562 300.777 417.271 307.865C417.981 314.952 415.147 314.242 415.853 318.495C416.562 322.748 420.815 322.748 421.525 326.292C422.234 329.836 422.234 334.798 423.649 339.051C425.068 343.304 429.321 349.682 431.446 349.682C433.571 349.682 439.243 337.632 437.824 334.089C436.405 330.545 434.28 329.836 434.28 327.002C434.28 324.167 437.115 317.08 436.405 312.118C435.696 307.155 429.318 305.03 428.608 301.487C427.899 297.943 430.027 288.728 425.065 284.475C420.102 280.222 408.762 275.259 408.053 278.803H408.056Z" fill="#3FB790"/>
<path d="M431.122 348.464C430.928 348.464 430.767 348.306 430.767 348.109C430.767 348.015 430.707 338.807 428.007 336.106C425.27 333.369 423.707 324.99 422.941 308.938C422.245 294.355 411.794 282.343 411.687 282.222C411.557 282.075 411.57 281.851 411.717 281.724C411.865 281.593 412.089 281.606 412.219 281.754C412.327 281.874 422.941 294.068 423.647 308.905C424.393 324.552 425.936 333.034 428.505 335.604C431.41 338.509 431.474 347.714 431.474 348.106C431.474 348.3 431.316 348.46 431.122 348.46V348.464Z" fill="#34916F"/>
<path d="M472.935 289.531C475.442 292.037 467.263 293.074 466.557 298.037C465.848 302.999 465.848 305.124 463.014 307.958C460.18 310.793 455.927 311.502 456.636 315.755C457.345 320.008 458.761 324.261 456.636 326.386C454.511 328.511 449.549 328.511 448.13 332.058C446.711 335.601 447.42 339.854 444.586 343.398C441.752 346.942 437.499 354.029 433.955 352.614C430.412 351.195 432.536 334.895 433.955 332.058C435.374 329.223 436.79 327.095 436.79 324.97C436.79 322.846 436.08 319.299 437.499 315.755C438.918 312.211 446.714 310.793 447.42 308.668C448.13 306.543 448.839 295.203 453.092 292.365C457.345 289.531 468.686 285.278 472.939 289.531H472.935Z" fill="#4FC7A0"/>
<path d="M435.052 351.396C434.989 351.396 434.929 351.379 434.868 351.345C434.701 351.245 434.647 351.028 434.748 350.86C434.775 350.813 437.616 346.065 438.215 343.666C438.368 343.047 438.556 342.113 438.77 341.029C439.553 337.094 440.738 331.148 442.558 329.327C445.201 326.684 449.428 318.583 452.392 308.216C456.04 295.447 468.103 291.709 468.223 291.672C468.414 291.616 468.608 291.723 468.665 291.91C468.722 292.097 468.615 292.295 468.427 292.352C468.31 292.389 456.612 296.023 453.072 308.41C450.077 318.891 445.767 327.119 443.06 329.826C441.39 331.496 440.185 337.549 439.466 341.166C439.249 342.261 439.061 343.204 438.901 343.837C438.275 346.34 435.471 351.024 435.354 351.222C435.287 351.332 435.169 351.392 435.049 351.392L435.052 351.396Z" fill="#3FB690"/>
<path d="M434.147 297.645C425.641 298.355 428.475 323.87 428.475 323.87C430.6 345.841 433.437 355.766 435.562 356.472C437.687 357.181 441.94 325.285 441.94 317.488C441.94 317.488 442.649 296.933 434.143 297.642L434.147 297.645Z" fill="#90DAD8"/>
<path d="M435.21 352.928C435.21 352.928 435.18 352.928 435.166 352.928C434.972 352.905 434.835 352.728 434.858 352.533C437.656 329.455 434.186 300.46 434.149 300.169C434.126 299.975 434.263 299.797 434.457 299.774C434.644 299.747 434.828 299.888 434.852 300.082C434.889 300.373 438.369 329.451 435.561 352.617C435.541 352.798 435.387 352.928 435.21 352.928Z" fill="white"/>
<path d="M445.775 369.063H424.209C423.49 369.063 422.881 368.624 422.8 368.042L419.665 345.679C419.524 344.672 420.304 343.775 421.321 343.775H448.66C449.677 343.775 450.457 344.676 450.316 345.679L447.181 368.042C447.1 368.624 446.495 369.063 445.772 369.063H445.775Z" fill="#D0DAED"/>
</g>
<defs>
<linearGradient id="paint0_linear_996_114615" x1="281.315" y1="53.2853" x2="281.315" y2="208.747" gradientUnits="userSpaceOnUse">
<stop stop-color="#E9F3FC"/>
<stop offset="1" stop-color="white"/>
</linearGradient>
<radialGradient id="paint1_radial_996_114615" cx="0" cy="0" r="1" gradientUnits="userSpaceOnUse" gradientTransform="translate(294.209 371.223) scale(201.669 177.787)">
<stop stop-color="#D0DFF3"/>
<stop offset="0.99" stop-color="#D0DFF3"/>
</radialGradient>
<linearGradient id="paint2_linear_996_114615" x1="268.228" y1="116.276" x2="282.771" y2="186.008" gradientUnits="userSpaceOnUse">
<stop stop-color="#3162DF"/>
<stop offset="1" stop-color="#173DB8"/>
</linearGradient>
<linearGradient id="paint3_linear_996_114615" x1="114.814" y1="222.447" x2="106.867" y2="223.94" gradientUnits="userSpaceOnUse">
<stop stop-color="#14336D"/>
<stop offset="0.97" stop-color="#0E2253"/>
</linearGradient>
<linearGradient id="paint4_linear_996_114615" x1="146.904" y1="218.836" x2="192.242" y2="220.241" gradientUnits="userSpaceOnUse">
<stop stop-color="#14336D"/>
<stop offset="0.97" stop-color="#0E2253"/>
</linearGradient>
<linearGradient id="paint5_linear_996_114615" x1="203.078" y1="231.097" x2="235.485" y2="288.528" gradientUnits="userSpaceOnUse">
<stop stop-color="#14336D"/>
<stop offset="0.97" stop-color="#0E2253"/>
</linearGradient>
<linearGradient id="paint6_linear_996_114615" x1="282.969" y1="185.035" x2="268.61" y2="249.658" gradientUnits="userSpaceOnUse">
<stop stop-color="#3162DF"/>
<stop offset="0.96" stop-color="#173DB8"/>
</linearGradient>
<linearGradient id="paint7_linear_996_114615" x1="179.614" y1="286.309" x2="177.861" y2="294.201" gradientUnits="userSpaceOnUse">
<stop stop-color="#14336D"/>
<stop offset="0.97" stop-color="#0E2253"/>
</linearGradient>
<linearGradient id="paint8_linear_996_114615" x1="329.672" y1="190.027" x2="416.245" y2="175.566" gradientUnits="userSpaceOnUse">
<stop stop-color="#3162DF"/>
<stop offset="1" stop-color="#173DB8"/>
</linearGradient>
</defs>
</svg>
