<svg width="608" height="374" viewBox="0 0 608 374" fill="none" xmlns="http://www.w3.org/2000/svg">
<mask id="mask0_996_114674" style="mask-type:alpha" maskUnits="userSpaceOnUse" x="0" y="0" width="608" height="374">
<rect width="608" height="374" fill="#D9D9D9"/>
</mask>
<g mask="url(#mask0_996_114674)">
<path d="M393.628 20.6267C395.86 18.3952 398.939 17.0185 402.341 17.0185H414.596C416.421 8.62155 423.89 2.33301 432.836 2.33301C441.782 2.33301 449.251 8.62155 451.077 17.0185H454.369C457.771 17.0185 460.85 18.3986 463.082 20.6267C465.313 22.8547 466.69 25.9375 466.69 29.3395C466.69 33.104 465.004 36.4727 462.343 38.7341C460.195 40.5598 457.412 41.6638 454.369 41.6638H402.344C398.942 41.6638 395.863 40.2838 393.632 38.0557C391.404 35.8276 390.023 32.7448 390.023 29.3428C390.023 25.9408 391.404 22.8614 393.632 20.63L393.628 20.6267Z" fill="#E9F3FC"/>
<path d="M243.827 39.1827C241.732 37.0877 238.839 35.7907 235.639 35.7907H224.127C222.411 27.9026 215.394 21.9932 206.99 21.9932C198.587 21.9932 191.566 27.9026 189.854 35.7907H186.761C183.565 35.7907 180.669 37.0877 178.574 39.1827C176.479 41.2778 175.182 44.171 175.182 47.3702C175.182 50.9052 176.768 54.0711 179.265 56.1961C181.284 57.912 183.901 58.9463 186.758 58.9463H235.639C238.835 58.9463 241.732 57.6493 243.827 55.5542C245.922 53.4592 247.219 50.566 247.219 47.3668C247.219 44.171 245.922 41.2745 243.827 39.1794V39.1827Z" fill="#E9F3FC"/>
<path d="M561.856 196.087V261.643C502.259 251.324 422.151 241.89 328.452 241.89C121.611 241.89 -40.6139 287.855 -40.6139 287.855C-52.6522 262.119 -39.3136 188 -7.91743 170.647C23.4821 153.298 50.7479 188 75.5363 175.605C100.325 163.211 77.1292 53.6423 115.196 46.5922C153.26 39.5422 177.23 110.036 223.754 110.036C270.278 110.036 263.232 39.5422 317.637 36.7221C372.039 33.9021 370.602 108.896 403.329 108.896C436.055 108.896 422.786 78.8231 474.086 77.9385C525.388 77.0539 539.538 184.076 561.51 195.908C561.627 195.971 561.74 196.031 561.856 196.087V196.087Z" fill="url(#paint0_linear_996_114674)"/>
<path d="M80.7368 296.783C74.7741 296.604 68.3027 294.509 68.4457 284.931C68.5887 275.354 75.539 273.864 76.2507 266.698C76.9623 259.531 76.9956 252.863 80.7368 252.79C84.4813 252.72 82.1102 255.783 83.8561 259.105C85.5987 262.428 88.9774 266.678 88.3223 272.886C87.6671 279.095 92.0868 281.473 91.8573 286.551C91.6245 291.629 88.452 297.016 80.7401 296.78L80.7368 296.783Z" fill="#DAEEFF"/>
<path d="M82.9416 272.327C82.8352 272.231 82.6756 272.237 82.5758 272.34C82.4761 272.444 82.4827 272.61 82.5858 272.706C82.6024 272.723 84.1388 274.269 83.9825 279.567C83.8462 284.146 81.4718 291.233 80.7202 293.371C80.0152 291.702 79.104 289.863 78.3391 288.313C77.8204 287.265 77.3747 286.364 77.132 285.792C76.2474 283.71 77.5942 279.334 77.6075 279.291C77.6507 279.154 77.5743 279.008 77.4379 278.965C77.3016 278.922 77.1552 278.998 77.112 279.134C77.0522 279.321 75.692 283.737 76.6531 285.995C76.9025 286.58 77.3514 287.488 77.8736 288.542C79.2703 291.366 81.3853 295.629 81.352 297.288C81.3055 299.59 81.0295 302.892 81.0261 302.925C81.0128 303.068 81.1193 303.195 81.2622 303.208C81.2689 303.208 81.2756 303.208 81.2855 303.208C81.4186 303.208 81.5316 303.105 81.5449 302.968C81.5449 302.935 81.8276 299.616 81.8741 297.298C81.8874 296.557 81.5383 295.403 81.0195 294.089C81.362 293.148 84.3517 284.794 84.508 279.58C84.6742 274 83.0181 272.39 82.9483 272.324L82.9416 272.327Z" fill="#6AC1FF"/>
<path d="M449.414 212.216C445.134 212.086 440.492 210.583 440.591 203.709C440.695 196.835 445.683 195.765 446.192 190.623C446.7 185.479 446.724 180.693 449.411 180.643C452.098 180.594 450.398 182.792 451.649 185.176C452.899 187.56 455.323 190.61 454.855 195.069C454.386 199.526 457.558 201.232 457.392 204.876C457.226 208.521 454.948 212.385 449.411 212.219L449.414 212.216Z" fill="#DAEEFF"/>
<path d="M450.998 194.664C450.921 194.594 450.805 194.598 450.735 194.674C450.665 194.747 450.668 194.867 450.742 194.937C450.752 194.947 451.856 196.058 451.743 199.862C451.646 203.148 449.94 208.236 449.401 209.769C448.896 208.572 448.241 207.251 447.692 206.141C447.32 205.389 447 204.741 446.824 204.332C446.189 202.838 447.157 199.696 447.167 199.666C447.197 199.566 447.143 199.463 447.044 199.433C446.944 199.403 446.841 199.456 446.811 199.556C446.768 199.689 445.793 202.858 446.482 204.481C446.661 204.9 446.984 205.552 447.36 206.31C448.364 208.335 449.88 211.398 449.857 212.589C449.824 214.242 449.624 216.613 449.624 216.636C449.614 216.739 449.691 216.829 449.794 216.839C449.8 216.839 449.804 216.839 449.81 216.839C449.907 216.839 449.987 216.766 449.997 216.669C449.997 216.646 450.2 214.261 450.233 212.599C450.243 212.067 449.993 211.239 449.621 210.294C449.867 209.619 452.012 203.623 452.125 199.879C452.245 195.875 451.058 194.717 451.004 194.671L450.998 194.664Z" fill="#6AC1FF"/>
<path d="M114.452 219.077C110.957 218.971 107.162 217.744 107.245 212.127C107.329 206.51 111.406 205.635 111.821 201.435C112.237 197.235 112.257 193.324 114.452 193.281C116.647 193.238 115.257 195.037 116.281 196.982C117.305 198.928 119.284 201.422 118.901 205.063C118.519 208.705 121.11 210.098 120.973 213.074C120.837 216.051 118.978 219.21 114.452 219.074V219.077Z" fill="#DAEEFF"/>
<path d="M115.746 204.738C115.683 204.681 115.59 204.684 115.533 204.744C115.477 204.804 115.477 204.901 115.54 204.96C115.55 204.97 116.451 205.875 116.358 208.984C116.278 211.668 114.885 215.825 114.446 217.079C114.033 216.101 113.498 215.02 113.049 214.112C112.746 213.5 112.484 212.968 112.341 212.636C111.822 211.415 112.613 208.848 112.62 208.821C112.647 208.742 112.6 208.655 112.52 208.632C112.44 208.605 112.354 208.652 112.331 208.732C112.297 208.841 111.499 211.432 112.061 212.755C112.208 213.098 112.47 213.63 112.776 214.249C113.594 215.905 114.835 218.406 114.815 219.377C114.788 220.727 114.625 222.662 114.625 222.682C114.619 222.765 114.682 222.838 114.765 222.848C114.768 222.848 114.775 222.848 114.778 222.848C114.858 222.848 114.924 222.789 114.931 222.709C114.931 222.689 115.097 220.743 115.124 219.383C115.134 218.948 114.928 218.269 114.622 217.501C114.821 216.949 116.577 212.05 116.667 208.991C116.763 205.719 115.792 204.774 115.753 204.738H115.746Z" fill="#6AC1FF"/>
<path d="M497.364 316.201C491.252 316.015 484.621 313.87 484.764 304.053C484.91 294.236 492.037 292.707 492.765 285.364C493.493 278.018 493.527 271.18 497.364 271.111C501.202 271.037 498.774 274.177 500.56 277.582C502.346 280.987 505.808 285.344 505.139 291.709C504.471 298.074 509 300.511 508.761 305.716C508.521 310.92 505.272 316.441 497.364 316.205V316.201Z" fill="#DAEEFF"/>
<path d="M499.627 291.133C499.52 291.034 499.354 291.04 499.251 291.147C499.151 291.253 499.154 291.423 499.261 291.522C499.277 291.539 500.854 293.125 500.691 298.556C500.551 303.248 498.117 310.511 497.349 312.706C496.627 310.997 495.693 309.111 494.908 307.521C494.376 306.447 493.917 305.523 493.667 304.938C492.759 302.803 494.143 298.316 494.156 298.273C494.199 298.134 494.123 297.984 493.98 297.941C493.84 297.897 493.691 297.974 493.647 298.117C493.587 298.31 492.191 302.836 493.178 305.15C493.434 305.749 493.897 306.683 494.429 307.761C495.862 310.654 498.027 315.027 497.994 316.726C497.947 319.084 497.661 322.473 497.658 322.506C497.645 322.653 497.754 322.782 497.901 322.796C497.907 322.796 497.917 322.796 497.924 322.796C498.06 322.796 498.177 322.689 498.19 322.553C498.19 322.52 498.479 319.118 498.526 316.74C498.542 315.978 498.183 314.794 497.651 313.451C498.004 312.483 501.067 303.92 501.226 298.576C501.396 292.856 499.7 291.206 499.627 291.14V291.133Z" fill="#6AC1FF"/>
<path d="M438.135 370.038C438.135 372.223 376.929 373.996 301.43 373.996C225.931 373.996 164.725 372.223 164.725 370.038C164.725 367.854 225.931 366.081 301.43 366.081C376.929 366.081 438.135 367.854 438.135 370.038Z" fill="url(#paint1_radial_996_114674)"/>
<path d="M387.398 179.892C387.215 180.57 386.969 181.481 386.673 182.536C386.596 182.802 386.52 183.081 386.44 183.364C386.403 183.493 386.363 183.626 386.327 183.763C386.28 183.922 386.234 184.089 386.187 184.255C385.978 184.987 385.751 185.761 385.515 186.553C385.469 186.713 385.419 186.875 385.369 187.035C385.336 187.145 385.302 187.258 385.269 187.368C385.183 187.654 385.093 187.943 385.003 188.232C384.897 188.581 384.787 188.931 384.677 189.28C384.627 189.439 384.574 189.599 384.524 189.755C384.285 190.5 384.042 191.239 383.796 191.954C383.64 192.409 383.483 192.855 383.327 193.284C383.158 193.756 382.985 194.215 382.815 194.647C382.755 194.8 382.695 194.953 382.635 195.103C382.323 195.881 382.017 196.579 381.724 197.158C381.648 197.304 381.575 197.444 381.501 197.577C381.029 198.432 380.6 198.937 380.244 198.937C379.862 198.937 379.393 198.352 378.878 197.377C378.808 197.244 378.735 197.101 378.661 196.955C378.372 196.363 378.073 195.665 377.764 194.887C377.704 194.737 377.644 194.584 377.584 194.428C377.497 194.202 377.411 193.972 377.325 193.739C377.211 193.437 377.102 193.127 376.989 192.811C376.915 192.605 376.839 192.392 376.766 192.18C376.713 192.023 376.656 191.867 376.603 191.711C376.357 190.986 376.114 190.244 375.875 189.493C375.825 189.333 375.772 189.173 375.722 189.014C375.685 188.894 375.645 188.771 375.609 188.651C375.519 188.362 375.429 188.073 375.339 187.787C375.233 187.444 375.133 187.102 375.03 186.766C374.98 186.603 374.934 186.443 374.884 186.28C374.651 185.495 374.428 184.727 374.219 184.006C374.115 183.65 374.019 183.301 373.926 182.968C373.577 181.731 373.287 180.667 373.081 179.895C373.035 179.726 373.035 179.553 373.071 179.393C373.108 179.237 373.181 179.09 373.281 178.967C373.47 178.735 373.756 178.585 374.089 178.585H386.38C386.599 178.585 386.802 178.651 386.965 178.765C387.092 178.851 387.198 178.967 387.278 179.097C387.414 179.327 387.464 179.609 387.388 179.895L387.398 179.892Z" fill="url(#paint2_linear_996_114674)"/>
<path opacity="0.7" d="M384.247 181.868L387.289 179.094C387.213 178.964 387.106 178.848 386.977 178.762L383.907 181.558L382.324 180.118L384.01 178.582H383.335L381.985 179.809L380.635 178.582H379.494L378.108 179.846L376.711 178.582H376.033L377.768 180.155L376.189 181.595L373.286 178.968C373.186 179.091 373.113 179.237 373.076 179.393L375.85 181.904L374.307 183.311L373.931 182.968C374.024 183.301 374.124 183.647 374.223 184.006L374.307 183.929L375.886 185.369L374.885 186.281C374.932 186.44 374.982 186.603 375.032 186.766L376.225 185.679L377.805 187.119L376.202 188.579L375.341 187.787C375.431 188.073 375.52 188.362 375.61 188.652L375.866 188.888L375.723 189.017C375.773 189.177 375.823 189.337 375.876 189.496L376.202 189.197L377.775 190.644L376.605 191.711C376.658 191.867 376.711 192.027 376.767 192.18L378.114 190.953L379.74 192.446L378.168 193.893L376.99 192.809C377.1 193.125 377.213 193.434 377.326 193.736L377.832 194.202L377.586 194.428C377.645 194.584 377.705 194.737 377.765 194.887L378.171 194.515L379.744 195.961L378.663 196.955C378.736 197.102 378.809 197.245 378.879 197.378L380.083 196.274L381.503 197.581C381.576 197.451 381.649 197.311 381.726 197.162L380.422 195.961L381.995 194.515L382.637 195.107C382.697 194.957 382.757 194.807 382.817 194.651L382.331 194.205L383.329 193.287C383.485 192.855 383.641 192.413 383.798 191.957L382.371 190.657L383.931 189.224L384.523 189.762C384.572 189.603 384.626 189.446 384.676 189.287L384.266 188.918L385.001 188.243C385.091 187.953 385.181 187.664 385.267 187.378L383.927 188.612L382.308 187.145L383.887 185.705L385.371 187.045C385.417 186.883 385.467 186.723 385.517 186.563L384.23 185.396L385.83 183.939L386.189 184.269C386.235 184.102 386.282 183.939 386.328 183.776L386.165 183.63L386.441 183.381C386.521 183.095 386.598 182.819 386.674 182.553L385.826 183.324L384.247 181.884V181.868ZM383.571 181.868L381.965 183.331L380.379 181.894L381.992 180.424L383.571 181.864V181.868ZM380.046 185.08L378.46 183.643L380.04 182.204L381.626 183.64L380.046 185.08ZM380.046 185.699L381.633 187.135L380.073 188.559L378.493 187.119L380.05 185.702L380.046 185.699ZM380.073 178.678L381.653 180.118L380.04 181.588L378.453 180.152L380.07 178.678H380.073ZM378.118 180.461L379.704 181.898L378.124 183.338L376.538 181.901L378.118 180.461ZM374.656 183.617L376.199 182.21L377.785 183.647L376.235 185.057L374.656 183.617ZM376.575 185.366L378.124 183.956L379.711 185.393L378.158 186.809L376.578 185.369L376.575 185.366ZM376.551 188.884L378.154 187.425L379.734 188.865L378.124 190.334L376.551 188.888V188.884ZM378.463 190.64L380.076 189.17L381.699 190.65L380.086 192.133L378.463 190.64V190.64ZM380.086 195.649L378.513 194.202L380.086 192.755L381.659 194.202L380.086 195.649ZM383.618 192.403L381.999 193.893L380.426 192.446L382.038 190.963L383.618 192.403ZM383.595 188.911L382.035 190.344L380.412 188.865L381.972 187.441L383.591 188.911H383.595ZM381.972 186.826L380.386 185.389L381.965 183.949L383.552 185.386L381.972 186.826ZM383.891 185.077L382.304 183.64L383.911 182.177L385.494 183.617L383.891 185.077Z" fill="#E88207"/>
<path d="M310.858 350.155L309.148 359.457H339.743L343.318 350.155H310.858Z" fill="#FFAA9D"/>
<path d="M339.743 359.457H308.337L306.891 369.148H349.238L339.743 359.457Z" fill="#0B2252"/>
<path d="M309.149 350.155C309.149 350.155 314.61 304.642 314.806 301.091C315.002 297.536 315.138 285.694 309.149 280.759C303.16 275.823 289.003 257.5 287.167 240.836C285.332 224.172 287.167 196.254 287.167 196.254H325.378C325.378 196.254 354.762 242.455 354.762 269.099C354.762 302.863 348.52 347.192 346.751 350.155H309.149Z" fill="url(#paint3_linear_996_114674)"/>
<path d="M275.777 196.254L248.508 350.155H284.294L330.186 208.651L275.777 196.254Z" fill="#14336D"/>
<path d="M279.056 359.457H248.462L246.174 369.148H284.979L279.056 359.457Z" fill="#0B2252"/>
<path d="M250.174 350.155L248.461 359.457H279.056L282.631 350.155H250.174Z" fill="#FFAA9D"/>
<path d="M376.994 192.815C377.041 192.955 377.087 193.081 377.141 193.211C371.999 193.966 363.047 193.986 363.047 193.986C362.272 192.347 365.904 182.646 366.795 183.687C367.44 184.452 371.703 183.614 374.101 183.541C374.986 183.504 376.296 182.836 376.532 183.647C376.768 184.458 374.863 185.815 375.029 186.73C375.039 186.786 375.056 186.839 375.075 186.896C375.169 187.192 375.252 187.495 375.342 187.791C375.435 188.077 375.524 188.363 375.608 188.655C375.654 188.775 375.691 188.895 375.727 189.014C375.774 189.181 375.827 189.337 375.874 189.493C376.113 190.248 376.362 190.986 376.602 191.715C376.658 191.871 376.712 192.027 376.768 192.184C376.841 192.396 376.914 192.606 376.988 192.819L376.994 192.815Z" fill="#FFAA9D"/>
<path d="M313.597 128.682C315.506 132.743 317.033 171.385 320.155 173.55C323.275 175.712 365.056 182.403 366.373 182.905C367.694 183.407 368.621 193.659 367.996 194.504C367.368 195.345 319.806 208.285 298.699 193.623C277.592 178.961 291.775 135.699 292.76 133.597C299.993 118.087 311.692 124.625 313.601 128.686L313.597 128.682Z" fill="url(#paint4_linear_996_114674)"/>
<path d="M283.552 132.4C283.552 132.4 270.287 202.403 272.266 206.22C278.937 219.11 338.334 216.25 335.906 209.399C329.272 190.687 330.456 139.933 323.928 131.26C317.885 123.229 309.628 122.234 302.638 122.234C287.683 122.234 284.723 125.547 283.552 132.4V132.4Z" fill="url(#paint5_linear_996_114674)"/>
<path d="M325.724 115.976L322.183 124.988L320.862 124.396C320.862 124.396 316.749 131.37 311.993 128.051C310.626 127.097 309.23 125.038 308.575 125.065C307.793 125.098 306.679 127.01 306.29 127.536C304.8 129.544 297.876 124.054 300.095 122.278C302.2 120.592 305.226 118.351 305.183 117.366C305.036 113.934 307.6 106.608 315.801 107.174C322.336 107.626 326.918 112.887 325.724 115.976V115.976Z" fill="#FFAA9D"/>
<path d="M300.093 122.278C302.198 120.592 305.224 118.351 305.181 117.366C305.181 117.366 306.299 123.272 308.806 125.125C308.809 125.128 308.813 125.135 308.819 125.138C308.73 125.095 308.646 125.065 308.577 125.068C307.795 125.101 306.681 127.014 306.292 127.539C304.802 129.548 297.878 124.057 300.097 122.281L300.093 122.278Z" fill="#FF9F91"/>
<path d="M311.811 115.397C308.675 113.435 307.684 121.812 304.072 120.036C300.457 118.261 301.202 109.072 306.5 103.928C311.797 98.783 316.842 101.261 321.435 104.144C326.027 107.027 331.172 111.749 329.632 115.487C325.931 124.479 318.382 112.564 316.57 114.978C315.166 116.847 311.847 122.554 313.959 123.585C316.071 124.616 319.014 123.731 320.537 124.895C321.415 125.563 319.286 138.476 312.03 135.959C304.85 133.468 305.619 126.544 309.174 122.092C312.556 117.855 313.337 116.355 311.807 115.397H311.811Z" fill="#14336A"/>
<path d="M297.968 200.577C297.968 200.577 309.441 210.52 309.221 210.975C309.002 211.431 306.285 211.278 306.285 211.278C306.285 211.278 309.697 214.447 308.443 216.3C307.19 218.155 293.099 212.405 291.018 208.012L297.968 200.573V200.577Z" fill="#FFAA9D"/>
<path d="M302.347 202.715L293.374 212.103C293.374 212.103 267.063 201.521 263.924 175.605C260.784 149.689 272.467 126.058 288.805 125.054C301.718 124.259 294.089 147.505 290.903 155.951C287.718 164.398 282.906 180.44 302.347 202.715Z" fill="url(#paint6_linear_996_114674)"/>
<path d="M161.23 280.077C160.532 283.575 164.729 284.274 165.427 289.169C166.126 294.064 164.027 295.464 164.729 298.261C165.427 301.058 169.624 301.759 170.326 308.753C171.024 315.747 168.227 315.048 168.926 319.245C169.624 323.442 173.821 323.442 174.522 326.94C175.224 330.439 175.221 335.334 176.621 339.531C178.021 343.727 182.218 350.023 184.316 350.023C186.415 350.023 192.011 338.131 190.611 334.635C189.211 331.137 187.113 330.439 187.113 327.642C187.113 324.845 189.91 317.848 189.211 312.953C188.513 308.058 182.218 305.96 181.516 302.461C180.818 298.963 182.916 289.871 178.018 285.674C173.122 281.477 161.932 276.582 161.23 280.077V280.077Z" fill="#3FB790"/>
<path d="M183.99 348.822C183.797 348.822 183.641 348.666 183.641 348.473C183.641 348.38 183.581 339.295 180.917 336.631C178.214 333.928 176.674 325.66 175.919 309.821C175.234 295.428 164.918 283.576 164.815 283.456C164.689 283.31 164.702 283.09 164.845 282.964C164.991 282.834 165.211 282.851 165.337 282.994C165.444 283.114 175.919 295.145 176.614 309.788C177.349 325.228 178.872 333.602 181.41 336.136C184.276 339.002 184.336 348.088 184.339 348.47C184.339 348.663 184.183 348.819 183.99 348.819V348.822Z" fill="#34916F"/>
<path d="M225.253 290.662C227.727 293.136 219.656 294.16 218.958 299.056C218.259 303.951 218.259 306.049 215.459 308.849C212.659 311.649 208.466 312.348 209.164 316.544C209.862 320.741 211.262 324.938 209.164 327.036C207.066 329.135 202.17 329.135 200.77 332.633C199.37 336.132 200.072 340.329 197.272 343.824C194.475 347.322 190.278 354.316 186.78 352.916C183.282 351.516 185.38 335.43 186.78 332.633C188.18 329.837 189.577 327.738 189.577 325.64C189.577 323.541 188.878 320.043 190.275 316.548C191.675 313.049 199.367 311.653 200.069 309.554C200.767 307.456 201.469 296.266 205.666 293.469C209.862 290.672 221.053 286.475 225.249 290.672L225.253 290.662Z" fill="#4FC7A0"/>
<path d="M187.865 351.712C187.805 351.712 187.742 351.695 187.686 351.662C187.519 351.562 187.466 351.349 187.566 351.183C187.593 351.136 190.396 346.454 190.988 344.086C191.141 343.478 191.324 342.553 191.537 341.482C192.311 337.598 193.479 331.732 195.278 329.933C197.888 327.322 202.058 319.331 204.982 309.102C208.583 296.498 220.485 292.81 220.605 292.777C220.794 292.72 220.984 292.827 221.041 293.013C221.097 293.199 220.991 293.392 220.808 293.449C220.691 293.482 209.148 297.07 205.657 309.298C202.7 319.64 198.45 327.758 195.777 330.432C194.127 332.081 192.94 338.054 192.228 341.622C192.012 342.699 191.829 343.631 191.673 344.259C191.058 346.727 188.291 351.352 188.171 351.549C188.105 351.658 187.988 351.718 187.872 351.718L187.865 351.712Z" fill="#3FB690"/>
<path d="M186.976 298.67C178.582 299.368 181.379 324.549 181.379 324.549C183.477 346.231 186.274 356.025 188.372 356.723C190.471 357.422 194.668 325.949 194.668 318.254C194.668 318.254 195.366 297.972 186.972 298.67H186.976Z" fill="#90DAD8"/>
<path d="M188.023 353.228C188.023 353.228 187.993 353.228 187.98 353.228C187.787 353.205 187.65 353.032 187.674 352.839C190.434 330.063 187.008 301.45 186.975 301.164C186.952 300.971 187.088 300.798 187.281 300.775C187.467 300.748 187.647 300.888 187.67 301.081C187.707 301.367 191.142 330.063 188.369 352.922C188.349 353.098 188.196 353.231 188.023 353.231V353.228Z" fill="white"/>
<path d="M198.448 369.148H177.165C176.454 369.148 175.855 368.716 175.775 368.14L172.682 346.072C172.543 345.078 173.314 344.193 174.319 344.193H201.295C202.299 344.193 203.071 345.081 202.931 346.072L199.839 368.14C199.759 368.712 199.16 369.148 198.448 369.148V369.148Z" fill="#D0DAED"/>
<path d="M418.698 366.391C418.166 366.245 417.84 365.723 417.913 365.177C417.943 364.941 417.96 364.702 417.96 364.459C417.96 360.987 414.91 358.174 411.149 358.174C407.388 358.174 404.339 360.987 404.339 364.459C404.339 364.725 404.358 364.988 404.395 365.244C404.468 365.766 404.176 366.268 403.677 366.438C401.868 367.063 399.034 368.204 399.194 369.161C399.367 370.202 402.759 369.926 404.495 369.713C404.957 369.657 405.326 370.086 405.207 370.535C404.891 371.725 404.545 373.641 405.499 373.96C406.63 374.336 409.536 372.008 410.614 371.097C410.853 370.894 411.199 370.887 411.442 371.08C412.669 372.045 416.237 374.678 417.325 373.674C418.073 372.982 417.275 371.762 416.443 370.831C416.048 370.392 416.39 369.697 416.982 369.74C419.533 369.926 423.856 370.082 424.019 369.005C424.159 368.087 421.139 367.063 418.701 366.394L418.698 366.391Z" fill="#50C6A1"/>
<path d="M416.147 357.538C416.147 357.538 416.13 357.538 416.124 357.538C415.868 357.525 415.675 357.309 415.688 357.053L415.858 353.904C415.871 353.651 416.097 353.461 416.343 353.468C416.599 353.481 416.792 353.697 416.779 353.953L416.609 357.103C416.596 357.349 416.393 357.538 416.15 357.538H416.147Z" fill="#50C6A1"/>
<path d="M423.062 362.108C423.062 362.108 423.045 362.108 423.039 362.108L419.889 361.938C419.633 361.925 419.44 361.709 419.454 361.453C419.467 361.2 419.693 361.004 419.939 361.017L423.089 361.187C423.345 361.2 423.537 361.416 423.524 361.672C423.511 361.918 423.308 362.108 423.065 362.108H423.062Z" fill="#50C6A1"/>
<path d="M419.129 358.593C419.002 358.593 418.876 358.54 418.786 358.44C418.617 358.25 418.63 357.961 418.823 357.788L421.167 355.68C421.357 355.51 421.646 355.524 421.819 355.716C421.989 355.906 421.975 356.195 421.783 356.368L419.438 358.477C419.348 358.556 419.239 358.593 419.129 358.593V358.593Z" fill="#50C6A1"/>
</g>
<defs>
<linearGradient id="paint0_linear_996_114674" x1="258.426" y1="55.2885" x2="258.426" y2="209.788" gradientUnits="userSpaceOnUse">
<stop stop-color="#E9F3FC"/>
<stop offset="1" stop-color="white"/>
</linearGradient>
<radialGradient id="paint1_radial_996_114674" cx="0" cy="0" r="1" gradientUnits="userSpaceOnUse" gradientTransform="translate(300.986 371.287) scale(141.399 175.44)">
<stop stop-color="#D0DFF3"/>
<stop offset="0.99" stop-color="#D0DFF3"/>
</radialGradient>
<linearGradient id="paint2_linear_996_114674" x1="380.244" y1="198.681" x2="380.244" y2="186.2" gradientUnits="userSpaceOnUse">
<stop stop-color="#FF8E00"/>
<stop offset="1" stop-color="#FFCF01"/>
</linearGradient>
<linearGradient id="paint3_linear_996_114674" x1="354.482" y1="319.325" x2="311.52" y2="266.09" gradientUnits="userSpaceOnUse">
<stop stop-color="#14336D"/>
<stop offset="0.97" stop-color="#0E2253"/>
</linearGradient>
<linearGradient id="paint4_linear_996_114674" x1="299.658" y1="143.973" x2="350.514" y2="214.016" gradientUnits="userSpaceOnUse">
<stop stop-color="#3162DF"/>
<stop offset="0.96" stop-color="#173DB8"/>
</linearGradient>
<linearGradient id="paint5_linear_996_114674" x1="326.152" y1="154.622" x2="266.905" y2="208.229" gradientUnits="userSpaceOnUse">
<stop stop-color="#3162DF"/>
<stop offset="0.96" stop-color="#173DB8"/>
</linearGradient>
<linearGradient id="paint6_linear_996_114674" x1="296.341" y1="160.309" x2="255.147" y2="200.341" gradientUnits="userSpaceOnUse">
<stop stop-color="#3162DF"/>
<stop offset="0.96" stop-color="#173DB8"/>
</linearGradient>
</defs>
</svg>
