<svg height="512" viewBox="0 0 96 96" width="512" xmlns="http://www.w3.org/2000/svg"><g id="Layer_4"><g><path d="m90 12.142c0-3.392-2.75-6.142-6.142-6.142h-71.716c-3.392 0-6.142 2.75-6.142 6.142v25.717c0 3.391 2.75 6.141 6.142 6.141h71.717c3.391 0 6.141-2.75 6.141-6.142zm-6 24.858h-72v-26h72z"/><path d="m25.993 28.871c.68.787 1.666 1.238 2.705 1.238s2.025-.451 2.705-1.239l5.209-6.031c1.075-1.245.937-3.126-.308-4.201-1.245-1.076-3.126-.938-4.201.308l-3.405 3.943-3.405-3.943c-1.076-1.245-2.957-1.383-4.202-.308s-1.383 2.956-.307 4.201z"/><path d="m90 58.142c0-3.392-2.75-6.142-6.142-6.142h-71.716c-3.392 0-6.142 2.75-6.142 6.142v25.717c0 3.391 2.75 6.141 6.142 6.141h71.717c3.391 0 6.141-2.75 6.141-6.142zm-6 25.674c0 .102-71.816.184-71.816.184-.102 0-.184-26-.184-26h72z"/><path d="m32.104 65.735-3.405 3.943-3.405-3.943c-1.076-1.246-2.957-1.383-4.202-.308s-1.383 2.956-.307 4.201l5.209 6.032c.68.787 1.666 1.238 2.705 1.238s2.025-.451 2.705-1.239l5.209-6.031c1.075-1.245.937-3.126-.308-4.201-1.245-1.076-3.127-.937-4.201.308z"/></g></g></svg>