<?xml version="1.0" encoding="iso-8859-1"?>
<!-- Generator: Adobe Illustrator 16.0.0, SVG Export Plug-In . SVG Version: 6.00 Build 0)  -->
<!DOCTYPE svg PUBLIC "-//W3C//DTD SVG 1.1//EN" "http://www.w3.org/Graphics/SVG/1.1/DTD/svg11.dtd">
<svg version="1.1" id="Capa_1" xmlns="http://www.w3.org/2000/svg" xmlns:xlink="http://www.w3.org/1999/xlink" x="0px" y="0px"
	 width="990.9px" height="990.9px" viewBox="0 0 990.9 990.9" style="enable-background:new 0 0 990.9 990.9;" xml:space="preserve"
	>
<g>
	<path d="M920.8,64.5H70c-38.7,0-70,31.3-70,70c0,38.7,31.3,70,70,70h850.9c38.7,0,70-31.3,70-70C990.9,95.8,959.5,64.5,920.8,64.5z
		"/>
	<path d="M920.8,545.801H70c-38.7,0-70,31.299-70,70c0,38.699,31.3,70,70,70h850.9c38.7,0,70-31.301,70-70
		C990.9,577.1,959.5,545.801,920.8,545.801z"/>
	<path d="M804.101,445.1c38.699,0,70-31.3,70-70s-31.301-70-70-70H186.8c-38.7,0-70,31.3-70,70s31.3,70,70,70H804.101z"/>
	<path d="M682.5,926.4c38.7,0,70-31.301,70-70c0-38.701-31.3-70-70-70H308.3c-38.7,0-70,31.299-70,70c0,38.699,31.3,70,70,70H682.5z
		"/>
</g>
<g>
</g>
<g>
</g>
<g>
</g>
<g>
</g>
<g>
</g>
<g>
</g>
<g>
</g>
<g>
</g>
<g>
</g>
<g>
</g>
<g>
</g>
<g>
</g>
<g>
</g>
<g>
</g>
<g>
</g>
</svg>
