<svg id="Capa_1" enable-background="new 0 0 485.867 485.867" height="512" viewBox="0 0 485.867 485.867" width="512" xmlns="http://www.w3.org/2000/svg"><g><g id="arrow-1-n_1_"><path d="m412.749 232.609c-8.115-.034-15.88-3.314-21.56-9.11l-150.315-150.315-150.315 150.315c-13.836 9.478-32.736 5.946-42.214-7.89-6.861-10.015-7.098-23.153-.603-33.409l171.572-171.875c11.81-11.907 31.037-11.986 42.945-.176.059.058.118.117.176.176l171.571 171.875c11.774 11.844 11.774 30.973 0 42.817-5.847 5.168-13.459 7.886-21.257 7.592z"/><path d="m240.874 485.867c-16.771 0-30.367-13.596-30.367-30.367v-425.133c0-16.771 13.596-30.367 30.367-30.367s30.367 13.596 30.367 30.367v425.133c0 16.771-13.596 30.367-30.367 30.367z"/></g></g></svg>