<svg id="Capa_1" enable-background="new 0 0 512 512" height="512" viewBox="0 0 512 512" width="512" xmlns="http://www.w3.org/2000/svg"><g><path d="m143 224c0-8.284-6.716-15-15-15h-80c-8.284 0-15 6.716-15 15v49h110z"/><path d="m359 303v144h138c8.284 0 15-6.716 15-15v-114c0-8.284-6.716-15-15-15z"/><path d="m0 318v114c0 8.284 6.716 15 15 15h314v-144h-314c-8.284 0-15 6.716-15 15z"/><path d="m479 128v-48c0-8.284-6.716-15-15-15h-80c-8.284 0-15 6.716-15 15v48z"/><path d="m177 173v100h335v-100c0-8.284-6.716-15-15-15h-305c-8.284 0-15 6.716-15 15z"/><path d="m319 128v-48c0-8.284-6.716-15-15-15h-80c-8.284 0-15 6.716-15 15v48z"/></g></svg>