<svg id="Layer_1" enable-background="new 0 0 72 72" height="512" viewBox="0 0 72 72" width="512" xmlns="http://www.w3.org/2000/svg"><g id="Layer_2_1_"><g id="Layer_1-2"><path id="format_bold" d="m49.2 34.2c6.5-6.8 6.1-17.6-.7-24-3.1-3-7.3-4.6-11.6-4.6h-20.3c-1.9 0-3.5 1.6-3.5 3.5s1.6 3.5 3.5 3.5h3.3v47h-3.3c-1.9 0-3.5 1.6-3.5 3.5s1.6 3.5 3.5 3.5h25.3c9.4 0 17-7.7 17-17-.1-6.7-3.8-12.6-9.7-15.4zm-12.3-21.7c5.5 0 10 4.5 10 10s-4.5 10-10 10h-10v-20zm5 47h-15v-20h15c5.5 0 10 4.5 10 10s-4.5 10-10 10z"/></g></g></svg>