<svg id="Layer_1" enable-background="new 0 0 512 512" height="512" viewBox="0 0 512 512" width="512" xmlns="http://www.w3.org/2000/svg"><path d="m428.306 251.465c48.176-12.305 83.694-55.961 83.694-107.934 0-61.626-49.877-111.4-111.4-111.4h-289.2c-61.426.001-111.4 49.974-111.4 111.4 0 61.626 49.876 111.4 111.4 111.4h188.826v161.733c0 6.067 3.654 11.537 9.26 13.858 5.211 2.158 11.759 1.336 16.347-3.252l59.419-59.419 42.562 102.753c3.17 7.654 11.945 11.287 19.599 8.118 7.653-3.17 11.288-11.945 8.118-19.599l-42.562-102.753h84.031c6.067 0 11.536-3.655 13.858-9.26 2.321-5.605 1.038-12.057-3.252-16.347zm-316.906-26.534c-45.031 0-81.4-36.444-81.4-81.4 0-44.884 36.516-81.4 81.4-81.4h289.2c45.031 0 81.4 36.444 81.4 81.4 0 44.646-35.83 80.758-80.256 81.371l-75.911-75.911c-4.289-4.291-10.743-5.573-16.347-3.252-5.605 2.322-9.26 7.792-9.26 13.858v65.333h-188.826zm279.12 101.441c-3.979 0-7.794 1.581-10.606 4.394l-49.687 49.686v-184.64l130.561 130.56z"/></svg>