<svg enable-background="new 0 0 32 32" height="512" viewBox="0 0 32 32" width="512" xmlns="http://www.w3.org/2000/svg"><g id="_x30_3-book"><path d="m26.9 24.7v-21.6c0-.6-.4-1-1-1l-17.8-.1c-1.7 0-3 1.4-3 3v21.8c0 1.8 1.4 3.2 3.2 3.2h17.6c.3 0 .7-.2.9-.5s.2-.7 0-1c-.6-1.2-.6-2.3 0-3.5 0 0 .1-.1.1-.3zm-15-16.7h8.2c.6 0 1 .4 1 1s-.4 1-1 1h-8.2c-.6 0-1-.4-1-1s.5-1 1-1zm0 4.1h8.2c.6 0 1 .4 1 1s-.4 1-1 1h-8.2c-.6 0-1-.4-1-1s.5-1 1-1zm0 4h8.2c.6 0 1 .4 1 1s-.4 1-1 1h-8.2c-.6 0-1-.4-1-1s.5-1 1-1zm12.6 11.9h-16.2c-.7 0-1.2-.5-1.2-1.2s.5-1.2 1.2-1.2h16.2c-.2.8-.2 1.6 0 2.4z"/></g></svg>