<svg width="20" height="20" viewBox="0 0 20 20" fill="none" xmlns="http://www.w3.org/2000/svg">
<circle cx="10" cy="10" r="10" fill="#EBEBEB"/>
<path d="M13.8132 12.9561L10.8729 10.0032L13.8177 7.05024C13.874 6.99464 13.9188 6.92772 13.9494 6.85356C13.9801 6.7794 13.9959 6.69954 13.9959 6.61884C13.9959 6.53813 13.9801 6.45827 13.9494 6.38411C13.9188 6.30995 13.874 6.24303 13.8177 6.18743C13.6974 6.07 13.5386 6.00461 13.3735 6.00461C13.2085 6.00461 13.0496 6.07 12.9294 6.18743L9.99794 9.12651L7.06652 6.18282C6.94627 6.06538 6.78742 6 6.62237 6C6.45732 6 6.29848 6.06538 6.17822 6.18282C6.12235 6.23922 6.07786 6.30663 6.04736 6.3811C6.01686 6.45556 6.00094 6.5356 6.00056 6.61653C6.00044 6.69754 6.01612 6.77773 6.04666 6.85227C6.07719 6.92681 6.12194 6.99416 6.17822 7.05024L9.12296 10.0032L6.17822 12.9561C6.12191 13.0117 6.07707 13.0786 6.04644 13.1528C6.0158 13.2269 6 13.3068 6 13.3875C6 13.4682 6.0158 13.548 6.04644 13.6222C6.07707 13.6964 6.12191 13.7633 6.17822 13.8189C6.29991 13.9333 6.45821 13.9967 6.62237 13.9967C6.78653 13.9967 6.94483 13.9333 7.06652 13.8189L9.99794 10.8798L12.9294 13.8189C13.0501 13.9353 13.2088 14 13.3735 14C13.5383 14 13.6969 13.9353 13.8177 13.8189C13.8751 13.764 13.921 13.6973 13.9524 13.6231C13.9838 13.5488 14 13.4686 14 13.3875C14 13.3064 13.9838 13.2262 13.9524 13.1519C13.921 13.0776 13.8751 13.011 13.8177 12.9561H13.8132Z" fill="#333333"/>
</svg>
