<svg clip-rule="evenodd" fill-rule="evenodd" height="512" image-rendering="optimizeQuality" shape-rendering="geometricPrecision" text-rendering="geometricPrecision" viewBox="0 0 1706.66 1706.66" width="512" xmlns="http://www.w3.org/2000/svg" xmlns:xodm="http://www.corel.com/coreldraw/odm/2003"><g id="Layer_x0020_1"><path d="m592.04 1603.41h-180.31c-11.04 0-20-8.97-20-20v-122.68c-22.73-6.97-44.77-16.11-65.81-27.3l-86.79 86.79c-7.81 7.81-20.46 7.81-28.27 0l-127.51-127.52c-7.82-7.82-7.82-20.48 0-28.29l86.76-86.76c-11.18-21.02-20.32-43.06-27.29-65.8h-122.7c-11.04 0-20-8.97-20-20v-180.33c0-11.04 8.96-20 20-20h122.67c6.97-22.73 16.12-44.77 27.3-65.81l-86.78-86.78c-7.81-7.81-7.81-20.46 0-28.27l127.52-127.51c7.8-7.82 20.47-7.82 28.27 0l86.78 86.78c21.04-11.18 43.07-20.32 65.81-27.29v-122.67c0-11.04 8.96-20 20-20l180.31-.01c11.04 0 20 8.96 20 20v122.67c22.73 6.97 44.76 16.11 65.81 27.3l86.79-86.79c7.81-7.81 20.46-7.81 28.27 0l127.51 127.52c7.82 7.82 7.8 20.47 0 28.28l-86.78 86.78c11.18 21.03 20.31 43.07 27.29 65.8h122.68c11.04 0 20 8.97 20 20v180.32c0 11.04-8.97 20-20 20h-122.68c-6.97 22.72-16.11 44.76-27.3 65.8l86.79 86.78c7.8 7.83 7.81 20.48 0 28.3l-127.52 127.51c-7.82 7.82-20.47 7.82-28.28 0l-86.78-86.76c-21.05 11.18-43.09 20.32-65.82 27.29v122.69c.04 11.03-8.91 19.98-19.95 19.98zm824.83 53.42h-124.17c-11.04 0-20-8.97-20-20v-79.94c-13.01-4.25-25.69-9.5-37.91-15.74l-56.52 56.55c-7.51 7.48-20.77 7.48-28.29 0l-87.81-87.81c-7.82-7.82-7.82-20.48 0-28.29l56.53-56.52c-6.22-12.22-11.48-24.9-15.74-37.91l-79.93.01c-11.04 0-20-8.97-20-20v-124.19c0-11.04 8.97-20 20-20h79.92c4.25-13.01 9.51-25.69 15.73-37.91l-56.53-56.52c-7.81-7.82-7.81-20.48 0-28.3l87.82-87.81c7.82-7.82 20.48-7.82 28.29 0l56.52 56.53c12.24-6.24 24.91-11.48 37.91-15.74v-79.95c0-11.04 8.97-20 20-20h124.17c11.04 0 20 8.97 20 20v79.93c13.01 4.25 25.69 9.51 37.89 15.74l56.53-56.53c7.82-7.82 20.48-7.82 28.29 0l87.81 87.81c7.82 7.82 7.82 20.48 0 28.29l-56.54 56.52c6.22 12.22 11.47 24.9 15.74 37.91h79.93c11.04 0 20 8.97 20 20v124.17c0 11.04-8.97 20-20 20h-79.93c-4.25 13.01-9.5 25.69-15.74 37.91l56.55 56.53c7.81 7.82 7.81 20.48 0 28.3l-87.82 87.81c-7.82 7.82-20.48 7.82-28.29 0l-56.52-56.53c-12.22 6.22-24.9 11.47-37.91 15.72v79.95c.01 11.05-8.96 20.02-19.99 20.02zm-62.1-207.95c-79.3 0-143.8-64.52-143.8-143.81s64.52-143.81 143.8-143.81 143.81 64.52 143.81 143.81-64.52 143.81-143.81 143.81zm-79.3-595.57h-142.9c-11.04 0-20-8.96-20-20v-94.16c-16.25-5.17-32.05-11.72-47.2-19.58l-66.61 66.6c-7.82 7.81-20.48 7.81-28.3 0l-101.03-101.05c-7.8-7.8-7.82-20.47 0-28.27l66.6-66.6c-7.86-15.15-14.41-30.96-19.58-47.23h-94.17c-11.04 0-20-8.96-20-20v-142.9c0-11.04 8.96-20 20-20h94.17c5.17-16.26 11.72-32.06 19.59-47.22l-66.61-66.6c-7.81-7.81-7.81-20.46 0-28.27l101.04-101.04c7.82-7.82 20.48-7.82 28.29 0l66.6 66.59c15.16-7.86 30.96-14.41 47.22-19.58v-94.17c0-11.04 8.97-20 20-20h142.89c11.04 0 20 8.96 20 20v94.16c16.25 5.17 32.06 11.72 47.2 19.59l66.61-66.6c7.82-7.82 20.48-7.82 28.29 0l101.04 101.04c7.82 7.8 7.82 20.47 0 28.27l-66.61 66.6c7.86 15.15 14.41 30.96 19.58 47.22h94.17c11.04 0 20 8.96 20 20v142.89c0 11.04-8.97 20-20 20h-94.15c-5.17 16.23-11.74 32.04-19.59 47.22l66.61 66.61c7.81 7.81 7.81 20.46 0 28.27l-101.04 101.04c-7.82 7.82-20.49 7.82-28.29 0l-66.6-66.59c-15.16 7.86-30.96 14.41-47.22 19.58v94.16c.02 11.06-8.94 20.02-19.98 20.02zm-71.45-239.28c-89.58 0-162.46-72.88-162.46-162.46s72.87-162.46 162.46-162.46 162.46 72.87 162.46 162.46c.01 89.58-72.87 162.46-162.46 162.46zm-702.15 687.43c-110.15 0-199.78-89.63-199.78-199.79 0-110.17 89.62-199.79 199.78-199.79 110.15 0 199.77 89.63 199.77 199.79 0 110.17-89.62 199.79-199.77 199.79z"/></g></svg>