<?xml version="1.0" encoding="iso-8859-1"?>
<!-- Generator: Adobe Illustrator 16.0.0, SVG Export Plug-In . SVG Version: 6.00 Build 0)  -->
<!DOCTYPE svg PUBLIC "-//W3C//DTD SVG 1.1//EN" "http://www.w3.org/Graphics/SVG/1.1/DTD/svg11.dtd">
<svg version="1.1" id="Capa_1" xmlns="http://www.w3.org/2000/svg" xmlns:xlink="http://www.w3.org/1999/xlink" x="0px" y="0px"
	 width="511.626px" height="511.627px" viewBox="0 0 511.626 511.627" style="enable-background:new 0 0 511.626 511.627;"
	 xml:space="preserve">
<g>
	<path d="M491.361,211.274c-13.511-31.599-31.689-58.813-54.529-81.658c-22.839-22.841-50.059-41.017-81.659-54.53
		c-31.601-13.513-64.713-20.271-99.359-20.271c-34.644,0-67.762,6.759-99.357,20.271c-31.595,13.518-58.813,31.689-81.653,54.53
		c-22.845,22.845-41.018,50.059-54.534,81.658C6.757,242.873,0,275.988,0,310.631c0,49.865,13.418,95.838,40.256,137.903
		c3.614,5.52,8.754,8.278,15.417,8.278h400.281c6.66,0,11.8-2.759,15.414-8.278c26.84-42.254,40.258-88.224,40.258-137.903
		C511.626,275.988,504.872,242.873,491.361,211.274z M229.973,102.069c7.142-7.139,15.752-10.709,25.84-10.709
		c10.089,0,18.699,3.571,25.838,10.709c7.139,7.135,10.711,15.749,10.711,25.837s-3.572,18.699-10.711,25.837
		s-15.749,10.709-25.838,10.709c-10.088,0-18.702-3.571-25.84-10.709c-7.135-7.139-10.707-15.749-10.707-25.837
		S222.834,109.205,229.973,102.069z M98.929,336.469c-7.138,7.135-15.752,10.715-25.84,10.715c-10.085,0-18.699-3.58-25.837-10.715
		c-7.139-7.132-10.705-15.749-10.705-25.838c0-10.088,3.566-18.698,10.705-25.837s15.752-10.708,25.837-10.708
		c10.088,0,18.706,3.569,25.84,10.708c7.135,7.139,10.707,15.749,10.707,25.837C109.636,320.72,106.064,329.33,98.929,336.469z
		 M153.748,208.562c-7.142,7.137-15.752,10.709-25.841,10.709c-10.089,0-18.702-3.576-25.841-10.709
		c-7.135-7.135-10.706-15.749-10.706-25.837s3.567-18.699,10.706-25.837c7.142-7.139,15.752-10.709,25.841-10.709
		c10.088,0,18.702,3.571,25.841,10.709c7.135,7.139,10.706,15.749,10.706,25.837C164.454,192.81,160.882,201.423,153.748,208.562z
		 M315.482,210.99l-28.839,109.062c9.524,6.468,16.376,15.126,20.564,25.98c4.182,10.849,4.757,21.984,1.711,33.404
		c-3.806,14.657-12.278,25.793-25.413,33.403c-13.135,7.614-27.026,9.521-41.686,5.712c-14.653-3.806-25.791-12.275-33.402-25.41
		c-7.611-13.138-9.514-27.027-5.708-41.688c3.044-11.416,9.04-20.79,17.987-28.113c8.944-7.333,19.126-11.468,30.546-12.422
		l28.837-109.064c1.331-4.948,4.186-8.711,8.562-11.281c4.381-2.565,8.945-3.184,13.706-1.853c4.764,1.334,8.425,4.139,10.991,8.42
		C315.914,201.427,316.625,206.042,315.482,210.99z M357.882,208.562c-7.139-7.135-10.711-15.749-10.711-25.837
		s3.572-18.699,10.711-25.837s15.749-10.709,25.838-10.709c10.088,0,18.698,3.571,25.837,10.709s10.712,15.749,10.712,25.837
		c0,10.085-3.573,18.699-10.712,25.837c-7.139,7.137-15.749,10.709-25.837,10.709C373.631,219.271,365.021,215.699,357.882,208.562z
		 M464.374,336.469c-7.139,7.135-15.749,10.715-25.837,10.715c-10.089,0-18.699-3.58-25.838-10.715
		c-7.139-7.132-10.708-15.749-10.708-25.838c0-10.088,3.569-18.698,10.708-25.837s15.749-10.708,25.838-10.708
		c10.088,0,18.698,3.569,25.837,10.708s10.704,15.749,10.704,25.837C475.078,320.72,471.512,329.33,464.374,336.469z"/>
</g>
<g>
</g>
<g>
</g>
<g>
</g>
<g>
</g>
<g>
</g>
<g>
</g>
<g>
</g>
<g>
</g>
<g>
</g>
<g>
</g>
<g>
</g>
<g>
</g>
<g>
</g>
<g>
</g>
<g>
</g>
</svg>
