<svg id="Layer_1" enable-background="new 0 0 511.617 511.617" height="512" viewBox="0 0 511.617 511.617" width="512" xmlns="http://www.w3.org/2000/svg"><g><path d="m72.53 266.849c34.695.515 58.025-37.745 42.28-68.293l51.572-51.572c15.293 10.949 35.747 11.696 51.777 2.074l50.74 26.484c4.449 21.463 23.502 37.644 46.265 37.644 31.233.53 54.789-31.591 45.15-61.177l54.59-54.591c30.589 16.34 69.297-7.167 68.825-42.013 0-26.052-21.195-47.247-47.248-47.247-34.352-.45-57.877 37.229-42.539 67.797l-51.465 51.466c-22.699-16.773-56.752-8.143-69.147 16.594l-35.409-18.482c6.483-16.897 2.937-36.793-10.664-50.394-35.097-34.53-92.569.677-78.602 47.148l-55.057 55.057c-17.682-8.793-39.762-5.844-54.477 8.871-29.744 29.609-8.087 80.915 33.409 80.634zm363.952-228.691c9.511 0 17.248 7.737 17.248 17.248-.867 22.85-33.633 22.844-34.496 0 0-9.511 7.737-17.248 17.248-17.248zm-121.317 110.531c5.498 0 10.391 2.595 13.552 6.614.509 1.07 1.136 2.096 1.913 3.045 5.755 10.982-2.989 25.146-15.465 24.837-22.85-.866-22.846-33.632 0-34.496zm-133.514-52.339c6.725-6.725 17.668-6.725 24.393 0 6.741 6.737 6.722 17.725-.045 24.434-16.792 15.461-39.868-7.697-24.348-24.434zm-121.318 111.076c6.726-6.724 17.667-6.725 24.393 0 6.725 6.725 6.725 17.668 0 24.393-16.771 15.544-39.934-7.627-24.393-24.393z"/><path d="m496.717 473.463h-16.354v-298.286c0-8.284-6.716-15-15-15h-57.762c-8.284 0-15 6.716-15 15v298.286h-33.556v-195.13c0-8.284-6.716-15-15-15h-57.762c-8.284 0-15 6.716-15 15v195.13h-33.556v-233.025c0-8.284-6.716-15-15-15h-57.761c-8.284 0-15 6.716-15 15v233.024h-33.556v-157.129c0-8.284-6.716-15-15-15h-57.761c-8.284 0-15 6.716-15 15v157.129h-13.649c-8.284 0-15 6.716-15 15s6.716 15 15 15h481.717c19.694-.65 20.038-29.207 0-29.999zm-438.068 0v-142.13h27.761v142.129h-27.761zm121.318 0v-218.025h27.761v218.024h-27.761zm121.317 0v-180.13h27.762v180.13zm121.317 0v-283.286h27.762v283.286z"/></g></svg>