<?xml version="1.0" encoding="iso-8859-1"?>
<!-- Generator: Adobe Illustrator 19.0.0, SVG Export Plug-In . SVG Version: 6.00 Build 0)  -->
<svg version="1.1" id="Layer_1" xmlns="http://www.w3.org/2000/svg" xmlns:xlink="http://www.w3.org/1999/xlink" x="0px" y="0px"
	 viewBox="0 0 512 512" style="enable-background:new 0 0 512 512;" xml:space="preserve">
<g>
	<g>
		<polygon points="298.081,102.136 267.315,114.079 311.551,227.303 342.318,215.36 		"/>
	</g>
</g>
<g>
	<g>
		<path d="M295.798,369.121c-16.461-42.41-64.356-63.52-106.769-47.057c-42.41,16.462-63.52,64.359-47.057,106.77
			c7.975,20.544,23.472,36.753,43.638,45.641c10.657,4.697,21.942,7.052,33.249,7.052c10.088,0,20.195-1.876,29.88-5.637
			c20.545-7.974,36.754-23.471,45.642-43.637C303.27,412.086,303.772,389.665,295.798,369.121z"/>
	</g>
</g>
<g>
	<g>
		<path d="M88.112,30.474H0v33.002h65.897l95.572,235.268c4.943-2.827,10.154-5.324,15.619-7.446
			c4.94-1.917,9.971-3.481,15.069-4.697L88.112,30.474z"/>
	</g>
</g>
<g>
	<g>
		<path d="M500.058,272.134l-25.638,9.952L390.825,66.729l-61.531,23.883l55.73,143.571l-92.296,35.827l-55.73-143.571
			l-61.531,23.885l51.803,133.455c20.011,1.461,39.245,8.084,56.072,19.38c19.689,13.216,34.634,31.896,43.223,54.021
			c2.016,5.194,3.639,10.475,4.882,15.806l85.069-33.022L512,302.899L500.058,272.134z"/>
	</g>
</g>
<g>
</g>
<g>
</g>
<g>
</g>
<g>
</g>
<g>
</g>
<g>
</g>
<g>
</g>
<g>
</g>
<g>
</g>
<g>
</g>
<g>
</g>
<g>
</g>
<g>
</g>
<g>
</g>
<g>
</g>
</svg>
