<svg width="20" height="11" viewBox="0 0 20 11" fill="none" xmlns="http://www.w3.org/2000/svg">
<path fill-rule="evenodd" clip-rule="evenodd" d="M15.0746 0.269592L19.7267 4.85285C19.9099 5.03045 20 5.26534 20 5.50023C20 5.73513 19.9091 5.96945 19.7274 6.14819L15.0754 10.7314C14.7119 11.0895 14.1231 11.0895 13.7597 10.7314C13.3962 10.3734 13.3962 9.79331 13.7597 9.43525L16.825 6.41689L0.904839 6.41688C0.390496 6.41688 0.000593424 6.0064 0.000593447 5.52601C0.00059347 5.04563 0.390496 4.58358 0.904839 4.58358L16.825 4.58358L13.7604 1.56436C13.397 1.20629 13.397 0.626228 13.7604 0.268158C14.1239 -0.0899086 14.7112 -0.0884742 15.0746 0.269592ZM10.7999 9.99983C10.7999 10.4416 10.4417 10.7998 9.99993 10.7998L1.0002 10.7998C0.558386 10.7998 0.200224 10.4416 0.200224 9.99983C0.200224 9.55801 0.558386 9.19985 1.0002 9.19985L9.99993 9.19985C10.4417 9.19985 10.7999 9.55801 10.7999 9.99983ZM9.99993 1.79999C10.4417 1.79999 10.7999 1.44183 10.7999 1.00001C10.7999 0.558197 10.4417 0.200035 9.99993 0.200034L1.0002 0.200033C0.558386 0.200033 0.200224 0.558195 0.200224 1.00001C0.200224 1.44182 0.558386 1.79999 1.0002 1.79999L9.99993 1.79999Z" fill="#222222"/>
</svg>
