<svg id="solid" height="512" viewBox="0 0 16 16" width="512" xmlns="http://www.w3.org/2000/svg"><g><path d="m10.5 4h3.181c-.039-.05-.075-.101-.12-.146l-3.414-3.415c-.046-.045-.097-.081-.147-.12v3.181c0 .276.224.5.5.5z"/><path d="m10.5 5c-.827 0-1.5-.673-1.5-1.5v-3.5h-3.5c-.827 0-1.5.673-1.5 1.5v11c0 .827.673 1.5 1.5 1.5h7c.827 0 1.5-.673 1.5-1.5v-7.5z"/><path d="m4.5 15c-.828 0-1.5-.672-1.5-1.5v-11c0-.15.029-.293.07-.43-.617.187-1.07.753-1.07 1.43v11c0 .827.673 1.5 1.5 1.5h7c.677 0 1.243-.453 1.43-1.07-.137.041-.28.07-.43.07z"/></g></svg>