<svg id="svg8" height="512" viewBox="0 0 6.3499999 6.3500002" width="512" xmlns="http://www.w3.org/2000/svg" xmlns:svg="http://www.w3.org/2000/svg"><g id="layer1" transform="translate(0 -290.65)"><path id="path824" d="m12.003906.99804688c-6.0632874 0-11.00781225 4.93669272-11.00781225 11.00000012 0 6.063269 4.94452485 11.005859 11.00781225 11.005859 6.063288 0 10.998047-4.94259 10.998047-11.005859 0-6.0633074-4.934759-11.00000012-10.998047-11.00000012zm-.015625 4.99023432a1.0001001 1.0001001 0 0 1 1.011719 1.0117188v7.587891l2.294922-2.294922a1.0001001 1.0001001 0 1 1 1.410156 1.416015l-4 4.001954a1.0001001 1.0001001 0 0 1 -1.410156 0l-4.0019532-4.001954a1.0001001 1.0001001 0 0 1 .6933593-1.71875 1.0001001 1.0001001 0 0 1 .7246094.302735l2.2871095 2.285156v-7.578125a1.0001001 1.0001001 0 0 1 .990234-1.0117188z" fill-rule="evenodd" transform="matrix(.265 0 0 .265 0 290.65)" font-variant-ligatures="normal" font-variant-position="normal" font-variant-caps="normal" font-variant-numeric="normal" font-variant-alternates="normal" font-feature-settings="normal" text-indent="0" text-align="start" text-decoration-line="none" text-decoration-style="solid" text-decoration-color="rgb(0,0,0)" text-transform="none" text-orientation="mixed" white-space="normal" shape-padding="0" isolation="auto" mix-blend-mode="normal" solid-color="rgb(0,0,0)" solid-opacity="1" vector-effect="none" paint-order="stroke fill markers"/></g></svg>