<svg width="33" height="30" viewBox="0 0 33 30" fill="none" xmlns="http://www.w3.org/2000/svg">
<path fill-rule="evenodd" clip-rule="evenodd" d="M6.18883 0.0292516L31.8808 9.15951C31.944 9.18184 32.0021 9.21641 32.0518 9.26124C32.1016 9.30608 32.142 9.36029 32.1708 9.42077C32.1995 9.48125 32.216 9.54681 32.2194 9.61369C32.2228 9.68057 32.2129 9.74747 32.1904 9.81053L29.0044 18.7754L29.8278 25.7419C29.8431 25.8757 29.8048 26.0101 29.7211 26.1157C29.6375 26.2213 29.5154 26.2894 29.3817 26.3052L2.30364 29.5079C2.16968 29.5237 2.03493 29.4857 1.92899 29.4022C1.82305 29.3188 1.75458 29.1966 1.73864 29.0627L0.00356013 14.406C-0.00433992 14.3396 0.00093821 14.2724 0.0190919 14.208C0.0372456 14.1437 0.067918 14.0836 0.109351 14.0311C0.249661 13.8534 0.431363 13.8383 0.595016 13.8246C0.650348 13.82 0.703616 13.8155 0.752523 13.805L5.53926 0.338486C5.58443 0.211373 5.67823 0.107397 5.80003 0.0494116C5.92184 -0.00857431 6.06168 -0.0158254 6.18883 0.0292516ZM2.68902 28.4378L28.7574 25.3548L28.2351 20.938L27.247 23.7182C27.2246 23.7812 27.1901 23.8391 27.1453 23.8887C27.1006 23.9382 27.0465 23.9785 26.9862 24.0072C26.9259 24.0359 26.8605 24.0524 26.7938 24.0559C26.7271 24.0593 26.6604 24.0495 26.5974 24.0272L25.6866 23.7037C25.6618 23.8061 25.649 23.911 25.6482 24.0164C25.6487 24.0735 25.6524 24.1306 25.6593 24.1873C25.6748 24.3211 25.6367 24.4556 25.5532 24.5614C25.4698 24.6671 25.3478 24.7355 25.214 24.7514L5.9912 27.0239C5.85732 27.0397 5.72264 27.0017 5.61675 26.9183C5.51087 26.8349 5.44243 26.7128 5.4265 26.5789C5.40504 26.3946 5.34735 26.2163 5.25674 26.0544C5.16613 25.8924 5.0444 25.75 4.89855 25.6352C4.75269 25.5205 4.58559 25.4357 4.40686 25.3858C4.22812 25.3359 4.04128 25.3218 3.85707 25.3443C3.72324 25.36 3.58868 25.3219 3.48291 25.2384C3.37714 25.1549 3.30883 25.0329 3.29295 24.8991L2.48848 18.0942C2.48061 18.0279 2.48589 17.9606 2.50401 17.8964C2.52213 17.8321 2.55274 17.772 2.59409 17.7196C2.63544 17.6671 2.68672 17.6233 2.745 17.5907C2.80327 17.5581 2.86741 17.5373 2.93373 17.5295C3.28923 17.4887 3.61581 17.3139 3.84693 17.0407C4.07805 16.7675 4.19632 16.4165 4.17764 16.0592L1.09402 14.9635L2.68902 28.4378ZM17.1711 21.9203C17.4237 21.6118 17.6104 21.2549 17.7197 20.8715L12.234 18.9222C12.0768 19.2886 11.9965 19.6833 11.9979 20.082C11.9992 20.4807 12.0823 20.8749 12.242 21.2402C12.4017 21.6055 12.6346 21.9342 12.9263 22.206C13.218 22.4778 13.5623 22.6869 13.938 22.8204C14.3137 22.9539 14.7128 23.0089 15.1105 22.9822C15.5083 22.9554 15.8964 22.8473 16.2508 22.6647C16.6052 22.4821 16.9184 22.2287 17.1711 21.9203ZM12.1737 22.8951C11.5252 22.266 11.1129 21.4329 11.0061 20.5358H11.007C10.9297 19.8717 11.0216 19.1989 11.274 18.5798L5.17858 16.4137C5.12447 16.8683 4.94297 17.2984 4.655 17.6543C4.36703 18.0102 3.98433 18.2774 3.55104 18.4252L4.24856 24.3251C4.71501 24.3685 5.15895 24.5459 5.52691 24.8359C5.89487 25.1258 6.17117 25.5159 6.32252 25.9593L24.64 23.7938C24.6547 23.6473 24.6828 23.5024 24.724 23.361L18.6788 21.213C18.4165 22.0775 17.8647 22.8255 17.116 23.3313C16.3673 23.837 15.4674 24.0697 14.5674 23.9903C13.6675 23.9109 12.8222 23.5241 12.1737 22.8951ZM1.72353 14.1078L26.4582 22.8975L31.061 9.948L6.32601 1.15836L1.72353 14.1078ZM6.54323 19.8283C6.76506 19.639 7.03807 19.5196 7.32773 19.4854C7.716 19.4401 8.10639 19.5506 8.41333 19.7926C8.72027 20.0347 8.91871 20.3886 8.96516 20.7767C8.99942 21.0664 8.94701 21.3597 8.81457 21.6195C8.68213 21.8794 8.4756 22.0942 8.22109 22.2367C7.96659 22.3791 7.67555 22.443 7.38478 22.42C7.09401 22.3971 6.81657 22.2885 6.58754 22.1079C6.35851 21.9272 6.18819 21.6828 6.09811 21.4054C6.00803 21.1279 6.00224 20.83 6.08147 20.5493C6.1607 20.2686 6.32139 20.0177 6.54323 19.8283ZM7.29392 21.357C7.37443 21.398 7.46528 21.4142 7.55501 21.4036C7.67532 21.3892 7.785 21.3276 7.85998 21.2324C7.93495 21.1373 7.9691 21.0162 7.95492 20.8959C7.94423 20.8062 7.90719 20.7216 7.84846 20.653C7.78974 20.5843 7.71198 20.5346 7.62501 20.5101C7.53803 20.4856 7.44576 20.4875 7.35985 20.5155C7.27393 20.5434 7.19824 20.5962 7.14233 20.6672C7.08643 20.7382 7.05283 20.8241 7.04577 20.9142C7.03871 21.0043 7.05852 21.0944 7.10269 21.1733C7.14686 21.2521 7.2134 21.316 7.29392 21.357ZM6.13082 4.74651L3.83685 11.2015C3.79213 11.3284 3.79953 11.4679 3.85744 11.5894C3.91534 11.7108 4.01903 11.8044 4.1458 11.8496C4.49857 11.9754 4.78703 12.2361 4.94787 12.5743C5.10872 12.9126 5.12881 13.3008 5.00375 13.6539C4.98138 13.7168 4.97163 13.7835 4.97505 13.8502C4.97847 13.9169 4.995 13.9823 5.02369 14.0426C5.05237 14.1029 5.09266 14.157 5.14225 14.2018C5.19184 14.2465 5.24975 14.2811 5.31269 14.3034L23.5517 20.7845C23.6788 20.8296 23.8186 20.8224 23.9404 20.7645C24.0622 20.7066 24.156 20.6027 24.2013 20.4756C24.2633 20.3008 24.3591 20.1398 24.4833 20.0021C24.6075 19.8643 24.7577 19.7523 24.9252 19.6726C25.0927 19.5929 25.2743 19.547 25.4596 19.5375C25.6448 19.528 25.8302 19.5552 26.0049 19.6174C26.132 19.6625 26.2719 19.6552 26.3937 19.5973C26.5155 19.5394 26.6093 19.4355 26.6545 19.3084L28.9485 12.8537C28.9936 12.7266 28.9864 12.5868 28.9284 12.465C28.8705 12.3432 28.7666 12.2494 28.6395 12.2042C28.2868 12.0783 27.9984 11.8178 27.8376 11.4796C27.6767 11.1414 27.6566 10.7532 27.7816 10.4002C27.8267 10.2731 27.8195 10.1332 27.7616 10.0114C27.7036 9.88952 27.5997 9.79564 27.4726 9.75035L9.23363 3.27038C9.17058 3.24784 9.10371 3.23796 9.03684 3.2413C8.96997 3.24465 8.90442 3.26116 8.84394 3.28989C8.78347 3.31862 8.72925 3.35899 8.68441 3.40871C8.63956 3.45843 8.60497 3.5165 8.58261 3.57961C8.45752 3.93243 8.19741 4.22111 7.85949 4.38217C7.52157 4.54322 7.13352 4.56346 6.78068 4.43844C6.65365 4.39321 6.51386 4.40025 6.39201 4.45802C6.27017 4.51578 6.17623 4.61954 6.13082 4.74651ZM6.93646 5.51669C7.40119 5.57731 7.87355 5.50247 8.29677 5.30114C8.72 5.09981 9.07609 4.78057 9.32227 4.38176L26.7022 10.5583C26.6435 11.0226 26.7191 11.494 26.92 11.9167C27.1209 12.3394 27.4386 12.6958 27.8356 12.9435L25.9416 18.2784C25.9389 18.2843 25.937 18.2905 25.935 18.297L25.9317 18.3075L25.8486 18.54C25.3839 18.4794 24.9116 18.5542 24.4884 18.7556C24.0652 18.9569 23.7092 19.2761 23.4631 19.6749L6.08316 13.4984C6.14315 13.0339 6.06817 12.562 5.86718 12.1391C5.66618 11.7161 5.34767 11.3599 4.94969 11.1131L6.93646 5.51669ZM17.3566 15.8424C16.6021 16.0331 15.8081 15.9958 15.0749 15.7352C14.5879 15.5624 14.1398 15.2953 13.7561 14.9492C13.3724 14.6031 13.0607 14.1848 12.8388 13.7182C12.6169 13.2515 12.4891 12.7458 12.4628 12.2297C12.4364 11.7137 12.512 11.1975 12.6853 10.7107C12.9459 9.97747 13.418 9.33798 14.042 8.87308C14.666 8.40819 15.4139 8.13878 16.191 8.09892C16.9681 8.05906 17.7396 8.25054 18.4079 8.64915C19.0762 9.04776 19.6113 9.63559 19.9455 10.3383C20.2797 11.041 20.398 11.8271 20.2855 12.597C20.1729 13.367 19.8346 14.0863 19.3133 14.664C18.7919 15.2417 18.111 15.6518 17.3566 15.8424ZM14.6494 9.68888C14.1868 10.0336 13.8369 10.5077 13.6438 11.0513C13.5153 11.4123 13.4593 11.7951 13.4788 12.1777C13.4984 12.5604 13.5932 12.9355 13.7579 13.2814C13.9226 13.6274 14.1538 13.9375 14.4385 14.1941C14.7231 14.4506 15.0555 14.6485 15.4167 14.7764C15.9603 14.9693 16.549 14.9968 17.1082 14.8552C17.6674 14.7136 18.1721 14.4094 18.5584 13.9811C18.9448 13.5527 19.1954 13.0193 19.2787 12.4485C19.3619 11.8777 19.274 11.295 19.0261 10.7741C18.7782 10.2533 18.3814 9.81758 17.8859 9.5222C17.3904 9.22682 16.8185 9.08499 16.2424 9.11466C15.6663 9.14433 15.1119 9.34416 14.6494 9.68888ZM8.86337 10.9172C9.13815 11.0149 9.43572 11.0289 9.71846 10.9575C10.0012 10.886 10.2564 10.7323 10.4518 10.5158C10.6472 10.2994 10.774 10.0298 10.8161 9.74123C10.8583 9.45267 10.814 9.15809 10.6887 8.89474C10.5635 8.63138 10.3629 8.41109 10.1125 8.26171C9.86201 8.11234 9.57288 8.04059 9.28164 8.05555C8.9904 8.07051 8.71014 8.1715 8.4763 8.34574C8.24246 8.51999 8.06555 8.75967 7.96793 9.03447C7.83754 9.4029 7.85859 9.808 8.02645 10.1609C8.19431 10.5139 8.49529 10.7858 8.86337 10.9172ZM8.92644 9.3748C8.95674 9.2897 9.01158 9.2155 9.08404 9.16156C9.1565 9.10762 9.24332 9.07637 9.33353 9.07176C9.42375 9.06715 9.5133 9.08938 9.59088 9.13565C9.66846 9.18192 9.73059 9.25016 9.7694 9.33172C9.80822 9.41329 9.82198 9.50453 9.80896 9.59392C9.79593 9.68331 9.7567 9.76683 9.69622 9.83392C9.63574 9.90102 9.55673 9.94869 9.46917 9.97089C9.38161 9.9931 9.28943 9.98885 9.20429 9.95869C9.09005 9.91805 8.99662 9.83373 8.94452 9.72425C8.89242 9.61477 8.88592 9.48908 8.92644 9.3748ZM24.0612 15.8608C23.708 16.0287 23.3025 16.0494 22.934 15.9184C22.5657 15.787 22.2646 15.5148 22.0967 15.1617C21.9288 14.8085 21.9079 14.4031 22.0386 14.0345C22.1742 13.6695 22.4469 13.3717 22.7987 13.2046C23.1504 13.0374 23.5535 13.0142 23.9222 13.1397C24.2907 13.2707 24.592 13.5428 24.7599 13.896C24.9278 14.2492 24.9485 14.6546 24.8175 15.0231C24.6865 15.3916 24.4144 15.6929 24.0612 15.8608ZM23.7694 14.8404C23.8094 14.7941 23.8397 14.7403 23.8586 14.6821V14.6809C23.8902 14.5691 23.8781 14.4494 23.8248 14.3461C23.7715 14.2429 23.6808 14.1638 23.5713 14.1249C23.4618 14.086 23.3416 14.0902 23.235 14.1367C23.1285 14.1831 23.0437 14.2684 22.9977 14.3751C22.9754 14.4321 22.9649 14.493 22.9666 14.5542C22.9683 14.6153 22.9823 14.6755 23.0076 14.7312C23.033 14.7868 23.0694 14.8368 23.1144 14.8782C23.1595 14.9196 23.2124 14.9515 23.27 14.972C23.3277 14.9926 23.3888 15.0013 23.4499 14.9978C23.511 14.9943 23.5707 14.9785 23.6256 14.9515C23.6805 14.9244 23.7294 14.8867 23.7694 14.8404Z" fill="#222222"/>
</svg>
