<svg id="Capa_1" enable-background="new 0 0 512 512" height="512" viewBox="0 0 512 512" width="512" xmlns="http://www.w3.org/2000/svg"><g><path d="m497 0h-482c-8.284 0-15 6.716-15 15v482c0 8.284 6.716 15 15 15h482c8.284 0 15-6.716 15-15v-482c0-8.284-6.716-15-15-15zm-15 61h-30v-31h30zm-150 0v-31h30v31zm60-31h30v31h-30zm-90 0v31h-272v-31zm-272 452v-391h452v391z"/><path d="m176.023 215.443c-5.857-5.858-15.355-5.858-21.213 0l-59.7 59.7c-5.858 5.858-5.858 15.355 0 21.213l59.7 59.7c5.857 5.858 15.355 5.859 21.213 0 5.858-5.858 5.858-15.355 0-21.213l-49.093-49.093 49.094-49.094c5.858-5.858 5.858-15.355-.001-21.213z"/><path d="m357.189 215.443c-5.857-5.858-15.355-5.858-21.213 0s-5.858 15.355 0 21.213l49.094 49.094-49.094 49.094c-5.858 5.858-5.858 15.355 0 21.213 5.857 5.858 15.355 5.859 21.213 0l59.7-59.7c5.858-5.858 5.858-15.355 0-21.213z"/><path d="m293.039 212.607c-7.427-3.676-16.422-.637-20.099 6.787l-59.096 119.351c-3.676 7.424-.638 16.422 6.786 20.098 7.4 3.663 16.409.664 20.099-6.787l59.096-119.351c3.676-7.423.638-16.422-6.786-20.098z"/></g></svg>