<svg height="512" viewBox="0 0 64 64" width="512" xmlns="http://www.w3.org/2000/svg"><g id="Layer_58" data-name="Layer 58"><path d="m48 3.25h-32a12.76 12.76 0 0 0 -12.75 12.75v32a12.76 12.76 0 0 0 12.75 12.75h32a12.76 12.76 0 0 0 12.75-12.75v-32a12.76 12.76 0 0 0 -12.75-12.75zm-22.18 38.68a.75.75 0 0 1 0 1.06l-2.82 2.83a.75.75 0 0 1 -1.06 0l-13.3-13.29a.75.75 0 0 1 0-1.06l13.29-13.29a.75.75 0 0 1 1.06 0l2.83 2.82a.75.75 0 0 1 0 1.06l-9.93 9.94zm7 5.93a.71.71 0 0 1 -.28.5.76.76 0 0 1 -.46.16h-.08l-4-.52a.74.74 0 0 1 -.65-.83l3.83-31a.71.71 0 0 1 .28-.5.73.73 0 0 1 .55-.15l3.99.48a.74.74 0 0 1 .65.83zm22.54-15.33-13.29 13.29a.75.75 0 0 1 -1.06 0l-2.83-2.82a.75.75 0 0 1 0-1.06l9.93-9.94-9.93-9.93a.75.75 0 0 1 0-1.06l2.82-2.83a.75.75 0 0 1 1.06 0l13.3 13.29a.75.75 0 0 1 0 1.06z"/></g></svg>