<svg id="expand" height="512" viewBox="0 0 512 512" width="512" xmlns="http://www.w3.org/2000/svg"><path d="m352 200a40 40 0 1 0 -40-40 40 40 0 0 0 40 40zm0-64a24 24 0 1 1 -24 24 24 24 0 0 1 24-24z"/><path d="m456 352v-233a40.06 40.06 0 0 0 -40-40h-320a40.06 40.06 0 0 0 -40 40v169 106a40.06 40.06 0 0 0 40 40h320a40.06 40.06 0 0 0 40-40zm-360-257h320a24 24 0 0 1 24 24v213.69l-114.34-114.35a8 8 0 0 0 -11.32 0l-58.34 58.35-90.34-90.35a8 8 0 0 0 -11.32 0l-82.34 82.35v-149.69a24 24 0 0 1 24-24zm320 323h-320a24 24 0 0 1 -24-24v-102.69l88-88 90.34 90.35a8 8 0 0 0 11.32 0l58.34-58.35 120 120v38.69a24 24 0 0 1 -24 24z"/></svg>