<svg id="Glyph" height="512" viewBox="0 0 32 32" width="512" xmlns="http://www.w3.org/2000/svg"><path d="m16 2.03615a14.01541 14.01541 0 0 0 -14 14c.76852 18.573 27.23431 18.56759 28-.00011a14.01542 14.01542 0 0 0 -14-13.99989zm-.87 22.05a1.00016 1.00016 0 0 1 2 .00006 1.00016 1.00016 0 0 1 -2-.00008zm3.85-8.57a5.2275 5.2275 0 0 0 -1.97986 4.97006 1.00018 1.00018 0 0 1 -2.00014-.0001v-1.11995a6.677 6.677 0 0 1 2.84-5.49 3.23177 3.23177 0 1 0 -5.07-2.65991.99655.99655 0 0 1 -1 .99988c-2.27992-.28435-.22939-4.386.97-5.08988 5.75385-4.25259 11.961 4.11229 6.24 8.38988z" fill="rgb(0,0,0)"/></svg>