<svg height="512" viewBox="0 0 48 48" width="512" xmlns="http://www.w3.org/2000/svg"><g id="link"><path d="m28.95 19.0508a3 3 0 0 1 -.001 4.2422l-5.656 5.6562a3 3 0 1 1 -4.243-4.2422l5.6567-5.6562a3.0737 3.0737 0 0 1 4.2433 0zm-6.3641 13.4346-2.8286 2.8281a5 5 0 0 1 -7.0713-7.0713l2.8286-2.8281a3.0024 3.0024 0 0 0 0-4.2422 3.0731 3.0731 0 0 0 -4.2427 0l-2.8281 2.8281a11 11 0 0 0 15.5562 15.5566l2.8281-2.8281a3 3 0 0 0 0-4.2432 3.0725 3.0725 0 0 0 -4.2422.0001zm16.9707-24.042a11.0007 11.0007 0 0 0 -15.5566 0l-2.8276 2.8281a3 3 0 0 0 -.001 4.2432 3.0731 3.0731 0 0 0 4.2427 0l2.8281-2.8281a5 5 0 1 1 7.0713 7.0713l-2.8281 2.8281a3 3 0 1 0 4.2422 4.2422l2.829-2.8282a11.0125 11.0125 0 0 0 0-15.5566z"/></g></svg>