<svg id="Layer_1" height="512" viewBox="0 0 90 90" width="512" xmlns="http://www.w3.org/2000/svg"><path d="m16.65 48.193c-1.51-.099-3.047.152-4.488.745-2.887 1.187-5.35 4.318-5.35 8.126v1.358h6.797v-1.358c0-1.319.354-1.506 1.15-1.833.797-.333 2.105-.246 2.824.176 1.188.699 1.301 2.188.02 3.574-3.016 3.25-5.338 5.27-7.113 6.979-.891.854-1.672 1.625-2.35 2.6-.682.979-1.266 2.312-1.266 3.75v3.406h17.863v-6.808h-7.541c1.527-1.421 3.027-2.754 5.396-5.307 3.797-4.099 3.469-11.099-1.568-14.057-1.362-.804-2.862-1.252-4.374-1.351z"/><path d="m33.77 68.907h50.979v6.807h-50.979z"/><path d="m33.77 14.297h50.979v6.803h-50.979z"/><path d="m33.77 50.704h50.979v6.807h-50.979z"/><path d="m33.77 32.501h50.979v6.803h-50.979z"/><path d="m15.479 14.297c0 .746-.666 1.938-2.031 2.975-1.363 1.037-3.354 1.615-3.734 1.615v6.796c2.084 0 3.918-1.135 5.766-2.197v16.25h6.803v-25.439z"/></svg>