<svg clip-rule="evenodd" fill-rule="evenodd" height="512" stroke-linejoin="round" stroke-miterlimit="2" viewBox="0 0 16 16" width="512" xmlns="http://www.w3.org/2000/svg"><g id="Icon"><path d="m13.5 7.25h-8.5c-.414 0-.75.336-.75.75s.336.75.75.75h8.5c.414 0 .75-.336.75-.75s-.336-.75-.75-.75z"/><path d="m12.03 11.03 2.5-2.5c.293-.293.293-.767 0-1.06l-2.5-2.5c-.292-.293-.768-.293-1.06 0-.293.292-.293.768 0 1.06l1.969 1.97s-1.969 1.97-1.969 1.97c-.293.292-.293.768 0 1.06.292.293.768.293 1.06 0z"/><path d="m8 13.25h-5c-.066 0-.13-.026-.177-.073s-.073-.111-.073-.177v-10c0-.066.026-.13.073-.177s.111-.073.177-.073h5c.414 0 .75-.336.75-.75s-.336-.75-.75-.75c-1.537 0-3.463 0-5 0-.464 0-.909.184-1.237.513-.329.328-.513.773-.513 1.237v10c0 .464.184.909.513 1.237.328.329.773.513 1.237.513h5c.414 0 .75-.336.75-.75s-.336-.75-.75-.75z"/></g></svg>