<?xml version="1.0" encoding="iso-8859-1"?>
<!-- Generator: Adobe Illustrator 19.0.0, SVG Export Plug-In . SVG Version: 6.00 Build 0)  -->
<svg version="1.1" id="Layer_1" xmlns="http://www.w3.org/2000/svg" xmlns:xlink="http://www.w3.org/1999/xlink" x="0px" y="0px"
	 viewBox="0 0 492 492" style="enable-background:new 0 0 492 492;" xml:space="preserve">
<g>
	<g>
		<path d="M442.668,268.536l-16.116-16.12c-5.06-5.068-11.824-7.872-19.024-7.872c-7.208,0-14.584,2.804-19.644,7.872
			L283.688,355.992V26.924C283.688,12.084,272.856,0,258.02,0h-22.804c-14.832,0-28.404,12.084-28.404,26.924v330.24
			L102.824,252.416c-5.068-5.068-11.444-7.872-18.652-7.872c-7.2,0-13.776,2.804-18.84,7.872l-16.028,16.12
			c-10.488,10.492-10.444,27.56,0.044,38.052l177.576,177.556c5.056,5.056,11.84,7.856,19.1,7.856h0.076
			c7.204,0,13.972-2.8,19.028-7.856l177.54-177.552C453.164,296.104,453.164,279.028,442.668,268.536z"/>
	</g>
</g>
<g>
</g>
<g>
</g>
<g>
</g>
<g>
</g>
<g>
</g>
<g>
</g>
<g>
</g>
<g>
</g>
<g>
</g>
<g>
</g>
<g>
</g>
<g>
</g>
<g>
</g>
<g>
</g>
<g>
</g>
</svg>
