<svg width="608" height="374" viewBox="0 0 608 374" fill="none" xmlns="http://www.w3.org/2000/svg">
<mask id="mask0_996_114870" style="mask-type:alpha" maskUnits="userSpaceOnUse" x="0" y="0" width="608" height="374">
<rect width="608" height="374" fill="#D9D9D9"/>
</mask>
<g mask="url(#mask0_996_114870)">
<g clip-path="url(#clip0_996_114870)">
<path d="M404.354 18.4103C406.599 16.165 409.698 14.7797 413.121 14.7797H425.451C427.289 6.33056 434.804 0.00292969 443.805 0.00292969C452.806 0.00292969 460.322 6.33056 462.159 14.7797H465.472C468.895 14.7797 471.993 16.1683 474.239 18.4103C476.484 20.6522 477.869 23.7541 477.869 27.1773C477.869 30.9651 476.173 34.3548 473.496 36.6302C471.334 38.4673 468.534 39.5782 465.472 39.5782H413.124C409.701 39.5782 406.602 38.1895 404.357 35.9476C402.115 33.7057 400.727 30.6037 400.727 27.1806C400.727 23.7575 402.115 20.6589 404.357 18.4136L404.354 18.4103Z" fill="#E9F3FC"/>
<path d="M253.623 37.0825C251.515 34.9744 248.603 33.6694 245.384 33.6694H233.8C232.073 25.7323 225.013 19.7861 216.557 19.7861C208.101 19.7861 201.037 25.7323 199.314 33.6694H196.202C192.987 33.6694 190.072 34.9744 187.964 37.0825C185.856 39.1906 184.551 42.1018 184.551 45.3208C184.551 48.8778 186.147 52.0634 188.66 54.2016C190.691 55.9282 193.324 56.9689 196.199 56.9689H245.384C248.6 56.9689 251.515 55.6639 253.623 53.5558C255.731 51.4477 257.036 48.5365 257.036 45.3175C257.036 42.1018 255.731 39.1873 253.623 37.0792V37.0825Z" fill="#E9F3FC"/>
<path d="M573.627 194.962V260.925C513.66 250.542 433.054 241.049 338.772 241.049C130.647 241.049 -32.5866 287.3 -32.5866 287.3C-44.6998 261.404 -31.2783 186.824 0.313026 169.364C31.9077 151.907 59.343 186.824 84.2854 174.353C109.228 161.882 85.8882 51.6318 124.192 44.5379C162.492 37.4439 186.612 108.376 233.425 108.376C280.238 108.376 273.147 37.4439 327.891 34.6064C382.631 31.7688 381.185 107.229 414.115 107.229C447.045 107.229 433.693 76.969 485.312 76.0789C536.933 75.1889 551.171 182.876 573.279 194.781C573.396 194.845 573.51 194.905 573.627 194.962Z" fill="url(#paint0_linear_996_114870)"/>
<path d="M86.3268 306.198C80.3271 306.018 73.8155 303.91 73.9594 294.273C74.1033 284.636 81.0968 283.137 81.8129 275.926C82.5289 268.715 82.5624 262.005 86.3268 261.932C90.0946 261.862 87.7088 264.943 89.4656 268.286C91.219 271.629 94.6187 275.905 93.9595 282.153C93.3003 288.4 97.7474 290.793 97.5165 295.902C97.2822 301.012 94.09 306.433 86.3302 306.195L86.3268 306.198Z" fill="#DAEEFF"/>
<path d="M88.5493 281.59C88.4422 281.493 88.2816 281.5 88.1812 281.604C88.0808 281.707 88.0875 281.875 88.1912 281.972C88.2079 281.988 89.7539 283.544 89.5966 288.875C89.4594 293.483 87.0702 300.613 86.314 302.765C85.6046 301.085 84.6878 299.235 83.9181 297.675C83.3961 296.621 82.9478 295.714 82.7035 295.139C81.8134 293.044 83.1686 288.641 83.182 288.597C83.2255 288.46 83.1485 288.313 83.0113 288.269C82.8741 288.226 82.7269 288.303 82.6834 288.44C82.6232 288.627 81.2546 293.071 82.2216 295.343C82.4726 295.932 82.9243 296.845 83.4497 297.906C84.8551 300.747 86.9832 305.037 86.9498 306.707C86.9029 309.022 86.6252 312.345 86.6219 312.378C86.6085 312.522 86.7155 312.65 86.8594 312.663C86.8661 312.663 86.8728 312.663 86.8829 312.663C87.0167 312.663 87.1305 312.559 87.1439 312.422C87.1439 312.388 87.4283 309.049 87.4751 306.717C87.4885 305.971 87.1372 304.809 86.6152 303.488C86.9598 302.541 89.968 294.135 90.1253 288.888C90.2926 283.273 88.6262 281.654 88.5559 281.587L88.5493 281.59Z" fill="#6AC1FF"/>
<path d="M407.881 225.194C404.13 225.08 400.061 223.765 400.148 217.739C400.238 211.712 404.612 210.775 405.057 206.268C405.502 201.761 405.525 197.565 407.878 197.521C410.233 197.478 408.741 199.402 409.838 201.493C410.936 203.585 413.061 206.255 412.649 210.163C412.238 214.071 415.018 215.564 414.871 218.756C414.724 221.948 412.729 225.338 407.878 225.191L407.881 225.194Z" fill="#DAEEFF"/>
<path d="M409.269 209.812C409.202 209.751 409.102 209.755 409.038 209.818C408.978 209.882 408.978 209.986 409.045 210.049C409.055 210.059 410.022 211.033 409.921 214.366C409.834 217.247 408.342 221.704 407.87 223.049C407.425 221.999 406.853 220.844 406.371 219.867C406.046 219.208 405.762 218.639 405.611 218.281C405.053 216.973 405.903 214.219 405.913 214.192C405.939 214.105 405.893 214.015 405.806 213.988C405.719 213.961 405.628 214.008 405.601 214.095C405.565 214.212 404.708 216.989 405.314 218.411C405.471 218.779 405.752 219.352 406.083 220.014C406.963 221.791 408.292 224.471 408.272 225.515C408.242 226.964 408.068 229.042 408.068 229.062C408.061 229.153 408.128 229.233 408.218 229.24C408.221 229.24 408.228 229.24 408.231 229.24C408.315 229.24 408.389 229.176 408.395 229.089C408.395 229.069 408.573 226.981 408.603 225.522C408.613 225.054 408.392 224.327 408.064 223.504C408.278 222.912 410.159 217.655 410.259 214.376C410.363 210.866 409.322 209.855 409.279 209.812H409.269Z" fill="#6AC1FF"/>
<path d="M170.708 255.595C167.191 255.488 163.373 254.253 163.456 248.601C163.54 242.95 167.643 242.07 168.061 237.843C168.479 233.614 168.499 229.682 170.708 229.638C172.916 229.595 171.517 231.405 172.548 233.363C173.579 235.32 175.57 237.83 175.185 241.494C174.8 245.158 177.407 246.56 177.269 249.555C177.132 252.55 175.262 255.729 170.711 255.591L170.708 255.595Z" fill="#DAEEFF"/>
<path d="M172.008 241.166C171.945 241.109 171.851 241.112 171.794 241.172C171.737 241.233 171.737 241.33 171.801 241.39C171.811 241.4 172.718 242.31 172.624 245.439C172.544 248.139 171.142 252.322 170.7 253.583C170.285 252.6 169.746 251.512 169.295 250.599C168.99 249.979 168.726 249.447 168.582 249.113C168.06 247.885 168.856 245.302 168.863 245.275C168.89 245.194 168.843 245.107 168.763 245.084C168.682 245.057 168.595 245.104 168.572 245.184C168.538 245.295 167.735 247.902 168.301 249.233C168.448 249.578 168.712 250.113 169.02 250.736C169.843 252.402 171.091 254.918 171.071 255.896C171.045 257.254 170.881 259.202 170.881 259.222C170.874 259.305 170.938 259.379 171.021 259.389C171.025 259.389 171.031 259.389 171.035 259.389C171.115 259.389 171.182 259.329 171.188 259.248C171.188 259.228 171.356 257.271 171.383 255.902C171.393 255.464 171.185 254.781 170.877 254.008C171.078 253.453 172.845 248.524 172.935 245.445C173.032 242.153 172.055 241.202 172.015 241.166H172.008Z" fill="#6AC1FF"/>
<path d="M528.394 325.576C522.244 325.389 515.571 323.231 515.715 313.353C515.862 303.475 523.033 301.935 523.766 294.547C524.499 287.155 524.532 280.276 528.394 280.205C532.255 280.132 529.813 283.291 531.61 286.717C533.406 290.144 536.89 294.527 536.217 300.932C535.545 307.336 540.102 309.789 539.861 315.026C539.62 320.262 536.351 325.817 528.394 325.58V325.576Z" fill="#DAEEFF"/>
<path d="M530.669 300.353C530.562 300.252 530.394 300.259 530.291 300.366C530.19 300.473 530.194 300.644 530.301 300.744C530.318 300.761 531.904 302.357 531.74 307.821C531.599 312.543 529.15 319.851 528.377 322.059C527.651 320.339 526.71 318.442 525.921 316.843C525.385 315.762 524.923 314.831 524.673 314.243C523.759 312.094 525.151 307.58 525.164 307.537C525.208 307.396 525.131 307.246 524.987 307.202C524.846 307.159 524.696 307.236 524.652 307.38C524.592 307.574 523.187 312.128 524.181 314.457C524.438 315.059 524.903 315.999 525.439 317.083C526.881 319.995 529.059 324.395 529.026 326.105C528.979 328.477 528.691 331.887 528.688 331.92C528.675 332.068 528.785 332.198 528.932 332.212C528.939 332.212 528.949 332.212 528.956 332.212C529.093 332.212 529.21 332.104 529.223 331.967C529.223 331.934 529.514 328.511 529.561 326.118C529.578 325.352 529.217 324.161 528.681 322.809C529.036 321.835 532.118 313.219 532.278 307.841C532.449 302.086 530.742 300.426 530.669 300.359V300.353Z" fill="#6AC1FF"/>
<path d="M477.585 369.967C477.585 372.182 402.292 373.975 309.412 373.975C216.533 373.975 141.24 372.182 141.24 369.967C141.24 367.752 216.533 365.958 309.412 365.958C402.292 365.958 477.585 367.752 477.585 369.967Z" fill="url(#paint1_radial_996_114870)"/>
<path d="M412.23 278.804C411.52 282.347 415.773 283.057 416.483 288.019C417.192 292.981 415.064 294.397 415.773 297.234C416.483 300.069 420.736 300.778 421.445 307.865C422.155 314.952 419.32 314.243 420.026 318.496C420.736 322.749 424.989 322.749 425.698 326.293C426.408 329.836 426.408 334.799 427.823 339.052C429.242 343.305 433.495 349.682 435.62 349.682C437.745 349.682 443.416 337.633 441.997 334.089C440.579 330.546 438.454 329.836 438.454 327.002C438.454 324.168 441.288 317.081 440.579 312.118C439.869 307.156 433.491 305.031 432.782 301.487C432.073 297.944 434.201 288.728 429.238 284.475C424.276 280.222 412.936 275.26 412.227 278.804H412.23Z" fill="#3FB790"/>
<path d="M435.296 348.464C435.102 348.464 434.941 348.307 434.941 348.109C434.941 348.016 434.881 338.807 432.181 336.107C429.443 333.369 427.881 324.991 427.114 308.939C426.418 294.356 415.968 282.344 415.861 282.223C415.731 282.076 415.744 281.852 415.891 281.724C416.039 281.594 416.263 281.607 416.393 281.755C416.5 281.875 427.114 294.069 427.82 308.906C428.567 324.552 430.109 333.035 432.679 335.605C435.584 338.509 435.647 347.715 435.647 348.106C435.647 348.3 435.49 348.461 435.292 348.461L435.296 348.464Z" fill="#34916F"/>
<path d="M477.109 289.532C479.615 292.038 471.437 293.075 470.731 298.038C470.022 303 470.022 305.125 467.187 307.959C464.353 310.793 460.1 311.503 460.809 315.756C461.519 320.009 462.934 324.262 460.809 326.387C458.685 328.511 453.722 328.511 452.304 332.058C450.885 335.602 451.594 339.855 448.76 343.399C445.926 346.942 441.673 354.029 438.129 352.614C434.585 351.195 436.71 334.896 438.129 332.058C439.548 329.224 440.963 327.096 440.963 324.971C440.963 322.846 440.254 319.299 441.673 315.756C443.091 312.212 450.888 310.793 451.594 308.669C452.3 306.544 453.013 295.203 457.266 292.366C461.519 289.532 472.859 285.279 477.112 289.532H477.109Z" fill="#4FC7A0"/>
<path d="M439.224 351.396C439.161 351.396 439.1 351.379 439.04 351.346C438.873 351.246 438.819 351.028 438.92 350.861C438.947 350.814 441.787 346.066 442.386 343.666C442.54 343.047 442.728 342.114 442.942 341.03C443.725 337.095 444.909 331.148 446.73 329.328C449.373 326.685 453.599 318.583 456.564 308.217C460.211 295.448 472.274 291.71 472.395 291.673C472.586 291.617 472.78 291.724 472.837 291.911C472.893 292.098 472.786 292.296 472.599 292.353C472.482 292.39 460.784 296.024 457.243 308.411C454.249 318.891 449.939 327.12 447.232 329.827C445.562 331.496 444.357 337.55 443.638 341.167C443.42 342.261 443.233 343.205 443.072 343.837C442.447 346.34 439.642 351.025 439.525 351.222C439.458 351.333 439.341 351.393 439.221 351.393L439.224 351.396Z" fill="#3FB690"/>
<path d="M438.32 297.646C429.814 298.356 432.649 323.87 432.649 323.87C434.773 345.841 437.611 355.766 439.736 356.472C441.861 357.182 446.114 325.286 446.114 317.489C446.114 317.489 446.823 296.934 438.317 297.643L438.32 297.646Z" fill="#90DAD8"/>
<path d="M439.384 352.929C439.384 352.929 439.354 352.929 439.34 352.929C439.146 352.905 439.009 352.728 439.032 352.534C441.83 329.455 438.36 300.461 438.323 300.17C438.299 299.976 438.437 299.798 438.631 299.775C438.818 299.748 439.002 299.889 439.026 300.083C439.062 300.374 442.542 329.452 439.735 352.618C439.715 352.798 439.561 352.929 439.384 352.929Z" fill="white"/>
<path d="M449.949 369.063H428.383C427.663 369.063 427.054 368.625 426.974 368.043L423.839 345.68C423.698 344.673 424.478 343.776 425.495 343.776H452.833C453.851 343.776 454.63 344.677 454.49 345.68L451.354 368.043C451.274 368.625 450.668 369.063 449.946 369.063H449.949Z" fill="#D0DAED"/>
<path d="M170.361 132.967C170.361 132.967 164.264 127.817 163.809 128.145C163.357 128.476 164.056 131.401 164.056 131.401C164.056 131.401 159.937 128.312 158.164 130.042C156.394 131.772 161.667 143.31 166.857 144.708L170.361 132.967Z" fill="#FFAA9D"/>
<path d="M377.488 127.027C377.488 127.027 383.585 121.878 384.04 122.205C384.492 122.537 383.793 125.461 383.793 125.461C383.793 125.461 387.912 122.373 389.685 124.103C391.455 125.833 386.182 137.37 380.992 138.769L377.488 127.027Z" fill="#FFAA9D"/>
<path d="M231.566 350.352V359.661H263.429L264.59 348.916L231.566 350.352Z" fill="url(#paint2_linear_996_114870)"/>
<path d="M231.565 359.66L225.612 366.393C225.11 366.958 225.103 367.704 225.424 368.263C225.692 368.728 226.187 369.066 226.816 369.066H261.172C261.483 369.066 261.771 368.949 261.991 368.755C262.212 368.561 262.363 368.29 262.4 367.979L263.427 359.66H231.565Z" fill="#0B2252"/>
<path d="M319.377 350.311L320.29 359.66H288.428L286.832 348.896L319.377 350.311Z" fill="url(#paint3_linear_996_114870)"/>
<path d="M320.29 359.66L326.243 366.393C326.745 366.958 326.752 367.704 326.43 368.263C326.163 368.728 325.667 369.066 325.038 369.066H290.683C290.372 369.066 290.084 368.949 289.863 368.755C289.642 368.561 289.492 368.29 289.455 367.979L288.428 359.66H320.29Z" fill="#0B2252"/>
<path d="M247.57 187.874C247.57 187.874 235.37 229.447 233.108 261.082C230.849 292.713 230.946 351.402 230.946 351.402H264.99C264.99 351.402 272.951 271.251 276.113 270.963C279.271 270.675 285.592 351.402 285.592 351.402H321.216C321.216 351.402 313.195 213.399 300.48 187.874H247.57Z" fill="#14336D"/>
<path d="M385.22 137.079L377.47 125.752C363.955 133.502 344.875 133.9 321.626 127.543C304.607 122.888 292.718 117.809 273.685 117.809C254.652 117.809 235.95 131.27 226.477 133.864C203.224 140.221 184.144 139.826 170.633 132.073L162.883 143.4C162.883 143.4 194.598 170.15 241.488 162.962C240.333 178.696 237.737 202.761 238.537 206.472C240.414 215.186 305.761 215.581 308.93 205.659C309.86 202.748 305.474 172.228 304.818 156.36C352.695 164.525 385.226 137.083 385.226 137.083L385.22 137.079Z" fill="url(#paint4_linear_996_114870)"/>
<path d="M290.934 103.032L291.081 112.843L289.616 112.796C289.616 112.796 288.441 120.914 282.709 119.632C281.063 119.264 278.961 117.869 278.356 118.15C277.636 118.481 277.325 120.703 277.165 121.346C276.542 123.802 267.939 121.319 269.334 118.803C270.66 116.41 272.63 113.144 272.216 112.237C270.757 109.075 270.345 101.222 278.249 98.5984C284.546 96.507 290.867 99.6758 290.937 103.032H290.934Z" fill="#FFAA9D"/>
<path d="M269.331 118.803C270.656 116.41 272.627 113.144 272.212 112.237C272.212 112.237 275.532 117.344 278.597 118.117C278.603 118.117 278.607 118.123 278.613 118.123C278.513 118.117 278.423 118.123 278.356 118.15C277.636 118.481 277.325 120.703 277.165 121.346C276.542 123.802 267.939 121.319 269.334 118.803H269.331Z" fill="#FF9F91"/>
<path d="M277.666 107.847C273.972 107.215 276.267 115.45 272.195 115.175C268.123 114.901 265.285 106.003 268.273 99.1403C271.261 92.2773 276.943 92.6587 282.357 93.5957C287.771 94.5326 294.41 96.9787 294.407 101.074C294.397 110.929 282.735 102.66 281.966 105.625C281.37 107.917 280.453 114.543 282.829 114.697C285.205 114.851 287.624 112.89 289.501 113.392C290.582 113.683 293.557 126.606 285.784 127.037C278.097 127.466 276.15 120.68 277.77 115.135C279.312 109.865 279.466 108.155 277.662 107.847H277.666Z" fill="#14336A"/>
<path d="M438.251 165.866C437.655 165.866 437.1 165.482 436.916 164.883C433.325 153.365 428.574 146.853 422.802 145.535C418.954 144.652 415.678 146.338 412.218 148.125C408.774 149.902 405.207 151.742 400.978 150.983C392.539 149.47 386.151 138.488 381.45 117.41C381.282 116.654 381.757 115.908 382.51 115.741C383.27 115.567 384.013 116.048 384.183 116.801C388.553 136.38 394.369 146.954 401.473 148.225C404.776 148.818 407.764 147.272 410.933 145.635C414.513 143.788 418.575 141.694 423.424 142.805C430.24 144.364 435.678 151.511 439.589 164.049C439.82 164.789 439.409 165.572 438.669 165.803C438.532 165.846 438.391 165.866 438.251 165.866Z" fill="#4FC7A0"/>
<path d="M390.944 113.385C388.535 119.301 381.786 122.146 375.87 119.733C370.804 117.668 367.99 112.422 368.803 107.242C368.94 106.375 388.144 100.352 389.345 101.891C391.814 105.05 392.567 109.407 390.948 113.385H390.944Z" fill="#3FB790"/>
<path d="M385.963 105.421L385.795 105.466C385.045 105.668 384.277 105.224 384.076 104.477L381.024 93.1566C380.821 92.407 381.266 91.6391 382.012 91.4378L382.18 91.3925C382.927 91.1913 383.698 91.6349 383.899 92.3812L386.951 103.702C387.154 104.452 386.709 105.219 385.963 105.421Z" fill="#14336A"/>
<path d="M373.838 108.724L374.003 108.68C374.752 108.477 375.195 107.706 374.993 106.957L371.94 95.6397C371.738 94.8903 370.966 94.4467 370.217 94.6489L370.052 94.6934C369.303 94.8956 368.859 95.667 369.061 96.4163L372.115 107.733C372.317 108.483 373.088 108.926 373.838 108.724Z" fill="#14336A"/>
<path d="M366.312 103.371L389.9 97.2354C391.037 96.9397 392.2 97.6226 392.496 98.7593L392.661 99.394C393.838 103.918 391.121 108.549 386.594 109.726L375.282 112.669C370.758 113.846 366.127 111.129 364.95 106.602L364.785 105.967C364.489 104.83 365.171 103.664 366.311 103.368L366.312 103.371Z" fill="#4FC7A0"/>
<path d="M157.646 219.044C157.348 219.044 157.047 218.95 156.793 218.753C145.918 210.361 140.701 202.236 141.287 194.61C141.879 186.891 148.063 181.845 154.042 176.966C160.229 171.916 166.075 167.148 166.39 159.673C166.57 155.396 164.824 152.575 162.976 149.587C160.979 146.358 158.911 143.019 159.326 137.916C160.059 128.905 168.163 120.589 183.412 113.204C184.108 112.866 184.944 113.157 185.282 113.854C185.62 114.55 185.329 115.386 184.633 115.724C170.341 122.647 162.766 130.19 162.12 138.143C161.779 142.329 163.519 145.14 165.359 148.115C167.256 151.18 169.404 154.657 169.19 159.79C168.822 168.52 162.21 173.917 155.816 179.134C150.04 183.846 144.583 188.299 144.081 194.821C143.572 201.45 148.424 208.754 158.506 216.534C159.118 217.006 159.232 217.886 158.76 218.499C158.486 218.857 158.071 219.044 157.649 219.044H157.646Z" fill="#4FC7A0"/>
<path d="M192.48 123.873C186.54 125.225 180.627 121.507 179.276 115.567C177.924 109.628 181.641 103.715 187.581 102.363C193.52 101.012 199.433 104.729 200.785 110.669C202.137 116.608 198.419 122.521 192.48 123.873Z" fill="#3FB790"/>
<path d="M204.726 124.127C202.377 124.662 199.081 118.984 197.365 111.448C195.648 103.909 196.16 97.3639 198.509 96.8318C200.858 96.2964 204.154 101.975 205.871 109.51C207.587 117.049 207.075 123.595 204.726 124.127Z" fill="#4FC7A0"/>
<path d="M189.251 114.392L188.775 112.304C187.196 105.371 191.576 98.4075 198.51 96.8281L204.727 124.126C197.793 125.706 190.83 121.326 189.251 114.392Z" fill="#4FC7A0"/>
<path d="M204.091 121.336C202.22 121.761 199.6 117.243 198.235 111.247C196.87 105.251 197.278 100.044 199.145 99.6156C201.016 99.1906 203.636 103.708 205.001 109.704C206.366 115.701 205.958 120.907 204.091 121.336Z" fill="#3FB790"/>
<path d="M201.063 107.389C200.746 107.463 200.297 106.693 200.066 105.669C199.832 104.649 199.902 103.762 200.22 103.688C200.538 103.615 200.986 104.384 201.217 105.408C201.452 106.429 201.381 107.316 201.063 107.389Z" fill="#14336A"/>
<path d="M203.296 117.2C202.978 117.274 202.53 116.504 202.299 115.48C202.064 114.459 202.135 113.573 202.453 113.499C202.771 113.425 203.219 114.195 203.45 115.219C203.684 116.24 203.614 117.126 203.296 117.2Z" fill="#14336A"/>
</g>
</g>
<defs>
<linearGradient id="paint0_linear_996_114870" x1="268.312" y1="53.2881" x2="268.312" y2="208.748" gradientUnits="userSpaceOnUse">
<stop stop-color="#E9F3FC"/>
<stop offset="1" stop-color="white"/>
</linearGradient>
<radialGradient id="paint1_radial_996_114870" cx="0" cy="0" r="1" gradientUnits="userSpaceOnUse" gradientTransform="translate(308.16 371.223) scale(173.797 177.777)">
<stop stop-color="#D0DFF3"/>
<stop offset="0.99" stop-color="#D0DFF3"/>
</radialGradient>
<linearGradient id="paint2_linear_996_114870" x1="231.563" y1="354.287" x2="264.587" y2="354.287" gradientUnits="userSpaceOnUse">
<stop stop-color="#FFAA9D"/>
<stop offset="0.97" stop-color="#FF9F91"/>
</linearGradient>
<linearGradient id="paint3_linear_996_114870" x1="320.294" y1="354.279" x2="286.832" y2="354.279" gradientUnits="userSpaceOnUse">
<stop stop-color="#FFAA9D"/>
<stop offset="0.97" stop-color="#FF9F91"/>
</linearGradient>
<linearGradient id="paint4_linear_996_114870" x1="162.879" y1="165.428" x2="385.22" y2="165.428" gradientUnits="userSpaceOnUse">
<stop stop-color="#3162DF"/>
<stop offset="0.96" stop-color="#173DB8"/>
</linearGradient>
<clipPath id="clip0_996_114870">
<rect width="610.628" height="373.976" fill="white" transform="translate(-37)"/>
</clipPath>
</defs>
</svg>
