<?xml version="1.0"?>
<svg xmlns="http://www.w3.org/2000/svg" id="outline" viewBox="0 0 48 48" width="512" height="512"><path d="M47.9,8.765a.746.746,0,0,0-.485-.353L22.86.04a.752.752,0,0,0-.581.041L.412,11.139A.749.749,0,0,0,.47,12.5l8.209,3.309v7.83a.75.75,0,0,0,.487.7l5.575,2.09a.75.75,0,0,0,1.013-.7l.031-7.069,9.6,3.869a.742.742,0,0,0,.66-.049L46.485,10.464v23.65L26.418,45.939V24.478a.75.75,0,0,0-1.5,0V46.141L1.5,36.7V14.837a.75.75,0,0,0-1.5,0v22.37a.749.749,0,0,0,.47.7L25.383,47.945a.729.729,0,0,0,.276.054.782.782,0,0,0,.39-.106l21.567-12.7a.748.748,0,0,0,.369-.646V9.292A.737.737,0,0,0,47.9,8.765ZM25.6,21.005l-8.774-3.536L34.458,7.7a.75.75,0,1,0-.727-1.312S14.714,16.917,14.612,16.983a.731.731,0,0,0-.322.614l-.031,7.054-4.08-1.529V15.763L29,6.018a.75.75,0,0,0-.689-1.332L9.39,14.482,2.564,11.73,22.674,1.562,45.455,9.33Z"/></svg>
