<svg width="20" height="11" viewBox="0 0 20 11" fill="none" xmlns="http://www.w3.org/2000/svg">
<path fill-rule="evenodd" clip-rule="evenodd" d="M4.92537 10.7304L0.27331 6.14715C0.0901356 5.96955 0 5.73466 0 5.49976C0 5.26487 0.0908623 5.03055 0.272583 4.85181L4.92465 0.26855C5.28809 -0.0895166 5.87687 -0.0895166 6.24031 0.26855C6.60375 0.626616 6.60375 1.20669 6.24031 1.56475L3.17504 4.58311H19.0952C19.6095 4.58311 19.9994 4.9936 19.9994 5.47398C19.9994 5.95437 19.6095 6.41642 19.0952 6.41642H3.17504L6.23958 9.43564C6.60303 9.7937 6.60303 10.3738 6.23958 10.7318C5.87614 11.0899 5.28882 11.0885 4.92537 10.7304ZM9.20009 1.00017C9.20009 0.558356 9.55825 0.200194 10.0001 0.200194H18.9998C19.4416 0.200194 19.7998 0.558356 19.7998 1.00017C19.7998 1.44199 19.4416 1.80015 18.9998 1.80015H10.0001C9.55825 1.80015 9.20009 1.44199 9.20009 1.00017ZM10.0001 9.20007C9.55825 9.20007 9.20009 9.55823 9.20009 10C9.20009 10.4419 9.55825 10.8 10.0001 10.8H18.9998C19.4416 10.8 19.7998 10.4419 19.7998 10C19.7998 9.55823 19.4416 9.20007 18.9998 9.20007H10.0001Z" fill="#222222"/>
</svg>
