<svg id="Capa_1" enable-background="new 0 0 512 512" height="512" viewBox="0 0 512 512" width="512" xmlns="http://www.w3.org/2000/svg"><g id="Page"><g><path d="m456 512c-11.046 0-20-8.954-20-20v-76c0-33.084-26.916-60-60-60h-240c-33.084 0-60 26.916-60 60v76c0 11.046-8.954 20-20 20s-20-8.954-20-20v-76c0-55.14 44.859-100 100-100h240c55.141 0 100 44.86 100 100v76c0 11.046-8.954 20-20 20z"/></g><g><path d="m96 276h-40c-11.046 0-20-8.954-20-20s8.954-20 20-20h40c11.046 0 20 8.954 20 20s-8.954 20-20 20z"/></g><g><path d="m216 276h-40c-11.046 0-20-8.954-20-20s8.954-20 20-20h40c11.046 0 20 8.954 20 20s-8.954 20-20 20z"/></g><g><path d="m336 276h-40c-11.046 0-20-8.954-20-20s8.954-20 20-20h40c11.046 0 20 8.954 20 20s-8.954 20-20 20z"/></g><g><path d="m456 276h-40c-11.046 0-20-8.954-20-20s8.954-20 20-20h40c11.046 0 20 8.954 20 20s-8.954 20-20 20z"/></g><g><path d="m376 196h-240c-55.141 0-100-44.86-100-100v-76c0-11.046 8.954-20 20-20s20 8.954 20 20v76c0 33.084 26.916 60 60 60h240c33.084 0 60-26.916 60-60v-76c0-11.046 8.954-20 20-20s20 8.954 20 20v76c0 55.14-44.859 100-100 100z"/></g></g></svg>