<?xml version="1.0" encoding="iso-8859-1"?>
<!-- Generator: Adobe Illustrator 19.0.0, SVG Export Plug-In . SVG Version: 6.00 Build 0)  -->
<svg version="1.1" id="Layer_1" xmlns="http://www.w3.org/2000/svg" xmlns:xlink="http://www.w3.org/1999/xlink" x="0px" y="0px"
	 viewBox="0 0 512 512" style="enable-background:new 0 0 512 512;" xml:space="preserve">
<g>
	<g>
		<g>
			<path d="M460.302,331.406l-56.896-113.771c-7.719-15.448-22.521-26.24-39.583-28.865l-113.385-17.448h-0.01
				c-23.458-3.573-47.042,8.083-58.406,28.865L125.323,66.781c-7.438-14.875-22.396-24.115-39.031-24.115
				c-24.052,0-43.625,19.573-43.625,45.552c0,6.75,1.594,13.5,4.604,19.51l130.417,260.833c2.406,4.802,0.479,8.854-0.469,10.375
				c-0.938,1.521-3.698,5.063-9.073,5.063H79.219c-20.156,0-36.552,16.396-36.552,36.552c0,5.635,1.333,11.292,3.854,16.354
				l7.938,15.865c1.302,2.594,3.594,4.542,6.365,5.406L211.49,505.26c14.292,4.469,29.135,6.74,44.115,6.74
				c22.844,0,45.719-5.396,66.135-15.615l100.281-50.135c29.188-14.583,47.313-43.927,47.313-76.563
				C469.333,356.479,466.208,343.24,460.302,331.406z"/>
			<path d="M154.055,56.945c2.616,5.098,8.724,7.021,13.94,4.65c27.63-12.566,57.182-18.928,88.005-18.928
				c41.926,0,82.917,12.599,117.698,35.617l-8.75,11.122c-2.229,2.833-2.875,6.604-1.719,10.021c1.167,3.417,3.969,6.01,7.469,6.906
				l85.333,21.802c0.875,0.229,1.76,0.333,2.635,0.333c3.427,0,6.708-1.656,8.74-4.552c2.542-3.635,2.573-8.469,0.063-12.135
				c-13.671-20.01-29.951-37.789-48.497-53.113l0.018-0.022c-5.734-4.74-18.469-13.853-18.57-13.918C358.038,15.771,307.577,0,256,0
				c-37.39,0-73.24,7.815-106.744,23.248c-5.498,2.533-7.697,9.347-4.933,14.732L154.055,56.945z"/>
		</g>
	</g>
</g>
<g>
</g>
<g>
</g>
<g>
</g>
<g>
</g>
<g>
</g>
<g>
</g>
<g>
</g>
<g>
</g>
<g>
</g>
<g>
</g>
<g>
</g>
<g>
</g>
<g>
</g>
<g>
</g>
<g>
</g>
</svg>
