<svg id="Layer_1" enable-background="new 0 0 100 100" height="512" viewBox="0 0 100 100" width="512" xmlns="http://www.w3.org/2000/svg"><path id="_x30_4.Twitter" d="m89.9 25.2c-3 1.3-6.1 2.2-9.4 2.6 3.4-2 6-5.2 7.2-9.1-3.2 1.9-6.7 3.2-10.4 4-3-3.2-7.3-5.2-12-5.2-9.1 0-16.4 7.4-16.4 16.4 0 1.3.1 2.5.4 3.7-13.6-.6-25.6-7.2-33.7-17.1-5.8 10.4.7 19 5 21.9-2.6 0-5.2-.8-7.4-2 0 8.1 5.7 14.8 13.1 16.3-1.6.5-5.2.8-7.4.3 2.1 6.5 8.2 11.3 15.3 11.4-5.6 4.4-13.8 7.9-24.3 6.8 7.3 4.7 15.9 7.4 25.2 7.4 30.2 0 46.6-25 46.6-46.6 0-.7 0-1.4-.1-2.1 3.4-2.5 6.2-5.4 8.3-8.7z"/></svg>