<?xml version="1.0" encoding="iso-8859-1"?>
<!-- Generator: Adobe Illustrator 16.0.0, SVG Export Plug-In . SVG Version: 6.00 Build 0)  -->
<!DOCTYPE svg PUBLIC "-//W3C//DTD SVG 1.1//EN" "http://www.w3.org/Graphics/SVG/1.1/DTD/svg11.dtd">
<svg version="1.1" id="Capa_1" xmlns="http://www.w3.org/2000/svg" xmlns:xlink="http://www.w3.org/1999/xlink" x="0px" y="0px"
	 width="970.5px" height="970.5px" viewBox="0 0 970.5 970.5" style="enable-background:new 0 0 970.5 970.5;" xml:space="preserve"
	>
<g>
	<path d="M116.1,868.5c-28.2,0-51,22.8-51,51s22.8,51,51,51h741.5c28.199,0,51-22.8,51-51s-22.801-51-51-51H116.1z"/>
	<path d="M940.9,45.1c0-4.9,0-10.1,0-15.1c0-16.6-13.4-30-30-30H582.199c-16.6,0-30,13.4-30,30v14.5c0,15.5,11.801,28.4,27.201,29.9
		c14.5,1.4,29,3.5,43.299,6.3c30.201,5.9,44.9,22.7,44.9,53.3v374.9c0,22-2.5,45.399-7.301,69.5c-4.6,23.1-13.898,45-27.6,65
		c-14.299,20.1-34.199,36.899-59,49.899c-21.6,11.3-51.4,17.7-88.299,19.2c-37-1.4-66.7-7.9-88.3-19.2
		c-24.801-13-44.7-29.7-59-49.899c-13.7-20-23-41.9-27.601-65c-4.8-24.2-7.3-47.601-7.3-69.5v-375c0-30.5,14.7-47.3,44.9-53.3
		c14.3-2.8,28.699-4.9,43.3-6.3c15.399-1.5,27.2-14.4,27.2-29.9V30c0-16.6-13.4-30-30-30h-329c-16.6,0-30,13.4-30,30
		c0,5,0,10.2,0,15.1c0,14.7,10.7,27.3,25.2,29.6C73,77.6,94.9,81.8,98.3,83c27,9.8,44.2,27.4,44.2,57v408.6c0,34.4,7.4,67.9,22,99.5
		c14.6,31.601,36.5,60,65.2,84.4l0.1,0.1c28.8,24.2,64.8,43.601,106.9,57.7c41.8,14,90,21.101,143.2,21.101c1.7,0,3.5,0,5.399-0.101
		c2,0,3.701,0.101,5.4,0.101C543.9,811.4,592,804.3,633.9,790.3c42.1-14.1,78-33.5,106.898-57.7l0.102-0.1
		c28.699-24.4,50.6-52.8,65.199-84.4c14.6-31.6,22-65.1,22-99.5V140.1c0-29.6,17.301-47.2,44.199-57c3.4-1.2,25.301-5.4,43.5-8.3
		C930.299,72.4,940.9,59.8,940.9,45.1z"/>
</g>
<g>
</g>
<g>
</g>
<g>
</g>
<g>
</g>
<g>
</g>
<g>
</g>
<g>
</g>
<g>
</g>
<g>
</g>
<g>
</g>
<g>
</g>
<g>
</g>
<g>
</g>
<g>
</g>
<g>
</g>
</svg>
