<svg width="10" height="17" viewBox="0 0 10 17" fill="none" xmlns="http://www.w3.org/2000/svg">
<path d="M1.02566 5.51547C1.02456 5.63013 1.0603 5.74225 1.12797 5.83624C1.19565 5.93023 1.2919 6.00141 1.40328 6.0399C1.51465 6.07838 1.63563 6.08226 1.74944 6.05098C1.86325 6.01971 1.96416 5.95484 2.03824 5.86539L4.97663 2.45098L8.00216 5.78749C8.04935 5.84808 8.10891 5.89856 8.17718 5.93577C8.24544 5.97298 8.32092 5.99612 8.39886 6.00373C8.47679 6.01135 8.55551 6.00328 8.6301 5.98003C8.7047 5.95678 8.77357 5.91885 8.83237 5.86862C8.89117 5.81839 8.9386 5.75693 8.97179 5.6881C9.00497 5.61928 9.02314 5.54456 9.02517 5.46863C9.0272 5.3927 9.01308 5.31719 8.98361 5.24684C8.95415 5.17649 8.91001 5.1128 8.85397 5.05978L5.39314 1.23973C5.33894 1.17974 5.272 1.13188 5.19684 1.09943C5.12168 1.06699 5.04012 1.05075 4.95783 1.05183C4.87555 1.0529 4.79444 1.07127 4.72015 1.10566C4.64587 1.14005 4.58014 1.18965 4.52751 1.25104L1.16436 5.16022C1.0762 5.25901 1.02699 5.38489 1.02553 5.51547L1.02566 5.51547Z" fill="white" stroke="white" stroke-width="0.5"/>
<path d="M8.99715 11.632C8.99951 11.5174 8.96501 11.4049 8.89838 11.3102C8.83175 11.2154 8.73628 11.1432 8.62534 11.1035C8.5144 11.0638 8.39346 11.0586 8.27932 11.0886C8.16517 11.1186 8.06355 11.1823 7.98849 11.271L5.01259 14.6527L2.02407 11.283C1.97755 11.2219 1.91855 11.1708 1.8507 11.1328C1.78286 11.0949 1.70763 11.0709 1.62979 11.0624C1.55194 11.054 1.47314 11.0612 1.39829 11.0836C1.32344 11.106 1.25415 11.1432 1.1948 11.1927C1.13545 11.2423 1.08735 11.3033 1.05341 11.3717C1.01947 11.4402 1.00047 11.5147 0.997607 11.5906C0.994741 11.6665 1.00802 11.7421 1.03671 11.8128C1.0654 11.8835 1.10883 11.9477 1.16428 12.0013L4.58273 15.8593C4.63628 15.9199 4.70268 15.9685 4.77748 16.0018C4.85228 16.035 4.93365 16.0522 5.01594 16.052C5.09824 16.0518 5.17954 16.0344 5.2542 16.0008C5.32886 15.9672 5.39514 15.9184 5.44844 15.8576L8.85453 11.9857C8.94378 11.8879 8.99437 11.7626 8.99728 11.632L8.99715 11.632Z" fill="white" stroke="white" stroke-width="0.5"/>
</svg>
