<?xml version="1.0" standalone="no"?>
<!DOCTYPE svg PUBLIC "-//W3C//DTD SVG 20010904//EN"
 "http://www.w3.org/TR/2001/REC-SVG-20010904/DTD/svg10.dtd">
<svg version="1.0" xmlns="http://www.w3.org/2000/svg"
 width="1363.000000pt" height="400.000000pt" viewBox="0 0 1363.000000 400.000000"
 preserveAspectRatio="xMidYMid meet">

<g transform="translate(0.000000,400.000000) scale(0.100000,-0.100000)"
fill="#000000" stroke="none">
<path d="M8753 3936 c-100 -33 -170 -92 -220 -189 -25 -47 -28 -62 -28 -152 0
-87 3 -107 26 -155 35 -75 98 -136 177 -173 58 -27 78 -32 147 -32 69 0 89 5
147 32 81 38 141 97 177 172 23 49 26 68 26 156 0 84 -4 107 -24 147 -61 124
-174 199 -309 205 -47 2 -93 -3 -119 -11z"/>
<path d="M2358 3852 l-288 -85 0 -1859 0 -1858 300 0 299 0 4 808 c3 800 3
808 25 892 65 244 212 399 432 457 80 20 254 23 330 4 132 -33 235 -112 290
-224 60 -123 60 -117 60 -1069 l0 -868 305 0 306 0 -4 918 c-3 889 -4 920 -24
1007 -70 299 -210 514 -434 664 -343 230 -877 243 -1230 29 -25 -15 -49 -28
-53 -28 -3 0 -6 293 -6 650 0 514 -3 650 -12 649 -7 -1 -142 -39 -300 -87z"/>
<path d="M7848 3852 l-288 -85 0 -1859 0 -1858 300 0 300 0 0 1945 c0 1550 -3
1945 -12 1944 -7 -1 -142 -39 -300 -87z"/>
<path d="M845 3403 c-154 -45 -290 -85 -302 -88 l-23 -5 0 -270 0 -270 -255 0
-255 0 0 -300 0 -300 255 0 255 0 0 -342 c1 -491 15 -634 82 -833 158 -469
578 -834 1059 -919 46 -8 103 -17 127 -19 l42 -5 0 298 c0 276 -1 299 -17 303
-10 3 -43 11 -73 17 -30 7 -100 34 -155 60 -172 83 -282 193 -365 365 -83 171
-83 172 -87 653 l-5 422 351 0 351 0 0 300 0 300 -350 0 -350 0 -2 358 -3 358
-280 -83z"/>
<path d="M10565 2814 c-289 -50 -549 -187 -761 -398 -219 -220 -349 -474 -400
-786 -21 -127 -14 -388 15 -511 100 -436 372 -782 766 -974 426 -208 937 -187
1343 55 l82 49 0 -99 0 -100 306 0 305 0 -4 783 c-3 753 -4 785 -24 872 -71
303 -215 556 -431 755 -195 181 -456 309 -721 354 -117 20 -364 20 -476 0z
m444 -615 c267 -68 484 -279 571 -554 34 -106 39 -292 11 -407 -37 -155 -107
-282 -217 -392 -99 -99 -192 -155 -334 -202 -77 -25 -99 -28 -230 -28 -166 -1
-226 12 -356 74 -163 78 -289 203 -370 365 -62 126 -85 223 -85 365 0 177 47
327 145 463 197 277 536 400 865 316z"/>
<path d="M5809 2810 c-816 -103 -1334 -828 -1193 -1670 32 -189 110 -386 219
-550 27 -41 97 -123 155 -181 203 -205 439 -327 745 -385 123 -24 415 -25 540
-1 298 55 562 189 749 380 95 98 171 207 154 222 -15 14 -474 281 -499 290
-11 4 -26 -11 -53 -49 -98 -143 -296 -245 -513 -265 -371 -34 -677 120 -824
414 l-40 80 1027 5 1028 5 8 30 c20 75 30 266 19 386 -34 369 -171 679 -406
915 -184 185 -406 304 -670 359 -92 19 -346 28 -446 15z m280 -591 c250 -31
429 -159 546 -393 72 -142 157 -126 -670 -126 -606 0 -715 2 -715 14 0 8 21
56 47 107 37 74 63 110 127 174 131 132 277 203 466 225 96 11 108 11 199 -1z"/>
<path d="M8550 1410 l0 -1360 300 0 300 0 0 1360 0 1360 -300 0 -300 0 0
-1360z"/>
</g>
</svg>
