<svg id="svg" version="1.1" xmlns="http://www.w3.org/2000/svg" xmlns:xlink="http://www.w3.org/1999/xlink" width="400" height="124.44444444444444" viewBox="0, 0, 400,124.44444444444444"><g id="svgg"><path id="path0" d="M256.227 4.917 C 256.160 5.092,255.887 5.167,255.316 5.167 C 254.867 5.167,254.500 5.242,254.500 5.333 C 254.500 5.425,254.310 5.500,254.078 5.500 C 253.846 5.500,253.613 5.612,253.560 5.750 C 253.508 5.888,253.285 6.000,253.066 6.000 C 252.822 6.000,252.667 6.097,252.667 6.250 C 252.667 6.392,252.517 6.500,252.321 6.500 C 251.920 6.500,249.771 8.577,249.593 9.135 C 249.530 9.336,249.408 9.500,249.322 9.500 C 249.237 9.500,249.167 9.604,249.167 9.732 C 249.167 9.860,249.054 10.008,248.917 10.060 C 248.760 10.120,248.667 10.375,248.667 10.745 C 248.667 11.157,248.592 11.333,248.417 11.333 C 248.250 11.333,248.167 11.500,248.167 11.833 C 248.167 12.108,248.092 12.333,248.000 12.333 C 247.895 12.333,247.833 13.472,247.833 15.417 C 247.833 17.361,247.895 18.500,248.000 18.500 C 248.092 18.500,248.167 18.765,248.167 19.089 C 248.167 19.458,248.260 19.713,248.417 19.773 C 248.554 19.826,248.667 20.048,248.667 20.268 C 248.667 20.511,248.764 20.667,248.917 20.667 C 249.072 20.667,249.167 20.824,249.167 21.083 C 249.167 21.313,249.234 21.500,249.315 21.500 C 249.397 21.500,249.511 21.688,249.568 21.917 C 249.626 22.146,249.747 22.333,249.837 22.333 C 249.926 22.333,250.000 22.446,250.000 22.583 C 250.000 22.721,250.112 22.833,250.250 22.833 C 250.387 22.833,250.500 22.920,250.500 23.027 C 250.500 23.317,251.516 24.167,251.863 24.167 C 252.030 24.167,252.167 24.279,252.167 24.417 C 252.167 24.554,252.271 24.667,252.399 24.667 C 252.527 24.667,252.674 24.779,252.727 24.917 C 252.780 25.054,252.971 25.167,253.152 25.167 C 253.332 25.167,253.527 25.242,253.583 25.333 C 253.640 25.425,253.936 25.500,254.242 25.500 C 254.582 25.500,254.835 25.597,254.894 25.750 C 254.961 25.925,255.234 26.000,255.810 26.000 C 256.386 26.000,256.660 26.075,256.727 26.250 C 256.865 26.610,259.699 26.610,260.060 26.250 C 260.216 26.094,260.626 26.000,261.155 26.000 C 261.795 26.000,262.000 25.939,262.000 25.750 C 262.000 25.590,262.160 25.500,262.444 25.500 C 262.947 25.500,264.167 25.005,264.167 24.801 C 264.167 24.727,264.279 24.667,264.417 24.667 C 264.554 24.667,264.667 24.554,264.667 24.417 C 264.667 24.279,264.779 24.167,264.917 24.167 C 265.054 24.167,265.167 24.097,265.167 24.011 C 265.167 23.926,265.332 23.803,265.534 23.739 C 265.999 23.592,266.258 23.333,266.406 22.867 C 266.470 22.665,266.592 22.500,266.678 22.500 C 266.763 22.500,266.833 22.387,266.833 22.250 C 266.833 22.113,266.946 22.000,267.083 22.000 C 267.221 22.000,267.333 21.887,267.333 21.750 C 267.333 21.613,267.407 21.500,267.497 21.500 C 267.587 21.500,267.707 21.313,267.765 21.083 C 267.822 20.854,267.936 20.667,268.018 20.667 C 268.100 20.667,268.167 20.442,268.167 20.167 C 268.167 19.833,268.250 19.667,268.417 19.667 C 268.605 19.667,268.667 19.465,268.667 18.851 C 268.667 18.280,268.742 18.007,268.917 17.940 C 269.122 17.861,269.167 17.430,269.167 15.505 C 269.167 13.538,269.127 13.167,268.917 13.167 C 268.725 13.167,268.667 12.954,268.667 12.250 C 268.667 11.546,268.609 11.333,268.417 11.333 C 268.261 11.333,268.167 11.176,268.167 10.917 C 268.167 10.688,268.092 10.500,268.000 10.500 C 267.908 10.500,267.831 10.369,267.828 10.208 C 267.821 9.865,267.276 9.167,267.015 9.167 C 266.915 9.167,266.833 9.016,266.833 8.831 C 266.833 8.445,265.285 6.833,264.914 6.833 C 264.778 6.833,264.667 6.758,264.667 6.667 C 264.667 6.575,264.554 6.500,264.417 6.500 C 264.279 6.500,264.167 6.388,264.167 6.250 C 264.167 6.097,264.011 6.000,263.768 6.000 C 263.548 6.000,263.326 5.888,263.273 5.750 C 263.220 5.612,262.987 5.500,262.755 5.500 C 262.523 5.500,262.333 5.425,262.333 5.333 C 262.333 5.242,261.966 5.167,261.518 5.167 C 260.947 5.167,260.674 5.092,260.606 4.917 C 260.528 4.713,260.124 4.667,258.417 4.667 C 256.709 4.667,256.305 4.713,256.227 4.917 M80.250 5.333 C 80.193 5.425,79.887 5.500,79.568 5.500 C 79.208 5.500,78.953 5.594,78.894 5.750 C 78.826 5.925,78.553 6.000,77.982 6.000 C 77.368 6.000,77.167 6.062,77.167 6.250 C 77.167 6.431,76.981 6.500,76.500 6.500 C 76.133 6.500,75.833 6.565,75.833 6.645 C 75.833 6.725,75.443 6.828,74.965 6.874 C 74.488 6.920,74.069 7.042,74.035 7.146 C 74.000 7.249,73.678 7.333,73.319 7.333 C 72.850 7.333,72.667 7.404,72.667 7.583 C 72.667 7.764,72.481 7.833,72.000 7.833 C 71.633 7.833,71.333 7.908,71.333 8.000 C 71.333 8.092,71.039 8.167,70.679 8.167 C 70.318 8.167,69.911 8.279,69.774 8.417 C 69.636 8.554,69.254 8.667,68.923 8.667 C 68.543 8.667,68.288 8.758,68.227 8.917 C 68.164 9.080,67.905 9.167,67.482 9.167 C 67.125 9.167,66.833 9.242,66.833 9.333 C 66.833 9.425,66.493 9.500,66.078 9.500 C 65.561 9.500,65.293 9.579,65.227 9.750 C 65.172 9.893,64.924 10.000,64.649 10.000 L 64.166 10.000 64.208 63.708 L 64.250 117.417 73.333 117.417 L 82.417 117.417 82.459 94.542 C 82.487 79.485,82.558 71.667,82.667 71.667 C 82.764 71.667,82.833 71.108,82.833 70.333 C 82.833 69.259,82.882 69.000,83.083 69.000 C 83.271 69.000,83.333 68.798,83.333 68.184 C 83.333 67.613,83.408 67.340,83.583 67.273 C 83.740 67.213,83.833 66.958,83.833 66.589 C 83.833 66.265,83.908 66.000,84.000 66.000 C 84.092 66.000,84.167 65.775,84.167 65.500 C 84.167 65.167,84.250 65.000,84.417 65.000 C 84.569 65.000,84.667 64.845,84.667 64.601 C 84.667 64.382,84.779 64.159,84.917 64.106 C 85.054 64.054,85.167 63.863,85.167 63.682 C 85.167 63.501,85.242 63.307,85.333 63.250 C 85.425 63.193,85.500 62.964,85.500 62.740 C 85.500 62.516,85.574 62.333,85.665 62.333 C 85.962 62.333,86.500 61.766,86.500 61.451 C 86.500 61.113,86.873 60.667,87.155 60.667 C 87.253 60.667,87.333 60.554,87.333 60.417 C 87.333 60.279,87.446 60.167,87.583 60.167 C 87.721 60.167,87.833 60.086,87.833 59.988 C 87.833 59.757,88.257 59.333,88.488 59.333 C 88.586 59.333,88.667 59.221,88.667 59.083 C 88.667 58.946,88.779 58.833,88.917 58.833 C 89.054 58.833,89.167 58.721,89.167 58.583 C 89.167 58.439,89.317 58.333,89.523 58.333 C 89.718 58.333,90.052 58.146,90.265 57.917 C 90.477 57.688,90.804 57.500,90.992 57.500 C 91.184 57.500,91.333 57.391,91.333 57.250 C 91.333 57.094,91.491 57.000,91.750 57.000 C 91.979 57.000,92.167 56.925,92.167 56.833 C 92.167 56.742,92.357 56.667,92.589 56.667 C 92.821 56.667,93.054 56.554,93.106 56.417 C 93.166 56.262,93.419 56.167,93.773 56.167 C 94.127 56.167,94.380 56.072,94.440 55.917 C 94.507 55.742,94.780 55.667,95.351 55.667 C 95.800 55.667,96.167 55.592,96.167 55.500 C 96.167 55.394,97.556 55.333,100.000 55.333 C 102.444 55.333,103.833 55.394,103.833 55.500 C 103.833 55.592,104.208 55.667,104.667 55.667 C 105.296 55.667,105.500 55.728,105.500 55.917 C 105.500 56.081,105.665 56.167,105.982 56.167 C 106.257 56.167,106.506 56.274,106.560 56.417 C 106.613 56.554,106.809 56.667,106.995 56.667 C 107.181 56.667,107.333 56.742,107.333 56.833 C 107.333 56.925,107.513 57.000,107.732 57.000 C 107.952 57.000,108.174 57.112,108.227 57.250 C 108.280 57.387,108.513 57.500,108.745 57.500 C 108.977 57.500,109.167 57.580,109.167 57.679 C 109.167 57.909,109.591 58.333,109.821 58.333 C 109.920 58.333,110.000 58.446,110.000 58.583 C 110.000 58.721,110.112 58.833,110.250 58.833 C 110.388 58.833,110.500 58.914,110.500 59.012 C 110.500 59.243,110.924 59.667,111.155 59.667 C 111.253 59.667,111.333 59.892,111.333 60.167 C 111.333 60.500,111.417 60.667,111.583 60.667 C 111.728 60.667,111.833 60.817,111.833 61.023 C 111.833 61.218,112.021 61.552,112.250 61.765 C 112.521 62.015,112.667 62.331,112.667 62.664 C 112.667 62.966,112.769 63.217,112.917 63.273 C 113.070 63.332,113.167 63.584,113.167 63.925 C 113.167 64.230,113.233 64.521,113.313 64.571 C 113.394 64.621,113.493 65.127,113.534 65.696 C 113.576 66.277,113.695 66.759,113.805 66.796 C 113.953 66.845,114.000 72.969,114.000 92.181 L 114.000 117.500 123.083 117.500 L 132.167 117.500 132.167 90.833 C 132.167 73.167,132.110 64.167,132.000 64.167 C 131.904 64.167,131.833 63.637,131.833 62.911 C 131.833 61.949,131.775 61.634,131.583 61.560 C 131.408 61.493,131.333 61.220,131.333 60.649 C 131.333 60.035,131.271 59.833,131.083 59.833 C 130.891 59.833,130.833 59.620,130.833 58.917 C 130.833 58.413,130.758 58.000,130.667 58.000 C 130.575 58.000,130.500 57.735,130.500 57.411 C 130.500 57.042,130.407 56.787,130.250 56.727 C 130.095 56.668,130.000 56.414,130.000 56.060 C 130.000 55.707,129.905 55.453,129.750 55.394 C 129.612 55.341,129.500 55.118,129.500 54.899 C 129.500 54.679,129.425 54.500,129.333 54.500 C 129.242 54.500,129.167 54.310,129.167 54.078 C 129.167 53.846,129.054 53.613,128.917 53.560 C 128.779 53.508,128.667 53.285,128.667 53.066 C 128.667 52.822,128.569 52.667,128.417 52.667 C 128.263 52.667,128.167 52.511,128.167 52.264 C 128.167 52.042,128.110 51.836,128.042 51.806 C 127.973 51.775,127.774 51.469,127.599 51.125 C 127.424 50.781,127.180 50.500,127.057 50.500 C 126.934 50.500,126.831 50.331,126.828 50.125 C 126.822 49.695,126.470 49.167,126.190 49.167 C 126.085 49.167,126.000 49.054,126.000 48.917 C 126.000 48.779,125.888 48.667,125.750 48.667 C 125.606 48.667,125.500 48.516,125.500 48.311 C 125.500 48.115,125.313 47.781,125.083 47.569 C 124.854 47.356,124.667 47.104,124.667 47.008 C 124.667 46.912,124.586 46.833,124.488 46.833 C 124.257 46.833,123.833 46.409,123.833 46.179 C 123.833 46.080,123.721 46.000,123.583 46.000 C 123.446 46.000,123.333 45.887,123.333 45.750 C 123.333 45.612,123.253 45.500,123.155 45.500 C 123.057 45.500,122.869 45.393,122.738 45.262 C 122.607 45.131,122.500 44.943,122.500 44.845 C 122.500 44.747,122.388 44.667,122.250 44.667 C 122.112 44.667,122.000 44.554,122.000 44.417 C 122.000 44.279,121.915 44.167,121.811 44.167 C 121.707 44.167,121.448 43.979,121.235 43.750 C 121.023 43.521,120.696 43.333,120.508 43.333 C 120.320 43.333,120.167 43.248,120.167 43.143 C 120.167 42.863,119.638 42.511,119.208 42.505 C 119.002 42.502,118.833 42.426,118.833 42.335 C 118.833 42.009,118.252 41.500,117.880 41.500 C 117.671 41.500,117.500 41.425,117.500 41.333 C 117.500 41.242,117.313 41.167,117.083 41.167 C 116.824 41.167,116.667 41.072,116.667 40.917 C 116.667 40.764,116.511 40.667,116.268 40.667 C 116.048 40.667,115.826 40.554,115.773 40.417 C 115.720 40.279,115.487 40.167,115.255 40.167 C 115.023 40.167,114.833 40.092,114.833 40.000 C 114.833 39.908,114.646 39.833,114.417 39.833 C 114.157 39.833,114.000 39.739,114.000 39.583 C 114.000 39.403,113.815 39.333,113.333 39.333 C 112.852 39.333,112.667 39.264,112.667 39.083 C 112.667 38.903,112.481 38.833,112.000 38.833 C 111.633 38.833,111.333 38.758,111.333 38.667 C 111.333 38.575,111.041 38.500,110.684 38.500 C 110.262 38.500,110.002 38.413,109.940 38.250 C 109.869 38.067,109.580 38.000,108.856 38.000 C 108.132 38.000,107.843 37.933,107.773 37.750 C 107.698 37.553,107.356 37.500,106.172 37.500 C 105.280 37.500,104.667 37.432,104.667 37.333 C 104.667 37.227,103.222 37.167,100.667 37.167 C 98.111 37.167,96.667 37.227,96.667 37.333 C 96.667 37.433,95.998 37.500,94.995 37.500 C 93.662 37.500,93.303 37.551,93.227 37.750 C 93.158 37.929,92.877 38.000,92.232 38.000 C 91.544 38.000,91.333 38.059,91.333 38.250 C 91.333 38.438,91.131 38.500,90.510 38.500 C 90.057 38.500,89.640 38.575,89.583 38.667 C 89.527 38.758,89.220 38.833,88.902 38.833 C 88.541 38.833,88.287 38.928,88.227 39.083 C 88.174 39.221,87.952 39.333,87.732 39.333 C 87.489 39.333,87.333 39.431,87.333 39.583 C 87.333 39.764,87.148 39.833,86.667 39.833 C 86.300 39.833,86.000 39.908,86.000 40.000 C 86.000 40.092,85.813 40.167,85.583 40.167 C 85.324 40.167,85.167 40.261,85.167 40.417 C 85.167 40.573,85.009 40.667,84.745 40.667 C 84.513 40.667,84.280 40.779,84.227 40.917 C 84.174 41.054,83.979 41.167,83.793 41.167 C 83.607 41.167,83.281 41.354,83.069 41.583 C 82.856 41.813,82.642 42.000,82.591 42.000 C 82.541 42.000,82.500 33.712,82.500 23.583 L 82.500 5.167 81.427 5.167 C 80.836 5.167,80.307 5.242,80.250 5.333 M236.750 5.333 C 236.693 5.425,236.387 5.500,236.068 5.500 C 235.708 5.500,235.453 5.594,235.394 5.750 C 235.331 5.913,235.072 6.000,234.649 6.000 C 234.183 6.000,234.000 6.071,234.000 6.250 C 234.000 6.439,233.796 6.500,233.167 6.500 C 232.708 6.500,232.333 6.575,232.333 6.667 C 232.333 6.758,232.031 6.833,231.661 6.833 C 231.218 6.833,230.957 6.918,230.894 7.083 C 230.834 7.238,230.581 7.333,230.227 7.333 C 229.873 7.333,229.620 7.428,229.560 7.583 C 229.493 7.758,229.220 7.833,228.649 7.833 C 228.200 7.833,227.833 7.908,227.833 8.000 C 227.833 8.092,227.568 8.167,227.245 8.167 C 226.875 8.167,226.620 8.260,226.560 8.417 C 226.493 8.592,226.219 8.667,225.644 8.667 C 225.068 8.667,224.794 8.741,224.727 8.917 C 224.664 9.080,224.405 9.167,223.982 9.167 C 223.625 9.167,223.333 9.242,223.333 9.333 C 223.333 9.425,223.068 9.500,222.745 9.500 C 222.375 9.500,222.120 9.593,222.060 9.750 C 221.998 9.913,221.738 10.000,221.315 10.000 L 220.666 10.000 220.708 63.708 L 220.750 117.417 229.792 117.460 L 238.833 117.503 238.833 61.335 L 238.833 5.167 237.843 5.167 C 237.299 5.167,236.807 5.242,236.750 5.333 M37.167 18.250 C 37.167 18.442,36.954 18.500,36.250 18.500 C 35.746 18.500,35.333 18.575,35.333 18.667 C 35.333 18.758,35.068 18.833,34.745 18.833 C 34.375 18.833,34.120 18.926,34.060 19.083 C 33.993 19.258,33.720 19.333,33.149 19.333 C 32.535 19.333,32.333 19.395,32.333 19.583 C 32.333 19.763,32.149 19.833,31.677 19.833 C 31.315 19.833,30.973 19.908,30.917 20.000 C 30.860 20.092,30.553 20.167,30.235 20.167 C 29.874 20.167,29.620 20.261,29.560 20.417 C 29.495 20.587,29.229 20.667,28.727 20.667 C 28.225 20.667,27.959 20.747,27.894 20.917 C 27.831 21.080,27.572 21.167,27.149 21.167 C 26.792 21.167,26.500 21.242,26.500 21.333 C 26.500 21.425,26.200 21.500,25.833 21.500 C 25.352 21.500,25.167 21.569,25.167 21.750 C 25.167 21.942,24.954 22.000,24.250 22.000 C 23.546 22.000,23.333 22.058,23.333 22.250 C 23.333 22.431,23.148 22.500,22.667 22.500 C 22.300 22.500,22.000 22.575,22.000 22.667 C 22.000 22.758,21.705 22.833,21.345 22.833 C 20.112 22.833,20.167 22.459,20.167 30.929 L 20.167 38.500 12.833 38.500 L 5.500 38.500 5.500 47.583 L 5.500 56.667 12.833 56.667 L 20.167 56.667 20.167 68.833 C 20.167 79.537,20.197 81.000,20.417 81.000 C 20.623 81.000,20.667 81.306,20.667 82.750 C 20.667 84.194,20.710 84.500,20.917 84.500 C 21.109 84.500,21.167 84.713,21.167 85.417 C 21.167 85.921,21.242 86.333,21.333 86.333 C 21.425 86.333,21.500 86.711,21.500 87.172 C 21.500 87.764,21.574 88.039,21.750 88.106 C 21.925 88.174,22.000 88.447,22.000 89.018 C 22.000 89.632,22.062 89.833,22.250 89.833 C 22.431 89.833,22.500 90.019,22.500 90.500 C 22.500 90.867,22.575 91.167,22.667 91.167 C 22.758 91.167,22.833 91.357,22.833 91.589 C 22.833 91.821,22.946 92.054,23.083 92.106 C 23.238 92.166,23.333 92.419,23.333 92.773 C 23.333 93.127,23.428 93.380,23.583 93.440 C 23.721 93.492,23.833 93.715,23.833 93.934 C 23.833 94.154,23.908 94.333,24.000 94.333 C 24.092 94.333,24.167 94.486,24.167 94.672 C 24.167 94.858,24.279 95.054,24.417 95.106 C 24.554 95.159,24.667 95.384,24.667 95.606 C 24.667 95.829,24.779 96.054,24.917 96.106 C 25.054 96.159,25.167 96.382,25.167 96.601 C 25.167 96.821,25.234 97.000,25.315 97.000 C 25.397 97.000,25.511 97.188,25.568 97.417 C 25.626 97.646,25.747 97.833,25.837 97.833 C 25.926 97.833,26.000 97.946,26.000 98.083 C 26.000 98.221,26.113 98.333,26.250 98.333 C 26.406 98.333,26.500 98.491,26.500 98.750 C 26.500 98.979,26.575 99.167,26.667 99.167 C 26.758 99.167,26.833 99.279,26.833 99.417 C 26.833 99.554,26.946 99.667,27.083 99.667 C 27.239 99.667,27.333 99.824,27.333 100.083 C 27.333 100.343,27.428 100.500,27.583 100.500 C 27.721 100.500,27.833 100.612,27.833 100.750 C 27.833 100.888,27.900 101.000,27.982 101.000 C 28.064 101.000,28.178 101.187,28.235 101.417 C 28.293 101.646,28.413 101.833,28.503 101.833 C 28.593 101.833,28.667 101.946,28.667 102.083 C 28.667 102.221,28.779 102.333,28.917 102.333 C 29.054 102.333,29.167 102.414,29.167 102.512 C 29.167 102.743,29.591 103.167,29.821 103.167 C 29.920 103.167,30.000 103.279,30.000 103.417 C 30.000 103.554,30.113 103.667,30.250 103.667 C 30.390 103.667,30.500 103.815,30.500 104.003 C 30.500 104.457,33.709 107.667,34.162 107.667 C 34.348 107.667,34.500 107.747,34.500 107.845 C 34.500 108.076,34.924 108.500,35.155 108.500 C 35.253 108.500,35.333 108.612,35.333 108.750 C 35.333 108.888,35.438 109.000,35.566 109.000 C 35.693 109.000,35.841 109.112,35.894 109.250 C 35.946 109.388,36.142 109.500,36.328 109.500 C 36.514 109.500,36.667 109.575,36.667 109.667 C 36.667 109.758,36.779 109.833,36.917 109.833 C 37.054 109.833,37.167 109.946,37.167 110.083 C 37.167 110.221,37.271 110.333,37.399 110.333 C 37.527 110.333,37.674 110.446,37.727 110.583 C 37.780 110.721,37.948 110.833,38.101 110.833 C 38.253 110.833,38.552 111.021,38.765 111.250 C 38.977 111.479,39.304 111.667,39.492 111.667 C 39.684 111.667,39.833 111.776,39.833 111.917 C 39.833 112.072,39.991 112.167,40.250 112.167 C 40.479 112.167,40.667 112.242,40.667 112.333 C 40.667 112.425,40.854 112.500,41.083 112.500 C 41.343 112.500,41.500 112.594,41.500 112.750 C 41.500 112.917,41.667 113.000,42.000 113.000 C 42.333 113.000,42.500 113.083,42.500 113.250 C 42.500 113.406,42.657 113.500,42.917 113.500 C 43.146 113.500,43.333 113.575,43.333 113.667 C 43.333 113.758,43.521 113.833,43.750 113.833 C 44.009 113.833,44.167 113.928,44.167 114.083 C 44.167 114.250,44.333 114.333,44.667 114.333 C 45.000 114.333,45.167 114.417,45.167 114.583 C 45.167 114.764,45.352 114.833,45.833 114.833 C 46.200 114.833,46.500 114.908,46.500 115.000 C 46.500 115.092,46.800 115.167,47.167 115.167 C 47.648 115.167,47.833 115.236,47.833 115.417 C 47.833 115.597,48.019 115.667,48.500 115.667 C 48.981 115.667,49.167 115.736,49.167 115.917 C 49.167 116.106,49.370 116.167,50.000 116.167 C 50.458 116.167,50.833 116.242,50.833 116.333 C 50.833 116.425,51.238 116.500,51.732 116.500 C 52.377 116.500,52.658 116.571,52.727 116.750 C 52.802 116.946,53.142 117.000,54.310 117.000 C 55.498 117.000,55.818 117.052,55.896 117.257 C 55.975 117.463,56.237 117.505,57.206 117.466 L 58.417 117.417 58.460 108.375 L 58.503 99.333 57.830 99.333 C 57.385 99.333,57.124 99.248,57.060 99.083 C 56.989 98.897,56.692 98.833,55.899 98.833 C 55.063 98.833,54.833 98.779,54.833 98.583 C 54.833 98.403,54.648 98.333,54.167 98.333 C 53.800 98.333,53.500 98.258,53.500 98.167 C 53.500 98.075,53.313 98.000,53.083 98.000 C 52.824 98.000,52.667 97.906,52.667 97.750 C 52.667 97.585,52.502 97.500,52.184 97.500 C 51.910 97.500,51.661 97.393,51.606 97.250 C 51.554 97.112,51.358 97.000,51.172 97.000 C 50.986 97.000,50.833 96.925,50.833 96.833 C 50.833 96.742,50.646 96.667,50.417 96.667 C 50.157 96.667,50.000 96.572,50.000 96.417 C 50.000 96.276,49.851 96.167,49.659 96.167 C 49.471 96.167,49.144 95.979,48.931 95.750 C 48.719 95.521,48.385 95.333,48.189 95.333 C 47.984 95.333,47.833 95.228,47.833 95.083 C 47.833 94.946,47.721 94.833,47.583 94.833 C 47.446 94.833,47.333 94.721,47.333 94.583 C 47.333 94.446,47.248 94.333,47.144 94.333 C 47.040 94.333,46.781 94.146,46.569 93.917 C 46.356 93.688,46.029 93.500,45.841 93.500 C 45.654 93.500,45.500 93.420,45.500 93.321 C 45.500 93.091,45.076 92.667,44.845 92.667 C 44.747 92.667,44.667 92.479,44.667 92.250 C 44.667 91.991,44.572 91.833,44.417 91.833 C 44.279 91.833,44.167 91.748,44.167 91.644 C 44.167 91.540,43.979 91.281,43.750 91.069 C 43.521 90.856,43.333 90.604,43.333 90.508 C 43.333 90.412,43.221 90.333,43.083 90.333 C 42.946 90.333,42.833 90.194,42.833 90.024 C 42.833 89.854,42.646 89.513,42.417 89.266 C 42.187 89.018,42.000 88.670,42.000 88.491 C 42.000 88.313,41.887 88.167,41.750 88.167 C 41.594 88.167,41.500 88.009,41.500 87.750 C 41.500 87.521,41.433 87.333,41.351 87.333 C 41.270 87.333,41.156 87.146,41.098 86.917 C 41.041 86.688,40.920 86.500,40.830 86.500 C 40.740 86.500,40.667 86.310,40.667 86.078 C 40.667 85.846,40.554 85.613,40.417 85.560 C 40.279 85.508,40.167 85.285,40.167 85.066 C 40.167 84.846,40.092 84.667,40.000 84.667 C 39.908 84.667,39.833 84.402,39.833 84.078 C 39.833 83.709,39.740 83.454,39.583 83.394 C 39.404 83.325,39.333 83.044,39.333 82.399 C 39.333 81.711,39.275 81.500,39.083 81.500 C 38.882 81.500,38.833 81.241,38.833 80.167 C 38.833 79.389,38.764 78.833,38.667 78.833 C 38.557 78.833,38.500 75.028,38.500 67.750 L 38.500 56.667 48.500 56.667 L 58.500 56.667 58.500 47.583 L 58.500 38.500 48.500 38.500 L 38.500 38.500 38.500 28.250 L 38.500 18.000 37.833 18.000 C 37.352 18.000,37.167 18.069,37.167 18.250 M310.500 36.917 C 310.500 37.124,310.185 37.167,308.667 37.167 C 307.556 37.167,306.833 37.232,306.833 37.333 C 306.833 37.427,306.361 37.500,305.750 37.500 C 304.898 37.500,304.667 37.553,304.667 37.750 C 304.667 37.939,304.462 38.000,303.828 38.000 C 303.236 38.000,302.961 38.074,302.894 38.250 C 302.831 38.413,302.572 38.500,302.149 38.500 C 301.792 38.500,301.500 38.575,301.500 38.667 C 301.500 38.758,301.235 38.833,300.911 38.833 C 300.542 38.833,300.287 38.926,300.227 39.083 C 300.168 39.238,299.914 39.333,299.560 39.333 C 299.207 39.333,298.953 39.428,298.894 39.583 C 298.834 39.738,298.581 39.833,298.232 39.833 C 297.921 39.833,297.667 39.908,297.667 40.000 C 297.667 40.092,297.477 40.167,297.245 40.167 C 297.013 40.167,296.780 40.279,296.727 40.417 C 296.674 40.554,296.452 40.667,296.232 40.667 C 295.989 40.667,295.833 40.764,295.833 40.917 C 295.833 41.071,295.677 41.167,295.427 41.167 C 295.203 41.167,294.973 41.242,294.917 41.333 C 294.860 41.425,294.666 41.500,294.485 41.500 C 294.304 41.500,294.113 41.612,294.060 41.750 C 294.008 41.887,293.785 42.000,293.566 42.000 C 293.322 42.000,293.167 42.097,293.167 42.250 C 293.167 42.387,293.054 42.500,292.917 42.500 C 292.779 42.500,292.667 42.575,292.667 42.667 C 292.667 42.758,292.479 42.833,292.250 42.833 C 291.991 42.833,291.833 42.928,291.833 43.083 C 291.833 43.221,291.721 43.333,291.583 43.333 C 291.446 43.333,291.333 43.446,291.333 43.583 C 291.333 43.739,291.176 43.833,290.917 43.833 C 290.688 43.833,290.500 43.908,290.500 44.000 C 290.500 44.092,290.387 44.167,290.250 44.167 C 290.112 44.167,290.000 44.279,290.000 44.417 C 290.000 44.572,289.843 44.667,289.583 44.667 C 289.324 44.667,289.167 44.761,289.167 44.917 C 289.167 45.054,289.086 45.167,288.987 45.167 C 288.754 45.167,287.833 46.087,287.833 46.321 C 287.833 46.419,287.673 46.500,287.477 46.500 C 287.282 46.500,286.948 46.688,286.735 46.917 C 286.523 47.146,286.271 47.333,286.175 47.333 C 286.079 47.333,286.000 47.446,286.000 47.583 C 286.000 47.721,285.920 47.833,285.821 47.833 C 285.591 47.833,285.167 48.257,285.167 48.488 C 285.167 48.586,285.054 48.667,284.917 48.667 C 284.779 48.667,284.667 48.779,284.667 48.917 C 284.667 49.054,284.586 49.167,284.488 49.167 C 284.304 49.167,283.833 49.573,283.833 49.732 C 283.833 49.782,283.608 50.052,283.333 50.333 C 283.058 50.615,282.833 50.955,282.833 51.089 C 282.833 51.223,282.758 51.333,282.667 51.333 C 282.575 51.333,282.500 51.446,282.500 51.583 C 282.500 51.721,282.419 51.833,282.321 51.833 C 282.006 51.833,281.167 52.794,281.167 53.154 C 281.167 53.350,281.059 53.500,280.917 53.500 C 280.779 53.500,280.667 53.604,280.667 53.732 C 280.667 53.860,280.554 54.008,280.417 54.060 C 280.279 54.113,280.167 54.309,280.167 54.495 C 280.167 54.681,280.092 54.833,280.000 54.833 C 279.908 54.833,279.833 54.946,279.833 55.083 C 279.833 55.221,279.721 55.333,279.583 55.333 C 279.443 55.333,279.333 55.482,279.333 55.675 C 279.333 55.862,279.146 56.190,278.917 56.402 C 278.688 56.614,278.500 56.940,278.500 57.126 C 278.500 57.312,278.387 57.508,278.250 57.560 C 278.112 57.613,278.000 57.846,278.000 58.078 C 278.000 58.342,277.906 58.500,277.750 58.500 C 277.594 58.500,277.500 58.657,277.500 58.917 C 277.500 59.146,277.425 59.333,277.333 59.333 C 277.242 59.333,277.167 59.521,277.167 59.750 C 277.167 60.009,277.072 60.167,276.917 60.167 C 276.752 60.167,276.667 60.331,276.667 60.649 C 276.667 60.924,276.559 61.172,276.417 61.227 C 276.271 61.283,276.167 61.533,276.167 61.828 C 276.167 62.106,276.092 62.333,276.000 62.333 C 275.908 62.333,275.833 62.558,275.833 62.833 C 275.833 63.167,275.750 63.333,275.583 63.333 C 275.404 63.333,275.333 63.517,275.333 63.982 C 275.333 64.405,275.246 64.664,275.083 64.727 C 274.926 64.787,274.833 65.042,274.833 65.411 C 274.833 65.735,274.758 66.000,274.667 66.000 C 274.575 66.000,274.500 66.367,274.500 66.816 C 274.500 67.387,274.425 67.660,274.250 67.727 C 274.064 67.798,274.000 68.096,274.000 68.894 C 274.000 69.692,273.936 69.989,273.750 70.060 C 273.555 70.135,273.500 70.468,273.500 71.578 C 273.500 72.415,273.431 73.000,273.333 73.000 C 273.226 73.000,273.167 74.750,273.167 77.917 C 273.167 81.083,273.226 82.833,273.333 82.833 C 273.430 82.833,273.500 83.385,273.500 84.155 C 273.500 85.107,273.570 85.546,273.750 85.726 C 273.906 85.883,274.000 86.292,274.000 86.821 C 274.000 87.462,274.061 87.667,274.250 87.667 C 274.442 87.667,274.500 87.880,274.500 88.583 C 274.500 89.087,274.575 89.500,274.667 89.500 C 274.758 89.500,274.833 89.765,274.833 90.089 C 274.833 90.458,274.926 90.713,275.083 90.773 C 275.246 90.836,275.333 91.095,275.333 91.518 C 275.333 91.983,275.404 92.167,275.583 92.167 C 275.764 92.167,275.833 92.352,275.833 92.833 C 275.833 93.200,275.908 93.500,276.000 93.500 C 276.092 93.500,276.167 93.688,276.167 93.917 C 276.167 94.176,276.261 94.333,276.417 94.333 C 276.572 94.333,276.667 94.491,276.667 94.750 C 276.667 95.009,276.761 95.167,276.917 95.167 C 277.096 95.167,277.167 95.350,277.167 95.819 C 277.167 96.178,277.223 96.497,277.292 96.528 C 277.360 96.558,277.560 96.865,277.735 97.208 C 277.909 97.552,278.153 97.833,278.276 97.833 C 278.414 97.833,278.500 98.026,278.500 98.333 C 278.500 98.608,278.575 98.833,278.667 98.833 C 278.758 98.833,278.833 98.986,278.833 99.172 C 278.833 99.358,278.946 99.554,279.083 99.606 C 279.221 99.659,279.333 99.807,279.333 99.934 C 279.333 100.062,279.446 100.167,279.583 100.167 C 279.739 100.167,279.833 100.324,279.833 100.583 C 279.833 100.813,279.908 101.000,280.000 101.000 C 280.092 101.000,280.167 101.112,280.167 101.250 C 280.167 101.388,280.279 101.500,280.417 101.500 C 280.572 101.500,280.667 101.657,280.667 101.917 C 280.667 102.176,280.761 102.333,280.917 102.333 C 281.054 102.333,281.167 102.414,281.167 102.512 C 281.167 102.743,281.591 103.167,281.821 103.167 C 281.920 103.167,282.000 103.344,282.000 103.560 C 282.000 103.785,282.178 104.087,282.417 104.266 C 282.646 104.438,282.833 104.674,282.833 104.790 C 282.833 104.905,282.946 105.000,283.083 105.000 C 283.221 105.000,283.333 105.112,283.333 105.250 C 283.333 105.388,283.414 105.500,283.512 105.500 C 283.743 105.500,284.167 105.924,284.167 106.155 C 284.167 106.253,284.279 106.333,284.417 106.333 C 284.554 106.333,284.667 106.446,284.667 106.583 C 284.667 106.721,284.747 106.833,284.845 106.833 C 285.076 106.833,285.500 107.257,285.500 107.488 C 285.500 107.586,285.612 107.667,285.750 107.667 C 285.887 107.667,286.000 107.779,286.000 107.917 C 286.000 108.054,286.080 108.167,286.179 108.167 C 286.409 108.167,286.833 108.591,286.833 108.821 C 286.833 108.920,286.946 109.000,287.083 109.000 C 287.221 109.000,287.333 109.112,287.333 109.250 C 287.333 109.388,287.418 109.500,287.523 109.500 C 287.627 109.500,287.886 109.687,288.098 109.917 C 288.310 110.146,288.638 110.333,288.825 110.333 C 289.013 110.333,289.167 110.414,289.167 110.512 C 289.167 110.734,289.587 111.167,289.804 111.167 C 289.892 111.167,290.008 111.279,290.060 111.417 C 290.113 111.554,290.275 111.667,290.419 111.667 C 290.564 111.667,290.856 111.854,291.069 112.083 C 291.281 112.313,291.615 112.500,291.811 112.500 C 292.016 112.500,292.167 112.606,292.167 112.750 C 292.167 112.917,292.333 113.000,292.667 113.000 C 293.000 113.000,293.167 113.083,293.167 113.250 C 293.167 113.388,293.279 113.500,293.417 113.500 C 293.554 113.500,293.667 113.575,293.667 113.667 C 293.667 113.758,293.854 113.833,294.083 113.833 C 294.343 113.833,294.500 113.928,294.500 114.083 C 294.500 114.236,294.655 114.333,294.899 114.333 C 295.118 114.333,295.341 114.446,295.394 114.583 C 295.446 114.721,295.637 114.833,295.818 114.833 C 295.999 114.833,296.193 114.908,296.250 115.000 C 296.307 115.092,296.536 115.167,296.760 115.167 C 297.010 115.167,297.167 115.263,297.167 115.417 C 297.167 115.597,297.352 115.667,297.833 115.667 C 298.315 115.667,298.500 115.736,298.500 115.917 C 298.500 116.072,298.657 116.167,298.917 116.167 C 299.146 116.167,299.333 116.242,299.333 116.333 C 299.333 116.425,299.633 116.500,300.000 116.500 C 300.481 116.500,300.667 116.569,300.667 116.750 C 300.667 116.929,300.850 117.000,301.316 117.000 C 301.738 117.000,301.998 117.087,302.060 117.250 C 302.128 117.426,302.403 117.500,302.995 117.500 C 303.456 117.500,303.833 117.575,303.833 117.667 C 303.833 117.758,304.211 117.833,304.672 117.833 C 305.264 117.833,305.539 117.907,305.606 118.083 C 305.680 118.276,306.000 118.333,307.000 118.333 C 308.000 118.333,308.320 118.391,308.394 118.583 C 308.476 118.798,309.246 118.833,313.911 118.833 C 318.620 118.833,319.333 118.800,319.333 118.583 C 319.333 118.380,319.609 118.333,320.816 118.333 C 321.979 118.333,322.318 118.280,322.394 118.083 C 322.461 117.907,322.736 117.833,323.328 117.833 C 323.789 117.833,324.167 117.758,324.167 117.667 C 324.167 117.575,324.544 117.500,325.005 117.500 C 325.597 117.500,325.872 117.426,325.940 117.250 C 326.002 117.087,326.262 117.000,326.684 117.000 C 327.150 117.000,327.333 116.929,327.333 116.750 C 327.333 116.569,327.519 116.500,328.000 116.500 C 328.367 116.500,328.667 116.425,328.667 116.333 C 328.667 116.242,328.854 116.167,329.083 116.167 C 329.343 116.167,329.500 116.072,329.500 115.917 C 329.500 115.736,329.685 115.667,330.167 115.667 C 330.648 115.667,330.833 115.597,330.833 115.417 C 330.833 115.261,330.991 115.167,331.250 115.167 C 331.479 115.167,331.667 115.092,331.667 115.000 C 331.667 114.908,331.857 114.833,332.089 114.833 C 332.321 114.833,332.554 114.721,332.606 114.583 C 332.659 114.446,332.882 114.333,333.101 114.333 C 333.345 114.333,333.500 114.236,333.500 114.083 C 333.500 113.928,333.657 113.833,333.917 113.833 C 334.146 113.833,334.333 113.758,334.333 113.667 C 334.333 113.575,334.446 113.500,334.583 113.500 C 334.721 113.500,334.833 113.388,334.833 113.250 C 334.833 113.098,334.988 113.000,335.227 113.000 C 335.452 113.000,335.754 112.822,335.933 112.583 C 336.578 111.724,336.667 111.996,336.667 114.833 L 336.667 117.500 345.750 117.500 L 354.833 117.500 354.833 95.500 C 354.833 80.944,354.777 73.500,354.667 73.500 C 354.568 73.500,354.500 72.887,354.500 71.995 C 354.500 70.811,354.447 70.469,354.250 70.394 C 354.064 70.322,354.000 70.026,354.000 69.232 C 354.000 68.396,353.946 68.167,353.750 68.167 C 353.562 68.167,353.500 67.964,353.500 67.343 C 353.500 66.890,353.425 66.473,353.333 66.417 C 353.242 66.360,353.167 66.053,353.167 65.735 C 353.167 65.374,353.072 65.120,352.917 65.060 C 352.762 65.001,352.667 64.747,352.667 64.394 C 352.667 64.040,352.572 63.786,352.417 63.727 C 352.264 63.668,352.167 63.416,352.167 63.075 C 352.167 62.770,352.092 62.473,352.000 62.417 C 351.908 62.360,351.833 62.166,351.833 61.985 C 351.833 61.804,351.721 61.613,351.583 61.560 C 351.428 61.501,351.333 61.247,351.333 60.894 C 351.333 60.540,351.238 60.286,351.083 60.227 C 350.946 60.174,350.833 59.952,350.833 59.732 C 350.833 59.513,350.758 59.333,350.667 59.333 C 350.575 59.333,350.500 59.181,350.500 58.995 C 350.500 58.809,350.387 58.613,350.250 58.560 C 350.113 58.508,350.000 58.295,350.000 58.089 C 350.000 57.882,349.813 57.573,349.583 57.400 C 349.351 57.226,349.167 56.918,349.167 56.705 C 349.167 56.495,349.054 56.280,348.917 56.227 C 348.779 56.174,348.667 55.987,348.667 55.810 C 348.667 55.634,348.554 55.446,348.417 55.394 C 348.279 55.341,348.167 55.193,348.167 55.066 C 348.167 54.938,348.100 54.833,348.018 54.833 C 347.936 54.833,347.822 54.646,347.765 54.417 C 347.707 54.188,347.587 54.000,347.497 54.000 C 347.407 54.000,347.333 53.887,347.333 53.750 C 347.333 53.612,347.253 53.500,347.155 53.500 C 346.873 53.500,346.500 53.054,346.500 52.716 C 346.500 52.401,345.962 51.833,345.665 51.833 C 345.574 51.833,345.500 51.721,345.500 51.583 C 345.500 51.446,345.425 51.333,345.333 51.333 C 345.242 51.333,345.167 51.221,345.167 51.083 C 345.167 50.946,345.054 50.833,344.917 50.833 C 344.779 50.833,344.667 50.715,344.667 50.570 C 344.667 50.226,341.274 46.833,340.930 46.833 C 340.785 46.833,340.667 46.758,340.667 46.667 C 340.667 46.575,340.554 46.500,340.417 46.500 C 340.279 46.500,340.167 46.419,340.167 46.321 C 340.167 46.006,339.206 45.167,338.846 45.167 C 338.650 45.167,338.500 45.059,338.500 44.917 C 338.500 44.779,338.387 44.667,338.250 44.667 C 338.112 44.667,338.000 44.554,338.000 44.417 C 338.000 44.279,337.887 44.167,337.750 44.167 C 337.612 44.167,337.500 44.092,337.500 44.000 C 337.500 43.908,337.313 43.833,337.083 43.833 C 336.824 43.833,336.667 43.739,336.667 43.583 C 336.667 43.446,336.562 43.333,336.434 43.333 C 336.307 43.333,336.159 43.221,336.106 43.083 C 336.054 42.946,335.858 42.833,335.672 42.833 C 335.486 42.833,335.333 42.758,335.333 42.667 C 335.333 42.575,335.146 42.500,334.917 42.500 C 334.657 42.500,334.500 42.406,334.500 42.250 C 334.500 42.112,334.396 42.000,334.268 42.000 C 334.140 42.000,333.992 41.887,333.940 41.750 C 333.887 41.612,333.696 41.500,333.515 41.500 C 333.334 41.500,333.140 41.425,333.083 41.333 C 333.027 41.242,332.797 41.167,332.573 41.167 C 332.323 41.167,332.167 41.071,332.167 40.917 C 332.167 40.764,332.011 40.667,331.768 40.667 C 331.548 40.667,331.326 40.554,331.273 40.417 C 331.213 40.260,330.958 40.167,330.589 40.167 C 330.265 40.167,330.000 40.092,330.000 40.000 C 330.000 39.908,329.821 39.833,329.601 39.833 C 329.382 39.833,329.159 39.721,329.106 39.583 C 329.047 39.428,328.793 39.333,328.440 39.333 C 328.086 39.333,327.832 39.238,327.773 39.083 C 327.713 38.926,327.458 38.833,327.089 38.833 C 326.765 38.833,326.500 38.758,326.500 38.667 C 326.500 38.575,326.208 38.500,325.851 38.500 C 325.428 38.500,325.169 38.413,325.106 38.250 C 325.039 38.075,324.766 38.000,324.190 38.000 C 323.614 38.000,323.340 37.925,323.273 37.750 C 323.203 37.566,322.913 37.500,322.182 37.500 C 321.634 37.500,321.140 37.425,321.083 37.333 C 321.025 37.239,320.220 37.167,319.240 37.167 C 317.804 37.167,317.500 37.123,317.500 36.917 C 317.500 36.702,317.000 36.667,314.000 36.667 C 311.000 36.667,310.500 36.702,310.500 36.917 M172.667 37.333 C 172.667 37.434,171.972 37.500,170.917 37.500 C 169.472 37.500,169.167 37.544,169.167 37.750 C 169.167 37.948,168.926 38.000,168.000 38.000 C 167.074 38.000,166.833 38.052,166.833 38.250 C 166.833 38.439,166.630 38.500,166.000 38.500 C 165.542 38.500,165.167 38.575,165.167 38.667 C 165.167 38.758,164.789 38.833,164.328 38.833 C 163.736 38.833,163.461 38.907,163.394 39.083 C 163.334 39.238,163.081 39.333,162.727 39.333 C 162.373 39.333,162.120 39.428,162.060 39.583 C 162.008 39.721,161.785 39.833,161.566 39.833 C 161.346 39.833,161.167 39.908,161.167 40.000 C 161.167 40.092,160.867 40.167,160.500 40.167 C 160.019 40.167,159.833 40.236,159.833 40.417 C 159.833 40.583,159.667 40.667,159.333 40.667 C 159.000 40.667,158.833 40.750,158.833 40.917 C 158.833 41.072,158.676 41.167,158.417 41.167 C 158.188 41.167,158.000 41.242,158.000 41.333 C 158.000 41.425,157.813 41.500,157.583 41.500 C 157.324 41.500,157.167 41.594,157.167 41.750 C 157.167 41.917,157.000 42.000,156.667 42.000 C 156.333 42.000,156.167 42.083,156.167 42.250 C 156.167 42.406,156.009 42.500,155.750 42.500 C 155.521 42.500,155.333 42.575,155.333 42.667 C 155.333 42.758,155.221 42.833,155.083 42.833 C 154.946 42.833,154.833 42.946,154.833 43.083 C 154.833 43.239,154.676 43.333,154.417 43.333 C 154.157 43.333,154.000 43.428,154.000 43.583 C 154.000 43.739,153.843 43.833,153.583 43.833 C 153.354 43.833,153.167 43.908,153.167 44.000 C 153.167 44.092,153.054 44.167,152.917 44.167 C 152.779 44.167,152.667 44.279,152.667 44.417 C 152.667 44.554,152.554 44.667,152.417 44.667 C 152.279 44.667,152.167 44.779,152.167 44.917 C 152.167 45.059,152.017 45.167,151.821 45.167 C 151.461 45.167,150.500 46.006,150.500 46.321 C 150.500 46.419,150.387 46.500,150.250 46.500 C 150.112 46.500,150.000 46.575,150.000 46.667 C 150.000 46.758,149.887 46.833,149.750 46.833 C 149.612 46.833,149.500 46.946,149.500 47.083 C 149.500 47.221,149.381 47.333,149.237 47.333 C 148.840 47.333,146.500 49.744,146.500 50.153 C 146.500 50.344,146.419 50.500,146.321 50.500 C 146.087 50.500,145.167 51.421,145.167 51.654 C 145.167 51.753,145.054 51.833,144.917 51.833 C 144.761 51.833,144.667 51.991,144.667 52.250 C 144.667 52.509,144.572 52.667,144.417 52.667 C 144.279 52.667,144.167 52.761,144.167 52.877 C 144.167 52.993,143.979 53.228,143.750 53.400 C 143.512 53.579,143.333 53.882,143.333 54.107 C 143.333 54.323,143.248 54.500,143.143 54.500 C 142.863 54.500,142.511 55.028,142.505 55.458 C 142.502 55.678,142.397 55.833,142.250 55.833 C 142.094 55.833,142.000 55.991,142.000 56.250 C 142.000 56.509,141.906 56.667,141.750 56.667 C 141.612 56.667,141.500 56.779,141.500 56.917 C 141.500 57.054,141.425 57.167,141.333 57.167 C 141.242 57.167,141.167 57.354,141.167 57.583 C 141.167 57.843,141.072 58.000,140.917 58.000 C 140.764 58.000,140.667 58.155,140.667 58.399 C 140.667 58.618,140.554 58.841,140.417 58.894 C 140.279 58.946,140.167 59.179,140.167 59.411 C 140.167 59.643,140.092 59.833,140.000 59.833 C 139.908 59.833,139.833 60.133,139.833 60.500 C 139.833 60.981,139.764 61.167,139.583 61.167 C 139.431 61.167,139.333 61.322,139.333 61.566 C 139.333 61.785,139.221 62.008,139.083 62.060 C 138.926 62.120,138.833 62.375,138.833 62.745 C 138.833 63.068,138.758 63.333,138.667 63.333 C 138.575 63.333,138.500 63.633,138.500 64.000 C 138.500 64.481,138.431 64.667,138.250 64.667 C 138.074 64.667,138.000 64.844,138.000 65.262 C 138.000 65.589,137.887 65.970,137.750 66.107 C 137.603 66.254,137.500 66.661,137.500 67.095 C 137.500 67.501,137.425 67.833,137.333 67.833 C 137.237 67.833,137.167 68.355,137.167 69.066 C 137.167 70.007,137.108 70.320,136.917 70.394 C 136.716 70.470,136.667 70.838,136.667 72.245 C 136.667 73.694,136.623 74.000,136.417 74.000 C 136.201 74.000,136.167 74.565,136.167 78.089 C 136.167 81.569,136.204 82.191,136.417 82.273 C 136.617 82.350,136.667 82.716,136.667 84.106 C 136.667 85.497,136.717 85.863,136.917 85.940 C 137.103 86.011,137.167 86.308,137.167 87.101 C 137.167 87.700,137.240 88.167,137.333 88.167 C 137.425 88.167,137.500 88.544,137.500 89.005 C 137.500 89.597,137.574 89.872,137.750 89.940 C 137.920 90.005,138.000 90.271,138.000 90.773 C 138.000 91.275,138.080 91.541,138.250 91.606 C 138.413 91.669,138.500 91.928,138.500 92.351 C 138.500 92.708,138.575 93.000,138.667 93.000 C 138.758 93.000,138.833 93.188,138.833 93.417 C 138.833 93.676,138.928 93.833,139.083 93.833 C 139.264 93.833,139.333 94.019,139.333 94.500 C 139.333 94.981,139.403 95.167,139.583 95.167 C 139.750 95.167,139.833 95.333,139.833 95.667 C 139.833 95.942,139.908 96.167,140.000 96.167 C 140.092 96.167,140.167 96.354,140.167 96.583 C 140.167 96.843,140.261 97.000,140.417 97.000 C 140.572 97.000,140.667 97.157,140.667 97.417 C 140.667 97.676,140.761 97.833,140.917 97.833 C 141.083 97.833,141.167 98.000,141.167 98.333 C 141.167 98.608,141.242 98.833,141.333 98.833 C 141.425 98.833,141.500 99.021,141.500 99.250 C 141.500 99.509,141.594 99.667,141.750 99.667 C 141.906 99.667,142.000 99.824,142.000 100.083 C 142.000 100.343,142.094 100.500,142.250 100.500 C 142.387 100.500,142.500 100.612,142.500 100.750 C 142.500 100.888,142.575 101.000,142.667 101.000 C 142.758 101.000,142.833 101.152,142.833 101.339 C 142.833 101.525,142.946 101.720,143.083 101.773 C 143.221 101.826,143.333 101.973,143.333 102.101 C 143.333 102.229,143.446 102.333,143.583 102.333 C 143.739 102.333,143.833 102.491,143.833 102.750 C 143.833 102.979,143.908 103.167,144.000 103.167 C 144.092 103.167,144.167 103.279,144.167 103.417 C 144.167 103.554,144.279 103.667,144.417 103.667 C 144.554 103.667,144.667 103.779,144.667 103.917 C 144.667 104.054,144.779 104.167,144.917 104.167 C 145.072 104.167,145.167 104.324,145.167 104.583 C 145.167 104.819,145.263 105.000,145.389 105.000 C 145.511 105.000,145.711 105.188,145.833 105.417 C 145.956 105.646,146.156 105.833,146.278 105.833 C 146.400 105.833,146.500 105.914,146.500 106.013 C 146.500 106.246,147.421 107.167,147.654 107.167 C 147.753 107.167,147.833 107.247,147.833 107.346 C 147.833 107.579,148.754 108.500,148.987 108.500 C 149.086 108.500,149.167 108.581,149.167 108.679 C 149.167 108.994,150.128 109.833,150.487 109.833 C 150.684 109.833,150.833 109.941,150.833 110.083 C 150.833 110.221,150.946 110.333,151.083 110.333 C 151.221 110.333,151.333 110.446,151.333 110.583 C 151.333 110.721,151.446 110.833,151.583 110.833 C 151.721 110.833,151.833 110.908,151.833 111.000 C 151.833 111.092,152.021 111.167,152.250 111.167 C 152.509 111.167,152.667 111.261,152.667 111.417 C 152.667 111.554,152.779 111.667,152.917 111.667 C 153.054 111.667,153.167 111.779,153.167 111.917 C 153.167 112.072,153.324 112.167,153.583 112.167 C 153.813 112.167,154.000 112.242,154.000 112.333 C 154.000 112.425,154.112 112.500,154.250 112.500 C 154.387 112.500,154.500 112.612,154.500 112.750 C 154.500 112.906,154.657 113.000,154.917 113.000 C 155.176 113.000,155.333 113.094,155.333 113.250 C 155.333 113.388,155.446 113.500,155.583 113.500 C 155.721 113.500,155.833 113.575,155.833 113.667 C 155.833 113.758,156.013 113.833,156.232 113.833 C 156.452 113.833,156.674 113.946,156.727 114.083 C 156.780 114.221,157.005 114.333,157.227 114.333 C 157.449 114.333,157.674 114.446,157.727 114.583 C 157.780 114.721,157.975 114.833,158.161 114.833 C 158.348 114.833,158.500 114.908,158.500 115.000 C 158.500 115.092,158.800 115.167,159.167 115.167 C 159.648 115.167,159.833 115.236,159.833 115.417 C 159.833 115.572,159.991 115.667,160.250 115.667 C 160.509 115.667,160.667 115.761,160.667 115.917 C 160.667 116.097,160.852 116.167,161.333 116.167 C 161.700 116.167,162.000 116.242,162.000 116.333 C 162.000 116.425,162.300 116.500,162.667 116.500 C 163.148 116.500,163.333 116.569,163.333 116.750 C 163.333 116.931,163.519 117.000,164.000 117.000 C 164.481 117.000,164.667 117.069,164.667 117.250 C 164.667 117.442,164.880 117.500,165.583 117.500 C 166.087 117.500,166.500 117.575,166.500 117.667 C 166.500 117.758,166.877 117.833,167.339 117.833 C 167.930 117.833,168.205 117.907,168.273 118.083 C 168.348 118.280,168.687 118.333,169.851 118.333 C 171.058 118.333,171.333 118.380,171.333 118.583 C 171.333 118.801,172.102 118.833,177.255 118.833 C 182.365 118.833,183.190 118.799,183.273 118.583 C 183.347 118.390,183.669 118.333,184.684 118.333 C 185.743 118.333,186.000 118.284,186.000 118.083 C 186.000 117.887,186.231 117.833,187.083 117.833 C 187.694 117.833,188.167 117.761,188.167 117.667 C 188.167 117.575,188.544 117.500,189.005 117.500 C 189.597 117.500,189.872 117.426,189.940 117.250 C 190.002 117.087,190.262 117.000,190.684 117.000 C 191.150 117.000,191.333 116.929,191.333 116.750 C 191.333 116.569,191.519 116.500,192.000 116.500 C 192.367 116.500,192.667 116.425,192.667 116.333 C 192.667 116.242,192.854 116.167,193.083 116.167 C 193.343 116.167,193.500 116.072,193.500 115.917 C 193.500 115.736,193.685 115.667,194.167 115.667 C 194.648 115.667,194.833 115.597,194.833 115.417 C 194.833 115.250,195.000 115.167,195.333 115.167 C 195.608 115.167,195.833 115.092,195.833 115.000 C 195.833 114.908,196.021 114.833,196.250 114.833 C 196.509 114.833,196.667 114.739,196.667 114.583 C 196.667 114.428,196.824 114.333,197.083 114.333 C 197.343 114.333,197.500 114.239,197.500 114.083 C 197.500 113.929,197.656 113.833,197.907 113.833 C 198.131 113.833,198.360 113.758,198.417 113.667 C 198.473 113.575,198.668 113.500,198.848 113.500 C 199.029 113.500,199.220 113.388,199.273 113.250 C 199.326 113.112,199.473 113.000,199.601 113.000 C 199.729 113.000,199.833 112.888,199.833 112.750 C 199.833 112.606,199.984 112.500,200.189 112.500 C 200.385 112.500,200.719 112.313,200.931 112.083 C 201.144 111.854,201.436 111.667,201.581 111.667 C 201.725 111.667,201.887 111.554,201.940 111.417 C 201.992 111.279,202.108 111.167,202.196 111.167 C 202.413 111.167,202.833 110.734,202.833 110.512 C 202.833 110.414,202.987 110.333,203.175 110.333 C 203.362 110.333,203.690 110.146,203.902 109.917 C 204.114 109.688,204.373 109.500,204.477 109.500 C 204.582 109.500,204.667 109.388,204.667 109.250 C 204.667 109.112,204.779 109.000,204.917 109.000 C 205.054 109.000,205.167 108.920,205.167 108.821 C 205.167 108.591,205.591 108.167,205.821 108.167 C 205.920 108.167,206.000 108.054,206.000 107.917 C 206.000 107.779,206.112 107.667,206.250 107.667 C 206.387 107.667,206.500 107.586,206.500 107.488 C 206.500 107.257,206.924 106.833,207.155 106.833 C 207.253 106.833,207.333 106.755,207.333 106.660 C 207.333 106.565,207.633 106.201,208.000 105.852 C 208.375 105.495,208.667 105.061,208.667 104.859 C 208.667 104.662,208.747 104.500,208.845 104.500 C 209.076 104.500,209.500 104.076,209.500 103.845 C 209.500 103.747,209.612 103.667,209.750 103.667 C 209.906 103.667,210.000 103.509,210.000 103.250 C 210.000 102.991,210.094 102.833,210.250 102.833 C 210.387 102.833,210.500 102.721,210.500 102.583 C 210.500 102.446,210.575 102.333,210.667 102.333 C 210.758 102.333,210.833 102.146,210.833 101.917 C 210.833 101.657,210.928 101.500,211.083 101.500 C 211.264 101.500,211.333 101.315,211.333 100.833 C 211.333 100.352,211.264 100.167,211.083 100.167 C 210.946 100.167,210.833 100.054,210.833 99.917 C 210.833 99.761,210.676 99.667,210.417 99.667 C 210.188 99.667,210.000 99.592,210.000 99.500 C 210.000 99.408,209.887 99.333,209.750 99.333 C 209.612 99.333,209.500 99.221,209.500 99.083 C 209.500 98.931,209.345 98.833,209.101 98.833 C 208.882 98.833,208.659 98.721,208.606 98.583 C 208.554 98.446,208.358 98.333,208.172 98.333 C 207.986 98.333,207.833 98.258,207.833 98.167 C 207.833 98.075,207.608 98.000,207.333 98.000 C 207.000 98.000,206.833 97.917,206.833 97.750 C 206.833 97.612,206.729 97.500,206.601 97.500 C 206.473 97.500,206.326 97.388,206.273 97.250 C 206.220 97.112,206.025 97.000,205.839 97.000 C 205.652 97.000,205.500 96.925,205.500 96.833 C 205.500 96.742,205.313 96.667,205.083 96.667 C 204.824 96.667,204.667 96.572,204.667 96.417 C 204.667 96.279,204.562 96.167,204.434 96.167 C 204.307 96.167,204.159 96.054,204.106 95.917 C 204.054 95.779,203.858 95.667,203.672 95.667 C 203.486 95.667,203.333 95.592,203.333 95.500 C 203.333 95.408,203.146 95.333,202.917 95.333 C 202.657 95.333,202.500 95.239,202.500 95.083 C 202.500 94.917,202.333 94.833,202.000 94.833 C 201.667 94.833,201.500 94.750,201.500 94.583 C 201.500 94.446,201.387 94.333,201.250 94.333 C 201.112 94.333,201.000 94.258,201.000 94.167 C 201.000 94.075,200.813 94.000,200.583 94.000 C 200.324 94.000,200.167 93.906,200.167 93.750 C 200.167 93.594,200.009 93.500,199.750 93.500 C 199.491 93.500,199.333 93.406,199.333 93.250 C 199.333 93.112,199.221 93.000,199.083 93.000 C 198.946 93.000,198.833 92.925,198.833 92.833 C 198.833 92.742,198.646 92.667,198.417 92.667 C 198.157 92.667,198.000 92.572,198.000 92.417 C 198.000 92.264,197.845 92.167,197.601 92.167 C 197.382 92.167,197.159 92.054,197.106 91.917 C 197.054 91.779,196.821 91.667,196.589 91.667 C 196.357 91.667,196.167 91.586,196.167 91.488 C 196.167 91.177,195.423 91.402,195.360 91.732 C 195.327 91.905,195.120 92.214,194.900 92.418 C 194.680 92.621,194.500 92.948,194.500 93.144 C 194.500 93.349,194.394 93.500,194.250 93.500 C 194.112 93.500,194.000 93.612,194.000 93.750 C 194.000 93.888,193.887 94.000,193.750 94.000 C 193.612 94.000,193.500 94.060,193.500 94.132 C 193.500 94.340,192.214 95.667,192.013 95.667 C 191.914 95.667,191.833 95.779,191.833 95.917 C 191.833 96.054,191.721 96.167,191.583 96.167 C 191.446 96.167,191.333 96.279,191.333 96.417 C 191.333 96.554,191.221 96.667,191.083 96.667 C 190.946 96.667,190.833 96.742,190.833 96.833 C 190.833 96.925,190.681 97.000,190.495 97.000 C 190.309 97.000,190.113 97.112,190.060 97.250 C 190.008 97.388,189.860 97.500,189.732 97.500 C 189.604 97.500,189.500 97.612,189.500 97.750 C 189.500 97.906,189.343 98.000,189.083 98.000 C 188.854 98.000,188.667 98.075,188.667 98.167 C 188.667 98.258,188.479 98.333,188.250 98.333 C 187.991 98.333,187.833 98.428,187.833 98.583 C 187.833 98.750,187.667 98.833,187.333 98.833 C 187.000 98.833,186.833 98.917,186.833 99.083 C 186.833 99.258,186.657 99.333,186.250 99.333 C 185.929 99.333,185.667 99.408,185.667 99.500 C 185.667 99.592,185.402 99.667,185.078 99.667 C 184.709 99.667,184.454 99.760,184.394 99.917 C 184.325 100.096,184.044 100.167,183.399 100.167 C 182.711 100.167,182.500 100.225,182.500 100.417 C 182.500 100.618,182.241 100.667,181.167 100.667 C 180.389 100.667,179.833 100.736,179.833 100.833 C 179.833 100.937,178.889 101.000,177.333 101.000 C 175.778 101.000,174.833 100.937,174.833 100.833 C 174.833 100.736,174.278 100.667,173.500 100.667 C 172.426 100.667,172.167 100.618,172.167 100.417 C 172.167 100.225,171.956 100.167,171.268 100.167 C 170.623 100.167,170.342 100.096,170.273 99.917 C 170.213 99.760,169.958 99.667,169.589 99.667 C 169.265 99.667,169.000 99.592,169.000 99.500 C 169.000 99.408,168.746 99.333,168.434 99.333 C 168.086 99.333,167.832 99.238,167.773 99.083 C 167.720 98.946,167.487 98.833,167.255 98.833 C 166.991 98.833,166.833 98.740,166.833 98.583 C 166.833 98.428,166.676 98.333,166.417 98.333 C 166.188 98.333,166.000 98.258,166.000 98.167 C 166.000 98.075,165.813 98.000,165.583 98.000 C 165.324 98.000,165.167 97.906,165.167 97.750 C 165.167 97.583,165.000 97.500,164.667 97.500 C 164.392 97.500,164.167 97.420,164.167 97.321 C 164.167 97.099,163.746 96.667,163.530 96.667 C 163.441 96.667,163.326 96.554,163.273 96.417 C 163.220 96.279,163.025 96.167,162.839 96.167 C 162.649 96.167,162.500 96.057,162.500 95.917 C 162.500 95.779,162.387 95.667,162.250 95.667 C 162.112 95.667,162.000 95.592,162.000 95.500 C 162.000 95.408,161.887 95.333,161.750 95.333 C 161.612 95.333,161.500 95.253,161.500 95.154 C 161.500 94.921,160.579 94.000,160.346 94.000 C 160.247 94.000,160.167 93.915,160.167 93.811 C 160.167 93.707,159.979 93.448,159.750 93.235 C 159.521 93.023,159.333 92.731,159.333 92.586 C 159.333 92.441,159.221 92.280,159.083 92.227 C 158.946 92.174,158.833 92.027,158.833 91.899 C 158.833 91.771,158.763 91.667,158.678 91.667 C 158.592 91.667,158.469 91.498,158.405 91.292 C 158.340 91.085,158.110 90.751,157.894 90.550 C 157.677 90.348,157.500 90.029,157.500 89.841 C 157.500 89.654,157.425 89.500,157.333 89.500 C 157.242 89.500,157.167 89.348,157.167 89.161 C 157.167 88.975,157.054 88.780,156.917 88.727 C 156.779 88.674,156.667 88.449,156.667 88.227 C 156.667 88.005,156.554 87.780,156.417 87.727 C 156.279 87.674,156.167 87.564,156.167 87.483 C 156.167 87.397,168.481 87.317,185.458 87.292 L 214.750 87.250 214.800 86.002 C 214.835 85.125,214.921 84.714,215.091 84.619 C 215.461 84.412,215.453 71.869,215.083 71.727 C 214.893 71.654,214.833 71.341,214.833 70.409 C 214.833 69.736,214.767 69.146,214.687 69.096 C 214.606 69.046,214.507 68.540,214.466 67.971 C 214.424 67.389,214.305 66.907,214.195 66.871 C 214.088 66.835,214.000 66.512,214.000 66.153 C 214.000 65.684,213.930 65.500,213.750 65.500 C 213.561 65.500,213.500 65.296,213.500 64.667 C 213.500 64.208,213.425 63.833,213.333 63.833 C 213.242 63.833,213.167 63.643,213.167 63.411 C 213.167 63.179,213.054 62.946,212.917 62.894 C 212.754 62.831,212.667 62.572,212.667 62.149 C 212.667 61.683,212.596 61.500,212.417 61.500 C 212.261 61.500,212.167 61.343,212.167 61.083 C 212.167 60.854,212.092 60.667,212.000 60.667 C 211.908 60.667,211.833 60.447,211.833 60.179 C 211.833 59.910,211.721 59.578,211.583 59.440 C 211.446 59.303,211.333 59.035,211.333 58.845 C 211.333 58.649,211.225 58.500,211.083 58.500 C 210.917 58.500,210.833 58.333,210.833 58.000 C 210.833 57.725,210.766 57.500,210.685 57.500 C 210.603 57.500,210.489 57.313,210.432 57.083 C 210.374 56.854,210.253 56.667,210.163 56.667 C 210.074 56.667,210.000 56.554,210.000 56.417 C 210.000 56.279,209.887 56.167,209.750 56.167 C 209.594 56.167,209.500 56.009,209.500 55.750 C 209.500 55.521,209.433 55.333,209.351 55.333 C 209.270 55.333,209.156 55.146,209.098 54.917 C 209.041 54.688,208.920 54.500,208.830 54.500 C 208.740 54.500,208.667 54.387,208.667 54.250 C 208.667 54.112,208.554 54.000,208.417 54.000 C 208.261 54.000,208.167 53.843,208.167 53.583 C 208.167 53.354,208.092 53.167,208.000 53.167 C 207.908 53.167,207.833 53.054,207.833 52.917 C 207.833 52.779,207.721 52.667,207.583 52.667 C 207.446 52.667,207.333 52.554,207.333 52.417 C 207.333 52.279,207.221 52.167,207.083 52.167 C 206.941 52.167,206.833 52.017,206.833 51.821 C 206.833 51.461,205.994 50.500,205.679 50.500 C 205.581 50.500,205.500 50.387,205.500 50.250 C 205.500 50.112,205.425 50.000,205.333 50.000 C 205.242 50.000,205.167 49.887,205.167 49.749 C 205.167 49.352,202.255 46.500,201.850 46.500 C 201.658 46.500,201.500 46.419,201.500 46.321 C 201.500 46.087,200.579 45.167,200.346 45.167 C 200.247 45.167,200.167 45.054,200.167 44.917 C 200.167 44.761,200.009 44.667,199.750 44.667 C 199.491 44.667,199.333 44.572,199.333 44.417 C 199.333 44.279,199.248 44.167,199.144 44.167 C 199.040 44.167,198.781 43.979,198.569 43.750 C 198.356 43.521,198.029 43.333,197.841 43.333 C 197.649 43.333,197.500 43.224,197.500 43.083 C 197.500 42.946,197.387 42.833,197.250 42.833 C 197.112 42.833,197.000 42.758,197.000 42.667 C 197.000 42.575,196.813 42.500,196.583 42.500 C 196.324 42.500,196.167 42.406,196.167 42.250 C 196.167 42.094,196.009 42.000,195.750 42.000 C 195.491 42.000,195.333 41.906,195.333 41.750 C 195.333 41.594,195.176 41.500,194.917 41.500 C 194.688 41.500,194.500 41.425,194.500 41.333 C 194.500 41.242,194.275 41.167,194.000 41.167 C 193.667 41.167,193.500 41.083,193.500 40.917 C 193.500 40.761,193.343 40.667,193.083 40.667 C 192.824 40.667,192.667 40.572,192.667 40.417 C 192.667 40.263,192.510 40.167,192.260 40.167 C 192.036 40.167,191.807 40.092,191.750 40.000 C 191.693 39.908,191.389 39.833,191.073 39.833 C 190.675 39.833,190.500 39.757,190.500 39.583 C 190.500 39.404,190.317 39.333,189.851 39.333 C 189.428 39.333,189.169 39.246,189.106 39.083 C 189.046 38.926,188.791 38.833,188.422 38.833 C 188.098 38.833,187.833 38.758,187.833 38.667 C 187.833 38.575,187.421 38.500,186.917 38.500 C 186.213 38.500,186.000 38.442,186.000 38.250 C 186.000 38.059,185.789 38.000,185.101 38.000 C 184.456 38.000,184.175 37.929,184.106 37.750 C 184.030 37.551,183.671 37.500,182.339 37.500 C 181.335 37.500,180.667 37.433,180.667 37.333 C 180.667 37.227,179.222 37.167,176.667 37.167 C 174.111 37.167,172.667 37.227,172.667 37.333 M249.167 78.000 L 249.167 117.500 258.250 117.500 L 267.333 117.500 267.333 78.000 L 267.333 38.500 258.250 38.500 L 249.167 38.500 249.167 78.000 M180.667 55.500 C 180.667 55.592,181.079 55.667,181.583 55.667 C 182.287 55.667,182.500 55.725,182.500 55.917 C 182.500 56.097,182.685 56.167,183.167 56.167 C 183.648 56.167,183.833 56.236,183.833 56.417 C 183.833 56.597,184.019 56.667,184.500 56.667 C 184.867 56.667,185.167 56.742,185.167 56.833 C 185.167 56.925,185.354 57.000,185.583 57.000 C 185.843 57.000,186.000 57.094,186.000 57.250 C 186.000 57.387,186.104 57.500,186.232 57.500 C 186.360 57.500,186.508 57.612,186.560 57.750 C 186.613 57.887,186.809 58.000,186.995 58.000 C 187.181 58.000,187.333 58.075,187.333 58.167 C 187.333 58.258,187.521 58.333,187.750 58.333 C 188.009 58.333,188.167 58.428,188.167 58.583 C 188.167 58.721,188.279 58.833,188.417 58.833 C 188.554 58.833,188.667 58.946,188.667 59.083 C 188.667 59.221,188.752 59.333,188.856 59.333 C 188.960 59.333,189.219 59.521,189.431 59.750 C 189.644 59.979,189.971 60.167,190.159 60.167 C 190.346 60.167,190.500 60.247,190.500 60.345 C 190.500 60.576,190.924 61.000,191.155 61.000 C 191.253 61.000,191.333 61.162,191.333 61.359 C 191.333 61.561,191.625 61.995,192.000 62.352 C 192.367 62.701,192.667 63.065,192.667 63.160 C 192.667 63.255,192.779 63.333,192.917 63.333 C 193.072 63.333,193.167 63.491,193.167 63.750 C 193.167 63.979,193.234 64.167,193.315 64.167 C 193.397 64.167,193.511 64.354,193.568 64.583 C 193.626 64.813,193.747 65.000,193.837 65.000 C 193.926 65.000,194.000 65.112,194.000 65.250 C 194.000 65.387,194.112 65.500,194.250 65.500 C 194.406 65.500,194.500 65.657,194.500 65.917 C 194.500 66.146,194.575 66.333,194.667 66.333 C 194.758 66.333,194.833 66.523,194.833 66.755 C 194.833 66.987,194.946 67.220,195.083 67.273 C 195.238 67.332,195.333 67.586,195.333 67.940 C 195.333 68.293,195.428 68.547,195.583 68.606 C 196.484 68.952,194.102 69.000,176.000 69.000 C 158.481 69.000,156.167 68.971,156.167 68.750 C 156.167 68.612,156.279 68.500,156.417 68.500 C 156.590 68.500,156.667 68.326,156.667 67.934 C 156.667 67.586,156.762 67.332,156.917 67.273 C 157.054 67.220,157.167 66.987,157.167 66.755 C 157.167 66.523,157.242 66.333,157.333 66.333 C 157.425 66.333,157.500 66.221,157.500 66.083 C 157.500 65.946,157.612 65.833,157.750 65.833 C 157.903 65.833,158.000 65.678,158.000 65.434 C 158.000 65.215,158.112 64.992,158.250 64.940 C 158.387 64.887,158.500 64.691,158.500 64.505 C 158.500 64.319,158.575 64.167,158.667 64.167 C 158.758 64.167,158.833 64.054,158.833 63.917 C 158.833 63.779,158.946 63.667,159.083 63.667 C 159.221 63.667,159.333 63.554,159.333 63.417 C 159.333 63.279,159.403 63.167,159.489 63.167 C 159.574 63.167,159.697 63.001,159.761 62.799 C 159.897 62.370,160.234 62.000,160.488 62.000 C 160.586 62.000,160.667 61.887,160.667 61.750 C 160.667 61.612,160.779 61.500,160.917 61.500 C 161.054 61.500,161.167 61.420,161.167 61.321 C 161.167 61.091,161.591 60.667,161.821 60.667 C 161.920 60.667,162.000 60.554,162.000 60.417 C 162.000 60.261,162.157 60.167,162.417 60.167 C 162.676 60.167,162.833 60.072,162.833 59.917 C 162.833 59.779,162.918 59.667,163.023 59.667 C 163.127 59.667,163.386 59.479,163.598 59.250 C 163.810 59.021,164.103 58.833,164.247 58.833 C 164.392 58.833,164.554 58.721,164.606 58.583 C 164.659 58.446,164.807 58.333,164.934 58.333 C 165.062 58.333,165.167 58.258,165.167 58.167 C 165.167 58.075,165.354 58.000,165.583 58.000 C 165.843 58.000,166.000 57.906,166.000 57.750 C 166.000 57.594,166.157 57.500,166.417 57.500 C 166.676 57.500,166.833 57.406,166.833 57.250 C 166.833 57.083,167.000 57.000,167.333 57.000 C 167.608 57.000,167.833 56.925,167.833 56.833 C 167.833 56.742,168.098 56.667,168.422 56.667 C 168.791 56.667,169.046 56.574,169.106 56.417 C 169.169 56.254,169.428 56.167,169.851 56.167 C 170.317 56.167,170.500 56.096,170.500 55.917 C 170.500 55.720,170.731 55.667,171.583 55.667 C 172.194 55.667,172.667 55.594,172.667 55.500 C 172.667 55.394,174.111 55.333,176.667 55.333 C 179.222 55.333,180.667 55.394,180.667 55.500 M317.667 55.500 C 317.667 55.594,318.139 55.667,318.750 55.667 C 319.602 55.667,319.833 55.720,319.833 55.917 C 319.833 56.097,320.019 56.167,320.500 56.167 C 320.981 56.167,321.167 56.236,321.167 56.417 C 321.167 56.597,321.352 56.667,321.833 56.667 C 322.200 56.667,322.500 56.742,322.500 56.833 C 322.500 56.925,322.688 57.000,322.917 57.000 C 323.176 57.000,323.333 57.094,323.333 57.250 C 323.333 57.403,323.489 57.500,323.732 57.500 C 323.952 57.500,324.174 57.612,324.227 57.750 C 324.280 57.887,324.485 58.000,324.684 58.000 C 324.883 58.000,325.219 58.188,325.431 58.417 C 325.644 58.646,325.971 58.833,326.159 58.833 C 326.351 58.833,326.500 58.943,326.500 59.083 C 326.500 59.221,326.612 59.333,326.750 59.333 C 326.887 59.333,327.000 59.408,327.000 59.500 C 327.000 59.592,327.188 59.667,327.417 59.667 C 327.646 59.667,327.833 59.747,327.833 59.846 C 327.833 60.079,328.754 61.000,328.987 61.000 C 329.086 61.000,329.167 61.081,329.167 61.179 C 329.167 61.413,330.087 62.333,330.321 62.333 C 330.419 62.333,330.500 62.414,330.500 62.513 C 330.500 62.746,331.421 63.667,331.654 63.667 C 331.753 63.667,331.833 63.827,331.833 64.023 C 331.833 64.218,332.021 64.552,332.250 64.765 C 332.479 64.977,332.667 65.229,332.667 65.325 C 332.667 65.421,332.779 65.500,332.917 65.500 C 333.072 65.500,333.167 65.657,333.167 65.917 C 333.167 66.146,333.242 66.333,333.333 66.333 C 333.425 66.333,333.500 66.474,333.500 66.646 C 333.500 66.818,333.612 67.053,333.750 67.167 C 333.887 67.281,334.000 67.552,334.000 67.770 C 334.000 68.012,334.098 68.167,334.250 68.167 C 334.406 68.167,334.500 68.324,334.500 68.583 C 334.500 68.813,334.575 69.000,334.667 69.000 C 334.758 69.000,334.833 69.190,334.833 69.422 C 334.833 69.654,334.946 69.887,335.083 69.940 C 335.238 69.999,335.333 70.253,335.333 70.606 C 335.333 70.960,335.428 71.214,335.583 71.273 C 335.758 71.340,335.833 71.613,335.833 72.184 C 335.833 72.633,335.908 73.000,336.000 73.000 C 336.096 73.000,336.167 73.530,336.167 74.255 C 336.167 75.217,336.225 75.533,336.417 75.606 C 336.622 75.685,336.667 76.102,336.667 77.917 C 336.667 79.731,336.622 80.148,336.417 80.227 C 336.230 80.299,336.167 80.598,336.167 81.411 C 336.167 82.026,336.094 82.500,336.000 82.500 C 335.908 82.500,335.833 82.875,335.833 83.333 C 335.833 83.963,335.772 84.167,335.583 84.167 C 335.404 84.167,335.333 84.350,335.333 84.816 C 335.333 85.238,335.246 85.498,335.083 85.560 C 334.926 85.620,334.833 85.875,334.833 86.245 C 334.833 86.568,334.758 86.833,334.667 86.833 C 334.575 86.833,334.500 87.013,334.500 87.232 C 334.500 87.452,334.387 87.674,334.250 87.727 C 334.112 87.780,334.000 88.013,334.000 88.245 C 334.000 88.509,333.906 88.667,333.750 88.667 C 333.612 88.667,333.500 88.779,333.500 88.917 C 333.500 89.054,333.425 89.167,333.333 89.167 C 333.242 89.167,333.167 89.354,333.167 89.583 C 333.167 89.843,333.072 90.000,332.917 90.000 C 332.761 90.000,332.667 90.157,332.667 90.417 C 332.667 90.676,332.572 90.833,332.417 90.833 C 332.279 90.833,332.167 90.946,332.167 91.083 C 332.167 91.221,332.092 91.333,332.000 91.333 C 331.908 91.333,331.833 91.446,331.833 91.583 C 331.833 91.721,331.753 91.833,331.655 91.833 C 331.401 91.833,331.064 92.204,330.927 92.633 C 330.863 92.835,330.741 93.000,330.655 93.000 C 330.570 93.000,330.500 93.112,330.500 93.250 C 330.500 93.388,330.387 93.500,330.250 93.500 C 330.112 93.500,330.000 93.612,330.000 93.750 C 330.000 93.888,329.920 94.000,329.821 94.000 C 329.591 94.000,329.167 94.424,329.167 94.655 C 329.167 94.753,329.054 94.833,328.917 94.833 C 328.779 94.833,328.667 94.946,328.667 95.083 C 328.667 95.239,328.509 95.333,328.250 95.333 C 328.021 95.333,327.833 95.408,327.833 95.500 C 327.833 95.592,327.721 95.667,327.583 95.667 C 327.446 95.667,327.333 95.779,327.333 95.917 C 327.333 96.054,327.221 96.167,327.083 96.167 C 326.946 96.167,326.833 96.279,326.833 96.417 C 326.833 96.572,326.676 96.667,326.417 96.667 C 326.188 96.667,326.000 96.742,326.000 96.833 C 326.000 96.925,325.887 97.000,325.750 97.000 C 325.612 97.000,325.500 97.112,325.500 97.250 C 325.500 97.406,325.343 97.500,325.083 97.500 C 324.824 97.500,324.667 97.594,324.667 97.750 C 324.667 97.906,324.509 98.000,324.250 98.000 C 324.021 98.000,323.833 98.075,323.833 98.167 C 323.833 98.258,323.643 98.333,323.411 98.333 C 323.179 98.333,322.946 98.446,322.894 98.583 C 322.835 98.735,322.583 98.833,322.250 98.833 C 321.917 98.833,321.665 98.931,321.606 99.083 C 321.554 99.221,321.321 99.333,321.089 99.333 C 320.857 99.333,320.667 99.408,320.667 99.500 C 320.667 99.592,320.289 99.667,319.828 99.667 C 319.236 99.667,318.961 99.740,318.894 99.917 C 318.820 100.107,318.509 100.167,317.583 100.167 C 316.658 100.167,316.346 100.226,316.273 100.417 C 316.194 100.623,315.754 100.667,313.755 100.667 C 311.714 100.667,311.333 100.627,311.333 100.417 C 311.333 100.221,311.104 100.167,310.268 100.167 C 309.474 100.167,309.178 100.103,309.106 99.917 C 309.039 99.740,308.764 99.667,308.172 99.667 C 307.711 99.667,307.333 99.592,307.333 99.500 C 307.333 99.408,307.033 99.333,306.667 99.333 C 306.185 99.333,306.000 99.264,306.000 99.083 C 306.000 98.931,305.845 98.833,305.601 98.833 C 305.382 98.833,305.159 98.721,305.106 98.583 C 305.054 98.446,304.821 98.333,304.589 98.333 C 304.357 98.333,304.167 98.258,304.167 98.167 C 304.167 98.075,303.979 98.000,303.750 98.000 C 303.491 98.000,303.333 97.906,303.333 97.750 C 303.333 97.609,303.184 97.500,302.992 97.500 C 302.804 97.500,302.477 97.313,302.265 97.083 C 302.052 96.854,301.718 96.667,301.523 96.667 C 301.317 96.667,301.167 96.561,301.167 96.417 C 301.167 96.279,301.088 96.167,300.992 96.167 C 300.896 96.167,300.644 95.979,300.431 95.750 C 300.219 95.521,299.885 95.333,299.689 95.333 C 299.484 95.333,299.333 95.228,299.333 95.083 C 299.333 94.946,299.221 94.833,299.083 94.833 C 298.946 94.833,298.833 94.753,298.833 94.655 C 298.833 94.424,298.409 94.000,298.179 94.000 C 298.080 94.000,298.000 93.888,298.000 93.750 C 298.000 93.612,297.887 93.500,297.750 93.500 C 297.612 93.500,297.500 93.420,297.500 93.321 C 297.500 93.091,297.076 92.667,296.845 92.667 C 296.747 92.667,296.667 92.479,296.667 92.250 C 296.667 91.991,296.572 91.833,296.417 91.833 C 296.279 91.833,296.167 91.721,296.167 91.583 C 296.167 91.446,296.092 91.333,296.000 91.333 C 295.908 91.333,295.833 91.221,295.833 91.083 C 295.833 90.946,295.721 90.833,295.583 90.833 C 295.443 90.833,295.333 90.685,295.333 90.495 C 295.333 90.309,295.221 90.113,295.083 90.060 C 294.946 90.008,294.833 89.860,294.833 89.732 C 294.833 89.604,294.758 89.500,294.667 89.500 C 294.575 89.500,294.500 89.313,294.500 89.083 C 294.500 88.824,294.406 88.667,294.250 88.667 C 294.094 88.667,294.000 88.509,294.000 88.245 C 294.000 88.013,293.887 87.780,293.750 87.727 C 293.612 87.674,293.500 87.452,293.500 87.232 C 293.500 87.013,293.435 86.833,293.355 86.833 C 293.275 86.833,293.161 86.533,293.103 86.167 C 293.044 85.800,292.922 85.500,292.831 85.500 C 292.741 85.500,292.667 85.313,292.667 85.083 C 292.667 84.824,292.572 84.667,292.417 84.667 C 292.225 84.667,292.167 84.454,292.167 83.750 C 292.167 83.246,292.092 82.833,292.000 82.833 C 291.906 82.833,291.833 82.361,291.833 81.750 C 291.833 80.898,291.780 80.667,291.583 80.667 C 291.372 80.667,291.333 80.262,291.333 78.020 C 291.333 75.872,291.380 75.335,291.583 75.167 C 291.754 75.025,291.833 74.647,291.833 73.980 C 291.833 73.438,291.908 73.000,292.000 73.000 C 292.092 73.000,292.167 72.633,292.167 72.184 C 292.167 71.613,292.242 71.340,292.417 71.273 C 292.572 71.214,292.667 70.960,292.667 70.606 C 292.667 70.253,292.762 69.999,292.917 69.940 C 293.054 69.887,293.167 69.654,293.167 69.422 C 293.167 69.190,293.242 69.000,293.333 69.000 C 293.425 69.000,293.500 68.700,293.500 68.333 C 293.500 67.852,293.569 67.667,293.750 67.667 C 293.887 67.667,294.000 67.554,294.000 67.417 C 294.000 67.279,294.074 67.167,294.163 67.167 C 294.253 67.167,294.374 66.979,294.432 66.750 C 294.489 66.521,294.603 66.333,294.685 66.333 C 294.766 66.333,294.833 66.146,294.833 65.917 C 294.833 65.657,294.928 65.500,295.083 65.500 C 295.221 65.500,295.333 65.387,295.333 65.250 C 295.333 65.112,295.407 65.000,295.497 65.000 C 295.587 65.000,295.707 64.813,295.765 64.583 C 295.822 64.354,295.936 64.167,296.018 64.167 C 296.100 64.167,296.167 64.054,296.167 63.917 C 296.167 63.779,296.261 63.667,296.377 63.667 C 296.492 63.667,296.774 63.437,297.002 63.156 C 297.694 62.305,298.507 61.500,298.675 61.500 C 298.762 61.500,298.833 61.387,298.833 61.250 C 298.833 61.112,298.914 61.000,299.013 61.000 C 299.246 61.000,300.167 60.079,300.167 59.846 C 300.167 59.747,300.354 59.667,300.583 59.667 C 300.813 59.667,301.000 59.592,301.000 59.500 C 301.000 59.408,301.112 59.333,301.250 59.333 C 301.387 59.333,301.500 59.221,301.500 59.083 C 301.500 58.946,301.612 58.833,301.750 58.833 C 301.887 58.833,302.000 58.721,302.000 58.583 C 302.000 58.428,302.157 58.333,302.417 58.333 C 302.646 58.333,302.833 58.258,302.833 58.167 C 302.833 58.075,303.023 58.000,303.255 58.000 C 303.487 58.000,303.720 57.887,303.773 57.750 C 303.826 57.612,304.048 57.500,304.268 57.500 C 304.511 57.500,304.667 57.403,304.667 57.250 C 304.667 57.094,304.824 57.000,305.083 57.000 C 305.313 57.000,305.500 56.925,305.500 56.833 C 305.500 56.742,305.800 56.667,306.167 56.667 C 306.648 56.667,306.833 56.597,306.833 56.417 C 306.833 56.236,307.019 56.167,307.500 56.167 C 307.981 56.167,308.167 56.097,308.167 55.917 C 308.167 55.725,308.380 55.667,309.083 55.667 C 309.587 55.667,310.000 55.592,310.000 55.500 C 310.000 55.394,311.389 55.333,313.833 55.333 C 316.278 55.333,317.667 55.394,317.667 55.500 " stroke="none" fill="#fcfcfc" fill-rule="evenodd"></path><path id="path1" d="M339.728 4.064 C 339.349 4.459,338.987 4.944,338.925 5.141 C 338.862 5.338,338.741 5.500,338.655 5.500 C 338.570 5.500,338.500 5.612,338.500 5.750 C 338.500 5.888,338.387 6.000,338.250 6.000 C 338.109 6.000,338.000 6.149,338.000 6.341 C 338.000 6.529,337.813 6.856,337.583 7.069 C 337.354 7.281,337.167 7.615,337.167 7.811 C 337.167 8.016,337.061 8.167,336.917 8.167 C 336.779 8.167,336.667 8.279,336.667 8.417 C 336.667 8.554,336.598 8.667,336.513 8.667 C 336.429 8.667,336.310 8.892,336.250 9.167 C 336.190 9.442,336.071 9.667,335.987 9.667 C 335.902 9.667,335.833 9.929,335.833 10.250 C 335.833 10.657,335.758 10.833,335.583 10.833 C 335.419 10.833,335.333 10.998,335.333 11.316 C 335.333 11.590,335.226 11.839,335.083 11.894 C 334.926 11.954,334.833 12.209,334.833 12.578 C 334.833 12.902,334.758 13.167,334.667 13.167 C 334.575 13.167,334.500 13.534,334.500 13.982 C 334.500 14.553,334.425 14.826,334.250 14.894 C 334.059 14.967,334.000 15.281,334.000 16.227 C 334.000 17.173,333.941 17.487,333.750 17.560 C 333.543 17.640,333.500 18.089,333.500 20.167 C 333.500 22.244,333.543 22.694,333.750 22.773 C 333.943 22.847,334.000 23.169,334.000 24.184 C 334.000 25.243,334.049 25.500,334.250 25.500 C 334.442 25.500,334.500 25.713,334.500 26.417 C 334.500 26.921,334.575 27.333,334.667 27.333 C 334.758 27.333,334.833 27.598,334.833 27.922 C 334.833 28.291,334.926 28.546,335.083 28.606 C 335.246 28.669,335.333 28.928,335.333 29.351 C 335.333 29.817,335.404 30.000,335.583 30.000 C 335.739 30.000,335.833 30.157,335.833 30.417 C 335.833 30.646,335.908 30.833,336.000 30.833 C 336.092 30.833,336.167 31.021,336.167 31.250 C 336.167 31.509,336.261 31.667,336.417 31.667 C 336.583 31.667,336.667 31.833,336.667 32.167 C 336.667 32.500,336.750 32.667,336.917 32.667 C 337.072 32.667,337.167 32.824,337.167 33.083 C 337.167 33.313,337.242 33.500,337.333 33.500 C 337.425 33.500,337.500 33.688,337.500 33.917 C 337.500 34.176,337.594 34.333,337.750 34.333 C 337.897 34.333,338.000 34.486,338.000 34.703 C 338.000 34.906,338.169 35.225,338.375 35.411 C 338.581 35.598,338.893 36.031,339.068 36.375 C 339.243 36.719,339.487 37.000,339.610 37.000 C 339.733 37.000,339.833 37.074,339.833 37.165 C 339.833 37.441,340.391 38.000,340.667 38.000 C 341.011 38.000,341.500 37.413,341.500 36.998 C 341.500 36.815,341.612 36.667,341.750 36.667 C 341.917 36.667,342.000 36.500,342.000 36.167 C 342.000 35.833,342.083 35.667,342.250 35.667 C 342.406 35.667,342.500 35.509,342.500 35.250 C 342.500 35.021,342.575 34.833,342.667 34.833 C 342.758 34.833,342.833 34.421,342.833 33.917 C 342.833 33.213,342.891 33.000,343.083 33.000 C 343.271 33.000,343.333 32.798,343.333 32.184 C 343.333 31.613,343.408 31.340,343.583 31.273 C 343.789 31.194,343.833 30.765,343.833 28.848 C 343.833 27.476,343.902 26.477,344.000 26.417 C 344.092 26.360,344.167 26.050,344.167 25.728 C 344.167 25.208,344.194 25.171,344.417 25.393 C 344.584 25.560,344.667 25.978,344.667 26.660 C 344.667 27.410,344.732 27.702,344.917 27.773 C 345.129 27.854,345.167 28.435,345.167 31.583 C 345.167 34.731,345.129 35.312,344.917 35.394 C 344.733 35.464,344.667 35.754,344.667 36.485 C 344.667 37.032,344.592 37.527,344.500 37.583 C 344.093 37.835,344.329 38.333,344.855 38.333 C 345.408 38.333,346.500 37.385,346.500 36.905 C 346.500 36.774,346.575 36.667,346.667 36.667 C 346.758 36.667,346.833 36.554,346.833 36.417 C 346.833 36.279,346.946 36.167,347.083 36.167 C 347.221 36.167,347.333 36.054,347.333 35.917 C 347.333 35.779,347.414 35.667,347.512 35.667 C 347.830 35.667,348.167 35.201,348.167 34.762 C 348.167 34.526,348.241 34.333,348.331 34.333 C 348.642 34.333,349.167 33.759,349.167 33.419 C 349.167 33.232,349.354 32.938,349.583 32.766 C 349.813 32.594,350.000 32.284,350.000 32.078 C 350.000 31.871,350.113 31.659,350.250 31.606 C 350.387 31.554,350.500 31.358,350.500 31.172 C 350.500 30.986,350.575 30.833,350.667 30.833 C 350.758 30.833,350.833 30.654,350.833 30.434 C 350.833 30.215,350.946 29.992,351.083 29.940 C 351.239 29.880,351.333 29.626,351.333 29.269 C 351.333 28.953,351.418 28.666,351.521 28.632 C 351.624 28.597,351.746 28.179,351.792 27.701 C 351.838 27.224,351.941 26.833,352.021 26.833 C 352.101 26.833,352.167 25.146,352.167 23.083 C 352.167 20.694,352.106 19.333,352.000 19.333 C 351.908 19.333,351.833 18.956,351.833 18.495 C 351.833 17.903,351.760 17.628,351.583 17.560 C 351.428 17.501,351.333 17.247,351.333 16.894 C 351.333 16.540,351.238 16.286,351.083 16.227 C 350.929 16.168,350.833 15.914,350.833 15.566 C 350.833 15.254,350.758 15.000,350.667 15.000 C 350.575 15.000,350.500 14.810,350.500 14.578 C 350.500 14.346,350.387 14.113,350.250 14.060 C 350.113 14.008,350.000 13.785,350.000 13.566 C 350.000 13.322,349.903 13.167,349.750 13.167 C 349.594 13.167,349.500 13.009,349.500 12.750 C 349.500 12.521,349.425 12.333,349.333 12.333 C 349.242 12.333,349.167 12.221,349.167 12.083 C 349.167 11.946,349.054 11.833,348.917 11.833 C 348.761 11.833,348.667 11.676,348.667 11.417 C 348.667 11.157,348.572 11.000,348.417 11.000 C 348.279 11.000,348.167 10.887,348.167 10.750 C 348.167 10.612,348.092 10.500,348.000 10.500 C 347.908 10.500,347.833 10.387,347.833 10.250 C 347.833 10.112,347.721 10.000,347.583 10.000 C 347.443 10.000,347.333 9.851,347.333 9.661 C 347.333 9.475,347.221 9.280,347.083 9.227 C 346.946 9.174,346.833 9.058,346.833 8.969 C 346.833 8.749,345.903 7.833,345.679 7.833 C 345.581 7.833,345.500 7.753,345.500 7.654 C 345.500 7.421,344.579 6.500,344.346 6.500 C 344.247 6.500,344.167 6.419,344.167 6.321 C 344.167 6.087,343.246 5.167,343.013 5.167 C 342.914 5.167,342.833 5.086,342.833 4.987 C 342.833 4.764,341.917 3.833,341.697 3.833 C 341.608 3.833,341.492 3.721,341.440 3.583 C 341.249 3.086,340.452 3.309,339.728 4.064 M375.333 16.917 C 375.333 17.120,375.057 17.167,373.843 17.167 C 373.024 17.167,372.312 17.233,372.262 17.313 C 372.213 17.394,371.706 17.493,371.137 17.534 C 370.556 17.576,370.074 17.695,370.037 17.805 C 370.002 17.912,369.678 18.000,369.319 18.000 C 368.850 18.000,368.667 18.070,368.667 18.250 C 368.667 18.431,368.481 18.500,368.000 18.500 C 367.633 18.500,367.333 18.575,367.333 18.667 C 367.333 18.758,367.068 18.833,366.745 18.833 C 366.375 18.833,366.120 18.926,366.060 19.083 C 366.008 19.221,365.785 19.333,365.566 19.333 C 365.322 19.333,365.167 19.431,365.167 19.583 C 365.167 19.750,365.000 19.833,364.667 19.833 C 364.392 19.833,364.167 19.908,364.167 20.000 C 364.167 20.092,364.014 20.167,363.828 20.167 C 363.642 20.167,363.446 20.279,363.394 20.417 C 363.341 20.554,363.118 20.667,362.899 20.667 C 362.655 20.667,362.500 20.764,362.500 20.917 C 362.500 21.072,362.343 21.167,362.083 21.167 C 361.854 21.167,361.667 21.242,361.667 21.333 C 361.667 21.425,361.554 21.500,361.417 21.500 C 361.279 21.500,361.167 21.613,361.167 21.750 C 361.167 21.906,361.009 22.000,360.750 22.000 C 360.491 22.000,360.333 22.094,360.333 22.250 C 360.333 22.387,360.248 22.500,360.144 22.500 C 360.040 22.500,359.781 22.688,359.569 22.917 C 359.356 23.146,359.104 23.333,359.008 23.333 C 358.912 23.333,358.833 23.414,358.833 23.512 C 358.833 23.743,358.409 24.167,358.179 24.167 C 358.080 24.167,358.000 24.274,358.000 24.405 C 358.000 24.536,357.831 24.667,357.625 24.697 C 357.384 24.731,357.231 24.884,357.197 25.125 C 357.167 25.331,357.036 25.500,356.905 25.500 C 356.774 25.500,356.667 25.613,356.667 25.750 C 356.667 25.887,356.554 26.000,356.417 26.000 C 356.279 26.000,356.167 26.081,356.167 26.180 C 356.167 26.279,355.867 26.639,355.500 26.981 C 355.133 27.323,354.833 27.730,354.833 27.885 C 354.833 28.040,354.758 28.167,354.667 28.167 C 354.575 28.167,354.500 28.279,354.500 28.417 C 354.500 28.554,354.387 28.667,354.250 28.667 C 354.109 28.667,354.000 28.816,354.000 29.008 C 354.000 29.196,353.813 29.523,353.583 29.735 C 353.354 29.948,353.167 30.274,353.167 30.460 C 353.167 30.646,353.054 30.841,352.917 30.894 C 352.779 30.946,352.667 31.179,352.667 31.411 C 352.667 31.675,352.573 31.833,352.417 31.833 C 352.261 31.833,352.167 31.991,352.167 32.250 C 352.167 32.479,352.092 32.667,352.000 32.667 C 351.908 32.667,351.833 32.854,351.833 33.083 C 351.833 33.343,351.739 33.500,351.583 33.500 C 351.419 33.500,351.333 33.665,351.333 33.982 C 351.333 34.257,351.226 34.506,351.083 34.560 C 350.926 34.620,350.833 34.875,350.833 35.245 C 350.833 35.568,350.758 35.833,350.667 35.833 C 350.575 35.833,350.500 36.013,350.500 36.232 C 350.500 36.452,350.387 36.674,350.250 36.727 C 350.074 36.795,350.000 37.070,350.000 37.661 C 350.000 38.296,349.939 38.500,349.750 38.500 C 349.569 38.500,349.500 38.685,349.500 39.167 C 349.500 39.533,349.425 39.833,349.333 39.833 C 349.239 39.833,349.167 40.306,349.167 40.917 C 349.167 41.769,349.113 42.000,348.917 42.000 C 348.721 42.000,348.667 42.230,348.667 43.066 C 348.667 43.859,348.603 44.156,348.417 44.227 C 347.837 44.449,348.134 45.000,348.833 45.000 C 349.200 45.000,349.500 44.925,349.500 44.833 C 349.500 44.742,349.613 44.667,349.750 44.667 C 349.887 44.667,350.000 44.594,350.000 44.505 C 350.000 44.292,353.623 40.667,353.836 40.667 C 353.926 40.667,354.000 40.554,354.000 40.417 C 354.000 40.279,354.113 40.167,354.250 40.167 C 354.387 40.167,354.500 40.054,354.500 39.917 C 354.500 39.775,354.650 39.667,354.846 39.667 C 355.206 39.667,356.167 38.827,356.167 38.513 C 356.167 38.414,356.354 38.333,356.583 38.333 C 356.813 38.333,357.000 38.258,357.000 38.167 C 357.000 38.075,357.113 38.000,357.250 38.000 C 357.387 38.000,357.500 37.887,357.500 37.750 C 357.500 37.609,357.649 37.500,357.841 37.500 C 358.029 37.500,358.356 37.313,358.569 37.083 C 358.781 36.854,359.117 36.667,359.316 36.667 C 359.515 36.667,359.720 36.554,359.773 36.417 C 359.826 36.279,360.013 36.167,360.190 36.167 C 360.366 36.167,360.554 36.054,360.606 35.917 C 360.659 35.779,360.882 35.667,361.101 35.667 C 361.321 35.667,361.500 35.592,361.500 35.500 C 361.500 35.408,361.613 35.333,361.750 35.333 C 361.887 35.333,362.000 35.221,362.000 35.083 C 362.000 34.928,362.157 34.833,362.417 34.833 C 362.676 34.833,362.833 34.739,362.833 34.583 C 362.833 34.417,363.000 34.333,363.333 34.333 C 363.608 34.333,363.833 34.258,363.833 34.167 C 363.833 34.075,364.061 34.000,364.339 34.000 C 364.634 34.000,364.884 33.896,364.940 33.750 C 364.994 33.607,365.243 33.500,365.518 33.500 C 365.835 33.500,366.000 33.415,366.000 33.250 C 366.000 33.094,366.157 33.000,366.417 33.000 C 366.646 33.000,366.833 32.925,366.833 32.833 C 366.833 32.742,367.058 32.667,367.333 32.667 C 367.667 32.667,367.833 32.750,367.833 32.917 C 367.833 33.072,367.676 33.167,367.417 33.167 C 367.188 33.167,367.000 33.242,367.000 33.333 C 367.000 33.425,366.887 33.500,366.750 33.500 C 366.613 33.500,366.500 33.612,366.500 33.750 C 366.500 33.891,366.351 34.000,366.159 34.000 C 365.971 34.000,365.644 34.188,365.431 34.417 C 365.219 34.646,364.960 34.833,364.856 34.833 C 364.752 34.833,364.667 34.946,364.667 35.083 C 364.667 35.239,364.509 35.333,364.250 35.333 C 363.991 35.333,363.833 35.428,363.833 35.583 C 363.833 35.721,363.753 35.833,363.654 35.833 C 363.421 35.833,362.500 36.754,362.500 36.987 C 362.500 37.086,362.387 37.167,362.250 37.167 C 362.113 37.167,362.000 37.242,362.000 37.333 C 362.000 37.425,361.865 37.500,361.701 37.500 C 361.536 37.500,361.217 37.722,360.992 37.993 C 360.767 38.264,360.522 38.489,360.446 38.493 C 360.245 38.503,359.833 38.948,359.833 39.155 C 359.833 39.253,359.721 39.333,359.583 39.333 C 359.446 39.333,359.333 39.446,359.333 39.583 C 359.333 39.721,359.253 39.833,359.155 39.833 C 358.924 39.833,358.500 40.257,358.500 40.488 C 358.500 40.586,358.387 40.667,358.250 40.667 C 358.113 40.667,358.000 40.761,358.000 40.877 C 358.000 40.993,357.813 41.228,357.583 41.400 C 357.345 41.579,357.167 41.882,357.167 42.107 C 357.167 42.323,357.086 42.500,356.987 42.500 C 356.673 42.500,355.833 43.461,355.833 43.821 C 355.833 44.017,355.725 44.167,355.583 44.167 C 355.446 44.167,355.333 44.279,355.333 44.417 C 355.333 44.554,355.221 44.667,355.083 44.667 C 354.928 44.667,354.833 44.824,354.833 45.083 C 354.833 45.313,354.758 45.500,354.667 45.500 C 354.575 45.500,354.500 45.612,354.500 45.750 C 354.500 45.887,354.387 46.000,354.250 46.000 C 354.097 46.000,354.000 46.155,354.000 46.399 C 354.000 46.618,353.887 46.841,353.750 46.894 C 353.613 46.946,353.500 47.179,353.500 47.411 C 353.500 47.643,353.425 47.833,353.333 47.833 C 353.242 47.833,353.167 48.021,353.167 48.250 C 353.167 48.509,353.072 48.667,352.917 48.667 C 352.728 48.667,352.667 48.870,352.667 49.500 L 352.667 50.333 355.750 50.333 C 357.694 50.333,358.833 50.272,358.833 50.167 C 358.833 50.065,359.611 50.000,360.833 50.000 C 362.500 50.000,362.833 49.958,362.833 49.750 C 362.833 49.549,363.093 49.500,364.167 49.500 C 365.241 49.500,365.500 49.451,365.500 49.250 C 365.500 49.058,365.713 49.000,366.417 49.000 C 366.921 49.000,367.333 48.925,367.333 48.833 C 367.333 48.742,367.711 48.667,368.172 48.667 C 368.764 48.667,369.039 48.593,369.106 48.417 C 369.169 48.254,369.428 48.167,369.851 48.167 C 370.317 48.167,370.500 48.096,370.500 47.917 C 370.500 47.736,370.685 47.667,371.167 47.667 C 371.533 47.667,371.833 47.592,371.833 47.500 C 371.833 47.408,372.098 47.333,372.422 47.333 C 372.791 47.333,373.046 47.240,373.106 47.083 C 373.159 46.946,373.382 46.833,373.601 46.833 C 373.845 46.833,374.000 46.736,374.000 46.583 C 374.000 46.428,374.157 46.333,374.417 46.333 C 374.646 46.333,374.833 46.258,374.833 46.167 C 374.833 46.075,375.023 46.000,375.255 46.000 C 375.487 46.000,375.720 45.887,375.773 45.750 C 375.826 45.612,376.048 45.500,376.268 45.500 C 376.511 45.500,376.667 45.403,376.667 45.250 C 376.667 45.094,376.824 45.000,377.083 45.000 C 377.313 45.000,377.500 44.925,377.500 44.833 C 377.500 44.742,377.671 44.667,377.880 44.667 C 378.252 44.667,378.833 44.157,378.833 43.831 C 378.833 43.741,379.026 43.667,379.262 43.667 C 379.701 43.667,380.167 43.330,380.167 43.012 C 380.167 42.914,380.344 42.833,380.560 42.833 C 380.785 42.833,381.087 42.655,381.266 42.417 C 381.438 42.188,381.674 42.000,381.790 42.000 C 381.905 42.000,382.000 41.887,382.000 41.750 C 382.000 41.594,382.157 41.500,382.417 41.500 C 382.676 41.500,382.833 41.406,382.833 41.250 C 382.833 41.112,382.914 41.000,383.013 41.000 C 383.246 41.000,384.167 40.079,384.167 39.846 C 384.167 39.747,384.247 39.667,384.346 39.667 C 384.579 39.667,385.500 38.746,385.500 38.513 C 385.500 38.414,385.581 38.333,385.679 38.333 C 385.913 38.333,386.833 37.413,386.833 37.179 C 386.833 37.081,386.946 37.000,387.083 37.000 C 387.239 37.000,387.333 36.843,387.333 36.583 C 387.333 36.324,387.428 36.167,387.583 36.167 C 387.721 36.167,387.833 36.072,387.833 35.956 C 387.833 35.840,388.021 35.605,388.250 35.433 C 388.488 35.254,388.667 34.952,388.667 34.727 C 388.667 34.510,388.752 34.333,388.857 34.333 C 389.137 34.333,389.489 33.805,389.495 33.375 C 389.498 33.155,389.603 33.000,389.750 33.000 C 389.906 33.000,390.000 32.843,390.000 32.583 C 390.000 32.324,390.094 32.167,390.250 32.167 C 390.387 32.167,390.500 32.054,390.500 31.917 C 390.500 31.779,390.575 31.667,390.667 31.667 C 390.758 31.667,390.833 31.479,390.833 31.250 C 390.833 30.991,390.928 30.833,391.083 30.833 C 391.236 30.833,391.333 30.678,391.333 30.434 C 391.333 30.215,391.446 29.992,391.583 29.940 C 391.721 29.887,391.833 29.654,391.833 29.422 C 391.833 29.190,391.908 29.000,392.000 29.000 C 392.092 29.000,392.167 28.738,392.167 28.417 C 392.167 28.009,392.242 27.833,392.417 27.833 C 392.581 27.833,392.667 27.669,392.667 27.351 C 392.667 27.076,392.774 26.828,392.917 26.773 C 393.074 26.713,393.167 26.458,393.167 26.089 C 393.167 25.765,393.242 25.500,393.333 25.500 C 393.425 25.500,393.500 25.200,393.500 24.833 C 393.500 24.352,393.569 24.167,393.750 24.167 C 393.929 24.167,394.000 23.983,394.000 23.518 C 394.000 23.095,394.087 22.836,394.250 22.773 C 394.421 22.708,394.500 22.441,394.500 21.932 C 394.500 21.522,394.575 21.140,394.667 21.083 C 394.758 21.027,394.833 20.524,394.833 19.967 C 394.833 18.748,394.612 18.513,393.458 18.505 C 392.868 18.501,392.667 18.436,392.667 18.250 C 392.667 18.059,392.456 18.000,391.768 18.000 C 391.123 18.000,390.842 17.929,390.773 17.750 C 390.703 17.566,390.413 17.500,389.682 17.500 C 389.134 17.500,388.640 17.425,388.583 17.333 C 388.526 17.241,387.754 17.167,386.841 17.167 C 385.538 17.167,385.183 17.115,385.106 16.917 C 385.024 16.702,384.319 16.667,380.172 16.667 C 375.982 16.667,375.333 16.700,375.333 16.917 " stroke="none" fill="#ec2c1c" fill-rule="evenodd"></path><path id="path2" d="" stroke="none" fill="#f4100c4" fill-rule="evenodd"></path><path id="path3" d="" stroke="none" fill="#f4100c4" fill-rule="evenodd"></path><path id="path4" d="" stroke="none" fill="#f4100c4" fill-rule="evenodd"></path></g></svg>