<?xml version="1.0" encoding="UTF-8" standalone="no"?>
<svg
   xmlns:dc="http://purl.org/dc/elements/1.1/"
   xmlns:cc="http://creativecommons.org/ns#"
   xmlns:rdf="http://www.w3.org/1999/02/22-rdf-syntax-ns#"
   xmlns:svg="http://www.w3.org/2000/svg"
   xmlns="http://www.w3.org/2000/svg"
   xmlns:sodipodi="http://sodipodi.sourceforge.net/DTD/sodipodi-0.dtd"
   xmlns:inkscape="http://www.inkscape.org/namespaces/inkscape"
   version="1.1"
   id="Layer_1"
   x="0px"
   y="0px"
   width="512px"
   height="512px"
   viewBox="0 0 512 512"
   enable-background="new 0 0 512 512"
   xml:space="preserve"
   sodipodi:docname="smarty.svg"
   inkscape:version="1.0.1 (3bc2e813f5, 2020-09-07)"><metadata
   id="metadata9"><rdf:RDF><cc:Work
       rdf:about=""><dc:format>image/svg+xml</dc:format><dc:type
         rdf:resource="http://purl.org/dc/dcmitype/StillImage" /></cc:Work></rdf:RDF></metadata><defs
   id="defs7" /><sodipodi:namedview
   pagecolor="#ffffff"
   bordercolor="#666666"
   borderopacity="1"
   objecttolerance="10"
   gridtolerance="10"
   guidetolerance="10"
   inkscape:pageopacity="0"
   inkscape:pageshadow="2"
   inkscape:window-width="1920"
   inkscape:window-height="985"
   id="namedview5"
   showgrid="false"
   inkscape:zoom="1.53125"
   inkscape:cx="256"
   inkscape:cy="256"
   inkscape:window-x="1920"
   inkscape:window-y="26"
   inkscape:window-maximized="1"
   inkscape:current-layer="Layer_1" />
<path
   d="M384,192c0,64-64,127-64,192H192c0-63-64-128-64-192c0-70.688,57.313-128,128-128S384,121.313,384,192z M304,448h-96  c-8.844,0-16,7.156-16,16s7.156,16,16,16h2.938c6.594,18.625,24.188,32,45.063,32s38.469-13.375,45.063-32H304  c8.844,0,16-7.156,16-16S312.844,448,304,448z M304,400h-96c-8.844,0-16,7.156-16,16s7.156,16,16,16h96c8.844,0,16-7.156,16-16  S312.844,400,304,400z M81.719,109.875l28.719,16.563c4.438-9.813,9.844-19,16.094-27.656L97.719,82.125L81.719,109.875z   M272,33.625V0h-32v33.625C245.344,33.063,250.5,32,256,32S266.656,33.063,272,33.625z M190.438,46.438l-16.563-28.719l-27.75,16  l16.656,28.813C171.438,56.281,180.625,50.875,190.438,46.438z M430.281,109.875l-16-27.75l-28.813,16.656  c6.25,8.656,11.688,17.844,16.125,27.656L430.281,109.875z M365.844,33.719l-27.688-16l-16.563,28.719  c9.781,4.438,19,9.844,27.625,16.063L365.844,33.719z M96,192c0-5.5,1.063-10.656,1.625-16H64v32h33.688  C97.063,202.688,96,197.438,96,192z M414.375,176c0.563,5.344,1.625,10.5,1.625,16c0,5.438-1.063,10.688-1.688,16H448v-32H414.375z   M388.094,286.719l26.188,15.125l16-27.719l-29.063-16.75C397.188,267.313,392.813,277.063,388.094,286.719z M81.719,274.125  l16,27.719l25.969-14.969c-4.688-9.688-9.063-19.5-13.031-29.438L81.719,274.125z"
   id="path2"
   style="fill:#aaaaaa;fill-opacity:1" />
</svg>
