<svg xmlns="http://www.w3.org/2000/svg" xmlns:xlink="http://www.w3.org/1999/xlink" width="600" height="300"><rect width="600" height="300" rx="0" ry="0" fill="#fff" fill-rule="evenodd"/><rect id="a" y="120" width="600" height="60" rx="0" ry="0" fill="#c00" fill-rule="evenodd"/><use transform="matrix(0 .5 -1 0 450 0)" width="600" height="300" xlink:href="#a"/><path d="M322 91.631c1.925-3.012.774-4.958-2.138-5.559 0 0-9.292 2.979-19.327 3.305-10.035.327-21.958-2.523-21.958-2.523-2.138 1.341-1.616 4.525-.556 6.513 0 0 10.505 3.49 22.464 3.147 7.596-.217 14.794-2.156 18.832-3.44 2.32-.738 2.683-1.409 2.682-1.443z" fill="#ebeae3" fill-rule="evenodd" stroke="#000" stroke-width=".326"/><path d="M300 223.47l-19.286-40.066-44.341 3.33L261.428 150l-25.055-36.735 44.341 3.33L300 76.53l19.286 40.066 44.341-3.331L338.572 150l25.055 36.735-44.341-3.331L300 223.47z" fill="#fff" stroke="#161111"/><path d="M299.71 76.392c24.227 3.994 23.362 5.125 23.362 5.125l6.323-18.903s.666-3.727-1.065-5.99-6.59-.999-6.59-.999-.665-3.061-2.795-3.793c-2.13-.733-10.05 2.862-12.513 3.66-2.462.799-3.727 1.598-7.188 1.531-3.46-.066-9.65-3.128-10.782-3.727-1.131-.6-2.795-1.198-4.326-1.132-1.531.067-3.128.466-3.927 1.531-.799 1.065-.799 2.396-.799 2.396s-1.264-.798-3.261-.798-3.128.266-4.06 1.33c-.932 1.066-2.13 4.06-2.13 4.06l2.263 5.126.133 7.055 4.726 7.454 22.63-3.926z" fill="#b02320" fill-rule="evenodd" stroke="#000" stroke-width=".815"/><path d="M322.3 87.072s1.22 1.454 1.173 1.97c-.047.517-.563.986-.563.986s.375.375.281.938c-.093.563-.844.61-.844.61s.14.516-.328.75c-.47.235-2.393.658-2.393.658s-9.384-2.675-19.424-2.675-21.864 3.238-21.864 3.238-1.22-.422-1.267-1.22c-.047-.798.14-1.36.14-1.36s-.667.069-.844-.517c-.247-.819.094-1.454.094-1.454s-.465.15.047-.939c.375-.797.938-1.079.938-1.079s10.51-3.753 22.474-3.8c11.964-.047 22.38 3.8 22.38 3.894z" fill="#ebeae3" fill-rule="evenodd" stroke="#000" stroke-width=".326"/><path d="M272.64 63.435s-.4-1.362.48-2.564c.882-1.202 2.485-1.122 2.966-.882.48.24.4.802 1.041.962.641.16 1.122-.32 1.122-.32" fill="none" stroke="#000" stroke-width=".717"/><path d="M331.14 66.624l-3.639 7.529-1.43.25s-.873-.524-3.363-.35c-1.782.125-2.309.577-2.309.577l3.237-7.504s.253 1.612.628 2.56c.477 1.204 2.284 2.334 2.284 2.334s.25-1.441-.226-3.188c-.527-1.932-1.757-4.542-1.757-4.542l6.575 2.334z" fill="#fc0" fill-opacity=".941" fill-rule="evenodd" stroke="#000" stroke-width=".75"/><path d="M297.81 43.225h4.073v17.309h-4.073z" fill="#121116" stroke="#121116" stroke-linejoin="round" stroke-width=".731"/><path d="M272.85 75.147l2.616 5.596s11.132-4.339 24.27-4.258c19.71.122 25.306 4.076 25.306 4.076l2.92-6.935-2.19 1.278-2.251 1.399-2.555.973-3.102-.243-2.738-2.008-1.399-2.92-2.311 2.13-4.076.912-4.015-1.034-3.528-4.44s-2.628 4.935-5.961 5.23c-4.806.426-7.604-2.31-7.604-2.31s-1.786 4.014-4.744 4.744c-4.684 1.156-8.577-2.19-8.638-2.19z" fill="#f6ca1f" fill-rule="evenodd" stroke="#000" stroke-width=".619"/><g stroke-width="2.243"><path d="M317.78 41.028c0 1.176-.94 2.13-2.1 2.132-1.16.002-2.102-.948-2.107-2.124s.931-2.133 2.091-2.14c1.16-.007 2.107.94 2.116 2.115" fill="#eee" stroke="#1e1e1e" stroke-linejoin="round" stroke-width=".731"/><path d="M314.7 42.123s1.7-.029 1.873-.72c.173-.692-.115-1.585-.115-1.585s.806.893.576 1.585c-.23.691-.457.87-1.037 1.008-.394.094-.98-.058-1.297-.288z" fill="#a3afb8" fill-rule="evenodd"/><path d="M312.67 43.418c0 1.176-.94 2.13-2.1 2.132-1.16.002-2.102-.948-2.106-2.124s.93-2.133 2.09-2.14c1.16-.007 2.107.94 2.116 2.115" fill="#eee" stroke="#1e1e1e" stroke-linejoin="round" stroke-width=".731"/><path d="M309.59 44.513s1.7-.029 1.873-.72c.173-.692-.115-1.585-.115-1.585s.806.893.576 1.585c-.23.691-.457.87-1.037 1.008-.394.094-.98-.058-1.297-.288z" fill="#a3afb8" fill-rule="evenodd"/><path d="M323.71 39.628c0 1.176-.94 2.13-2.1 2.132-1.16.002-2.102-.948-2.107-2.124s.931-2.133 2.091-2.14c1.16-.007 2.107.94 2.116 2.115" fill="#eee" stroke="#1e1e1e" stroke-linejoin="round" stroke-width=".731"/><path d="M320.63 40.723s1.7-.029 1.873-.72c.173-.692-.115-1.585-.115-1.585s.806.893.576 1.585c-.23.691-.457.87-1.037 1.008-.394.094-.98-.058-1.297-.288z" fill="#a3afb8" fill-rule="evenodd"/><path d="M330.39 40.973c0 1.176-.94 2.13-2.1 2.132-1.16.002-2.102-.948-2.107-2.124s.931-2.133 2.091-2.14c1.16-.007 2.107.94 2.116 2.115" fill="#eee" stroke="#1e1e1e" stroke-linejoin="round" stroke-width=".731"/><path d="M327.31 42.068s1.7-.029 1.873-.72c.173-.692-.115-1.585-.115-1.585s.806.893.576 1.585c-.23.691-.457.87-1.037 1.008-.394.094-.98-.058-1.297-.288z" fill="#a3afb8" fill-rule="evenodd"/><path d="M335.49 45.169c0 1.176-.94 2.13-2.1 2.132-1.16.002-2.102-.948-2.106-2.124s.93-2.133 2.09-2.14c1.16-.007 2.107.94 2.116 2.115" fill="#eee" stroke="#1e1e1e" stroke-linejoin="round" stroke-width=".731"/><path d="M332.4 46.264s1.7-.029 1.873-.72c.173-.692-.115-1.585-.115-1.585s.806.893.576 1.585c-.23.691-.457.87-1.037 1.008-.394.094-.98-.058-1.297-.288z" fill="#a3afb8" fill-rule="evenodd"/><path d="M337.69 52.056c0 1.176-.94 2.13-2.1 2.132-1.16.002-2.102-.948-2.106-2.124s.93-2.133 2.09-2.14c1.16-.007 2.107.94 2.116 2.115" fill="#eee" stroke="#1e1e1e" stroke-linejoin="round" stroke-width=".731"/><path d="M334.6 53.151s1.7-.029 1.873-.72c.173-.692-.115-1.585-.115-1.585s.806.893.576 1.585c-.23.691-.457.87-1.037 1.008-.394.094-.98-.058-1.297-.288z" fill="#a3afb8" fill-rule="evenodd"/><path d="M336.87 59.023c0 1.176-.94 2.13-2.1 2.132-1.16.002-2.102-.948-2.106-2.124s.93-2.133 2.09-2.14c1.16-.007 2.107.94 2.116 2.115" fill="#eee" stroke="#1e1e1e" stroke-linejoin="round" stroke-width=".731"/><path d="M333.79 60.118s1.7-.029 1.873-.72c.173-.692-.115-1.585-.115-1.585s.806.893.576 1.585c-.23.691-.457.87-1.037 1.008-.394.094-.98-.058-1.297-.288z" fill="#a3afb8" fill-rule="evenodd"/><path d="M333.78 65.135c0 1.176-.94 2.13-2.1 2.132-1.16.002-2.102-.948-2.107-2.124s.931-2.133 2.091-2.14c1.16-.007 2.107.94 2.116 2.115" fill="#eee" stroke="#1e1e1e" stroke-linejoin="round" stroke-width=".731"/><path d="M330.69 66.23s1.7-.029 1.873-.72c.173-.692-.115-1.585-.115-1.585s.806.893.576 1.585c-.23.691-.457.87-1.037 1.008-.394.094-.98-.058-1.297-.288z" fill="#a3afb8" fill-rule="evenodd"/><path d="M307.7 45.251c0 1.176-.94 2.13-2.1 2.132-1.16.002-2.102-.948-2.107-2.124s.931-2.133 2.091-2.14c1.16-.007 2.107.94 2.116 2.115" fill="#eee" stroke="#1e1e1e" stroke-linejoin="round" stroke-width=".731"/><path d="M304.61 46.346s1.7-.029 1.873-.72c.173-.692-.115-1.585-.115-1.585s.806.893.576 1.585c-.23.691-.457.87-1.037 1.008-.394.094-.98-.058-1.297-.288z" fill="#a3afb8" fill-rule="evenodd"/><g stroke-width="2.682"><path d="M301.35 44.707c0 .983-.785 1.781-1.755 1.783a1.77 1.77 0 01-1.763-1.776 1.771 1.771 0 011.749-1.79 1.77 1.77 0 011.769 1.769" fill="#eee" stroke="#1e1e1e" stroke-linejoin="round" stroke-width=".731"/><path d="M298.77 45.622s1.422-.024 1.566-.602c.145-.579-.096-1.326-.096-1.326s.674.747.482 1.326c-.193.578-.382.727-.868.843-.329.078-.819-.048-1.084-.241z" fill="#a3afb8" fill-rule="evenodd"/></g><g stroke-width="2.682"><path d="M301.37 46.923c0 .983-.785 1.781-1.755 1.783a1.77 1.77 0 01-1.763-1.776 1.771 1.771 0 011.749-1.79 1.77 1.77 0 011.769 1.769" fill="#eee" stroke="#1e1e1e" stroke-linejoin="round" stroke-width=".731"/><path d="M298.79 47.838s1.422-.024 1.566-.602c.145-.579-.096-1.326-.096-1.326s.674.747.482 1.326c-.193.578-.382.727-.868.843-.329.078-.819-.048-1.084-.241z" fill="#a3afb8" fill-rule="evenodd"/></g><g stroke-width="2.682"><path d="M301.49 50.183c0 .983-.785 1.781-1.755 1.783a1.77 1.77 0 01-1.763-1.776 1.771 1.771 0 011.749-1.79 1.77 1.77 0 011.769 1.769" fill="#eee" stroke="#1e1e1e" stroke-linejoin="round" stroke-width=".731"/><path d="M298.91 51.098s1.422-.024 1.566-.602c.145-.579-.096-1.326-.096-1.326s.674.747.482 1.326c-.193.578-.382.727-.868.843-.329.078-.819-.048-1.084-.241z" fill="#a3afb8" fill-rule="evenodd"/></g><g stroke-width="2.48"><path d="M301.67 53.645c0 1.063-.85 1.926-1.898 1.928-1.05.002-1.902-.857-1.906-1.92-.004-1.064.842-1.93 1.89-1.936 1.05-.006 1.906.85 1.914 1.913" fill="#eee" stroke="#1e1e1e" stroke-linejoin="round" stroke-width=".731"/><path d="M298.88 54.635s1.537-.026 1.694-.651c.156-.626-.105-1.434-.105-1.434s.73.808.522 1.434c-.209.625-.413.787-.938.912-.356.084-.886-.053-1.173-.261z" fill="#a3afb8" fill-rule="evenodd"/></g><path d="M301.87 58.29c0 1.176-.94 2.13-2.1 2.132-1.16.002-2.102-.948-2.106-2.124s.93-2.133 2.09-2.14c1.16-.007 2.107.94 2.116 2.115" fill="#eee" stroke="#1e1e1e" stroke-linejoin="round" stroke-width=".731"/><path d="M298.79 59.385s1.7-.029 1.873-.72c.173-.692-.115-1.585-.115-1.585s.806.893.576 1.585c-.23.691-.457.87-1.037 1.008-.394.094-.98-.058-1.297-.288z" fill="#a3afb8" fill-rule="evenodd"/><g stroke-width="2.388"><path d="M301.66 67.824c0 1.104-.882 2-1.971 2.002-1.09.003-1.975-.89-1.98-1.994-.004-1.104.875-2.004 1.964-2.01 1.09-.007 1.978.882 1.987 1.986" fill="#eee" stroke="#1e1e1e" stroke-linejoin="round" stroke-width=".731"/><path d="M298.77 68.852s1.597-.027 1.759-.676-.108-1.489-.108-1.489.757.84.54 1.489c-.216.649-.428.817-.973.947-.37.088-.92-.055-1.218-.271z" fill="#a3afb8" fill-rule="evenodd"/></g><path d="M295.97 45.194c0 1.176-.94 2.13-2.1 2.132-1.16.002-2.102-.948-2.106-2.124s.93-2.133 2.09-2.14c1.16-.007 2.107.94 2.116 2.115" fill="#eee" stroke="#1e1e1e" stroke-linejoin="round" stroke-width=".731"/><path d="M292.89 46.289s1.7-.029 1.873-.72c.173-.692-.115-1.585-.115-1.585s.806.893.576 1.585c-.23.691-.457.87-1.037 1.008-.394.094-.98-.058-1.297-.288z" fill="#a3afb8" fill-rule="evenodd"/><path d="M290.75 43.138c0 1.176-.94 2.13-2.1 2.132-1.16.002-2.102-.948-2.106-2.124s.93-2.133 2.09-2.14c1.16-.007 2.107.94 2.116 2.115" fill="#eee" stroke="#1e1e1e" stroke-linejoin="round" stroke-width=".731"/><path d="M287.67 44.233s1.7-.029 1.873-.72c.173-.692-.115-1.585-.115-1.585s.806.893.576 1.585c-.23.691-.457.87-1.037 1.008-.394.094-.98-.058-1.297-.288z" fill="#a3afb8" fill-rule="evenodd"/><path d="M285.76 40.788c0 1.176-.94 2.13-2.1 2.132-1.16.002-2.102-.948-2.107-2.124s.931-2.133 2.091-2.14c1.16-.007 2.107.94 2.116 2.115" fill="#eee" stroke="#1e1e1e" stroke-linejoin="round" stroke-width=".731"/><path d="M282.68 41.883s1.7-.029 1.873-.72c.173-.692-.115-1.585-.115-1.585s.806.893.576 1.585c-.23.691-.457.87-1.037 1.008-.394.094-.98-.058-1.297-.288z" fill="#a3afb8" fill-rule="evenodd"/><path d="M280.03 39.539c0 1.176-.94 2.13-2.1 2.132-1.16.002-2.102-.948-2.107-2.124s.931-2.133 2.091-2.14c1.16-.007 2.107.94 2.116 2.115" fill="#eee" stroke="#1e1e1e" stroke-linejoin="round" stroke-width=".731"/><path d="M276.95 40.634s1.7-.029 1.873-.72c.173-.692-.115-1.585-.115-1.585s.806.893.576 1.585c-.23.691-.457.87-1.037 1.008-.394.094-.98-.058-1.297-.288z" fill="#a3afb8" fill-rule="evenodd"/><path d="M273.27 41.155c0 1.176-.94 2.13-2.1 2.132-1.16.002-2.102-.948-2.107-2.124s.931-2.133 2.091-2.14c1.16-.007 2.107.94 2.116 2.115" fill="#eee" stroke="#1e1e1e" stroke-linejoin="round" stroke-width=".731"/><path d="M270.19 42.25s1.7-.029 1.873-.72c.173-.692-.115-1.585-.115-1.585s.806.893.576 1.585c-.23.691-.457.87-1.037 1.008-.394.094-.98-.058-1.297-.288z" fill="#a3afb8" fill-rule="evenodd"/><path d="M268.5 45.928c0 1.176-.94 2.13-2.1 2.132-1.16.002-2.102-.948-2.106-2.124s.93-2.133 2.09-2.14c1.16-.007 2.107.94 2.116 2.115" fill="#eee" stroke="#1e1e1e" stroke-linejoin="round" stroke-width=".731"/><path d="M265.42 47.023s1.7-.029 1.873-.72c.173-.692-.115-1.585-.115-1.585s.806.893.576 1.585c-.23.691-.457.87-1.037 1.008-.394.094-.98-.058-1.297-.288z" fill="#a3afb8" fill-rule="evenodd"/><path d="M266.52 52.612c0 1.176-.94 2.13-2.1 2.132-1.16.002-2.102-.948-2.107-2.124s.931-2.133 2.091-2.14c1.16-.007 2.107.94 2.116 2.115" fill="#eee" stroke="#1e1e1e" stroke-linejoin="round" stroke-width=".731"/><path d="M263.43 53.707s1.7-.029 1.873-.72c.173-.692-.115-1.585-.115-1.585s.806.893.576 1.585c-.23.691-.457.87-1.037 1.008-.394.094-.98-.058-1.297-.288z" fill="#a3afb8" fill-rule="evenodd"/><path d="M267.4 59.59c0 1.176-.94 2.13-2.1 2.132-1.16.002-2.102-.948-2.107-2.124s.931-2.133 2.091-2.14c1.16-.007 2.107.94 2.116 2.115" fill="#eee" stroke="#1e1e1e" stroke-linejoin="round" stroke-width=".731"/><path d="M264.32 60.685s1.7-.029 1.873-.72c.173-.692-.115-1.585-.115-1.585s.806.893.576 1.585c-.23.691-.457.87-1.037 1.008-.394.094-.98-.058-1.297-.288z" fill="#a3afb8" fill-rule="evenodd"/><path d="M270.63 65.906c0 1.176-.94 2.13-2.1 2.132-1.16.002-2.102-.948-2.106-2.124s.93-2.133 2.09-2.14c1.16-.007 2.107.94 2.116 2.115" fill="#eee" stroke="#1e1e1e" stroke-linejoin="round" stroke-width=".731"/><path d="M267.55 67.001s1.7-.029 1.873-.72c.173-.692-.115-1.585-.115-1.585s.806.893.576 1.585c-.23.691-.457.87-1.037 1.008-.394.094-.98-.058-1.297-.288z" fill="#a3afb8" fill-rule="evenodd"/><g stroke-width="2.832"><path transform="matrix(.19748 -.05291 .08437 .31486 168.37 18.75)" d="M430.63 247.41c0 3.607-2.881 6.534-6.44 6.54-3.558.008-6.45-2.907-6.465-6.514s2.856-6.545 6.415-6.566c3.558-.022 6.462 2.881 6.49 6.489" fill="#eee" stroke="#1e1e1e" stroke-linejoin="round"/><path d="M272.7 75.423s1.022-.304.948-1c-.074-.696-.48-1.512-.48-1.512s.72.732.76 1.437c.039.706-.052.915-.368 1.143-.214.154-.608.103-.86-.068z" fill="#a3afb8" fill-rule="evenodd"/></g><g stroke-width="2.832"><path transform="matrix(.19849 .049 -.07812 .31647 262.46 -25.127)" d="M430.63 247.41c0 3.607-2.881 6.534-6.44 6.54-3.558.008-6.45-2.907-6.465-6.514s2.856-6.545 6.415-6.566c3.558-.022 6.462 2.881 6.49 6.489" fill="#eee" stroke="#1e1e1e" stroke-linejoin="round"/><path d="M326.47 74.871s1.042.228 1.313-.418.31-1.556.31-1.556.277.989-.03 1.626c-.305.636-.486.776-.873.823-.262.031-.582-.204-.72-.475z" fill="#a3afb8" fill-rule="evenodd"/></g></g><path d="M297.95 33.632l.152 3.562s-4.223.37-4.396.758c-.82 1.839.985 4.32.985 4.32s1.42-1.062 5.002-1.062c3.41 0 5.153.834 5.153.834s.91-1.44.91-2.5c0-1.062-.379-2.123-.379-2.123s-1.743-.227-2.274-.227h-1.515l-.152-3.638-3.486.076z" fill="#b3a192" fill-rule="evenodd" stroke="#000" stroke-width=".731"/><path d="M303.97 39.158c0 .4-.337.724-.754.724-.417.001-.756-.321-.758-.72-.001-.4.335-.726.752-.728.416-.003.757.319.76.718m1.74.394c0 .417-.351.755-.786.756-.435 0-.789-.336-.79-.753-.002-.417.348-.756.783-.759.435-.002.79.333.794.75m-3.484-.41c0 .4-.337.724-.754.725-.417 0-.756-.322-.758-.722-.001-.399.335-.724.752-.727.416-.002.757.32.76.719m-3.493.045c0 .415-.351.752-.785.753-.434.001-.786-.335-.788-.75-.002-.416.348-.755.781-.757.434-.003.788.332.792.748m-1.94.135c0 .416-.35.753-.784.754-.434 0-.786-.335-.788-.75-.002-.417.348-.755.781-.758.434-.002.788.332.792.748m3.559-2.175a.65.65 0 01-.662.636.65.65 0 01-.665-.633.65.65 0 01.66-.639.65.65 0 01.667.631m0-2.95a.65.65 0 01-.662.636.65.65 0 01-.665-.634.65.65 0 01.66-.638.65.65 0 01.667.63m0 1.597a.65.65 0 01-.662.636.65.65 0 01-.665-.633.65.65 0 01.66-.639.65.65 0 01.667.631M294.83 39.827c0 .401-.339.727-.757.727-.419.001-.76-.323-.76-.724-.003-.401.335-.728.753-.73.419-.003.76.32.764.721" fill="#f0ddcb" stroke="#121116" stroke-linejoin="round" stroke-width=".373"/><path d="M300.53 38.975c0 .439-.372.795-.832.796-.46 0-.833-.354-.835-.793s.369-.796.828-.799c.46-.002.835.35.839.79" fill="#916c68" stroke="#4d3126" stroke-linejoin="round" stroke-width=".373"/><g stroke-width="2.534"><path d="M301.29 28.407c0 .87-.695 1.576-1.554 1.578a1.567 1.567 0 01-1.56-1.572 1.568 1.568 0 011.548-1.584 1.567 1.567 0 011.566 1.566" fill="#eee" stroke="#1e1e1e" stroke-linejoin="round" stroke-width=".731"/><path d="M299.01 29.216s1.258-.021 1.386-.533c.128-.512-.085-1.173-.085-1.173s.597.661.426 1.173c-.17.512-.338.644-.767.746-.292.07-.725-.042-.96-.213z" fill="#a3afb8" fill-rule="evenodd"/></g><path d="M274.98 81.335s1.389 1.296 1.76 2.454c.37 1.157.925 4.259.925 4.259s14.536-4.028 21.666-3.704c7.13.324 23.564 3.935 23.564 3.935s.278-1.76.602-3.61c.324-1.853 1.667-3.89 1.667-3.89s-15.694-4.907-25.601-4.444c-9.907.463-14.861 1.528-17.083 2.222-2.223.695-7.64 2.824-7.5 2.778z" fill="#fc0" fill-rule="evenodd" stroke="#000" stroke-width=".326"/><path d="M296.66 22.53h6.252s-1.542 1.067-1.856 2.084c-.27.875-.19 2.311-.19 2.311s1.705 0 2.463-.644 2.35-1.78 2.35-1.78v7.957s-1.535-1.484-2.464-1.97c-1.115-.585-2.235-.796-2.235-.796s0 1.288.53 2.046c.53.758 2.653 3.638 2.653 3.638l-8.943.34s2.121-2.236 2.994-3.864c.568-1.061.34-2.16.34-2.16s-1.515 0-2.273.53c-.758.53-2.084 2.122-2.084 2.122V24.69s.568 1.478 1.819 2.046 2.425.265 2.425.265.242-1.523-.265-2.463c-.524-.969-1.63-2.046-1.516-2.008z" fill="#fc0" fill-rule="evenodd" stroke="#000" stroke-width=".731"/><path d="M296.17 47.78s-4.448-.054-8.253-2.304c-3.804-2.251-7.642-4.608-13.29-3.27-1.156.275-5.412 2.144-7.288 8.2-1.316 4.249.215 9.378 1.555 11.682 1.34 2.304 3.5 4.64 3.5 4.64l2.297-1.557s-5.851-4.959-5.154-11.39c.696-6.43 3.911-7.93 3.911-7.93s3.966-3.109 9.271-.161c5.305 2.947 10.503 4.287 10.503 4.287s4.877 1.179 5.305 1.125c.429-.054-2.465-3.376-2.358-3.323z" fill="#fc0" fill-rule="evenodd" stroke="#121116" stroke-width=".731"/><path d="M271.57 71.9l-2.363-4.645 7.09-2.77s-1.712 2.28-2.12 3.91c-.497 1.992-.325 3.668-.325 3.668s.652-.489 1.467-1.793c.618-.99 1.63-4.563 1.63-4.563l3.178 10.187c.024.027-1.634-1.634-2.8-1.831-1.314-.223-2.905.2-2.905.2l-1.874.571-.978-2.933z" fill="#fc0" fill-rule="evenodd" stroke="#000" stroke-width=".75"/><path d="M304.19 47.696s4.448-.054 8.253-2.304c3.804-2.251 7.642-4.608 13.29-3.27 1.156.275 5.412 2.144 7.288 8.2 1.316 4.249-.215 9.378-1.554 11.682-1.34 2.304-2.251 3.66-2.251 3.66l-2.762-.992s5.066-4.544 4.37-10.974c-.697-6.43-3.912-7.931-3.912-7.931s-3.966-3.108-9.271-.16c-5.305 2.946-10.503 4.286-10.503 4.286s-4.877 1.179-5.305 1.125c-.429-.053 2.465-3.376 2.358-3.322z" fill="#fc0" fill-rule="evenodd" stroke="#121116" stroke-width=".731"/><path d="M301.89 43.295h1.857v17.317h-1.857zm-6.252-.076h2.198v17.317h-2.198z" fill="#fc0" stroke="#121116" stroke-linejoin="round" stroke-width=".731"/><path d="M305.76 39.202c0 3.072-2.707 5.564-6.05 5.57-3.344.007-6.062-2.476-6.075-5.548-.014-3.072 2.683-5.574 6.026-5.592 3.344-.018 6.072 2.454 6.099 5.526" fill="#fc0" stroke="#121116" stroke-linejoin="round" stroke-width=".731"/><path d="M294.32 60.467l10.426-.086s-1.223.73-2.274 2.596-.901 3.046-.901 3.046 1.587-.021 2.703-.836c1.115-.816 2.36-2.339 2.36-2.339l-.043 9.611s-.75-1.223-1.995-1.952c-1.244-.73-3.004-.73-3.004-.73h-3.56s-1.63.097-2.36.58c-1.032.681-2.317 1.995-2.317 1.995l-.172-9.075s.515 1.588 2.188 2.231c1.673.644 2.617.558 2.617.558s0-2.038-.858-3.089c-.858-1.051-2.81-2.467-2.81-2.51z" fill="#fc0" fill-rule="evenodd" stroke="#000" stroke-width=".619"/><path d="M300.13 68.013s1.525 3.56 3.3 5.13c1.032.915 4.136 1.604 5.54 1.245 3.153-.805 5.321-3.328 5.321-3.328s-.113 2.764 1.862 4.287c1.974 1.524 3.554 1.919 5.19 1.467 1.636-.451 6.263-3.893 6.263-3.893l.959.847s-2.653 2.576-5.442 3.944c-1.436.704-5.794.313-7.204-.816-1.41-1.128-2.248-3.862-2.248-3.862s-.869 1.758-2.73 2.378c-1.862.621-4.421.594-6.797-.1-1.599-.467-3.675-2.673-4.07-3.406-.395-.734-.282-1.128-.282-1.128s-1.172 3.358-3.611 4.274c-2.304.865-4.93.872-7.16.23-2.256-.648-2.431-1.91-2.431-1.91s-.17 3.555-5.078 4.57c-4.908 1.016-8.801-2.595-8.801-2.595l.677-1.015s2.765 3.103 6.996 2.82c4.231-.281 5.642-5.697 5.642-5.697s1.861 2.82 6.826 2.877c4.965.056 6.375-6.432 6.375-6.432l.903.113z" fill="#f6ca1f" fill-rule="evenodd" stroke="#000" stroke-width=".587"/><g fill="#fc0" stroke="#000" stroke-width=".717"><path d="M287.89 70.083s.037-1.728.409-2.247c.526-.736 1.243-.766 1.608-.664.451.126.92.536.843 1.736-.077 1.2-.409 1.788-.051 2.247.357.46.408.767 1.098.664.69-.102.996-.332.843-.97-.154-.638-.358.051-.486-.485-.127-.536.667-2.853.537-4.29-.128-1.404-.664-2.528-1.737-2.809-1.008-.264-1.864-.255-2.809.434-.906.661-2.068 2.835-2.068 2.835l-.026 4.647 1.89-.102-.051-.996z" fill-rule="evenodd"/><path d="M284.37 71.334s-.723-1.57-1.27-1.898c-.777-.465-1.446-.207-1.74.032-.364.296-.63.858-.081 1.929.549 1.07 1.087 1.476.942 2.04-.144.564-.069.866-.742 1.047-.673.18-1.046.092-1.16-.554-.114-.647.349-.096.252-.639-.097-.543-1.749-2.35-2.202-3.72-.442-1.34-.398-2.584.473-3.269.82-.644 1.608-.977 2.75-.721 1.094.245 3.026 1.775 3.026 1.775l1.876 4.252-1.774.66-.35-.934z" fill-rule="evenodd"/><path d="M284.01 57.571s-1.839 3.09-1.43 5.465c.409 2.374 2.86 7.481 2.86 7.481l.025.69 1.323-.143-.301-.7s.66-6.114.255-8.044c-.301-1.434-2.707-4.724-2.732-4.75zm2.937 14.147s.918 1.1 2.017 1.634c1.2.585 1.693.589 2.17.23.35-.263.23-1.379-.178-1.685-.409-.307-.872-.15-.945.153-.123.513-.29.479-.664.28-.546-.288-1.813-1.072-1.813-1.072l-.587.46zm-1.424.25s-.386 1.379-1.169 2.318c-.854 1.025-1.302 1.231-1.884 1.1-.427-.096-.776-1.163-.53-1.61.248-.447.734-.496.925-.248.323.417.462.317.721-.017.38-.487 1.213-1.722 1.213-1.722l.725.179z" fill-rule="evenodd"/><path d="M288.99 70.863c.068.403-1.148.943-2.718 1.207-1.569.264-2.9.152-2.973-.25-.074-.401 1.137-.941 2.706-1.207 1.57-.266 2.904-.156 2.984.244" stroke-linejoin="round"/></g><g fill="#fc0" stroke="#000" stroke-width=".717"><path d="M316.01 70.779s.64-1.605 1.17-1.961c.752-.505 1.434-.282 1.74-.058.378.277.673.825.18 1.922-.492 1.097-1.01 1.53-.836 2.086.174.556.114.861.796 1.007.681.146 1.049.039 1.13-.613.08-.652-.353-.078-.285-.625.069-.547 1.625-2.437 2.007-3.83.373-1.36.264-2.6-.642-3.238-.85-.601-1.656-.893-2.782-.579-1.08.302-2.931 1.93-2.931 1.93l-1.654 4.343 1.806.566.301-.95z" fill-rule="evenodd"/><path d="M312.28 70.716s-.126-1.724-.524-2.223c-.564-.708-1.281-.701-1.641-.58-.444.15-.89.583-.752 1.778.139 1.194.5 1.764.167 2.241-.333.478-.368.786-1.062.72-.694-.066-1.012-.28-.892-.926.12-.645.36.033.46-.51.1-.541-.814-2.814-.757-4.256.055-1.409.532-2.559 1.589-2.894.993-.316 1.848-.352 2.827.288.94.614 2.212 2.724 2.212 2.724l.266 4.64-1.893-.005v-.997z" fill-rule="evenodd"/><path d="M316.77 57.7s-2.805 2.249-3.255 4.616c-.45 2.367.054 8.01.054 8.01l-.218.654 1.29.33-.037-.76s2.762-5.494 3.06-7.444c.22-1.45-.88-5.373-.894-5.406zm-2.21 14.278s.474 1.352 1.315 2.238c.92.968 1.38 1.145 1.953.976.419-.123.698-1.21.423-1.64-.275-.431-.764-.448-.938-.189-.295.438-.44.347-.72.03-.41-.462-1.322-1.64-1.322-1.64l-.712.225zm-1.42-.265s-.847 1.156-1.909 1.76c-1.16.661-1.652.697-2.15.37-.366-.24-.319-1.361.069-1.693.388-.332.86-.207.953.092.155.504.32.459.68.237.526-.324 1.74-1.187 1.74-1.187l.616.42z" fill-rule="evenodd"/><path d="M316.79 71.906c-.078.4-1.406.48-2.968.177-1.563-.303-2.77-.874-2.697-1.276.071-.402 1.395-.483 2.957-.182 1.563.301 2.775.872 2.709 1.275" stroke-linejoin="round"/></g><path d="M274.43 81.169s.304 1.277 1.034.608c.73-.669 10.767-4.623 24.94-4.623 14.173 0 23.48 3.893 24.028 4.137.548.243.79.547 1.278 0 .486-.548-.487-1.4-.487-1.4s-9.855-4.197-25.244-4.136c-15.39.06-25.366 4.44-25.366 4.44s-.67.487-.183.974z" fill="#cca715" fill-rule="evenodd" stroke="#000" stroke-width=".326"/><path d="M292.4 87.065s.452-1.257 1.242-1.499c.63-.193 1.624.426 1.624.426s-1.198-.11-1.573.103c-.338.193-.44.764-.44.764s.256-.455 1.175-.411c.919.044 1.021.044 1.021.044s-1.557.117-1.917.566c-.36.448 1.47.654 1.47.654s-2.8.014-3.168-.155c-.367-.169-.602-.742-1.227-.566-.624.177-1.264.735-1.264.735s.713-1.197 1.161-1.205c.448-.007.713-.03 1.117.154s.779.39.779.39zm-10.468 2.268s.212-1.32.943-1.703c.583-.306 1.675.118 1.675.118s-1.197.114-1.526.392c-.297.252-.292.833-.292.833s.168-.495 1.079-.622c.91-.126 1.012-.145 1.012-.145s-1.51.403-1.78.91c-.271.507 1.565.371 1.565.371s-2.749.532-3.141.434c-.392-.098-.73-.618-1.31-.33-.582.29-1.107.957-1.107.957s.48-1.309.918-1.4c.44-.09.695-.16 1.127-.054.43.106.837.239.837.239zm19.297-2.733s.524-1.228 1.327-1.424c.64-.156 1.596.52 1.596.52s-1.19-.18-1.576.01c-.349.174-.484.738-.484.738s.283-.44 1.197-.342c.915.097 1.017.103 1.017.103s-1.562.027-1.947.454c-.385.426 1.43.738 1.43.738s-2.796-.148-3.153-.338c-.357-.19-.559-.776-1.193-.636-.633.14-1.304.66-1.304.66s.78-1.154 1.229-1.135c.448.018.713.012 1.106.218s.755.434.755.434zm8.84 1s.664-1.159 1.483-1.26c.654-.08 1.525.703 1.525.703s-1.16-.317-1.566-.173c-.367.13-.567.676-.567.676s.332-.404 1.229-.2c.897.203.998.22.998.22s-1.554-.155-1.987.224c-.432.379 1.333.9 1.333.9s-2.759-.473-3.091-.703c-.333-.23-.465-.836-1.11-.771-.646.065-1.373.504-1.373.504s.91-1.056 1.353-.985c.443.07.707.095 1.073.346s.7.52.7.52zm8.777 1.567s.619-.883 1.285-.904c.531-.016 1.174.676 1.174.676s-.91-.34-1.246-.253c-.305.078-.505.502-.505.502s.296-.3 1.002-.071c.706.229.786.25.786.25s-1.238-.238-1.613.034c-.375.273 1.005.821 1.005.821s-2.182-.582-2.433-.791c-.25-.21-.311-.706-.835-.701-.524.005-1.14.304-1.14.304s.81-.781 1.16-.692c.35.09.56.128.837.357.275.229.523.468.523.468z" fill-rule="evenodd"/><path d="M290.64 81.076c.21 1.047-1.021 2.178-2.751 2.524-1.73.347-3.302-.222-3.511-1.27-.211-1.047 1.021-2.177 2.751-2.524 1.73-.346 3.302.222 3.511 1.27z" fill="#0f6545" stroke="#000" stroke-linejoin="round" stroke-width=".435"/><path d="M286.72 80.905c.05.254-.217.521-.597.598-.381.076-.731-.068-.782-.322-.05-.254.217-.521.598-.598.38-.076.73.068.781.322z" fill="#cecfc1"/><path d="M315.09 82.344c-.319 1.02-1.943 1.418-3.626.89-1.684-.53-2.788-1.784-2.467-2.803.319-1.02 1.943-1.418 3.626-.89 1.683.53 2.788 1.784 2.467 2.803z" fill="#0f6545" stroke="#000" stroke-linejoin="round" stroke-width=".435"/><path d="M311.73 80.308c-.078.247-.44.353-.811.237-.37-.117-.608-.411-.53-.658.077-.247.44-.353.81-.237.371.116.609.411.531.658z" fill="#cecfc1"/><path d="M296.63 78.715h6.337v3.195h-6.337z" fill="#1f2d86" stroke="#000" stroke-linejoin="round" stroke-width=".619"/><path d="M299.3 79.395c0 .145-.27.262-.602.262-.333 0-.603-.117-.603-.262 0-.145.27-.262.603-.262.332 0 .602.117.602.262z" fill="#707c8b"/><path d="M278.72 81.909l1.048 3.09-1.938 1.048s-.89.628-1.781.157c-.89-.472-1.416-1.883-.943-2.462.938-1.148 3.614-1.885 3.614-1.833z" fill="#9f1209" fill-rule="evenodd" stroke="#000" stroke-width=".326"/><path d="M277.09 84.109c0 .52-.398.943-.89.943s-.891-.422-.89-.943c-.001-.52.398-.943.89-.943s.89.422.89.943z" fill="#8f322f"/><path d="M276.25 83.74a.526.526 0 01-.102.43.261.261 0 01-.336.056.526.526 0 01-.234-.376.526.526 0 01.102-.431c.09-.1.219-.121.336-.055.118.066.207.21.234.376z" fill="#e2a494"/><path d="M321.17 82.312l-1.04 2.752 2.466 1.292s1.091.487 1.78-.117c.587-.517.72-1.712.25-2.316-.444-.572-3.49-1.628-3.456-1.611z" fill="#9f1209" fill-rule="evenodd" stroke="#000" stroke-width=".326"/><path d="M324.13 84.518c0 .338-.353.613-.789.613s-.788-.275-.788-.613c0-.338.353-.613.788-.613s.789.275.789.613z" fill="#aa675d"/><path d="M323.37 84.426a.48.48 0 01-.184.393.311.311 0 01-.37 0 .48.48 0 01-.184-.393.48.48 0 01.184-.393.311.311 0 01.37 0 .48.48 0 01.184.393z" fill="#e2a494"/><path d="M305.34 78.987c0 .235-.2.426-.446.426a.436.436 0 01-.446-.426c0-.235.2-.426.446-.426s.446.19.446.426zm2.696.156c0 .235-.2.426-.446.426a.436.436 0 01-.446-.426c0-.235.2-.426.446-.426s.446.19.446.426zm-1.37 1.045c.001.295-.25.535-.56.535-.31 0-.56-.24-.56-.535 0-.296.25-.536.56-.536.31 0 .561.24.56.536zm1.304 1.762c0 .235-.2.426-.446.426a.436.436 0 01-.446-.426c0-.235.2-.426.446-.426s.446.19.446.426zm-2.602-.335c0 .235-.2.426-.446.426a.436.436 0 01-.446-.426c0-.235.2-.426.446-.426s.446.19.446.426zm-13.055-2.167a.436.436 0 01-.338.516.436.436 0 01-.531-.315.436.436 0 01.338-.515.436.436 0 01.531.314zm2.662-.457a.436.436 0 01-.338.516.436.436 0 01-.531-.315.436.436 0 01.338-.515.436.436 0 01.531.314zm-1.08 1.33a.548.548 0 01-.425.648.548.548 0 01-.666-.395.548.548 0 01.425-.648c.302-.07.6.107.667.395zm1.65 1.42a.436.436 0 01-.339.515.436.436 0 01-.53-.314.436.436 0 01.338-.516.436.436 0 01.53.314zm-2.611.26a.436.436 0 01-.339.515.436.436 0 01-.53-.314c-.054-.229.098-.46.338-.516s.478.086.53.315zm-11.98-.1a.436.436 0 01-.262.559.436.436 0 01-.57-.236.436.436 0 01.262-.559c.23-.089.485.017.57.236zm2.57-.83a.436.436 0 01-.262.558.436.436 0 01-.57-.236.436.436 0 01.262-.559c.23-.089.485.017.57.236zm-.886 1.467a.548.548 0 01-.329.702.548.548 0 01-.716-.297.548.548 0 01.329-.702c.288-.112.61.02.716.297zm1.84 1.172a.436.436 0 01-.261.559.436.436 0 01-.57-.236.436.436 0 01.262-.558c.23-.09.485.016.57.235zm-2.547.63c.086.218-.032.469-.261.558s-.485-.017-.57-.236a.436.436 0 01.261-.558c.23-.09.485.016.57.235zm35.116-3.676a.47.47 0 01-.576.331.47.47 0 01-.357-.56.47.47 0 01.576-.331.47.47 0 01.357.56zm2.782.854a.47.47 0 01-.576.331.47.47 0 01-.357-.56.47.47 0 01.576-.332.47.47 0 01.357.56zm-1.697.746a.59.59 0 01-.723.416.59.59 0 01-.45-.704.59.59 0 01.724-.416.59.59 0 01.45.704zm.91 2.174a.47.47 0 01-.577.332.47.47 0 01-.357-.56.47.47 0 01.576-.332.47.47 0 01.357.56zm-2.638-1.018a.47.47 0 01-.576.331.47.47 0 01-.358-.56.47.47 0 01.576-.331.47.47 0 01.358.56z" fill="#f5d8bc"/><path d="M322.48 55.582s-1.282 1.202-2.804 1.202-2.404-.641-2.885-.962c-.481-.32.16-1.282.16-1.282" fill="none" stroke="#000" stroke-width=".75"/><path d="M295.56 57.986s-2.324-.4-3.285-.721c-.962-.32-.721-.962-1.843-.882-1.122.08-2.244.882-2.004 2.004.24 1.121 1.042 1.282 1.843 1.041.802-.24.561-1.602-.48-1.522-1.042.08-.16.961-.16.961" fill="none" stroke="#000" stroke-width=".685"/><path d="M279.53 56.223s.641.962 2.324.801c1.682-.16 2.324-1.041 2.404-1.442.08-.4 0-1.122-.32-1.442-.321-.32-1.443-.481-1.443-.481" fill="none" stroke="#000" stroke-width=".652"/><g stroke="#161111"><path d="M312.193 169.174c1.564-1.539 3.844-2.21 5.402-6.237 1.308-3.467 2.304-8.944 3.193-12.245.328-1.163.767-3.413 1.163-5.063.346-1.443.963-2.936 1.14-3.532.342-1.157.457-2.509.607-3.454.328-2.056.608-3.484-.943-3.331-1.62.16-2.091.4-2.759 1.376-.616.9-1.409 2.196-1.874 3.647-.637 2.1-1.096 3.994-1.663 5.46-.66 1.702-.78 1.469-1.739 3.491-1.323-1.759-1.417-3.178-1.743-5.625-.325-2.435-.593-5.025-.685-7.814-.174-5.246-.48-10.743-.544-12.78-.172-2.69.014-6.56-.616-8.548-.294-.926-.94-2.203-2.177-2.164-1.434.01-2.35 1.138-2.543 2.31-.14.926-.208 2.702-.265 3.902a55.282 55.282 0 00-.004 4.953c.073 1.886.016 7.668-.021 9.548-.07 3.473-.501 3.665-1.146 3.62-.497-.415-.245-7.093-.442-12.858a519.342 519.342 0 01-.17-7.087c-.03-1.624-.03-3.567-.204-4.828-.298-2.153-.931-3.54-2.493-3.54-1.053 0-1.924.035-2.407 2.43-.26 1.29-.37 4.439-.335 6.164.04 1.926.047 3.062.1 5.713.094 4.843.512 13.635-.644 13.856-1.012-.217-.862-2.12-1.04-6.72-.069-1.812-.221-4.914-.318-7.004-.117-2.5-.255-6.14-.318-7.807-.17-1.54-.32-3.605-2.259-3.431-1.017-.124-1.763.652-2.197 3.395-.242 1.528-.077 7.617.015 9.643.184 4.032.126 5.017.148 7.556.022 2.463.26 5.819-.657 5.877-1.105-.016-.788-1.796-.97-4.618-.177-2.768-.29-6.3-.267-5.489 0-1.425-.176-3.52-.305-5.27-.1-1.368-.037-2.877-1.52-2.756-1.506.122-2.43.63-2.741 3.208-.202 1.67-.257 5.279-.301 6.587.161 3.328-.651 10.097-1.054 12.303-.11 1.563-.804 4.586-1.065 6.765-.561 4.69-.784 7.934-.163 10.745.488 2.453.833 4.37 1.783 6.338.881 1.828 2.53 3.578 2.892 5.079.707 2.931.376 8.589.376 10.966 0 2.377 2.065 2.505 6.34 1.584 6.989-1.505 10.808 1.506 16.579-.713-.733-6.576.694-10.53.656-12.907z" fill="#c00" stroke-width="1.00551295" stroke-linecap="round" stroke-linejoin="round"/><path d="M302.648 162.813c.16-8.125 7.528-16.984 10.36-18.727M292.15 149.47c2.177-.858 4.436-1.481 6.648-2.238 2.706-.763 5.327-1.857 8.12-2.29 1.346-.274 4.566-1.13 5.938-1.223" fill="none" stroke-width="1.0065724999999999"/><path d="M287.946 170.574c.232.414.781.436 1.552.494.848.012.978.04 1.514.036.95-.014 1.563-.015 2.512.003.722-.023 3.166-.492 4.986-.639 1.018-.082 1.83.158 2.358.194" fill="none" stroke-width="1.0065724999999999" stroke-linecap="round" stroke-linejoin="round"/><path d="M299.601 170.468c.155.127 1.536.12 2.551.433.896.277 1.523.334 1.688.4.625.067.212.399 3.715.117 2.172.139 4.095-1.737 4.638-2.244" fill="none" stroke-width="1.0065724999999999" stroke-linecap="round" stroke-linejoin="round"/></g></svg>