<svg xmlns="http://www.w3.org/2000/svg" width="900" height="600"><path d="M0 0h900v600H0z" fill="#006c35"/><path d="M562.26 412.5c-.01.004-.028.026-.037.032-7.245 1.569-7.02 7.909-2.369 10.703-76.507 0-193.914-1.096-219.093-1.096-14.087 0-58.653-1.419-59.511-1.419 9.558 11.798 23.403 14.202 41.52 14.443l236.242-.355c-3.185 4.774.29 12.466 2.788 13.863.053.03.138.074.191.097a1.161.98 0 00.306.096c.03.006.086-.003.114 0 2.967.59 4.272-1.223 5.271-2.547 4.813.357 31.898.687 34.377-.032.008-.003.03-.03.037-.032 1.677 2.083 3.341 4.05 6.533 3.708 5.584-1.011 9.982-1.523 10.121-11.09 0 0-.57-16.3-13.255-15.28-3 .383-11.42 1.097-11.42 1.097-9.744-.979-16.892-1.079-27.845-1.419 1.011-1.083 2.796-5.47.61-7.06-.57-.4-1.419-.623-2.597-.548h-.037c-.017 0-.061.002-.077 0-.008-.002-.03-.03-.037-.032-.03-.009-.085-.017-.114-.032a1.202 1.014 0 01-.19-.16c-.014-.015-.064-.05-.077-.065-.554-.68-.856-2.35-1.223-2.772l-.037-.032c-.005-.003-.034-.03-.038-.032a.642.542 0 00-.076-.032h-.076zm5.195 23.309c.013-.005.025.005.038 0 11.161.46 21.648.088 32.81.548 1.77 1.268.885 4.176-.267 4.706a1.427 1.427 0 01-.19.065c-.041.009-.102-.001-.153 0-.051 0-.102.009-.153 0l-9.358-.225a2.068 1.745 0 00-.076-.452c-.86-2.152-7.09-2.007-8.556-.322-.027.032-.05.063-.076.096a.716.716 0 00-.077.13 2.342 1.976 0 00-.076.16c-.023.064-.029.159-.038.226-.01.086-.046.176-.038.258-4.889.497-9.31-.138-14.209-.29-1.426-1.51-1.27-4.243.421-4.9z" fill-rule="evenodd" fill="#fff"/><path d="M602.161 258.641c1.544.758 5.604-3.84 5.46-9.615.447-2.962-1.148-13.903-5.197-15.758a3.456 3.456 0 00-1.47-.15c-2.116.283-4.118 2.083-3.2 5.031-.58 1.729 2.872 7.787 3.767 11.003.805 2.289-1.038 8.76.638 9.44zm-319.635-92.896c4.957 2.176 14.253 1.262 13.86-6.108 0-.638-.156-2.842-.227-3.437-.504-1.084-1.441-1.495-2.335-1.354l.01.002c-.904.15-1.758.836-2.072 1.942-.199.737.34 1.956-.376 2.324-.411.426-1.986.15-1.921-1.906 0-.637-.518-1.326-.829-1.736-.311-.212-.524-.283-1.092-.283-.687.018-.673.211-1.054.729-.17.497-.383 1.078-.383 1.7-.084.722-.397.972-.98 1.077-.644 0-.502.056-1.016-.283-.298-.355-.673-.426-.673-.972 0-.496-.156-1.445-.34-1.807-.277-.354-.702-.497-1.205-.638-2.707.01-2.905 2.87-2.75 3.955-.197.212-.304 5.272 3.391 6.697zm-39.732-.283c.76 1.744-.753 7.36.829 7.879 1.454.566 3.457-3.891 4.218-8.018.419-2.261.1-9.997-5.61-11.594-.298-.056-.596-.15-.905-.15-2.184-.056-4.594 1.19-3.654 3.607-.546 1.318 4.275 5.769 5.122 8.228zm175.055 2.077c2.846-7.09 2.86-10.112 3.05-13.12-.439-2.288-1.523-3.394-2.748-3.302-1.226.15-2.583 1.41-3.69 3.955-.951 1.942-2.11 12.044-1.922 12.044-.758 3.012 3.412 4.28 5.31.426zm-35.368-1.977c1.407 1.856 2.793 1.665 5.612.354 1.619-1.099 2.166-1.808 2.711-3.65.673-3.09-3.53 1.46-4.068-1.984-.939-3.196 1.744-4.507 4.293-7.602.058-1.453.085-2.643-.94-2.679-.468-.012-1.166.212-2.147.758-2.203 1.354-6.57 5.556-6.704 10.378-.135 2.721-.688 2.707 1.242 4.444zm-144.54 48.815c14.469 1.282 6.476-22.541 11.714-26.866.99-2.133 2.825-2.176 2.975.497v20.236c-.135 6.576 4.565 8.534 8.21 9.893 3.794-.283 6.31-.212 7.797 3.225l1.808 35.022s8.77 2.317 9.19-19.681c.417-12.92-2.793-23.762-.904-26.275.065-2.466 3.502-2.594 5.875-1.39 3.782 2.46 5.46 5.485 11.336 4.267 8.943-2.268 14.33-6.272 14.462-12.6-.517-6.017-1.277-12.035-4.104-18.05.39-1.091-1.712-3.933-1.319-5.032 1.607 2.325 4.037 2.126 4.595 0-1.522-4.62-3.892-9.052-7.72-10.968-3.164-2.572-7.796-2.034-9.491 3.331-.787 6.173 2.428 13.492 7.306 19.472 1.036 2.331 2.486 6.222 1.845 9.72-2.597 1.366-5.17.792-7.345-1.319 0 0-7.117-4.91-7.117-6.002 1.887-11.147.403-12.422-.638-15.517-.731-4.266-2.927-5.62-4.707-8.538-1.781-1.736-4.196-1.736-5.348 0-3.146 5.024-1.67 15.827.603 20.653 1.642 4.443 4.16 7.22 2.975 7.22-.977 2.508-3.012 1.927-4.482-.972-2.097-5.995-2.524-14.925-2.524-18.952-.623-4.989-1.33-15.655-4.896-18.361-.95-1.198-2.074-1.609-3.163-1.495-1.4.15-2.719 1.199-3.352 2.601-.233 4.954-.262 9.909.34 14.475 2.446 8.008 3.22 15.053 4.407 23.254.326 10.987-6.884 4.748-6.554-.708 1.666-7.073 1.205-18.212-.262-21.035-1.173-2.82-2.53-3.522-5.386-3.054-2.267-.15-8.118 5.754-9.754 15.481 0 0-1.363 4.996-1.959 9.442-.8 5.024-4.414 8.584-6.93-.71-2.175-6.739-3.513-23.359-7.156-19.47-1.044 12.973-2.282 35.803 9.679 38.146zm93.217-22.015c.006.003.03-.002.038 0 .007.003.03.037.037.037.007.003.028 0 .038 0l.037.038c.943.566 12.54.566 13.823.037.01-.006.03-.037.037-.037.007-.006.034.002.038 0 .003-.002-.002-.038 0-.038 3.984-1.354 22.898-21.277 22.898-21.277-.98-.773-1.883-1.347-2.862-2.12-1.05-.843-.944-1.657 0-2.5 4.684-2.51 3.2-8.041.753-10.554-2.028-.836-3.937-1.119-5.649-1.042a10.78 10.78 0 00-4.52 1.147c-3.285 2.899-4.056 7.548-1.468 10.448 2.518 1.092 5.021 3.43 3.351 4.72-7.13 7.009-25.655 18.723-26.589 20.86a.193.193 0 01-.037.057c-.004.016 0 .056 0 .075v.037c.01.02.022.038.037.075l.038.038zm28.063-31.23c.079-.016.148-.037.227-.037 1.157-.15 2.553.872 3.24 2.253.73 1.474.36 2.885-.83 3.161-1.191.283-2.733-.709-3.464-2.183-.73-1.473-.361-2.927.829-3.196zm26.16 42.923c5.785 2.204 9.457-7.943 11.826-19.055 1.62-3.125 2.858-3.472 3.69-1.878-.212 14.78 1.15 18.077 5.273 22.562 9.197 6.54 16.805.828 17.401.283l7.156-6.598c1.594-1.545 3.7-1.637 5.95-.283 2.188 1.828 1.908 4.996 6.592 7.186 3.942 1.453 12.36.354 14.312-2.778 2.627-4.153 3.264-5.577 4.482-7.151 1.874-2.303 5.085-1.275 5.085-.495-.298 1.282-2.185 2.544-.904 4.861 2.23 1.538 2.748.497 4.068.212 4.666-2.055 8.172-11.385 8.172-11.385.205-3.48-1.942-3.21-3.314-2.502-1.791 1.012-1.9 1.354-3.691 2.36-2.282.354-6.701 1.7-8.888-1.425-2.234-3.749-2.248-8.978-3.955-12.773 0-.283-2.985-5.953-.227-6.314 1.392.283 4.386.949 4.858-1.354 1.46-2.246-3.15-8.62-6.29-11.836-2.725-2.757-6.488-3.09-10.13-.283-2.551 2.161-2.174 4.585-2.675 6.874-.645 2.63-.524 5.889 2.373 9.372 2.547 4.62 7.175 10.568 5.65 18.95 0 0-2.69 3.984-7.42 3.473-1.97-.425-5.183-1.183-6.892-12.807-1.292-8.799.32-21.128-3.73-26.9-.903-2.175-1.7-4.294-3.012-4.131-.787.056-1.752 1.012-3.088 3.267-.958 2.338-5.092 5.882-2.11 13.19 2.441 4.628 3.443 12.162 2.336 20.548-1.691 2.38-2.077 3.21-4.293 5.584-3.113 3.09-6.488 2.296-9.076 1.147-2.42-1.501-4.319-2.274-5.424-7.044.199-7.608.673-20.058-.828-22.7-2.225-4.09-5.89-2.623-7.457-1.39-7.53 6.342-11.249 17.057-13.522 25.58-2.089 6.201-4.313 4.415-5.875 1.907-3.804-3.289-4.071-28.971-8.663-24.748-7.355 19.371 4.22 40.591 12.24 38.528zm-30.304-13.804c-4.383 2.183-6.08 8.67-3.35 12.461 2.55 3.331 6.58 2.12 7.117 2.12 4.295.496 6.855-7.428 6.855-7.428s.127-2.233-4.972 1.977c-2.146.425-2.438-.355-2.975-1.453-.447-2.062-.348-4.153.673-6.208.475-1.234.002-2.02-1.016-2.12-.603-.055-1.413.15-2.335.638zm283.325 98.903c-.94-.992-3.059-.426-4.483-.497-.673 0-2.912-.354-1.844-2.119.883-1.127 1.209-1.8 1.808-3.196.666-1.36.078-2.275-2.336-3.019-1.229-.212-2.08-.283-2.975-.283-.895.038-1.836.15-3.2.283-1.477.283-1.992.885-2.26 2.53.106 2.502 1.766 2.374 3.464 3.366.985 1.155 1.625 2.197-.078 4.09l-4.369 3.472c-.76 1.19-1.235 3.033 1.092 3.607 4.296 1.112 14.236-4.84 14.236-4.968 1.61-1.112 1.076-3.224.942-3.224zM669.25 184.59c-.326-2.211-1.386-7.287-.98-7.95.652-1.553 3.977.15 5.16-1.63 1.734-1.636-8.588-13.812-12.203-19.02-.723-1.304-1.168-2.382-1.808-2.325-.496.037-1.105.787-2.034 2.6-2.235 3.38-3.013 9.417-2.109 14.753 5.382 33.547 9.38 66.032 10.207 95.766-.46 2.82-.595 4.322-2.034 7.878-3.176 3.748-6.678 8.457-9.98 10.725-3.3 2.268-10.321 4.43-12.617 6.109-7.284 3.883-7.332 8.342-1.432 8.504 10.15-1.084 22.159-1.85 30.431-13.363 2.214-3.224 4.82-11.97 4.935-17.32.774-31.375-.433-62.052-5.538-84.727zm-439.348 61.52l37.662-16.66c-2.059-2.834-.127-5.385-7.87-5.59-11.902.211-29.332 14.377-29.792 22.248zm6.709 35.954c-3.131 5.86-4.434 1.849-4.707-1.425-.475-6.208.17-11.925.904-16.452.39-2.324.376-3.132.079-3.125-.298.01-.9.836-1.695 1.757-7.08 10.397-7.71 25.914-3.804 30.545 2.077 2.19 5.499 3.146 8.022 2.466 4.449-1.78 6.403-10.082 5.347-13.12-1.484-2.147-2.661-2.48-4.143-.637zm88.782-15.624c5.157-15.824-.107-27.761 1.62-29.225.015-.012.06-.019.08-.038.014-.01.057-.018.078-.037.017-.008.056-.038.079-.038a.895.895 0 01.226-.037c6.364 6.314 15.292.8 17.249-1.39.84-1.09 2.939-1.8 4.406-.425 4.964 3.288 13.663 1.736 15.48-4.06 1.05-5.67 1.936-11.508 2.146-17.563-3.234.928-5.841 1.622-6.892 2.636-.248.283-.432.497-.49.837l-.828 5.031c-.026.15-.078.283-.148.426-.148.212-.361.425-.602.497-1.143.566-3.137.283-3.24-1.283-1.535-6.442-7.866-7.283-11.712 2.707-2.587 1.935-7.306 2.31-7.797-.566.624-6.704-2.31-7.601-8.172-4.443l-5.649-39.221c2.448-.056 4.692 1.566 6.93-1.014-2.41-6.945-7.545-21.063-10.432-22.389-.022-.009-.052-.018-.079-.037a5.67 5.67 0 00-.41-.426.698.698 0 01-.184-.15c-.053-.037-.135-.056-.184-.15-.12-.056-.248-.15-.376-.15-.255-.056-.524-.056-.791-.056h.002c-.718.056-1.512.426-2.448.638-3.075.907-5.955 3.352-5.047 8.122l9.642 56.265c.56 2.38-1.61 5.527-4.406 5.208-4.754-2.962-5.926-8.977-14.047-8.711-5.874.056-12.572 5.952-13.408 11.627-.98 4.507-1.328 9.397 0 13.329 4.117 4.57 9.072 4.089 13.408 3.054 3.565-1.354 6.497-4.592 7.758-3.82.004.004.034-.003.038 0 .003.006-.004.038 0 .038.777 1.254-.072 11.843-16.799 20.027-10.278 4.252-18.46 5.265-22.861-2.466-2.727-4.833.198-23.232-6.515-18.987-19.856 47.169 46.518 53.754 53.932 1.941.482-1.459 1.943-2.927 2.976-2.565.446.212.867.744 1.017 1.8-1.539 46.911-51.348 50.126-59.807 35.37-2.097-3.48-2.729-11.222-2.938-15.862-.382-2.806-1.148-4.43-2.034-5.067-2.008-1.39-4.72 2.254-5.31 8.573-.84 5.089-.602 6.477-.602 11.386 2.656 37.051 66.754 21.131 77.17-9.476zm-24.76-32.06c-.005.006.003.037 0 .037-.01.017-.027.056-.038.056-.496.567-2.254.355-3.502.355-1.512-.057-2.256-.283-3.164-1.425-.432-1.262.887-2.502 1.47-3.437.006-.01.032-.02.038-.038.078-.056.163-.212.262-.283.453-.426 1.233-.737 2.071-.836.163-.019.32-.038.49-.038 1.166.012 2.397.497 3.049 2.048.481 1.206.226 2.559-.674 3.544zm274.802 60.7l-11.149 1.105zm-62.86-96.081c4.957 2.175 14.292 1.219 13.897-6.144 0-.638-.191-2.842-.262-3.437-.503-1.091-1.44-1.495-2.335-1.354-.894.15-1.757.857-2.071 1.984-.199.737.382 1.92-.34 2.29-.412.425-2.024.15-1.96-1.879 0-.637-.51-1.36-.828-1.772-.312-.211-.524-.283-1.092-.283-.687.02-.673.212-1.054.73-.163.497-.376 1.083-.376 1.7-.084.722-.361.972-.94 1.078-.646 0-.532.057-1.055-.283-.298-.354-.674-.425-.674-.97 0-.498-.155-1.44-.34-1.808-.269-.355-.701-.426-1.204-.567-2.708.01-2.868 2.842-2.712 3.92-.198.21-.34 5.321 3.351 6.731zm79.925 18.988c.084-4.301.538-10.016.79-13.573.107-1.346.446-2.82 1.844-3.16 1.395-.355 3.814 1.29 3.842-.15-.255-2.736-.847-6.768-2.524-8.677-.858-1.176-2.267-1.808-3.728-1.878-2.434-.15-5.025 1.346-5.688 4.408.01 1.807.886 2.8.715 4.436-.255.936-1.303 1.553-3.804.426.397-.355-1.62-2.955-1.62-2.955-1.951-1.091-4.556.056-6.252 1.076-.933 1.56-1.622 4.245-.56 6.973 2.8 4.77 12.406 12.903 16.987 12.982zm-30.888 59.344c3.454.02 7.446-7.28 9.152-14.507.934-9.956-.624-16.015-.904-21.867-.284-5.853-7.188-53.33-8.587-57.758-1.687-8.371 6.717-1.107 5.8-5.967-2.905-6.138-10.158-15.087-12.428-20.41-.853-1.43-.959-2.749-1.657-2.635-.418.075-1.038.637-2.185 2.048-2.836 8.542-3.832 15.52-2.75 20.825 7.282 35.025 14.744 66.934 13.559 100.276zm-25.91-7.148c-7.971 7.67-19.464 17.124-31.975 21.486-1.346 1.39 3.346 7.329 9.416 7.323 10.15-1.083 19.07-6.335 27.343-20.165 2.213-3.225 6.1-10.13 6.215-15.482.774-31.374-1.707-55.768-6.816-78.444-.326-2.211-.107-4.812.297-5.485.652-.724 2.886.017 4.068-1.772 1.734-1.63-4.632-15.167-8.248-20.376-.723-1.305-1.168-2.345-1.808-2.289-.496.038-1.105.752-2.035 2.573-2.236 3.38-3.754 9.251-3.579 14.752 4.841 30.894 6.327 57.929 9.491 88.823.256 2.99-.22 7.328-2.372 9.06zm20.84-12.66c.12-.425.1-.425 0 0zm-40.62-87.098c1.769 4.564-1.35 8.916.49 9.546 1.693.708 4.05-4.72 4.934-9.72 1.021-4.046-2.113-12.344-6.554-14.056-.34-.075-.701-.075-1.054-.15-2.54-.075-5.35 1.41-4.256 4.337-.638 1.601 5.457 7.037 6.44 9.996zm89.506 47.378a.886.886 0 00-.41.038l-23.539 15.584c-2.278 1.871-1.138 8.429 0 7.672 1.647.566 24.772-13.86 24.33-15.551 1.008.056 1.493-7.43-.375-7.74zm-16.17-42.142a824.224 824.224 0 0120.489 24.157c1.453 17.235 1.84 33.032 3.314 50.294-.205 7.384-2.673 17.189-5.008 18.12 0 0-3.567 1.884-5.95-.212-1.733-.638-8.663-10.657-8.663-10.657-3.547-2.998-5.912-2.14-8.436 0-6.96 6.194-10.109 17.798-14.838 25.79-1.219 1.785-4.655 3.295-8.473-.15-7.858-9.903-5.629-23.179-5.14-25.493l-.099.426c-8.64 8.973-4.813 23.841-2.862 27.04 2.848 5.25 5.152 8.613 10.696 11.21 5.05 3.423 8.979 1.29 11.148-1.106 5.08-4.855 5.148-17.26 7.532-19.715 1.673-4.514 5.865-3.735 7.91-1.736 1.98 2.622 4.32 4.337 7.23 5.761 4.74 3.848 10.395 4.55 15.97 1.043 3.808-1.97 6.28-4.536 8.511-9.581 2.394-5.896 1.21-36.81.673-54.008l10.621 14.196c1.54 15.087 2.24 29.963 1.733 44.22-.362 2.834 10.733-8.464 10.659-13.815v-12.878c5.383 7.92 10.592 15.972 15.516 24.124 3.051-1.481 2.006-17.414.079-19.61-5.157-7.974-11.76-16.59-16.873-23.256-1.011-8.424-2.388-18.34-3.013-21.383-.974-4.74-1.952-11.865-3.428-17.493-.404-2.197-1.627-9.217-1.241-9.891.602-1.566 2.872.056 3.992-1.772 1.675-1.688-5.805-19.546-9.605-24.645-1.365-2.289-3.834-1.494-6.892 2.225-2.836 2.445-1.808 8.024-.715 13.329 2.812 13.521 5.32 27.293 7.306 41.028l-12.58-17.008-.56-2.679c0-.283-.602-11.06-1.13-13.64-.099-1.047-.36-1.346.83-1.21 1.262.976 1.433 1.027 2.222 1.353 1.276.212 2.389-1.772 1.62-3.607L609.977 154.3c-.474-.425-1.006-.885-1.62-.97-.609-.076-1.282.21-2.034 1.21-1.438 1.163-2.984 3.267-2.938 5.967.348 4.762 1.27 9.64 1.62 14.405l.376 1.907a18.137 18.137 0 00-1.319-1.425c-10.075-9.756 4.62-1.594-1.921-9.13-5.539-5.605-7.16-7.389-11.901-10.76-2.377-1.417-3.814-4.124-4.595.426-.298 4.046-.631 8.736-.333 12.15-.017 1.891 2.114 5.463 3.954 7.566zm58.42 7.825c.805 2.29-1.226 9.664.446 10.344 1.543.757 3.714-5.096 4.52-10.518.446-2.962-1.939-13.382-5.99-15.237-.318-.056-.644-.15-.978-.15-2.316-.056-4.841 1.545-3.842 4.72-.581 1.729 4.941 7.614 5.838 10.829zM472.08 290.264c0 .212 1.94 1.709 4.218.426 4.808-1.693 7.804-3.338 14.537-4.684 1.768-.038 1.665-4.394-1.13-4.543-3.646.212-7.013.355-10.66 2.984-2.243.425-2.628-.78-3.126-1.907-.567-2.799 1.283-4.776.904-6.874.099.075-1.132-.928-2.712-1.006-.574-.02-1.146.075-1.656.354-.1 0-5.07 3.09-6.666 5.237-.975.709-.864 1.275-.56 2.466.76 1.609 2.097 1.106 3.616.354 2.015-.283 2.99.964 2.824 3.196-.93 2.778.411 3.82.411 3.997zm22.732-44.232l.037-.038c.004-.003.034-.037.038-.037.003-.004.03-.019.037-.038v-.075a1.247 1.247 0 00-.037-.354l-2.185-1.183-43.048-.212c-.532-.212-.928-.426-1.167-.497a2.149 2.149 0 01-.08-.075l-.037-.037-.037-.038-.038-.056-.037-.038v-.037l-.038-.038V242.942l.038-.038.037-.056c.199-.283.719-.497 1.356-.73 10.28-1.29 28.541-4.046 29.754-20.234-.198-8.423-3.914-13.952-15.139-15.483-8.249.566-14.13 7.942-13.183 16.038-.39 2.175.801 6.463-1.62 6.937-15.822 1.334-33.09 10.459-33.67 17.008h-.038l-.038.037-.079.038h-.079c-.037.012-.078.018-.112.037h-.226c-.05-.01-.1-.019-.148-.037-1.029-.283-2.354-1.828-2.146-4.025-.602-11.304-4.595-24.096-10.847-33.947-2.231-2.055-3.214-2.884-3.841-2.983-.021-.002-.055 0-.08 0h-.233a.305.305 0 00-.184.15c-.04.019-.078.037-.112.056-.482.354-1.056 1.106-2.335 1.942-2.157 2.26-2.543 3.834-2.411 8.365.12.425 4.094 10.644 7.457 17.805 2.268 7.433 4.365 15.947 2.825 23.985-5.31 10.628-15.984 20.16-26.287 25.338-5.25 1.545-9.782 1.02-10.997-.038l-.036-.037c-3.013-1.872-3.082-5.18-2.897-5.762v-.037l.037-.038c8.695-5.584 18.625-10.088 26.4-25.164 2.297-5.762 2.998-9.215.716-18.119-.889-3.316-1.989-6.045-4.444-8.4l.037-.037c1.48-.638 5.32 1.956 5.913.354-.909-4.252-4.032-9.957-7.57-12.877-3.097-2.594-6.468-2.892-9.303-.497-3.193 1.637-3.873 7.52-2.335 12.669 1.707 3.876 6.32 4.55 9.604 12.356v.038c.068.426 1.127 5.832-.524 7.983-1.343 3.855-18.58 16.383-19.811 17.146-.014.014-.1.056-.115.075l-.037.038c-.013.01-.025.018-.038.037-.012.012-.024.019-.037.038h-.08c-.012-.012-.025-.02-.037-.038v-.037a.283.283 0 01-.037-.075c-.053-.355.04-1.107 0-2.396-.114-2.345.94-7.662.865-8.574v-.037l-.037-.038v-.037h-.038c-5.7 3.387-7.582 13.792-8.624 16.87-14.432 9.191-30.832 16.028-40.26 25.338-4.916 7.073 33.87-8.124 38.378-9.962.04.019.079.075.113.15.856.864.93 3.898 3.502 6.626 4.03 5.031 12.601 8.132 20.94 6.208 13.985-4.656 22.041-13.442 30.244-23.186 1.172-1.573 3.01-2.807 4.707-1.594 5.636 11.63 21.887 19.904 42.897 20.757 4.861-5.45 2.537-8.126.56-9.268-.602-.426-10.449-3.912-11.976-7.428-.963-3.274 1.375-6.18 6.063-8.365 13.49-1.502 26.75-3.175 39.584-6.974.127-3.975 2.67-9.915 4.369-12.496 1.18-1.792 1.938-1.97 2.222-2.225zm-35.505-24.912c.03-.15.078-.212.148-.355.024-.037.047-.056.079-.15l.037-.037c.056-.075.12-.15.184-.212.269-.212.659-.354 1.093-.426.937-.075 2.167.212 3.35.837 1.715.915 2.773 2.296 2.637 3.302-.005.019.006.056 0 .15-.006.019-.066.056-.079.15l-.037.15c-.007.016-.03.056-.038.056-.012.019-.024.038-.037.075-.064.075-.143.212-.227.283-.823.71-2.726.567-4.52-.354-1.698-.908-2.748-2.296-2.635-3.295.004-.02.032-.057.037-.15zm-17.21 39.736c-4.62 1.46-9.056 2.6-9.076 8.747.603 3.047.475 4.641-.037 5.378-.045.057-.092.15-.148.212l-.038.038-.037.037c-.012.012-.025.02-.038.038l-.037.037c-.027.011-.053.02-.08.038-.07.056-.147.056-.226.15-.064.019-.155.019-.226.037-1.098.15-2.692-.815-3.88-1.389-2.848-1.885-10.84-6.449-11.977-16.245-.163-2.21 1.633-4.117 4.52-4.301.142-.01.261 0 .41 0h.079c4.795 1.198 11.865 1.325 18.004 1.906 4.998.283 7.469 3.898 2.787 5.414zM341.09 247.32c-.114 1.764 5.284 3.911 5.611 7.983.772 1.68-1.155 7.065.454 7.566 1.474.566 3.52-3.72 4.293-7.705.425-2.183-1.852-9.814-5.725-11.176-.602-.15-1.226-.212-1.844-.15-1.87.15-3.54 1.042-2.788 3.472zm86.758-24.858c4.957 2.176 16.772.9 13.897-6.137 0-.638-.191-2.842-.262-3.437-.504-1.084-1.44-1.495-2.335-1.354-.895.15-1.758.836-2.072 1.942-.198.737.383 1.956-.333 2.331-.41.426-2.023.15-1.959-1.878 0-.637-.517-1.36-.828-1.771-.312-.212-.482-.284-1.054-.284-.688.02-.702.212-1.092.73-.164.497-.376 1.084-.376 1.7-.084.722-.361.972-.941 1.077-.645 0-.503.075-1.018-.283-.297-.355-.715-.426-.715-.972 0-.497-.12-1.438-.297-1.8-.27-.354-.747-.425-1.243-.566-2.707.01-2.867 2.842-2.711 3.919-.199.212-.34 5.322 3.35 6.732zm41.975-50.31c8.31 10.296 16.307 20.641 24.03 31.344 1.204 7.947 2.103 15.72 2.674 23.464 1.251 16.975 1.63 38.108.489 55.986 3.451.15 8.98-5.138 10.922-12.842 1.263-10.66-.447-32.412-.56-38.702-.079-2.608-.255-5.726-.454-8.99a572.793 572.793 0 0126.25 43.596c3.12-1.361 2.428-17.547.603-19.82-6.847-13.58-16.305-26.986-19.32-32.143-1.09-1.85-4.796-7.058-9.19-13.05-.809-8.55-1.687-15.792-2.26-17.98-1.413-9.039 4.03 1.013 3.277-4.238-1.768-9.026-7.173-15.16-13.559-23.428-2.058-2.686-2.008-3.239-5.197.637-1.9 3.976-1.874 7.278-1.319 10.379a56.396 56.396 0 00-3.351-4.09l-10.432-8.155c-1.444-.944-4.191-2.41-6.29-2.225-1.26.15-2.262.787-2.636 2.5-.504 4.033-.241 6.223.489 9.58.56 2.24 4.097 5.982 5.837 8.159zm17.596-.566c.198.872.425 1.744.567 2.636.474 1.92.883 3.827 1.318 5.726-1.827-2.324-3.34-4.195-3.991-4.861-4.138-4.536.091-2.97 2.108-3.5z" fill="#fff"/></svg>