<svg xmlns="http://www.w3.org/2000/svg" width="1200" height="600"><clipPath id="a"><path d="M0 0v150h700v150H600zm600 0H300v350H0v-50z"/></clipPath><path fill="#012169" d="M0 0h1200v600H0z"/><path stroke-width="60" stroke="#fff" d="M0 0l600 300m0-300L0 300"/><path stroke-width="40" stroke="#c8102e" d="M0 0l600 300m0-300L0 300" clip-path="url(#a)"/><path stroke-width="100" stroke="#fff" d="M300 0v350M0 150h700"/><path stroke-width="60" stroke="#c8102e" d="M300 0v350M0 150h700"/><path fill="#012169" d="M0 300h600V0h600v600H0z"/><path d="M999.475 257.01c-.192 67.849-10.98 140.945-99.473 175.762-88.498-34.817-99.285-107.913-99.477-175.763z" fill="#128bbf"/><path d="M900.002 432.772c40.117-15.782 64.966-41.537 79.395-69.002-2.275-.767-6.806-.837-8.64-.179-2.177-.14-85.552-6.283-95.343-9.847-8.518-3.1-41.017 2.634-56.187 8.014 14.153 29.213 38.665 54.447 80.775 71.014z" fill="#e8ece9"/><path d="M838.156 390.71c1.352-.437 3.934-.333 4.952-.15 1.197.216 1.414.324 1.85-.972.435-1.296 1.415-.972 2.176-.324.762.648 2.717.324 3.479-.756.762-1.076.98-.968 1.741-.216.762.756 1.088.54 1.85.324.762-.212 2.068-1.076 2.721-2.264.653-1.189 1.628-1.62 2.173-.973.544.648 1.088.973 1.85.865.762-.108.98.648.87 1.616-.108.972.327 1.188 2.177-.32 1.633 1.616 2.173.968 2.173-.756 0-1.729-.432-8.097-1.085-8.961-.653-.864-1.306-3.349-1.414-5.293-.206-3.668-.218-3.884-4.68-6.153 0-1.296-.327-1.836-3.479-1.62.11-.432-.435-1.728-1.088-2.268-.653-.54-.762-.756-.435-2.264 1.306.108 2.72-.108 3.482-1.188.758-1.08 3.261-.865 4.785-.216 1.523.648 3.482.756 6.417.324 1.088-.865 2.938-1.837 4.897-2.917 1.955-1.08 2.5-1.512 2.608-3.024.28-3.876-1.088-8.313-2.177-10.361-1.084-2.052-1.41-4.645-2.934-7.885-1.658-3.527-1.633-4.425-3.483-6.585-.506-.594-1.088-1.08-1.197-2.264-.109-1.188-.544-2.808-1.846-3.996-3.29-2.996-4.57-12.634-5.877-19.759-.75-4.083-.217-13.709-1.955-15.221-2.938-2.377-4.353-1.944-6.312-2.7-1.415-1.945-2.064-5.83-3.37-9.286-2.067.324-3.482 2.485-4.897 3.24-1.415.757-1.632.757-1.632 2.701 0 1.94-1.089 4.64-3.044 7.665-1.959 3.02-5.224 2.16-7.94 6.693-5.986-7.233-6.095-9.285-6.53-11.338-.436-2.048-1.415-2.48-4.785-5.396 0-.864-.435-4.317-.108-6.26-2.504-2.053-4.354-1.729-5.547-.217-1.197 1.512-2.068 3.777-3.918 4.64-1.109 1.4-4.454 4.932-7.191 9.136 2.49 37.572 11.034 74.87 36.723 104.698z" fill="#69522b"/><path d="M999.475 257.01c.075-25.558-1.356-50.372-.703-72.116-33.069-14.686-76.58-17.706-98.77-17.706-22.194 0-65.706 3.02-98.774 17.706.653 21.744-.775 46.558-.703 72.115z" fill="#bca76b"/><path d="M805.903 286.593c1.089 1.728 3.048 4.698 3.265 6.314.762-1.566 1.36-2.264 1.524-3.236.163-.972 1.306-2.862.87-3.888-.435-1.027-.761-1.837.436-1.08 1.193.756.963 2.064.703 3.996-.703 5.289-2.934 6.369-3.26 9.933 3.21 7.503.816 10.203 4.294 17.544.544.324 1.997-.253 2.432-.145 1.846-1.297 3.228-.827 5.835-.287 2.612.54 4.027 2.372 4.027 3.992s0 2.053.544 3.025 1.633 2.484 1.415 3.564c-.218 1.076.218 1.724.544 2.264.327.54-.109 1.728-.435 2.485-.327.756-.218 1.728 1.088 3.348 1.306 1.616 4.35 8.42 4.35 12.413 0 3.997.217 5.833 1.85 6.585 1.632.756 2.176 1.404 1.959 3.132-.218 1.729.761 10.69.979 12.094.218 1.404.762 1.08 1.415 1.836.649.752 1.084 1.616 3.26 1.616 2.177 0 4.279-.287 5.693-.07 1.96 2.7 3.157 6.368 3.592 8.636.435 2.269.398 5.364 1.16 5.364.761 0 1.523.108 1.305-2.7-.217-2.81-.435-3.241-1.414-4.641-.98-1.404-1.524-2.052-.98-2.917.544-.864.653-2.268.435-3.348-.217-1.08-.544-2.696 1.306-.54 1.85 2.16 2.395 2.7 2.939 3.456.544.756.758 2.16.653 3.457-.109 1.292.105 1.832.866 1.184.762-.644 1.742.432 1.306 1.836-.435 1.404.11 2.268 1.415 2.7 1.306.432 1.85.756 2.177 1.729.326.972 1.415 1.4 1.415-.54 0-1.945-.762-6.05-1.306-7.341-.544-1.296-.98-4.105-1.089-5.725-.108-1.62-.435-2.048-1.197-2.372-.762-.324-1.415-.864-1.523-1.62-.11-.756-.762-1.026-1.252-1.026s-.92-.378-1.193-.919c-.272-.54-.544-.594-1.088-.648-.544-.054-1.415.27-1.687-.594s-.653-2.106-1.197-2.808c-.545-.702-1.034-.918-1.089-3.344-.054-2.43-.109-2.755-.87-3.619-.762-.864-2.068-3.128-2.612-4.1-.54-.972-1.085-1.944-1.085.108 0 2.048 0 3.128 1.302 3.884 1.306.756 1.633.756 1.089 1.836-.545 1.08 0 1.837.217 2.593.218.756.653 1.512 0 2.264-.653.756-1.306.54-1.197-.644.109-1.188-.326-2.592-.866-3.564-.545-.973-.98-1.62-1.633-1.08s-1.197-.109-.762-.54c.436-.433.327-.757 0-1.08-.326-.325-.435-.649.11-1.297.543-.648.543-.972.217-2.48-.327-1.512-2.721-9.07-3.81-10.797-1.088-1.729-.979-3.025.436-1.297 1.415 1.729 2.612 3.24 2.72 4.64.11 1.405.436 2.27.872 2.81.435.54.761.323.979-.865.218-1.188 1.088-.756-.435-3.02-1.524-2.268-4.354-6.049-5.442-12.85-1.088-6.8-1.524-11.337-2.612-13.169-1.084-1.836-1.41-2.268-1.52-3.996-.108-1.729 0-3.457-.761-4.749-.762-1.296-1.306-1.512-1.415.432-.109 1.94.109 6.26.653 7.017.544.756.218 2.696.109 3.776-.11 1.08-1.821 2.148 1.741 4.32 1.415.865 1.193 2.053.98 2.81-.218.751-.436.643-1.198-.54-.761-1.19-1.523-2.161-2.285-2.81-.762-.647-.87-1.08-.762-2.592.109-1.512.435-2.592 0-3.128-.435-.54-.653-.108-.87.752-.218.864-.436 3.24-.871 3.889-.436.648-.653.216-.98-1.189-.326-1.404.11-3.56.87-6.044.763-2.484 1.198-5.077.545-8.313-.653-3.24-.326-4.213-2.83-6.909-2.499-2.7-5.328-5.292-6.525-8.637-1.198-3.348-1.415-6.264-2.721-7.777-1.302-1.508-3.152-3.452-4.35-3.992v-4.964c0-1.189-.543-1.945-1.958-1.729-1.415.216-2.286 1.404-3.152 3.02-.87 1.62-1.524.865-2.721 3.673s-2.939 4.208-2.939 7.233z" fill="#cfa763" stroke-width="4.17"/><path d="M813.735 318.224c.87.54 1.704.902 3.01.253 1.306-.648 2.867-2.517 4.608-.68 1.738 1.831 2.717 4.856 2.717 7.232 0 2.372 0 6.8 2.721 9.285 2.72 2.48 4.131 5.072 4.24 8.313.11 3.236 1.306 8.205 1.633 9.5.326 1.293 1.088 2.805 1.959 3.67.87.863 1.523 3.348 1.632 5.936.11 2.592-.326 4.428 0 5.725.327 1.296 0 2.376-.98 1.728-.979-.648-1.196-.972-1.74-2.053-.545-1.08-1.198-.864-.654.757.545 1.62 2.177 3.128 3.592 3.128s1.85.216 2.72 1.08c.867.864.976 1.296 2.5 1.296 1.523 0 1.741 0 3.156.432s1.415.216 2.176 0c.762-.216 1.52.432 2.064 1.836.544 1.405 1.85 5.289 1.85 6.369s0 2.16.762 3.24.544 2.16-.326 1.513c-.871-.648-.871-.432-1.524-.324-.653.108-1.088-.216-1.955-.757-.87-.54-.326-.432-1.197-1.728-.87-1.296-1.415-1.728-1.415-.756s-.109 2.16-.762 1.62-.98-.54-1.523 0c-.545.54-.762.973-1.415-.108-.653-1.08-1.415-1.08-2.068-1.296-.653-.216-.653-.216-.975-1.188-.327-.972-1.306-1.188-2.177-1.188-.87 0-1.306-.432-1.415-1.08-.109-.644-.653-1.076-1.088-1.4-.435-.324-.218-1.08-.327-1.836-.108-.757-.761-.433-1.197-.649-.435-.216-.762-.108-.762-1.188 0-1.08-.435-1.404-.761-2.16-.323-.756 0-1.512.217-2.372.218-.864.11-1.404-.54-2.16-.653-.756-.109-1.513-1.85-3.025s-2.612-.216-3.156-3.776c-.544-3.565-1.633-10.905-2.612-12.093-.98-1.189-1.628-2.053-2.608-2.377-.98-.324-1.632-.108-1.741-2.16-.109-2.048-.762-4.64-2.068-5.937-1.306-1.296-1.85-1.728-2.503-2.268-.653-.54-.87-1.512 0-3.344.87-1.836.544-4.32.435-5.509-.109-1.184-.435-2.696-.217-3.992.217-1.296.108-2.917-.218-3.78-.327-.865-.762-1.08-.218-1.729z" fill="#cfa763" stroke-width="4.17"/><path d="M846.808 377.283c-.653 1.296-1.415.864-2.068.216-.653-.649-1.415-.649-1.088-1.837.326-1.188.217-1.404-.653-2.052-.1-.075-.201-.141-.302-.208-.272-.008-.59-.008-1.004-.008-1.524 0-1.633-.432-2.5-1.296a7.294 7.294 0 00-.535-.482c-.017.208-.008.482-.008.806 0 1.188 0 .972-1.197 1.296-1.197.325-.98-1.188-1.197-2.16a3.549 3.549 0 00-.189-.581c-1.31-.25-2.691-1.62-3.185-3.087-.544-1.62.109-1.836.653-.756s.762 1.404 1.741 2.052c.98.648 1.306-.432.98-1.728-.105-.416-.13-.898-.118-1.433-.234-.42-.552-.76-.97-.943-1.742-.757-1.198-.973-1.089-2.377.109-1.4-.218-1.4-1.306-.648-1.088.756-1.197-.108-1.197-2.264 0-2.16-1.415-2.16-1.737-.648-.327 1.512-.871.54-1.524-1.62s-1.524-2.7-1.632-.648c-.093 1.736-.578 2.152-1.717 1.188.201 1.254.377 2.426.52 3.348.544 3.56 1.414 2.264 3.156 3.777 1.74 1.512 1.197 2.268 1.85 3.024.648.756.757 1.296.54 2.16-.218.86-.54 1.616-.218 2.372.326.756.762 1.08.762 2.16s.326.973.762 1.189c.272.133.623.058.879.166.28-.366.535-.814.862-1.138 1.306-1.297 3.265.108 3.918 1.728.653 1.62 1.41 2.052 2.39.756.98-1.296.653-1.08 1.741.108 1.089 1.188 1.524.972 1.524.972s1.088-.432 1.85.216 1.197.54 2.608-1.512c1.415-2.052-.649-1.404-1.302-.108z" fill="#d7c99c" stroke-width="4.17"/><g fill="#7fb8c1" stroke-width="4.17"><path d="M847.787 392.396c2.608-.216 9.682-2.268 10.44-2.916 1.741 1.188 4.789 2.808 6.095 2.808-2.504.54-4.136.216-4.79-.216.327.756 1.198 1.944 1.742 2.052-2.394-.108-5.11-.648-5.981-1.512-2.068.864-5.55 1.08-7.506-.216zM852.463 395.637c.925.27 5.546 1.026 6.145 1.026-1.524 1.292-.218 2.534 2.34 2.318-1.252.162-2.616.631-1.687.81 2.23.432 8.267-1.188 9.464-1.836-2.068 2.646-12.126 5.076-16.262-2.318zM856.599 402.221c1.247-.648 4.349-.432 5.818.27-1.633.594-4.839.594-5.818-.27z"/><path d="M861.274 402.113c2.231-.378 8.54 1.134 10.77-.216-.761 1.998-4.734 2.269-6.094 1.836-1.356-.432-2.662-.972-3.587-.918.49-.27-.327-.324-1.089-.702zM863.56 405.192c1.687.266 7.723-.486 9.573-1.189 1.955.649 5.818 1.67 6.689 1.563-1.85 1.134-5.387.486-6.526 0-3.265 1.08-5.931 1.404-9.736-.374z"/><path d="M866.444 406.201c2.415.54 4.474.154 6.852-.635.74.315 2.486.702 4.127.623 1.093.619 2.562 1.483 3.977 1.59-1.47.595-6.857 0-7.94-.593-2.722.054-7.401.648-8.54 1.566-.054-.756.44-1.807 1.524-2.55zM863.56 394.016c1.883.624 8.702.324 12.18-1.296 1.374-.64 2.223.432.654.972-5.656 1.945-10.118 2.7-13.378.972-1.29-.68-1.415-1.296.544-.648zM896.955 384.84c-8.376 3.884-13.927 5.072-25.564 1.512-1.084-.333-1.85 0-.653.756 1.198.752 7.615 2.48 9.138 2.588 1.524.108.98.81.055 1.08-.925.27-1.198.918.054.432 1.252-.486 8.242-.669 11.097.81 1.247.648 1.574.54 1.465.054-.109-.486.544-.81 1.47-.918.924-.108 1.468-.432.76-.702-.707-.27-.815-.432-.271-.702.544-.27.598-.54-.218-.702-.816-.162-1.36-.378-.598-.756.761-.374 1.904-.648 2.775-.752.217-.594-.163-2.16.49-2.7z"/><path d="M883.028 385.812c4.789.336 13.6-1.837 18.28-6.37 1.628.969 3.914 2.049 5.11 2.265 1.198.216 2.286 1.296.436 1.296s-4.462-.756-5.655-1.296c-6.203 3.78-13.462 5.023-18.062 4.645-1.302-.108-1.628-.649-.109-.54zM875.468 372.314c-.644.112-3.424.756-4.185.702-.762-.054-1.524.162-1.47.702.055.54.272.864-.87.756-1.143-.108-2.123.324-2.395.648-.272.324-.49.648.653.756 1.143.108 1.742.216 3.048-.378s2.557-1.512 3.972-1.566c1.41-.054 2.826-1.89 1.247-1.62z"/><path d="M871.555 375.662c1.188.765 7.07 2.755 9.192 2.593 2.122-.162 1.724.843.109 1.188-3.32.698-7.372-.735-10.118-2.917-1.36-1.08-.108-1.458.817-.864z"/><path d="M899.403 378.525c-4.5 1.425-9.083.918-10.933.432-1.85-.486-3.537-.594-2.286.594 1.252 1.184 5.279 1.994 7.56 1.4-8.104 1.836-10.226 1.674-12.235 1.35-2.014-.324-5.794-.253-7.397-.108-1.197.108-2.83-.054-3.537-.486-.707-.432-.925-1.242 1.197-1.026 2.118.216 2.395-.216.545-.486s-4.408.486-1.905 2.052 7.995-.108 11.478.864c3.478.972 10.875 1.674 17.894-3.942.36-.287.98-1.076-.38-.644zM888.905 374.042c-.925.054-2.557-.54-3.428-.918-.87-.378-2.118-.432-1.193.81.92 1.242 4.948 1.944 6.363 1.35 1.414-.594.816-1.242 2.226-.378 1.415.864 2.884 1.458 3.918 1.458 1.034 0 1.415 0 .272-.648-1.142-.648-1.686-.81-1.795-1.35-.11-.54-.272-.864.762-.54 1.033.324 2.23.918 3.047.486.816-.432 2.336-1.404 3.696-1.404l.326-.81c-1.959-.162-3.206.432-3.75.648-.544.216-1.524.324-2.558.162-1.034-.162-2.394-.27-2.72-.54-.327-.27-.327-.486.544-.648.87-.162 1.142-.756-.055-.54-1.197.216-4.403.108-6.09-.432-1.687-.536-2.394-.59-3.102-.324-.707.27-.598 1.026.435 1.08 1.034.054 3.374.27 4.19 1.026.817.756.708.81-.217.432-.925-.378-2.612-.162-.87 1.08zM928.282 371.126c-3.261 2.376-7.18 2.916-11.855 3.24-1.36.096-.942.478.218.594 4.893.486 10.553-1.296 12.399-3.24.535-.561.477-1.492-.762-.594zM906.038 376.635c1.415.054 6.308 1.296 7.886 1.836 1.197-.108 1.524-.378 1.306-.81-.218-.432-.38-.918 1.796-.81 2.172.108 7.179.054 8.104.054.762-.325 2.444-1.62 3.206-1.675-1.955.108-10.113.54-11.147.432-1.034-.108-1.578 0-2.23.378-.654.378-1.035.54-1.851.216-.816-.324-2.286-.756-3.098-.27-.816.486-2.503.054-3.972.648z"/><path d="M925.13 376.905c.762-.325 2.444-1.62 3.206-1.675 1.415-.108 3.047.486 3.81.594.761.108 1.577-.054 1.033-.648s-.054-1.62 2.177-1.35c2.227.27 3.37.648 5.546.432 2.177-.216 3.156 1.404 7.288-.216-.327 1.62.435 1.728 1.197 1.404.762-.324 1.632-.216 2.938.756 1.306.973 9.247 1.08 11.097.757 1.846-.324 2.826.648 1.41 1.08-1.41.432-1.74 1.08-1.41 1.512.322.428.649.968-1.088.752-1.741-.216-2.068.324-2.939.972-.87.648-1.088.864-3.482.432-2.39-.432-2.826-.108-4.132.108-1.306.216-1.632.216-2.938-.216-1.306-.432-4.132-.864-5.873-.324-1.741.54-3.047 1.08-4.571.648-1.524-.432-1.633-.216-.653-1.188s1.197-.864 3.047-1.08c1.85-.212 3.265-.752 1.96-1.508-1.307-.756-1.742-.648-3.483.216-1.742.864-2.612 1.4-4.567.324-1.96-1.08-2.939-.864-4.245-.54-1.306.324-3.478-.432-5.328-1.242zM931.656 380.14c-2.491.354-3.16-1.237-5.764-.913-.871.108-2.34 1.184-.327 1.022 2.01-.162 4.186.918 6.145.756 1.959-.162 1.088-1.026-.054-.864zM928.771 382.031c1.31-.474 4.027.432 5.17.216 1.143-.216 2.231.486 1.034.864-1.197.378-4.081-.702-5.387-.324-1.306.378-2.608-.108-.817-.756zM902.773 388.994c1.796.058 8.267-.216 10.825-5.613.196-.415.38-.594 1.197-.054.816.54 3.809 2.322 9.41 2.809 1.57.137 3.265.918.109.702-3.157-.216-8.159-1.08-9.846-2.107-2.83 4.425-7.911 4.948-11.695 4.857-2.281-.054-1.737-.648 0-.594z"/><path d="M916.754 381.653c-.87 1.188-3.864 3.24-5.224 3.348-1.356.108-5.438-.27-6.472-.648-1.033-.378-2.285-.27-.816.756 1.47 1.027 5.115 1.729 6.58 1.405 1.47-.324 3.157-.81 4.3-.108 1.142.702 3.264 2.048 4.512 1.778 1.251-.266 3.809-.266 4.625.108.816.378 2.231 1.512.109.864s-3.864-.108-4.843-.54c1.088 1.512 3.558 3.942 5.66 3.942.489 0 .815.864-.219 1.35 1.034.486 3.425.864 4.676-.27-.326.432-.163.702.381.972s1.197.649.218.757c-.98.108-3.207.378-3.86.108 2.118 1.346 7.614 3.506 13.215 2.426 1.068-.204 1.633-.644-.109-.594-3.591.108-3.805.054-4.458-.32-.653-.382-.544-.702.49-1.026 1.03-.324 3.642-.702 4.73-.702 1.088 0 2.177-.433-.054-.433s-4.948 0-6.036-.378c-1.089-.378-1.905-.864-.762-1.62 1.143-.756 2.34-.54 2.884-1.242-3.592-.054-8-1.944-5.55-3.668.569-.403.38-.432-.545-.54-.925-.108-3.641-.864-4.784-1.512-1.143-.649-.381-1.189.544-1.35-2.122.377-6.367-.757-9.192-2.863zM948.68 381.545c-1.96 1.458-5.656 2.052-7.234 2.052-1.578 0-1.795.54-.544.702 1.252.162 2.612.324 3.156.162s.87-.216 1.683.162c.816.378 2.558.594 4.081.108 1.524-.486 4.023-.702 5.057-.648 1.034.054 2.176.108.109-.486-2.064-.594-5.438-.162-6.254.054-.816.216-3.047.054-1.85-.324s2.23-.972 2.83-1.458c-.436-.108-.708-.216-1.035-.324zM947.646 385.757c-1.687 1.243-4.132 2.427-6.635 2.535 2.285.81 4.19 3.132 5.655 3.024-.707.432-1.574 1.08-2.499 1.188 1.415.378 3.805-.054 5.764-1.134 3.265.918 7.505.324 8.92-.864-2.122 0-4.675-.756-5.818-1.728 1.034 0 2.009-.648 2.499-1.238-2.445.428-6.635-.756-7.886-1.783z"/><path d="M944.167 392.504c.925-.108 1.792-.756 2.5-1.188-1.792.594-9.628-.648-11.964-2.7-2.34-2.048-2.34-.486-.708.972 1.633 1.458 4.513 3.672 10.172 2.916zM949.931 397.469c-.98.54-5.655.864-7.179.54-1.523-.324-2.176-.162-1.795.432.38.594.544 1.134-.708.972-1.251-.162-3.483.108-4.403.432-.926.324-2.068 1.134-.11.81 1.956-.324 3.751-.702 5.22-.324 1.47.378 6.69.486 7.724.054 1.033-.432.326-.432-.164-.432s-.707-.324 0-.648c.708-.324 1.252-1.242 1.415-1.836zM904.678 391.208c-1.96.864-8.485 2.592-10.227 2.7-2.176.972-3.913 1.513-5.002 1.513.762.648 3.696 1.292 4.894.972-.653.644-2.173 1.4-2.717 1.724 1.737-.216 3.805.216 4.676.324-2.286 1.296-5.438 1.728-7.07 1.512.544.756 1.306 1.512 2.285 1.512-2.068.54-4.57.54-5.877.108.544 1.08 1.089 1.728 1.85 1.836-1.741.216-3.918.54-5.764-.54 1.411 1.837 4.567 2.48 9.247 1.945 4.676-.54 8.594-2.593 9.682-3.457-1.96.216-4.571.324-5.877.108 2.612-.648 8.267-3.024 9.247-3.996-1.089 0-2.173-.324-2.939-.864 1.524.216 6.857-.428 8.489-1.076-1.959-.432-3.156-1.62-3.7-2.377 6.852 2.16 14.479 1.454 18.166.54.871-.216.976-1.312-.761-1.188-3.048.216-8.92-.648-10.444-1.404 1.415 1.08 3.156 1.728 4.353 1.944-2.83.756-6.743 1.296-12.511-1.836z"/><path d="M891.626 398.117c.544-.324 2.064-1.08 2.717-1.724-1.198.32-4.132-.324-4.894-.972 1.089 0 2.826-.54 5.002-1.513-3.913-.108-6.634-.108-8.049-.864-1.415-.756-4.023-.54-5.002-.324-.98.216-.653 1.836 3.478 1.404-1.741 1.189-6.417 1.62-8.158 1.189.435 1.4.762 2.804.327 3.56 2.285 1.296 8.267 2.916 11.205 2.7-2.612-.972-4.027-2.052-1.85-2.268 2.177-.216 3.374-.648 5.224-1.188zM884.878 405.138c5.208-.432 12.181-.524 17.732-5.185 1.415-1.188 2.365-.79.98.432-2.935 2.592-10.227 6.153-17.188 6.26-2.834.046-4.131-1.296-1.524-1.507zM923.878 396.605c-1.306.486-4.952 1.08-6.036.918-1.088-.162-2.666-.216-3.537.324-.87.54-.925.864.272.972 1.197.108 2.721.216 3.483.162-.98.54-1.633 1.296-1.85 1.62 1.741-.432 4.947.324 5.872.864-.707.216-1.523-.054-2.122-.378 2.939 3.079 11.641 3.079 13.056 2.538-.653.486-1.252.973-1.905 1.135 2.45.432 5.275.378 8.05-1.243-.925.162-3.696-.108-4.404-.162a5.231 5.231 0 012.118-1.242c-1.084-.216-4.512-.108-5.328.324.326-.648.925-1.458 1.578-1.728-4.3 0-9.519-.054-11.423-1.08 3.047.324 6.42-1.458 7.831-1.458-2.39-.054-5.002-.594-5.655-1.566zM912.945 398.98c-2.123.433-5.329 1.297-6.2 1.783-.87.486-1.795.756.11.756 1.904 0 7.07.216 8.212.378-2.884-.432-6.798-.54-7.56-.54-.762 0-1.632-.054-.217-.486 1.414-.432 3.265-1.404 5.655-1.89zM908.65 404.003c.758 0 4.077 0 5.383-1.134 1.36 1.026 3.972 2.48 5.655 2.48 1.687 0 1.524.433.054.595-1.465.162-4.349-.698-5.818-1.778-1.959.702-3.587.108-5.274-.163zM883.468 418.523c3.37 1.296 7.831 2.268 11.092 1.188 1.85 1.62 5.66 1.728 7.723 1.296 2.068-.432 3.918-.648 6.204.108 2.281.756 6.96.81 8.267 1.886-1.197.059-3.755 0-4.353.167-.6.157-.273.535.816 1.13-3.696-.216-10.063 1.35-12.018 3.024.703-1.674 2.88-3.943 6.308-3.943-1.959-.697-8.212-.751-10.226.487-.598-.649-1.306-1.725-1.36-2.157-3.316 1.886-9.845-.81-12.453-3.186zM874.815 412.478c4.015-.569 6.748-1.836 7.945-3.024.708.648 3.642 1.296 6.853.324-.653.486-.708 1.404-.436 1.89-2.122.054-6.149 1.08-7.505 1.783-1.36.697-5.333 1.184-6.635.481-1.306-.698-1.36-1.292-.222-1.454z"/><path d="M889.177 411.668c-2.122.054-6.149 1.08-7.505 1.783.272.54.435 1.4.49 1.994 3.914-1.405 12.888-2.265 16.316-1.724-1.632.108-4.734 1.778-6.471 1.994 4.24-.324 8.376.54 9.46.81 1.088.27 1.306 1.08.49 1.836-.816.756-1.193.864.544.918 1.741.054 5.333-.162 6.965-1.728-.653-.702-2.34-.432-2.83-.918 1.143-.378 2.45-1.188 2.939-1.782-2.938-.054-4.027-.108-5.006-.325-.98-.211-1.687-.486-.49-1.13 1.197-.648 1.741-1.188 2.122-1.62-2.122.594-5.437 1.08-8.212-1.08 1.033.27 3.478.108 4.349-.27-.925-.486-1.683-.864-2.445-.864 2.227-1.08 6.635-2.052 12.072.108 2.721-.216 5.66-.108 7.723.432.87-.864 2.72-2.916 3.7-3.456-6.417.54-17.949-.648-17.73-3.993-2.069 2.696-6.853 4.209-8.921 3.777-.218.972.653 2.16 1.415 2.808-2.177.432-5.877.756-7.614.432.98.972 2.825 1.836 3.913 1.728-2.28 0-3.478.432-5.274.27z"/><path d="M902.5 419.28c1.742.053 5.334-.163 6.966-1.73-.653-.701-2.34-.431-2.83-.917 1.143-.378 2.45-1.188 2.939-1.782 4.567-.374 8.648-.158 10.603-.752 1.959-.594 6.965-.27 7.945-.54-4.354.697-5.224 1.076-5.442 1.778-.218.702 1.415 1.296 2.449 1.296-1.96-.108-4.408 1.944-4.626 2.754-2.607-1.512-3.859.27-4.131.864-1.088-.432-4.68-.324-6.53 1.242-2.39-.702-3.968-1.08-6.363-.702 1.47-.324 1.198-1.296-.98-1.512zM923.388 406.646c1.47-.054 4.676.108 5.819-.054-.762.378-1.737 1.08-1.955 1.404 3.696-.432 8.753-.702 10.222-.486-1.792-.27-3.642.864-4.567 1.458-.925.594-.38.972.87 1.134 1.252.162 2.94 1.134.654.81-2.286-.324-6.798-.324-7.886-.162-1.089.162-1.687-.378-.11-.594 1.579-.216 2.663-.756 3.425-1.188-1.306.324-3.805.324-4.567.108-.762-.216-1.252-.648-.38-.864.87-.216.271-.54-.654-.432-.925.108-3.265 1.08-4.57 2.322 1.414-1.458 2.666-2.754 3.7-3.456zM906.8 409.076c1.796 1.998 3.914 3.132 7.287 3.24.708.021 2.026.964.327 1.027-4.571.162-6.852-.919-8.866-3.835-.414-.598.352-1.433 1.252-.432zM964.778 384.515c-1.356.918-3.152 2.539-1.959 4.803.143-.075.277-.162.415-.241a131.757 131.757 0 0013.776-20.087c.046-.24.087-.469.117-.668-1.524 1.296-3.918 2.588-4.898 2.912.653 1.728-2.39 3.996-4.022 4.644.653 1.08.435 2.7-.98 3.025.327.968-.762.968-2.068 1.508s-1.959.972-2.39 1.62c.703-.378 1.683-.702 2.227-.54.544.162.653.972-.326 1.188-.98.216-1.629.756-1.96 1.188 1.415-.54 3.429-.27 2.068.648zM868.888 359.9c1.633 1.135 4.517 3.02 8.267 2.75 1.85 1.46 4.735 2.701 6.04 2.971-2.503 1.026-5.223 1.89-5.93 2.7-1.144-1.08-2.609-.918-2.99-1.458-1.088.865-.925 1.405-.217 1.837.707.432 6.2 1.35 7.56.972 1.36-.378 1.724.74.598 1.13-2.938 1.026-8.648.054-10.607-3.074-1.959-3.133-3.646-4.321-8.974-1.459-.599-1.512-.599-1.89-1.633-1.89s-2.938-1.35-1.47-1.296c1.47.054 5.823-.594 9.356-3.182z"/><path d="M870.194 366.863c-.908.225-3.482 1.62-4.403 1.729-.925.108-2.558 1.404-.87 1.458 1.682.054 3.858-1.782 5.056-1.944 1.197-.162 1.306-1.513.217-1.243zM877.319 371.936c.163.54.163 1.134 0 1.512-.164.378-.164.864.544.324.707-.54 1.143-1.188 1.85-.81.707.378 2.503.324 3.315.216.82-.108 1.089-.27-.104-.756-1.198-.486-2.395-.648-3.048-.594-.653.054-1.469-.108-2.013-.324-.544-.216-.708-.108-.544.432zM903.1 372.098l-.327.81c2.013-.054 6.91.432 8.485 1.404 1.523-1.188 1.251-1.566 2.34-1.35 1.088.216 2.448.594 3.047.27.599-.324 1.034-.27 1.687-.162.649.108 2.064-.162 2.88-.648.816-.486 2.503-1.134 3.482-1.134.98 0 2.173-.216.381-.486-1.795-.27-4.516.27-5.441.594-.921.324-3.696.54-5.329.54-1.632 0-3.86.81-5.71.324-1.85-.486-4.407-.162-5.496-.162zM934.05 371.342c2.403 1.126 7.233 2.106 10.988 1.944.653-.029 1.967.665.322.81-4.24.378-8.05-.212-11.582-2.16-.98-.54-.653-1.026.272-.594zM936.499 371.288c3.696-.108 6.47-.054 7.614 1.026 2.118-.648 5.927-1.026 6.798-.864.87.162 1.85-.216-.164-.702-2.013-.482-6.689-.644-8.158-.374-1.47.266-6.04.428-7.56.266.653.108 1.084.216 1.47.648zM950.856 372.746c1.741-.918 6.744-.054 8.267-.702-1.088 1.296 3.483 1.404 7.451.378-1.524.972-4.784 1.134-6.2 1.728-1.414.594-2.176.162-3.264-.324-1.088-.486-3.86-1.458-6.254-1.08z"/><path d="M966.574 372.422c-3.968 1.026-8.54.918-7.45-.378-1.524.648-6.527-.216-8.268.702 1.796-1.08 3.156-.216 4.458-2.43.816.166 2.72.274 3.374-.59 1.143.27 3.156.756 3.755 1.346.598.594 1.52-.162.757-1.076 1.796-.648.657.768 4.843-.27.871-.216 2.993-.594 3.7-.648-1.414 1.134-3.101 2.372-5.169 3.344z"/></g><path d="M999.475 257.01c-.192 67.849-10.98 140.945-99.473 175.762-88.498-34.817-99.285-107.913-99.477-175.763z" fill="none" stroke="#000" stroke-width="2"/><g stroke-width="4.17"><path d="M839.951 287.527c-1.473 1.882-3.043 3.457-5.073 4.894-2.03 1.442-4.642 2.593-3.194 5.04 1.453 2.446 2.612 2.737 2.901 4.607.293 1.87.728 3.456 2.177 3.888 1.452.428 2.03.141 2.03 3.166 0 3.024 0 4.175 1.306 5.326 1.306 1.15 1.16 2.301 1.741 5.039.578 2.734.578 8.637 2.32 12.667 1.74 4.03 5.658 11.661 5.223 13.244-.435 1.583-1.017 2.733.724 4.603 1.742 1.873 2.901 4.607 3.048 6.19.142 1.587.435 2.16 2.172 1.587 1.741-.578 2.612-1.155 3.194-1.874.578-.718 1.737-.573 3.336.287 1.595.864 4.06 1.728 5.509.864 1.452-.864 2.176-2.156 3.482-2.156 2.03-1.442 2.755-4.466 3.19-5.326.435-.864.146-.864-.724-1.728s-.436-2.306-.582-3.743c-.142-1.442-.724-3.598-2.466-6.768-1.737-3.165-2.754-7.054-3.913-8.06-1.16-1.009-1.742-3.456-1.888-4.606-.142-1.151-1.448-2.16-2.32-3.025-.87-.86-1.74-2.156-2.753-7.195-1.018-5.04-1.742-8.637-1.742-9.501 0-.864-.146-1.01-1.017-1.296-.87-.287-1.306-1.729-1.013-2.447.289-.72-.293-1.438-.582-2.302-.289-.864 0-2.447.582-3.31.578-.865.435-3.312-.146-5.327-.582-2.015-1.16-3.743-3.483-4.034-2.319-.286-2.754-.86-3.625-2.733-.87-1.87-1.741-5.18-2.03-5.904-.289-.718-.724-.864-2.466.578-1.741 1.437-2.319 1.915-2.319 4.607 0 1.728.29 2.302.867 3.311.582 1.005.728 1.296 1.164 4.03.435 2.733 2.9 7.054-.293 9.5-3.19 2.448-2.755 3.025-2.608 4.75.142 1.727-.871 2.878-1.453.431-.577-2.447 0-3.884 1.742-5.035 1.74-1.155 3.336-2.592 2.176-4.175-1.163-1.583-1.595-5.326-1.741-7.054-.147-1.728-.435-2.306-1.453-1.01z" fill="#cfa763"/><g fill="#d7c99c"><path d="M814.112 324.231c-.08 1.172.184 2.46.276 3.494.109 1.188.436 3.673-.435 5.509-.87 1.832-.653 2.804 0 3.344.038.03.071.058.105.087 1.774-.59 2.005-2.555 1.527-3.506-.506-1.005-.36-2.23.218-3.236.582-1.01.582-1.583.075-2.306-.51-.719-.51-.719.072-2.733.51-1.774-.779-1.762-1.838-.653zM832.664 352.128c-.327-1.296-1.524-6.265-1.633-9.501-.109-3.24-1.52-5.833-4.24-8.313-2.122-1.94-2.587-5.056-2.687-7.461-1.595-.968-2.27-.528-2.135 1.27.142 1.941 2.101 2.88 1.812 5.684-.289 2.808-.289 2.09 1.089 3.457 1.377 1.366 1.883 2.663 1.16 3.24-.725.573-.8 1.583.217 1.94 1.013.361 1.088 1.442.942 2.447-.147 1.01.8 1.226 1.377 1.944.582.719.653 2.447.075 3.457-.582 1.005-.653 2.588.36 1.728 1.017-.864 1.453-.075 2.248 1.292.69 1.18 1.268.81 2.018.453a9.066 9.066 0 01-.603-1.637zM824.179 292.172c-1.076.079-1.813 1.014-1.197 4.283.385 2.023-1.16 1.583-1.737.573-.582-1.005-1.018-3.165-2.177-5.039-1.164-1.87-.582 1.296-.724 3.025-.147 1.728 1.013 1.728 2.03 3.165 1.013 1.442.142 2.02-1.017 2.02-1.16 0-.578 2.3-.289 3.884.289 1.582-.289 1.873-1.164.577-.866-1.296-.288-3.311-.142-5.758.142-2.447.289-1.874-1.306-2.447-1.595-.577-1.306-.864-.724-2.305.578-1.438 1.16-2.16.435-2.88-.728-.718-.582-1.15.578-1.296 1.16-.14.728-1.005 1.741-1.296 1.017-.286 1.453.146 1.595-1.724.121-1.562.649-2.522 1.83-2.048.71 2.405 1.636 6.149 2.268 7.266zM850.688 318.045c.431-3.165.142-6.33 1.448-7.486 1.306-1.15 2.901-3.452 2.755 1.442-.143 4.894-.29 4.607-1.302 5.758-1.017 1.15-1.888 1.437-.87 3.31 1.012 1.87 1.159 2.016 1.012 4.895-.142 2.879-.142 4.03 1.017 5.471 1.16 1.437 1.449 1.583 1.742 3.166.289 1.582 1.302 3.743 2.608 4.893 1.306 1.151 2.758 4.462 2.9 6.768.147 2.301 2.177 2.879 4.06 4.462 1.889 1.583-.43 2.733-1.883 2.015-1.448-.72-.87 0-1.741 1.005-.871 1.01-1.16 1.155-1.884-.573-.724-1.729-3.194-2.88-4.353-3.311-1.16-.432-2.173-2.306-3.19-4.176-.87-1.607-2.595-2.783-4.169-2.903.435 1.213.67 2.164.544 2.617-.435 1.583-1.017 2.733.724 4.603 1.742 1.873 2.901 4.607 3.048 6.19.142 1.587.435 2.16 2.172 1.587 1.741-.578 2.612-1.155 3.194-1.874.578-.718 1.737-.573 3.336.287 1.595.864 4.06 1.728 5.509.864 1.452-.864 2.176-2.156 3.482-2.156 2.03-1.442 2.755-4.466 3.19-5.326.435-.864.146-.864-.724-1.728s-.436-2.306-.582-3.743c-.142-1.442-.724-3.598-2.466-6.768-1.737-3.165-2.754-7.054-3.913-8.06-1.16-1.009-1.742-3.456-1.888-4.606-.142-1.151-1.448-2.16-2.32-3.025-.87-.86-1.74-2.156-2.753-7.195-.796-3.939-1.411-6.992-1.641-8.554-1.043 1.65-1.754 2.052-2.13.922-.436-1.292-1.018-2.015-1.596-1.15-.582.864-.728-.72-.728-1.438 0-.723-.142-.864-.87-.864-.725 0-.143-1.15-.436-3.311-.289-2.16-.724-2.447-1.013.145-.289 2.588-1.741 4.171-1.16 4.749.578.577.29 1.728-.293 3.456-.577 1.724-.288 2.734.147 3.884.435 1.151-.289 3.312-.582 5.185-.289 1.87 1.164 3.74 1.6.573zM838.792 309.122c0 3.024 0 4.175 1.306 5.326 1.306 1.15 1.16 2.301 1.741 5.039.578 2.734.578 8.637 2.32 12.667.518 1.2 1.234 2.725 1.967 4.312.962-.752 1.8-2.044 2.097-2.73.43-1.009-.871-3.024-1.888-4.748-1.013-1.728.146-2.306 1.16-4.466 1.016-2.156-.143-2.301-1.738-2.879-1.599-.573-1.599-2.015-2.47-4.316-.87-2.302-.724-3.311-.142-4.607.578-1.297.143-2.302-1.017-2.593-1.16-.286-.87-1.15-.435-2.588.435-1.442.724-1.728-1.013-1.296-1.319.324-1.637.569-2.03 1.043.096.415.142.993.142 1.836z"/></g></g><g fill="none" stroke="#000" stroke-width=".5"><path d="M866.195 307.95l-3.477 38.035M876.608 331.249c-1.42 6.434-3.291 13.743-5.187 19.94M922.115 312.934c2.637 2.45 6.178 3.023 10.097 4.924M939.577 329.754l-1.928 14.655M937.693 330.402l-3.457 15.046M874.333 331.704c-1.633 6.254-3.819 11.957-5.916 17.747" stroke-width=".65648"/></g><path d="M949.778 367.082c-.09.028-.187.049-.29.064-.102.016-.21.026-.319.034l-.332.022c-.11.007-.22.015-.327.027a2.82 2.82 0 00-.305.048c-.096.022-.186.05-.267.087a.727.727 0 00-.21.144.586.586 0 00-.136.217 3.805 3.805 0 01-.277.338c-.05.055-.103.11-.155.165a21.235 21.235 0 00-.314.338 3.276 3.276 0 00-.29.37 2.279 2.279 0 00-.122.203 5.307 5.307 0 01-2.7 1.157c-.711.197-2.381.246-3.086 0-1.359.018-2.785-.082-3.6-.643-.955-.493-2.2-.17-2.957.257-.604.339-.723.962-1.414 1.157-.416.548-2.254.483-2.957.257-1.603.102-2.583-.416-3.728-.771-.756-.536-1.968-.928-2.83-.129-.539.575-1.272.956-2.185 1.157-1.568-.063-3.345.205-4.5-.386-1.287-.108-1.777-.81-2.956-1.156-1.346-.229-1.97.47-2.829.77-.768.64-1.858.709-3.214.643-1.4-.056-3.103.19-3.985-.385-1.136-.127-1.864-.78-2.7-1.157-.825-.65-2.364.03-3.086.386-1.235.191-1.696 1.157-3.251 1.028-1.267-.156-2.13-.674-3.304-1.028-1.106-.494-2.1-1.266-3.857-1.157-.524.693-1.658.982-2.82 1.028-1.045.013-2.077.014-2.837-.257-2.102-.064-3.111-2.275-4.633-3.455l-7.6-7.535c.436-1.347.59-1.581-.109-2.462.289-1.343-.631-1.526-.257-2.873.57-1.034-1.026-.855-1.414-1.414-.913-.178-1.301-.848-2.186-1.157-.72-.503-1.416-.836-2.314-1.285-.789-.326-1.468-.76-2.186-1.157-.541-.487-1.259-.798-1.8-1.286-.702-.323-1.272-.748-1.8-1.156-.738-.233-1.097-.783-1.801-1.157-.51-.477-1.333-.885-1.929-1.286-.937-.308-1.79-.919-2.828-1.156-.704-.026-.92-1.597.379-1.543.928.029 1.499.618 2.193 1.028 1.093.45 2.163.923 3.47 1.157.758.45 1.436.686 2.315 1.028.76.589 1.76.692 2.7 1.286.875.398 1.919.871 2.444 1.285.744.315 1.128.854 1.93 1.157.276.335.843.488 1.285.9.788.294 1.497.631 2.057 1.028.733.48 1.137.534 1.672 1.028.662.205 4.844 2.31 4.633 2.061 4.117.792 5.938 1.041 10.078 1.63l30.025.473 10.886-4.548 3.307-5.236 16.092-2.942c-.305-.324 28.244-1.003 28.846 1.394.254 1.01 1.027 3.042.101 3.52-.606.314-26.96-3.354-27.368-.987-.177 1.027.04 7.421.187 8.453l.441 3.095.442 3.094.441 3.095.441 3.095z" fill="#666"/><g fill="none" stroke="#000" stroke-width=".5"><path d="M868.195 326.585c-4.852 5.522-9.682 9.928-14.86 14.141M894.873 304.102l15.643-13.532M887.854 317.477c3.134 2.197 6.638 4.173 11.416 5.384M885.643 297.025c1.947 3.083 4.232 6.075 11.056 7.857M881.196 266.236c-2.113 2.808-5.49 5.425-9.911 7.573M886.804 285.231c2.228 2.158 5.362 3.411 8.566 4.594M886.802 332.341c1.575 7.75 2.935 13.906 4.732 20.323M885.56 352.504c8.128-8.345 15.07-17.312 19.579-27.554M921.724 294.774c2.604 2.79 5.319 4.815 9.564 5.965M933.02 284.785c2.207 3.957 4.925 6.89 7.472 10.169M908.998 272.416c-.273 3.934-2.66 7.887-4.33 11.297M914.62 274.356c-2.896 3.223-5.693 6.676-9.653 8.657M915.117 260.326c-1.987 1.352-4.754 2.936-6.926 3.734M944.77 290.259c-2.4 2.85-4.801 6.201-8.753 8.66M945.215 313.996c-3.07 2.907-5.825 6.286-9.347 8.515M962.98 330.782c-5.5 4.314-11.132 8.364-17.229 11.486M948.679 342.831c5.164-3.221 9.72-7.66 14.301-12.049M947.185 290.852c.992 2.592 3.305 5.428 5.596 7.277" stroke-width=".65648"/></g><path d="M943.799 265.011l-.45 77.907 5.671-.337-2.379-77.82z" fill="#bca76b" stroke="#472b1f" stroke-width=".37681951999999996"/><g stroke="#000"><path d="M947.576 365.467c1.352.816 2.13 1.543 3.245 2.625 2.483 2.282 4.146 2.291 7.69-.02 1.322.151 2.66.842 4.094.579 1.266.04 2.496-.186 3.733-.454 1.514-.363 1.73-2.187 2.266-3.408.693-1.418 1.449-2.882 2.445-4.107 1.312-.882 2.728-1.79 3.635-3.103 1.037-1.219.86-2.807.643-4.272-.12-1.391-.23-2.688-.219-4.091-.346-1.772 1.188-3.144 1.056-4.883-.876-.78-2.322-.988-3.498-1.328a44.53 44.53 0 00-6.284-.907c-1.726-.14-3.448-.325-5.166-.453-1.697-.134-3.391-.25-5.094-.254-1.909.053-3.879-.184-5.749.124-1.337.314-3.025.193-4.126.808-.494 1.296-.811 2.637-.866 3.98-.181 1.158-.249 2.36-.247 3.573.067 2.209-.228 4.457.386 6.6.408 1.725.55 3.48.876 5.186.047 1.36.215 2.762 1.18 3.805z" fill="#333" stroke-width="1.31296"/><g fill="none" stroke-width=".5"><path d="M954.055 327.525l7.718 14.438M973.34 342.719c-2.276-2.389-4.063-5.267-5.44-8.556" stroke-width=".65648"/></g></g><g fill="#472b1f"><path d="M972.816 320.193l2.541 1.787.177.067c-.832-.778-1.642-1.623-2.698-1.852 0 0-.014 0-.02-.002zM967.454 320.947l-.287.087-3.573 13.97zM984.494 321.454c-.88.073-1.717.444-2.549.839l1.5-.523 1.952-.29a5.544 5.544 0 00-.903-.026zM967.9 334.163l-.7.136c.293 0 .573.015.805.075.354.091.668.23.967.387zM969.298 334.943c.915.551 1.688 1.26 2.772 1.549zM977.56 335.656l-4.767.954c1.669.148 3.165-.508 4.767-.954z"/></g><path d="M967.69 320.09l-4.095 14.913 4.306-.84 4.516 2.52 6.827-1.365 3.465.526c1.071-4.793.758-10.449 3.571-14.494l-2.835.42-4.517 1.575-3.57-1.365-2.836-1.996z" fill="#fff"/><path d="M974.203 321.875c-.715 1.375-1.41 2.76-1.577 4.41 0 0-2-.697-3.044-.838-1.11-.15-3.362 0-3.362 0l-.029.095-.969 3.528c.103-.013 2.749-.34 3.94-.159.886.135 2.52.947 2.52.947-.44 1.894-.881 3.786-1.32 5.68l.84.47 1.829.553.053-.01.772-.157c.352-1.942.638-3.95 1.5-5.383 0 0 2.77.744 4.306.631 1.058-.077 3.24-.31 3.777-.369.153-1.201.31-2.404.52-3.585-.538.146-2.876.72-4.192.592-1.19-.115-3.359-1.259-3.359-1.259.317-1.225.876-2.452 1.47-3.677z" fill="#c8102e"/><path d="M964.707 320.02c-1.815-4.97-4.07-13.11-4.992-19.566" fill="none" stroke="#000" stroke-width=".65648"/><g stroke="#472b1f"><path d="M966.343 321.17s4.49-1.06 6.357-.655c1.955.423 3.197 2.656 5.178 2.935 2.281.322 4.321-1.806 6.617-1.995 1.09-.09 3.256.42 3.256.42l-1.47 5.461-1.261 4.622v4.096s-3.845-.925-5.776-.736c-2.424.238-4.424 1.656-6.827 1.26-1.776-.29-2.669-1.755-4.411-2.205-1.438-.371-5.097.585-5.097.585z" fill="none" stroke-width="1.31296"/><g fill="#bca76b" stroke-width=".3"><path d="M967.167 321.034l-1.788.105-5.67 20.06 2.626.106z" stroke-width=".39388799999999996"/><path d="M965.38 321.139c-.785-.436-1.349-1.719-.945-2.52.459-.91 1.963-1.128 2.94-.84 1.071.316 2.565 1.463 2.206 2.52-.46 1.353-2.954 1.534-4.202.84z" stroke-width=".39388799999999996"/></g></g><path d="M986.06 321.577c-2.734 3.961-2.508 9.372-3.547 14.025a44.4 44.4 0 012.374.451v-4.095l1.323-4.621 1.54-5.462s-.803-.17-1.69-.298z" fill="#472b1f"/><g fill="none" stroke="#000" stroke-width=".5"><path d="M953.746 305.335c2.813 1.919 5.69 7.026 9.695 11.033M959.039 298.048c-2.082-5.481-3.76-14.432-4.054-21.105M950.75 330.2l4.433 11.57M955.16 271.54c-3.815-.977-7.432-3.68-8.003-5.85M930.26 275.342c2.475.189 11.128-6.283 12.453-9.653M952.311 328.543l6.102 13.033M951.832 332.926l4.444-1.673M952.579 335.36l4.74-1.982M954.53 340.248l5.164-2.195M949.22 314.59l6.231 6.675M936.017 330.76l-4.302 14.54M934.827 334.002l4.35-.063M933.766 337.585l5.07.148M932.604 341.294l5.49 1.038" stroke-width=".65648"/></g><g fill="#bca76b" stroke="#472b1f"><path d="M947.182 263.054c-1.014-.351-3.693-.42-4.757.436-.572.459-.096 1.996.618 2.009 1.441.025 3.27.094 3.845-.328.596-.437.982-1.88.294-2.117z" stroke-width=".38075839999999994"/><path d="M931.435 275.21c1.86 7.615 9.94 6.345 9.566-.606" stroke-width=".52124512"/><path d="M938.854 274.854c2.42 8.746 12.922 7.288 12.437-.696" stroke-width=".63809856"/><path d="M947.737 274.687c2.366 6.406 5.699 5.163 9.676-.656" stroke-width=".5461913599999999"/><path d="M959.725 271.646l-29.54 1.692.073 2.001 29.78-1.529z" stroke-width=".52912288"/><path d="M932.514 301.277c1.789 8.377 10.213 7.132 9.957-.49" stroke-width=".5566950399999999"/><path d="M940.234 301.021c2.348 9.626 13.295 8.22 12.943-.537" stroke-width=".6801132799999999"/><path d="M949.472 301c2.337 7.06 5.827 5.76 10.072-.544" stroke-width=".58295424"/><path d="M961.994 297.885l-30.743 1.318.037 2.193 30.989-1.134z" stroke-width=".5645728"/><path d="M931.726 324.889c1.985 8.549 10.603 7.124 10.204-.68" stroke-width=".5711375999999999"/><path d="M939.64 324.489c2.121 12.756 13.784 8.182 13.266-.782" stroke-width=".69718176"/><path d="M949.115 324.301c2.524 7.192 6.08 5.797 10.322-.736" stroke-width=".5973968"/><path d="M961.903 320.887l-31.51 1.9.077 2.246 31.767-1.716z" stroke-width=".57901536"/><g stroke-width=".256"><path d="M951.31 286.863l-11.69.344.035 2.903 11.781-.04zM951.39 311.59l-11.69.344.035 2.903 11.781-.04z" stroke-width=".33611776"/></g></g><g stroke="#000"><path d="M922.19 325.145l8.622 20.746M878.52 331.613c-.943 6.542-2.43 14.903-4.096 21.204" fill="none" stroke-width=".65648"/><path d="M975.238 344.242c-4.91-.791-9.84-1.601-14.81-1.819-3.914-.171-7.846.058-11.75.408-5.69.512-11.506.774-16.963 2.468-.736.229-1.523.483-2.074 1.022-1.539 1.502-1.69 4.002-2.988 5.716-1.258 1.66-6.062 4.43-7.795 5.586-12.624.316-26.653.14-42.35-2.209l-2.208-2.468-.91-.91 2.469.91 5.586.13 13.64-.52s11.525.014 17.278-.26c3.254-.154 6.514-.348 9.743-.779.699-.093 1.489-.004 2.079-.39.965-.63 1.277-1.92 1.948-2.858.63-.88 1.027-2.03 1.949-2.598 2.46-1.843 5.583-1.676 8.261-2.188 3.214-.615 6.171-.739 9.408-1.215 3.742-.55 7.524-.81 11.3-1.014 2.422-.13 4.856-.308 7.275-.13 3.678.272 7.713-.015 10.912 1.82.587.336 1.645.977 1.3 1.558-.226.38-.864-.19-1.3-.26z" stroke-width=".39388799999999996"/><g fill="none" stroke-width=".5"><path d="M917.798 260.326c1.869 1.431 5.317 2.625 8.663 3.134M913.923 313.015c-3.953 2.845-8.13 4.798-12.454 6.16M925.107 350.04l-6.872-18.023M919.596 326.117l7.91 20.552M918.624 331.433l5.251-1.815" stroke-width=".65648"/></g></g><path d="M914.98 257.666l-1.632 95.75 5.67-.34-1.065-95.4z" fill="#bca76b" stroke="#472b1f" stroke-width=".37813247999999994"/><path d="M921.794 272.466c2.215 4.21 5.758 7.589 10.942 9.942" fill="none" stroke="#000" stroke-width=".65648"/><g fill="#bca76b" stroke="#472b1f"><path d="M903.257 266.5c1.788 8.377 10.212 7.132 9.957-.49" stroke-width=".5566950399999999"/><path d="M910.976 266.244c2.348 9.627 13.295 8.22 12.944-.537" stroke-width=".6801132799999999"/><path d="M920.215 266.222c2.337 7.062 6.603 7.703 10.072-.543" stroke-width=".58295424"/><path d="M932.736 263.108l-30.742 1.318.036 2.194 30.99-1.135z" stroke-width=".5645728"/><path d="M903.257 285.8c1.788 8.377 10.212 7.132 9.957-.49" stroke-width=".5566950399999999"/><path d="M910.976 285.544c2.348 9.627 13.295 8.22 12.944-.537" stroke-width=".6801132799999999"/><path d="M920.215 285.522c2.337 7.062 9.4 5.874 10.072-.543" stroke-width=".58295424"/><path d="M932.736 282.408l-30.742 1.318.036 2.194 30.99-1.135z" stroke-width=".5645728"/></g><path d="M912.415 296.559c-2.772 1.82-5.293 4.05-8.94 5.171" fill="none" stroke="#000" stroke-width=".65648"/><g fill="#bca76b" stroke="#472b1f"><path d="M902.338 303.919c1.789 8.377 10.212 7.132 9.957-.49" stroke-width=".5566950399999999"/><path d="M910.058 303.663c2.347 9.626 13.295 8.22 12.943-.537" stroke-width=".6801132799999999"/><path d="M919.296 303.641c2.337 7.062 8.58 4.842 10.072-.543" stroke-width=".58295424"/><path d="M931.818 300.527l-30.743 1.318.036 2.194 30.99-1.135z" stroke-width=".5645728"/></g><g fill="none" stroke="#000" stroke-width=".5"><path d="M906.224 325.834c-.793 9.457-4.582 18.016-7.145 26.942M909.647 325.908c-.846 9.194-3.699 17.835-6.028 26.473M912.475 325.09c-1.101 10.214-2.332 18.743-4.614 27.24" stroke-width=".65648"/></g><g fill="#bca76b" stroke="#472b1f"><path d="M902.732 321.25c1.789 8.377 10.212 7.132 9.957-.49" stroke-width=".5566950399999999"/><path d="M910.452 320.994c2.347 9.626 13.294 8.22 12.943-.537" stroke-width=".6801132799999999"/><path d="M919.69 320.972c2.337 7.062 8.488 5.668 10.072-.543" stroke-width=".58295424"/><path d="M932.211 317.858l-30.742 1.318.036 2.194 30.99-1.135z" stroke-width=".5645728"/><path d="M922.445 276.116l-11.034.344.031 2.903 11.12-.04z" stroke-width=".32692704"/><path d="M921.986 294.77l-9.81.323.028 2.721 9.887-.038z" stroke-width=".29804192"/><path d="M922.603 312.926l-10.666.345.034 2.916 10.75-.04z" stroke-width=".3216752"/></g><g fill="none" stroke="#000" stroke-width=".5"><path d="M906 329.258l5.731 1.19M904.66 334.616l6.625.149M903.619 338.486l6.847 1.935M901.758 344.589l8.038-.372M900.344 349.501l8.485-.223M898.362 325.607c-.9 9.675 5.344 18.848 8.462 26.978M924.264 347.512l5.446-1.621M922.968 344.594l6.159-2.593M921.023 339.991l6.353-1.88M919.596 335.647l6.224-1.62" stroke-width=".65648"/></g><path d="M886.296 369.702c-.722.016-1.413-.247-2.13-.339-.713-.229-1.435-.444-2.106-.787-.663-.322-1.288-.815-1.884-1.242a14.075 14.075 0 01-1.695-1.452c-.675-.618-1.356-1.186-1.967-1.86-.641-.655-1.318-1.305-1.865-1.983-.592-.659-1.315-1.175-1.796-1.914-.554-.541-.556-1.488-1.023-2.078-.762-.15-1.886-.277-1.918-1.284-.251-.607-.36-1.351-1.121-1.268-.316.016-.402.48-.207.191-.391-.211-.287.721-.338.22-.23.37-.479 1.156-.47 1.099-.336.674-.298 1.434.582 1.526.839.124.937 1.042 1.65 1.415.57.553 1.267 1.285 1.9 1.786.606.74 1.071 1.154 1.54 1.997.292.593 1.065 1.009 1.508 1.5.37.612.79 1.154 1.27 1.695.53.542 1.21 1.116 1.844 1.466.572.347 1.147.661 1.74.994.649.322 1.263.762 1.976.897.756.423 1.694.29 2.526.47.831.05 1.65 0 2.34-.528.687-.463-.013-.376-.356-.521zM931.18 347.948c-1.013 2.4-2.625 5.732-4.634 7.8 6.587 1.274 11.89-.565 17.826-1.573-.666-2.539-.643-5.354-.394-8.26-4.718.481-8.078 1.553-12.797 2.033z"/><path d="M931.726 348.605c-.832 2.122-1.47 4.314-3.12 6.143 5.407 1.127 9.82-.5 14.692-1.39-.932-1.97-.654-4.111-.323-6.26-3.873.425-7.376 1.082-11.249 1.507z" fill="#333"/><path d="M874.82 358.172l19.127 1.445c15.365.473 32.987-.224 48.222-1.97.625-.073 1.648-.247 1.855.347.252.724-.749 1.624-1.507 1.739-17.487 2.28-35.164 1.4-52.743 1.275l-10.433-1.097z"/><path d="M881.838 315.275c-4.922 3.795-9.829 7.626-15.395 9.808M882.582 297.238c-4.495 3.248-8.964 7.257-13.78 9.223" fill="none" stroke="#000" stroke-width=".65648"/><path d="M880.921 264.3l-.126 89.476 4.91-.34-2.847-89.65z" fill="#bca76b" stroke="#472b1f" stroke-width=".35187328"/><path d="M882.858 263.785c3.986 4.413 7.161 6.796 10.526 9.652" fill="none" stroke="#000" stroke-width=".65648"/><path d="M884.128 261.234c-1-.51-3.64-.61-4.69.635-.563.669-.096 2.907.61 2.926 1.42.037 3.224.137 3.79-.477.588-.638.968-2.738.29-3.084z" fill="#bca76b" stroke="#472b1f" stroke-width=".4555971199999999"/><path d="M881.325 365.337c.139-.759.726-.98 1.414-1.11.793.03 1.762-.115 2.27.202.61.152.919.462 1.465.706.33.403.9.681 1.313.909 1.605.618.734-1.24 1.648-1.312.776.068 1.588-.289 2.238 0 .577.113.846.534 1.162.908.345.306.721.568.91.909.13.467 1.858 1.314 1.918.202.355-.76.196-2.073 1.414-1.918 1.354-.074 2.398.262 3.633.404.65.264 1.176.35 1.716.908.468.28.43.835.859.807 1.23.909.974-.773 1.363-1.311.306-.489 1.195-.353 1.615-.707.78-.23 1.53-.488 2.624-.404.438.247 1.2.629 1.718.909.388.357.878.823 1.112 1.412.046.593.582 1.062 1.111.606.27-.677.814-.661 1.312-1.01.522-.115.864-.447 1.212-.807.306-.077.62-.754.91-1.01.536-.402 1.62-.306 2.524-.403.89.263 1.715.37 2.22.808.31.331.535.745 1.011.908.284.586.966.098 1.414-.1.367-.273.926-.568 1.414-.808.426-.426 1.035-.67 1.85-.707.994-.113 1.513.41 2.288.505.73.318 1.556.367 2.02.807.527.36 1.24.66 1.766.202.688.02.155-1.326.42-1.643.794-.63 2.678-.546 3.668-.173.835.022 1.814-.098 2.372.202.552.135.634.659.859 1.21.252.517 1.716.496 2.22.102.479.01-.107-.684-.303-.91-.308-.202-.644-.693-.809-1.008.752-.364 1.1.324 1.716.403.361.308.848.414 1.212.808.59.217 1.103.509 2.014.404.845.247.474 1.48-.5 1.21-.71.232-1.847.037-2.724.102-1.328-.158-2.751-.086-4.138-.101-.692.257-1.824.19-2.625.403-.86-.01-1.527.173-2.448.101-.87.13-1.899.102-2.9.101-.887.172-1.655.202-2.59.303-.81.01-1.47.169-2.356.1-1.164.216-2.71.05-4.037.102-.834.14-1.544.117-2.322.202-.843.024-1.587.166-2.488.202-.92-.026-1.616.174-2.585.1-1.436.218-3.017.048-4.515.101-.719-.165-1.674-.096-2.453-.201-.741-.021-1.359-.166-2.185-.101-.627-.217-1.71.023-2.327-.202-1.225.07-2.155-.153-3.36-.101h-6.53c-.558-.235-1.554-.032-2.279-.101-1.213-.022-2.663.041-3.74-.029-.979-.17-2.046.015-2.861-.375-1.305-.239-2.962-.66-2.85-1.716z" stroke="#000" stroke-width=".9190719999999999"/><g fill="#bca76b" stroke="#472b1f"><path d="M870.513 275.313c1.565 5.8 8.936 4.938 8.713-.34" stroke-width=".43327679999999996"/><path d="M877.268 275.136c2.054 6.665 11.633 5.69 11.325-.372" stroke-width=".52912288"/><path d="M885.352 275.12c2.044 4.89 5.778 5.334 8.813-.375" stroke-width=".45428415999999994"/><path d="M896.308 272.965l-26.9.912.032 1.519 27.116-.785z" stroke-width=".43852863999999997"/></g><path d="M877.837 285.983c-2.358 2.064-6.814 4.763-8.769 4.5M873.023 278.527c-5.829 22.109-13.36 45.573-20.485 64.31" fill="none" stroke="#000" stroke-width=".65648"/><g fill="#bca76b" stroke="#472b1f"><path d="M870.204 292.025c1.61 6.23 9.187 5.305 8.958-.365" stroke-width=".4555971199999999"/><path d="M876.624 291.902c2.112 8.353 11.96 7.132 11.643-.466" stroke-width=".6013356799999999"/><path d="M885.473 291.827c2.33 5.229 6.585 5.703 10.044-.402" stroke-width=".50023776"/><path d="M896.694 288.87l-27.598 1.208.031 2.012 27.82-1.04z" stroke-width=".5120544"/><path d="M868.755 307.971c1.743 7.629 9.953 6.496 9.705-.446" stroke-width=".525184"/><path d="M876.294 307.885c2.445 11.242 13.847 9.598 13.48-.627" stroke-width=".7510131199999999"/><path d="M885.283 307.718c2.278 6.431 6.436 7.015 9.817-.494" stroke-width=".54881728"/><path d="M897.474 304.882l-31.422 1.2.037 1.998 31.674-1.033z" stroke-width=".5448784"/><path d="M868.195 326.585c1.888 8.262 10.779 7.034 10.51-.483" stroke-width=".56851168"/></g><path d="M891.443 330.885c1.816 7.853 4.182 15.03 6.462 21.724M889.077 330.612c.994 7.556 3.092 14.872 5.279 21.952" fill="none" stroke="#000" stroke-width=".65648"/><g fill="#bca76b" stroke="#472b1f"><path d="M876.343 326.333c2.269 10.957 13.758 10.027 13.662-.53" stroke-width=".69455584"/><path d="M886.094 326.311c2.467 6.965 6.97 7.597 10.631-.535" stroke-width=".59477088"/><path d="M899.27 322.86l-35.007 1.437.042 2.39 35.287-1.236z" stroke-width=".6289078399999999"/><path d="M887.854 283.472l-10.048.266.031 2.245 10.127-.032zM887.854 299.752l-10.048.266.031 2.245 10.127-.031z" stroke-width=".27440864"/><path d="M888.5 317.481l-10.69.265.031 2.238 10.774-.031z" stroke-width=".2822864"/></g><g fill="none" stroke="#000"><g stroke-width=".5"><path d="M892.436 333.171l-5.73 1.19M893.347 337.54l-5.731 1.19M894.62 342.28L888.8 342M896.35 346.83l-6.004.903M869.504 345.913l6.03 1.19M871.17 340.998l5.43 1.19M872.635 337.212l5.031 1.29M873.554 333.808l4.531.89" stroke-width=".65648"/></g><path d="M945.23 353.856c10.044-.448 22.053-1.608 30.133 1.544M945.87 357.201c9.26-1.365 20.044-2.137 27.95.9M946.896 363.89c6.675-1.495 15.609-1.844 21.94-.257M947.576 365.467c6.675 1.496 14.535 1.845 20.867.258" stroke-width="1.31296"/></g><path d="M849.898 342.113l21.677 13.099.463-.58-6.839-4.752c-4.883-3.024-9.79-6-15.301-7.767z"/><g fill="none" stroke="#000"><g stroke-width=".5"><path d="M953.971 352.807l-.17-7.229M956.182 345.663v7.399M960.264 353.147v-7.739M964.772 346.057v7.43M967.493 346.003l.085 7.57M971.065 346.783v7.044M972.936 346.684l-.085 7.909M954.907 355.954l-.086 6.803M952.61 356.294v6.463M958.563 356.124l-.255 6.463M960.775 356.039l-.086 6.463M964.091 355.954l-.425 6.293M967.238 356.804l-1.19 5.783" stroke-width=".65648"/></g><path d="M945.381 346.041c9.922-1.176 19.844.244 29.766 1.231" stroke-width="1.31296"/></g><path d="M999.475 257.01c.075-25.558-1.356-50.372-.703-72.116-33.069-14.686-76.58-17.706-98.77-17.706-22.194 0-65.706 3.02-98.774 17.706.653 21.744-.775 46.558-.703 72.115z" fill="none" stroke="#000" stroke-width="2"/><g><path d="M894.032 215.49s3.572 5.314 4.535 8.174c.47 1.4.647 2.923.55 4.397-.18 2.694-1.221 5.267-2.062 7.833-.583 1.778-1.864 3.127-1.156 4.86.342.834.677 1.6 1.568 1.46.545-.084.806-.754 1.237-1.098.308-.246.598-.537.962-.688.515-.213 1.249.113 1.649-.274.335-.325.57-1.013.275-1.375-.262-.318-.825-.015-1.237 0-.597.023-1.267.432-1.786.138-.535-.303-.825-1.65-.825-1.65s1.07-2.942 1.649-4.396c.48-1.202 1.255-2.306 1.512-3.573.082-.404-.03-.826 0-1.237.045-.646-.166-1.448.274-1.924.287-.31 1.083.118 1.237-.275.59-1.502-2.152-2.485-2.748-3.985-.223-.56-.079-1.216-.275-1.786-.427-1.241-1.924-3.435-1.924-3.435z" fill="#69737c" stroke="#000" stroke-width=".72876"/><path d="M905.179 219.622s3.171 3.959 3.5 6.355c.072.531-.356 1.03-.369 1.566-.02.842.5 1.644.46 2.486-.124 2.71-1.55 5.199-2.21 7.83-.557 2.225-1.473 6.722-1.473 6.722l2.026-.184.368-3.407s1.062-3.864 1.566-5.803c.35-1.348.54-2.743 1.013-4.052.313-.866.981-1.593 1.197-2.487.282-1.164.622-2.518.092-3.592-.184-.375-.723-.436-1.013-.737-.69-.719-1.211-1.596-1.657-2.487-.453-.902-1.014-2.855-1.014-2.855-.422.157-2.486.645-2.486.645z" fill="#66452b" stroke="#000" stroke-width=".72876"/><path d="M890.198 212.41l2.263 1.804 3.915 2.363 1.806.11 2.039.735 2.545-.08 1.884 1.924.529.356 2.092-.29.771-.856 3.993-6.087-.958-10.038-19.026 1.232z" fill="#fff"/><path d="M910.72 195.469c2.57 2.086 5.07 4.27 7.079 6.92 1.548 1.833 2.496 4.327 4.769 5.474 3.2 3.418 16.904 7.383 16.95 8.45-3.159-1.286-4.532 3.024-7.593 2.331-2.848.828-5.194-1.036-7.658-2.072-3.703-.132-7.56.06-10.857 1.939-1.801.979-3.944-.532-5.368-.035l-.164.31-.213.191m-17.467-6.566c-2.194-1.09-3.8-3.134-5.843-4.367-1.578-2.223-3.606-4.448-3.51-7.374-.248-3.023-1.039-7.204.396-10.077-1.031-2.253-2.477-2.86-3.617-5.08-.825-3.071-3.939-4.833-2.07-7.168 2.079-1.847 3.534-4.03 6.213-4.988 2.222-.515 4.475-.298 6.608.463 2.76.325 4.273 2.68 5.73 4.72a23.343 23.343 0 013.434 9.091c1.273 2.661 4.656 3.203 7.136 4.338 2.137 1.012 4.273 1.874 6.045 3.5" fill="#fff"/><path d="M925.733 213.266c-1.076-.154-3.658.912-2.983-.685-2.647-.193-5.428.375-7.975-.512-2.638-1.294-5.504-2.09-8.326-2.86-2.764-.15-6.021.49-8.143-1.779-2.203-1.286-5.421-.358-7.442-2.229-2.041-1.737-3.27-4.135-3.192-6.816-.406-2.63-1.385-6.167 1.56-7.713 1.922-.584 3.76-.083 4.923-2.013 2.447-.404 4.694.492 6.803 1.686 2.475 1.226 5.206 1.984 7.612 3.36 2.305 1.522 4.266 3.504 6.427 5.232 1.698 1.948 3.676 3.746 4.775 6.138 1.302 2.565 3.995 3.917 6.303 5.403 1.383.357 4.678 1.888 1.549 2.3-.645.104-1.244.419-1.89.488z"/><path d="M898.744 204.626c-1.346-.18-2.71-.456-3.818-1.29-.874-.522-3.031-1.788-1.631-2.776 1.164-.138 2.494.441 3.533-.36 1.564-.327 3.216-.357 4.66-1.126 1.345-.731 2.933-.243 4.334-.692 1.044-.554.897-2.646 2.491-2.291 1.463-.374 1.034 2.434-.27 1.542-.81 1.133 1.458 1.515 2.058 2.216 1.208 1.37-1.45 1.68-1.687 2.697-1.68.49-2.91-1.62-4.589-1.028-.31.564.04 1.716-1.177 1.435-1.402-.857-2.617.105-3.999.278.405.306-.476 1.43.095 1.395zM927.915 214.687c-.79-.418-1.804-.065-2.68-.013-.588.008-1.174.038-1.724-.209-.868-.021-2.516-.961-2.769.289.058.54 1.479.769.301.939-1.192.17-2.261-.37-3.352-.756-.446-.418-1.391-.944-1.157.065.378.873-.56 1.277-1.31 1.25-1.067-.077-2.255-.366-3.029-1.141-.558.691.787 1.664 1.583 1.714.794.673-1.2.408-1.652.314-.672-.115-1.43-.203-2.014.213-.931.21-.955 1.119.127 1.02 1.04.341 2.209.652 3.24.115a10.738 10.738 0 013.615-1.34 23.346 23.346 0 013.04-.467c1.358-.155 2.724-.137 4.097-.136 1.068.57 2.118.076 3.063-.425.582-.18 2.343-.844 1.061-1.351-.16.057-.295-.204-.44-.081z" fill="#69737c"/><path d="M924.267 216.572c.527.006 1.048-.006 1.516-.26.514-.285 1.076-.377 1.623-.576.701.008 1.025-.939.285-1.134-.387-.257-.846-.44-1.25-.62-.417-.361-1.031-.473-1.406-.85.315-.394.589-.819.906-1.21.491-.197 1.087-.12 1.612-.253.388-.123.8-.063 1.2-.078.546.278 1.139.46 1.66.767.538.293 1.1.56 1.703.744.499.153.978.331 1.45.527.548.279 1.173.37 1.752.564.578.118.813.767 1.5.672.67.116 1.273.254 1.769.724.372.156 1.036.505 1.05.818-.544.071-1.008-.417-1.574-.308-.441.096-.73.528-1.247.449-.226.664-1.089.563-1.488 1.112-.56.432-1.165.817-1.83 1.084a2.098 2.098 0 01-1.596-.047c-.6-.165-1.233-.016-1.837-.115-.647.174-1.244.031-1.854-.18-.536-.145-.943-.539-1.405-.817-.555-.226-1.56-.492-2.112-.723-.29-.14-.258-.228-.573-.29zM883.36 172.998c-.562-.009-1.126 0-1.655.226-.926.206-1.749.755-2.347 1.484a13.365 13.365 0 01-2.646 2.353c-.48.337-.872.771-1.157 1.284.56.366 1.442.468 1.834-.197.606-.749 1.396-1.357 2.298-1.7.797-.158 1.607.161 2.404.246.635.344 1.287.616 2.017.72.378.139 1.022.197 1.557.347.736.283 1.515.41 2.275.61.862.177 1.737.114 2.598-.024.193-.023.388-.03.583-.035-.123.278-.222.536-.204.667.017.523.245.994.477 1.453.278.454.558.906.83 1.353.221.519.479 1.02.679 1.551.26.404.407.843.588 1.28.119.494.317.977.66 1.337.349.455.762.87 1.075 1.355.285.42.5.892.716 1.33.378.32.777.782 1.297.727.538.07 1.048-.146 1.577-.204l-.181-.045c-.495-.257-.741-.765-1.003-1.223-.12-.512-.17-1.046-.261-1.546-.034-.508-.213-.995-.385-1.475-.132-.423-.304-.828-.417-1.251a14.032 14.032 0 01-.534-1.336c-.18-.473-.32-.965-.598-1.391-.256-.458-.458-.941-.74-1.39-.302-.406-.474-.932-.793-1.319-.158-.242-.379-.37-.624-.453.099-.242-.005-.566-.28-.824-.367-.435-.867-.847-1.146-1.41-.598-.743-1.567-.982-2.396-1.37-.965-.438-2.01-.647-3.043-.85a8.08 8.08 0 00-2.494-.274c-.186 0-.373-.004-.56-.006z"/><path d="M892.98 186.553c-.03-.738-1.036-.447-1.346-.054-.497.489-.775 1.174-1.37 1.568-.88.64-2.04.729-2.912 1.376-.502.517-.887 1.177-1.56 1.5-.69.37-1.439.787-1.797 1.517-.159.536-.522 1.28.04 1.707.72.27.03.923.07 1.39.336.494 1.149.689 1.658.337.677-.408 1.413-.786 1.855-1.471.645-.785 1.37-1.56 2.3-2 .616-.153 1.092-.563 1.512-1.01.44-.361.068-1.064.739-1.185.612-.233.936-.811 1.327-1.293.36-.56-.296-1.083-.21-1.68-.035-.259-.068-.545-.306-.702z" fill="#69737c"/><path d="M903.506 245.094h-3.709c-.614-.246-1.043-1.274-1.824-.866-.68.261-1.36.582-2.008.932a4.628 4.628 0 00-1.568 1.366c-.077.392-1.224.834-.258.848.837.068 1.352-.79 2.16-.904.635-.254 1.335-.095 2.002-.14.54.13 1.15.135 1.737.13.659-.05 1.279.072 1.92.056.932.083-.344.652-.642.777-.729.33-1.538.427-2.318.6-.77.005-1.566-.027-2.274.316-.714.33-1.432.681-2.091 1.132-.36.2-1.277.681-.372.69.674.083 1.326-.083 1.964-.284 1.111-.417 2.263-.69 3.434-.875.764-.172 1.471-.502 2.244-.642.471 0 1.73-.233 1.334.597-.482.58-1.168.985-1.85 1.287-.574.333-1.108.856-1.832.836-.545-.191-1.695.23-.864.78.419.752 1.305.237 1.852-.041a21.843 21.843 0 011.951-.836 36.587 36.587 0 002.262-.903c.606-.383 1.361-.517 1.917-.938.659-.385 1.44-.696 1.755-1.456.198-.618.668-1 1.262-1.206.675-.17 1.392-.064 2.077-.215.77-.004.548-1.394-.163-1.429-.621-.404-1.151-.879-1.787-1.238-.75-.272-1.541-.467-2.356-.39-.674.048-1.203.473-1.534 1.028-.419.49-.514 1.353-1.34 1.159-.373.101-.738-.034-1.081-.17zM885.42 249.714s.701-2.592 1.616-3.49c1.859-1.823 7.148-3.148 7.148-3.148-2.257.88-4.965.225-7.148.85-1.82.57-4.936 2.894-4.936 2.894s1.154-2.475 2.043-3.489c2.62-2.863 6.802-3.198 9.956-2.723l3.574.51s.61.37.34.913c-.562 1.137-2.258 1.788-3.403 2.334-3.212 1.637-7.195 2.914-9.19 5.349z" fill="#66452b" stroke="#000" stroke-width=".72876"/><path d="M896.312 240.608c-2.88 1.948-9.525 5.43-9.276 5.617 0 0 5.664-1.296 8.255-2.553.899-.437 2.16-.752 2.468-1.702.157-.487-.08-1.17-.511-1.447-.264-.17-.677-.09-.936.085z" fill="#69737c" stroke="#000" stroke-width=".72876"/><path d="M910.06 225.516c-.7-.046-.8 1.234-.829 1.935-.02.485-.024 1.347.46 1.381.617.044.77-1.043.83-1.658.055-.57.111-1.62-.46-1.658z" fill="#69737c"/><path d="M907.113 244.397c.022-.563-.692-.262-.998-.163-.697.16-1.297.555-1.908.908-.476.312-.99.559-1.478.848-.965.462-1.837 1.094-2.803 1.553-.41.2-.832.389-1.275.482-.36.07-.231.297.076.27.664.143 1.355.066 1.993-.16.71-.222 1.516-.404 2.2-.693.367-.335 1.13-.456 1.555-.701.353-.229 1.275-.367 1.657-.544.634-.332.375-.79 1.099-.795.451-.001.516-.688.068-.775a.389.389 0 01-.186-.23z" fill="#69737c" stroke="#000" stroke-width=".72876"/><path d="M900.574 250.476c.51-.14 1.053-.114 1.553-.298.62-.16 1.23-.36 1.833-.57.288-.142.577-.283.863-.427.51-.359.857-.896 1.194-1.408.23-.436.447-.88.667-1.32.102-.359-.333-.517-.552-.256-.328.235-.628.505-.968.725-.33.28-.73.47-1.037.776-.37.436-.554 1.008-.97 1.408a2.13 2.13 0 01-.677.463c-.524.287-1.107.44-1.639.71-.095.055-.197.11-.267.197z" fill="#69737c" stroke="#000" stroke-width=".72876"/><path d="M907.522 212.935c.208.332.323.73.343 1.118.061.477.178.944.241 1.419-.032.494-.547.793-.63 1.28-.03.326.02.658-.057.983-.117.528.052 1.082-.148 1.597-.25.482-.965.118-1.407.243-.43.1-.955.122-1.214-.31-.367-.393-.69-.83-1.103-1.18-.498-.485-1.015-.972-1.342-1.596-.299-.419-.552-.865-.84-1.29-.096-.18-.196-.407-.27-.561M902.766 217.342c-.424.003-.836.136-1.275.08h-1.27c-.311-.126-.922-.129-1.218-.332-.348-.068-.515-.274-.821-.403-.226-.161-.432.012-.715-.031-.192-.352-.607-.792-.836-1.036-.242-.126-.512-.216-.7-.487-.261-.064-.463-.493-.563-.631-.196-.23-.251-.536-.442-.785-.18-.263-.246-.518-.434-.795-.036-.058-.01-.133 0-.193" fill="none" stroke="#000" stroke-width=".72876"/><path d="M897.467 216.656c-.095.608-.784-.008-1.09-.08-.254-.125-.481-.272-.775-.365-.213-.163-.5-.276-.723-.379-.263-.165-.6-.271-.8-.478-.378-.086-.657-.457-1.017-.557-.327-.309-.692-.536-1.052-.776-.375-.297-.8-.555-1.16-.922-.34-.296-.63-.611-.658-1.063a3.343 3.343 0 00-.306-1.175c.043-.23-.125-.31-.087-.518" fill="none" stroke="#000" stroke-width=".72876"/><path d="M925.743 216.99c.397.023.786-.007 1.166-.102.4-.023.767-.183 1.15-.274.398-.168.722-.565 1.19-.527.424-.022.897.129 1.274-.132.238-.324.577-.44.965-.373.394-.057.77.072 1.15.151.355.127.722.205 1.077.33.342.178.677.381 1.037.52.358.182-.25.433-.364.614-.358.148-.793.012-1.11.29-.328.175-.623.41-.776.757-.192.397-.673.283-1.02.41-.344.05-.694.003-1.04.06-.293.01-.608.115-.881-.03-.369-.115-.75-.2-1.137-.21-.302-.208-.543-.543-.938-.574-.53-.12-.968-.471-1.482-.641a.453.453 0 01-.26-.27z" fill="#bca76b"/><path d="M877.899 182.72c-.88-.186-1.743.224-2.627.207-.811.181-1.665.049-2.495.09-.866-.158-1.797-.078-2.678.061-1.311.213-2.557.728-3.877.927-1.782.115-3.584.017-5.375.05-1.255.105.124-1.52.835-1.453 1.633-.44 3.227-1.032 4.92-1.197 1.258-.187 2.48-.57 3.73-.79 1.011-.288 2.033-.515 3.042-.807 1.048-.176 2.106-.375 3.166-.194 1.094-.271 2.19-.53 3.232-.974.95-.471 2.085-.157 2.976-.743.562-.83 1.615-.801 2.51-.725.952.175 1.994.523 2.577 1.368.7 1.014-1.442.883-.8 1.945-.38.392-1.11.483-1.691.454-.502-.03-1.032.102-1.486-.17-.814-.287-1.433-.916-2.181-1.345-.767-.119-.806 1.296-1.775 1.144-1.227.47-2.568.35-3.858.371.813.297 1.7.586 2.35 1.157.253.394-.198.542-.495.623z" stroke="#000" stroke-width=".48584"/><path d="M883.091 179.159l.816-.371.445-.742s.701 1.053.371 1.41c-.375.405-1.632-.297-1.632-.297zM885.259 177.172c.167-.128-.676-.65-.047-.789.666-.798 1.713-.14 2.486.104 1.49.47 3.057 1.05 4.05 2.327 1.43 1.65 1.751 3.906 2.884 5.73.485.871.796 1.824 1.117 2.762.235.748 1.377 1.524.78 2.328-.7.426-1.413-.145-2.075-.317-.898-.094-.462.909.126 1.026.638.253.836 1.269-.077 1.21-.871-.103-1.737-.17-2.59-.303-.68-.37.182-1.05.563-1.297.51-.307 1.184-.714 1.084-1.409.01-1.256-.859-2.286-1.048-3.503-.227-.912-.445-1.842-.899-2.673-.392-1.958-2.151-3.307-3.96-3.907-.774-.398-1.6-.741-2.34-1.176l-.054-.113z" fill="#fff"/><path d="M891.775 178.154c.26.144.514.302.778.436.21.216.691.944.842 1.204.102.215.15.442.203.673.045.294.274.497.431.733.143.335.25.686.382 1.025.175.264.347.536.412.851.062.267.14.525.248.776.147.212.227.63-.14.65-.242-.062-.499-.187-.643-.406-.282-.255-.432-.614-.652-.919a2.41 2.41 0 01-.265-.698c-.15-.262-.188-.574-.294-.855-.133-.266-.18-.562-.335-.816-.171-.289-.234-.624-.417-.907-.154-.342-.714-1.187-.582-1.581.013-.055.025-.11.032-.166zM885.91 175.97c-.203-.068-.35-.224-.487-.38-.157-.091-.44-.19-.551-.3-.38.15-.068-.25-.255-.19-.087-.145-.077-.251-.168-.407-.118-.138-.27-.246-.38-.392.009-.08-.16-.185.008-.184.201-.007.415-.027.599.068.198-.035.35.115.547.084.278-.02.557.005.837-.007.135-.049.155.126.3.077.096.018.124.1.235.064.227.011.26.25.382.381.169.104.242.29.283.461.038.045.074.25.06.204.024-.045.027.2-.08.19-.139.144-.336.162-.49.252-.198.017-.346.192-.547.151-.1-.016-.194-.053-.293-.073z" fill="#bca76b"/><path d="M885.423 175.59c-.284.125-.593.239-.908.193-.208.047-.365.203-.518.34-.181.115-.4.15-.606.191-.17-.035-.297-.171-.466-.217-.147-.057-.14-.255-.3-.302-.157-.11-.335-.177-.51-.25-.152-.066-.101-.25-.12-.383-.004-.15.018-.3.076-.439-.007-.211.18-.291.364-.25.346.003.691 0 1.037.001.171-.09.367-.188.566-.156.191.063.285.261.44.377.32.293.629.599.945.896zM886.977 174.784c.23-.117.479-.23.732-.264.256-.011.49.098.735.15.265.08.531.145.77.289.278.09.522.242.789.362.24.131.475.273.722.39.227.112.448.24.652.388.219.172.437.356.601.582.154.174.005.501-.228.318-.23-.15-.485-.242-.744-.33-.24-.035-.472-.074-.689-.188-.251-.048-.48-.212-.736-.277-.324-.15-.669-.247-.991-.4-.139-.105-.322-.122-.472-.213-.298-.158-.606-.298-.905-.455-.091-.097-.277-.19-.236-.352z" fill="#fff"/><path d="M890.68 180.056c-1-.08-2 .386-2.988.069-.746-.1-1.329.464-1.972.731-.832-.082-1.004 1.111-1.743 1.052-.633-.076-1.387-.565-1.96-.34 1.286.571 2.6 1.144 3.746 1.977.623.578 1.33 1.084 2.15 1.335.558.24 1.205.796.954 1.469-.25.788-1.427.926-1.473 1.818-.134.781-.993 1.114-1.27 1.82-.303.55-1.009.879-1.063 1.55.17.839 1.145.207 1.118-.41.146-.536.623-1.366 1.289-1.024.543.768 1.21-.538 1.863-.225.301.453 1.001.69 1.304.09.441-.173 1.137-.461.716-1.09-.014-.646.783-.602 1.145-.97.506-.228 1.036-.881.484-1.355-.495-.689.037-1.674-.583-2.313-.471-.734.013-1.65-.379-2.41-.333-.63-.594-1.523-1.266-1.796z"/><path d="M917.533 207.271c-1.143-.02-2.064.854-3.195.935-1.37.192.357.811.779 1.108 1.088.722 2.385.97 3.594 1.392 1.132.54 2.41.874 3.66.656 1.162-.273.3-1.428-.025-2.067-.696-.996-1.878-1.5-2.752-2.32-.633-.563-1.581-.36-2.06.296z" fill="#69737c"/><path d="M916.76 209.7c-.419.05-.83.187-1.257.14-.49.042-1.011.144-1.462-.123-.509-.13-1.03-.229-1.486-.505-.352-.233-.829-.328-1.04-.728-.298-.425.308-.46.587-.508.51-.103 1.051-.203 1.568-.097.562.29 1.177.444 1.737.738.464.203.928.436 1.27.812-.006-.015.077.173.084.27z" fill="#fff"/><path d="M922.369 209.359c.077.488-.787.024-1.094.186-.586.082-1.098-.101-1.633-.328-.85-.402-1.712-.798-2.629-1.003-.426-.111-1.294-.504-.668-.99.493-.38 1.13-.685 1.734-.764.647-.035 1.202.396 1.797.608.597.29 1.227.54 1.747.97.37.309.792.783.746 1.32z" fill="#fff" stroke-width="1.177"/><path d="M906.872 203.825a5.062 5.062 0 01-2.749.707c-.859.317-2.329-.458-2.633.682-.415.927.702 1.32 1.298 1.726 1.748 1.009 3.808.958 5.76 1.042.534.034 2.225-.2 1.33-.854-.98-.748-1.707-1.744-2.487-2.68-.195-.188-.408-.369-.519-.623zM916.663 204.461c-.39-.057-.76-.22-1.135-.332-.517-.173-.956-.517-1.45-.757-.664-.378-1.317-.786-2.006-1.112-.336-.119-.273-.485.097-.44.367.011.494-.574.851-.191.452.272.877.577 1.225.98.419.345.81.77 1.36.899.392.219 1.03.434 1.058.953zM915.341 206.273s-1.77.46-2.595.121c-.607-.18-1.233-.299-1.799-.597-.691-.348-1.439-.66-1.983-1.23-.438-.552.105-1.423.808-1.195.43-.122.253-1.109.912-.67.904.408 1.809.855 2.586 1.476.47.448.996.836 1.443 1.303.222.253.628.792.628.792zM902.131 193.824c1.183.304 2.555.856 3.28 1.899 1.038 1.263-.989 1.951-1.906 1.237-1.504-.736-3.018-1.494-4.632-1.952-1.544.2.684 1.093 1.116 1.5.68.405 1.266 1.18 1.256 1.955-1.018.79-2.325-.053-3.445-.163-1.226-.142-1.911-1.213-2.684-2.034-.56-.583-1.21-.932-1.959-.592 0 1.027.748 1.282 1.223 2.148.419.521 2.043 1.847.475 1.857-1.144-.314-2.2-1.066-2.812-2.11-.7-.721-1.246-2.221.194-2.41 1.239-.746 2.693-1.114 4.14-1.112 1.573-.145 3.169.108 4.713-.302.217.066 1.218-.45 1.041.08z" fill="#69737c"/><path d="M890.167 194.723c-.194.337-.335.661-.337 1.018-.024.43.02.825.057 1.222.11.318.193.686.325.991.192.364.498.582.792.836.24.264.487.4.792.568.234.142.466.231.73.321.234.104.61.204.927.268.35.06.598.006.739-.289.355-.224.067-.411-.174-.484-.272-.052-.51-.271-.754-.476a3.077 3.077 0 01-.623-.804c-.1-.268-.285-.517-.465-.774-.18-.213-.32-.429-.562-.645a5.864 5.864 0 01-.711-.767 8.69 8.69 0 00-.647-.763c-.048-.064-.094-.138-.089-.222zM900.558 198.823c-.657-.062-1.713-.338-2.499-.564-.886-.309-1.706-.836-2.258-1.604-.658-.611-1.3-1.262-2.067-1.738-.8-.243-1.127.882-.617 1.37.438.7 1.078 1.247 1.571 1.908.577.61 1.293 1.053 2.03 1.449.93.571 2.052.75 3.125.82.624-.078 1.375-.461 1.532-1.117.048-.422-.508-.512-.817-.524zM898.255 204.103c-.573.105-1.21.108-1.695-.262-.488-.241-.822-.723-1.115-1.168-.398-.466-.86-.963-1.465-1.142-.536-.153-1.181.223-1.013.832.074.507.461.905.805 1.258.57.566 1.343.818 2.064 1.132.36.193.799.234 1.204.242.414-.007 1.073.15 1.214-.376.02-.172-.014-.344 0-.516zM904.04 202.418c.491.215.831.845.51 1.335a1.802 1.802 0 01-1.664.742c-.536-.019-1.078.06-1.602-.095-.598-.18-1.156-.454-1.7-.75-.606-.201-.672-.91-1.071-1.318-.248-.462.584-.686.93-.553.584.189.938.742 1.504.953.448.235.901.46 1.414.515.434.104 1.01.194 1.294-.247.106-.207.245-.397.386-.582z" fill="#fff"/><path d="M909.094 201.153c.424.444.164 1.28-.435 1.42-.495.103-1.022.218-1.518.053-.735-.177-1.387-.576-2.017-.977-.38-.317-.974-.426-1.254-.867-.17-.6.487-1.077 1.043-.863.8.262 1.656.362 2.402.781.54.23 1.092.473 1.68.492z" fill="#fff" stroke-width="1.114"/><path d="M910.72 195.469c2.57 2.086 5.07 4.27 7.079 6.92 1.548 1.833 2.496 4.327 4.769 5.474 3.2 3.418 16.904 7.383 16.95 8.45-3.159-1.286-4.532 3.024-7.593 2.331-2.848.828-5.194-1.036-7.658-2.072-3.703-.132-7.56.06-10.857 1.939-1.801.979-3.944-.532-5.368-.035l-.164.31-.213.191m-17.467-6.566c-2.194-1.09-3.8-3.134-5.843-4.367-1.578-2.223-3.606-4.448-3.51-7.374-.248-3.023-1.039-7.204.396-10.077-1.031-2.253-2.477-2.86-3.617-5.08-.825-3.071-3.939-4.833-2.07-7.168 2.079-1.847 3.534-4.03 6.213-4.988 2.222-.515 4.475-.298 6.608.463 2.76.325 4.273 2.68 5.73 4.72a23.343 23.343 0 013.434 9.091c1.273 2.661 4.656 3.203 7.136 4.338 2.137 1.012 4.273 1.874 6.045 3.5" fill="none" stroke="#000" stroke-width=".72876"/></g></svg>