<svg xmlns="http://www.w3.org/2000/svg" xmlns:xlink="http://www.w3.org/1999/xlink" width="1260" height="630"><defs><clipPath id="a"><path fill="#00f" fill-rule="evenodd" d="M0 0h1260v630H0z"/></clipPath></defs><path d="M0 0h1260v630H0z" fill="#006400"/><path d="M0 90h1260v450H0z" fill="#ffd200"/><path d="M0 180h1260v270H0z" fill="#d40000"/><path d="M0 270h1260v90H0z"/><path d="M0 0v630l420-315z" clip-path="url(#a)" stroke="#000" stroke-width="30"/><path d="M0 0v630l420-315z" fill="#fff"/><path d="M159.78 156.622l83.19 256.028L25.179 254.416h269.203L76.592 412.65z" fill="#d40000"/><path d="M124.154 380.489l14.701-2.673 27.263-1.07 10.023.936 22.452 3.742 1.738-2.272v-16.17l2.54-13.9 4.677-14.166 4.81-11.226 6.282-11.627 10.29 2.54h2.673l.268-2.005-21.517-18.443-22.586-17.24-32.475-24.323-2.94-.802-3.608-25.392-2.54-7.751-3.34-2.94-6.55-2.139-7.216.268-3.207 1.87-6.95 1.604-3.608.535-2.406 2.807-.267 3.608 10.023.267 2.54 1.07-.268 1.068-5.746.802-2.673.802 3.207 2.406 3.208 1.203 4.276 1.603.802 2.807.4 38.89-2.271 6.014-.802 11.226 3.341 13.498-8.42 9.488-4.677 8.554-.802 5.345-2.539 5.212-.4 3.341 1.737 3.475 6.414 21.383 3.341 17.507z" fill="#fc0"/><path d="M131.934 212.878c-2.572-.002-3.807.443-6.356 1.828-2.3 1.25-5.03 2.082-6.89 2.082-3.782 0-6.835 2.714-6.835 6.103v2.25l5.513-.17c15.8.53 1.375 1.986.225 2.195-3.923.711.87 3.911 5.484 5.456 4.965 1.662 4.753.7 4.753 22.472 0 17.876-.155 20.405-1.519 24.525-2.002 6.048-2.002 15.037 0 20.953.81 2.39 1.477 4.62 1.491 4.95.014.33-2.338 3.254-5.231 6.497-5.225 5.857-8.438 12.142-8.438 16.537 0 1.012-.682 2.72-1.519 3.825-1.93 2.55-1.985 6.94-.112 8.607 1.943 1.728 9.963 32.689 9.984 38.53.008 2.131.389 2.118 12.572-.337 9.836-1.982 33.089-2.402 44.86-.815 5.437.733 11.762 1.8 14.062 2.39 7.245 1.86 6.846 2.243 6.863-6.497.026-13.513 2.489-26.364 7.706-40.106 2.373-6.251 8.612-18.946 10.266-20.897.163-.193 2.82.298 5.906 1.097 6.313 1.634 8.044 1.329 8.044-1.406 0-1.566-6.444-6.939-37.997-31.64-21.261-16.645-38.7-29.757-39.572-29.757-.858 0-1.725-.441-1.913-.984-.187-.544-1.19-6.978-2.25-14.316-1.06-7.338-2.491-14.583-3.178-16.087-2.008-4.398-6.165-6.73-12.797-7.172a46.8 46.8 0 00-3.122-.113zm.225 1.575c.828-.01 1.76.025 2.897.085 9.962.522 11.846 3.271 14.456 20.98 1.014 6.874 1.848 13.23 1.857 14.148.012 1.192-1.373 2.602-4.866 4.95-5.143 3.457-11.781 9.763-15.019 14.231l-1.94 2.644-.366-6.216c-.213-3.417-.213-11.39 0-17.719.441-13.079.098-14.37-4.19-15.806-3.502-1.172-8.072-2.433-6.722-3.234 1.473-.876 2.836-.25 6.58-1.181 1.327-.33 1.255-.274 1.041-1.407-.384-2.04-2.376-2.976-8.015-2.672-4.429.24-4.997.124-4.697-1.068.607-2.411 3.113-3.995 6.834-4.36 2.004-.196 4.926-1.084 6.525-1.969 1.77-.979 3.143-1.376 5.625-1.406zm22.304 38.813c.209-.003.405-.001.59.028 2.553.4 76.19 57.974 76.19 59.569 0 .63-.59 1.136-1.321 1.125-.732-.012-19.474-5.32-41.625-11.785-35.4-10.331-40.49-12.019-42.019-13.865-2.172-2.625-2.244-6.632-.197-9.338.837-1.105 1.519-2.464 1.519-3.037 0-1.75-3.753 2.711-4.472 5.315-.84 3.044.725 8.138 3.01 9.788.902.652 7.65 2.97 14.99 5.147 12.528 3.713 13.37 4.113 14.035 6.187 1.596 4.98-3.665 10.76-11.279 12.403-2.455.53-5.577 1.975-7.734 3.6-8.573 6.46-14.543 10.276-19.547 12.431-2.942 1.268-5.785 2.7-6.3 3.207-.515.506-1.266 2.81-1.687 5.118-.895 4.902-1.274 5.654-2.728 5.654-.842 0-.918-.44-.338-2.025 1.07-2.923.953-6.666-.225-6.666-.623 0-1.012 1.041-1.012 2.784 0 1.522-.43 3.198-.985 3.741-.834.817-.94.213-.59-3.544.231-2.5.13-4.556-.225-4.556-.683 0-2.023 3.788-2.504 7.116-.281 1.95-.298 1.935-.928-.366-.491-1.797-.253-3.002 1.013-5.288.902-1.63 1.66-4 1.66-5.287 0-1.938 1.427-3.812 8.437-10.913 4.653-4.713 10.07-10.562 12.037-12.993 3.403-4.208 3.582-4.654 3.46-8.916-.071-2.463-.356-4.676-.62-4.95-.888-.924-2.072 3.838-1.602 6.44.424 2.354-.014 3.155-4.922 8.944-2.963 3.495-7.995 8.763-11.166 11.729-5.841 5.462-7.931 8.414-7.931 11.193 0 .844-.655 3.075-1.463 4.95-.808 1.876-1.254 3.793-1.012 4.247.27.508.078.475-.478-.056-.659-.629-.712-1.793-.169-4.303.41-1.893.578-3.722.366-4.078-.816-1.372-1.772.39-2.25 4.134-.274 2.148-.788 3.722-1.153 3.488-1.1-.707-.753-4.616.59-6.61.693-1.027 1.557-3.475 1.913-5.456.998-5.557 3.386-9.967 8.69-15.975 2.674-3.028 4.866-5.618 4.866-5.766 0-.147-.713-2.382-1.575-4.95-1.994-5.937-2.126-14.978-.31-20.475 1.915-5.792 5.86-11.526 12.094-17.578 6.034-5.856 11.767-9.51 14.907-9.562zm22.528 48.262a1.29.86 0 011.49.844 1.29.86 0 01-2.56 0 1.29.86 0 011.07-.844zm3.712.478a1.29.86 0 01.028 0 1.29.86 0 011.519.872 1.294.863 0 01-2.588 0 1.29.86 0 011.041-.872zm3.938.732a1.29.86 0 01.14 0 1.29.86 0 011.378.871 1.29.86 0 01-2.559 0 1.29.86 0 011.04-.871zm3.543.73a1.29.86 0 01.17 0 1.29.86 0 011.377.873 1.294.863 0 01-2.587 0 1.29.86 0 011.04-.872zm-9.45.873a1.29.86 0 01.028 0 1.29.86 0 011.52.871 1.294.863 0 01-2.588 0 1.29.86 0 011.04-.871zm3.713.618a1.29.86 0 011.519.844 1.294.863 0 01-2.588 0 1.29.86 0 011.069-.844zm7.79.31a1.29.86 0 011.52.843 1.294.863 0 01-2.588 0 1.29.86 0 011.069-.843zm-4.106.056a1.29.86 0 011.519.844 1.294.863 0 01-2.587 0 1.29.86 0 011.068-.844zm7.594.872c.115-.169 5.513 1.204 11.981 3.065l11.757 3.375-2.279 4.05c-1.253 2.22-2.835 5.197-3.515 6.61-1.38 2.868-1.87 2.918-8.944 1.294-7.823-1.797-20.19-3.504-32.766-4.529l-12.093-.984 4.556-1.716c2.51-.95 6.117-2.58 8.016-3.628 2.978-1.643 4.178-1.855 8.746-1.518 6.783.499 11.354-.753 13.05-3.572a138.704 138.704 0 011.491-2.447zm-13.275.844a1.29.86 0 01.028 0 1.29.86 0 011.519.871 1.294.863 0 01-2.588 0 1.29.86 0 011.041-.871zm8.466 0a1.29.86 0 01.028 0 1.29.86 0 011.519.871 1.294.863 0 01-2.588 0 1.29.86 0 011.04-.871zm-12.15.112a1.29.86 0 01.168 0 1.29.86 0 011.379.872 1.294.863 0 01-2.588 0 1.29.86 0 011.04-.872zm8.015.14a1.29.86 0 011.519.845 1.294.863 0 01-2.587 0 1.29.86 0 011.068-.844zm-9.843 1.773a1.29.86 0 01.028 0 1.29.86 0 011.49.872 1.29.86 0 01-2.56 0 1.29.86 0 011.041-.872zm3.684.056a1.29.86 0 01.14 0 1.29.86 0 011.379.872 1.29.86 0 01-2.56 0 1.29.86 0 011.041-.872zm3.937.14a1.29.86 0 011.52.844 1.294.863 0 01-2.588 0 1.29.86 0 011.068-.843zm4.163.113a1.29.86 0 01.028 0 1.29.86 0 011.49.872 1.29.86 0 01-2.559 0 1.29.86 0 011.04-.872zm-30.46 12.122c5.147-.164 23.114 1.138 31.641 2.419 7.505 1.127 20.65 3.567 21.094 3.91.11.085-1.016 3.682-2.531 7.987-1.516 4.304-2.898 8.323-3.066 8.915-.23.808-1.153.934-3.712.535-12.497-1.948-48.504-1.772-62.354.309-7.873 1.183-9.03 1.097-8.353-.562.31-.761.969-3.143 1.463-5.316l.9-3.966 8.353-4.331c4.591-2.39 9.708-5.438 11.362-6.778 1.655-1.34 3.381-2.67 3.854-2.953.147-.089.614-.145 1.35-.169zm-40.443 21.347c.375 0 1.312.432 2.39 1.125 1.409.905 3.207 1.65 3.994 1.66 3.918.047 6.072 5.567 9.394 24.102a375.967 375.967 0 001.21 6.44c.305 1.502-.124 1.839-3.488 2.588-4.252.948-5.288 1.018-5.288.45 0-1.591-4.228-20.581-6.075-27.28-1.258-4.564-2.306-8.582-2.306-8.945 0-.045.022-.091.056-.112a.194.194 0 01.113-.028zm42.919 2.784h4.303l-1.435 1.631c-2.547 2.926-3.764 3.204-5.54 1.238-.895-.99-1.632-2.036-1.632-2.335 0-.298 1.938-.534 4.304-.534zm9.112 0h8.156l-1.8 1.969c-2.205 2.44-2.35 2.44-4.556 0zm12.319 0h1.884c1.025 0 2.908.212 4.19.478l2.335.478-2.165 1.885c-1.187 1.037-2.27 1.88-2.42 1.856-.148-.024-1.08-1.11-2.052-2.39zm12.684.563l1.885.478c1.045.273 3.277.526 4.95.534h3.037l-2.278 1.94c-1.255 1.07-2.465 1.954-2.7 1.97-.236.015-1.444-1.081-2.672-2.447zm-45.31.253c.22.006.356.016.395.056.154.161-.482 1.24-1.435 2.39l-1.744 2.082-2.193-1.8-2.194-1.828 3.656-.563c1.503-.234 2.86-.356 3.516-.337zm3.46.225c0-.075 1.093.878 2.419 2.11l2.419 2.25-4.472.252-4.472.253 2.053-2.362c1.13-1.302 2.053-2.428 2.053-2.503zm27.169 0c.32.021.63.204 1.012.534.663.572 1.53 1.707 1.941 2.503.643 1.249.448 1.418-1.378 1.35-1.165-.043-2.908-.306-3.881-.59l-1.772-.507 1.94-1.884c1.025-1 1.604-1.442 2.138-1.406zm-12.6.028c.841-.116 1.496.511 2.39 1.912 1.096 1.715 1.057 1.74-2.98 1.716l-4.079-.028 2.166-1.97c1.072-.98 1.848-1.54 2.503-1.63zm25.453.281l1.856 1.828c2.034 1.986 2.393 3.198.9 2.981-.523-.076-2.41-.255-4.19-.421l-3.235-.31 2.335-2.025zm-52.706 1.012c.351 0 1.438.86 2.39 1.913l1.716 1.912-3.684.507c-2.03.273-4.367.64-5.203.815-1.13.236-.79-.39 1.321-2.418 1.563-1.502 3.108-2.728 3.46-2.728zm-5.625.113c.25-.005.479.024.675.056 1.246.203 1.127.521-.9 2.532l-2.335 2.306-.675-1.913c-.563-1.568-.4-2.015.9-2.531.652-.258 1.583-.438 2.335-.45zm68.934 2.644c.36-.022.437.27.225.843-.461 1.25-1.8 1.559-1.8.422 0-.388.52-.883 1.125-1.125.184-.073.33-.133.45-.14zm-31.978 2.39c11.502 0 23.22.287 26.044.647 4.75.607 5.119.79 5.119 2.56 0 2.108-.642 2.209-6.835 1.097-1.882-.338-9.43-1.056-16.79-1.603-12.777-.95-28.613-.437-42.722 1.378-2.913.374-3.6.231-3.6-.732 0-2.038 15.25-3.346 38.784-3.346zm-15.469 4.332h8.128l-1.8 1.969c-2.205 2.44-2.35 2.44-4.556 0zm10.435 0l2.137 2.11c1.175 1.169 2.138 2.254 2.138 2.39 0 .136-1.953.253-4.332.253h-4.33l2.193-2.39zm3.234 0h8.156l-1.8 1.969c-2.205 2.44-2.35 2.44-4.556 0zm-19.238.112c.357.023.036.624-1.04 2.138-.979 1.376-2.012 2.503-2.278 2.503-.267 0-1.268-.91-2.25-1.997l-1.8-1.969h2.728c1.502 0 3.325-.245 4.05-.534.266-.106.472-.148.59-.14zm3.066.675l1.94 1.772c1.073.978 2.06 1.846 2.194 1.913.134.066-1.628.243-3.937.393l-4.219.282 2.025-2.194zm26.044 0l2.194 2.39c2.39 2.594 2.15 2.707-3.291 1.66l-2.56-.478 1.829-1.8zm3.065 0h3.544c3.84 0 4.336.603 2.166 2.644-1.784 1.678-1.794 1.666-3.91-.675zm-45.928.816c1.729-.016 1.677.148-.562 2.334-1.717 1.677-1.925 1.713-2.39.45-.56-1.512.78-2.764 2.952-2.784zm58.191.225c.584-.005 1.783.128 3.122.366l3.262.562-1.884 1.828-1.856 1.828-1.632-2.137c-.892-1.18-1.514-2.249-1.378-2.39.035-.036.171-.055.366-.057zm-53.944.703c.461-.079.87.297 1.66 1.04 1.507 1.419 1.526 1.549.225 2.082-.76.311-2.411.588-3.657.619l-2.25.056 2.053-2.138c1.01-1.05 1.508-1.58 1.97-1.659zm51.131.422c.529-.03.948.422 1.688 1.462l1.378 1.913h-3.15c-2.051 0-3.033-.327-2.84-.928.162-.506.958-1.362 1.771-1.913.48-.325.836-.517 1.153-.534zm9.62 2.025c.167.038.196.313.196.815 0 1.476-1.228 2.444-1.828 1.435-.233-.393.08-1.15.703-1.688.46-.397.76-.6.928-.562zm-38.898 1.8c13.006-.015 27.47.85 35.86 2.419l2.475.478v6.61c0 4.835-.235 6.604-.928 6.524-.523-.06-3.87-.747-7.425-1.547-10.727-2.411-22.854-3.345-36.507-2.784-6.9.283-14.121.802-16.059 1.153l-3.544.647-.872-5.513c-.48-3.025-.752-5.599-.618-5.737.133-.139 3.467-.703 7.425-1.238 5.095-.688 12.39-1.003 20.193-1.012z"/><path id="b" d="M187.144 326.644c-4.447 0-7.622 3.281-7.622 7.903 0 7.201 8.095 10.688 12.994 5.597 4.898-5.092 1.556-13.5-5.372-13.5zm-.028 1.856c3.285-.13 6.103 2.426 6.103 6.131 0 4.336-5.018 7.36-8.888 5.344-4.138-2.156-3.83-9.086.478-10.94a6.424 6.424 0 012.307-.535z" stroke-width="1.5"/><use xlink:href="#b" x="-20.065" y="-.6" width="100%" height="100%"/><path d="M132.019 217.912a2.584 2.646 0 00-2.39 2.644 2.587 2.649 0 105.174 0 2.584 2.646 0 00-2.784-2.644zm.169.929a1.74 1.715 0 011.687 1.715 1.744 1.72 0 11-3.487 0 1.74 1.715 0 011.8-1.715z"/></svg>