<svg xmlns="http://www.w3.org/2000/svg" width="59.365" height="50.375" viewBox="0 0 59.365 50.375"><defs><style>.a{fill:#f7ba88;}</style></defs><g transform="translate(-0.05 -38.813)"><path class="a" d="M42.542,38.813C40.348,56.73,40.995,62,25.669,64c15.065,2.447,15.282,7.964,16.873,25.188C44.638,71.864,44.23,66.675,59.415,64,44.111,62.035,44.626,56.709,42.542,38.813Zm-33.387.462C7.971,48.944,8.32,51.79.05,52.867c8.13,1.32,8.247,4.3,9.105,13.592,1.131-9.349.911-12.149,9.106-13.592C10,51.806,10.28,48.932,9.155,39.275Zm8.288,27.137c-.83,6.78-.586,8.776-6.385,9.531,5.7.926,5.783,3.014,6.385,9.531.793-6.555.639-8.519,6.385-9.531-5.791-.744-5.6-2.759-6.385-9.531Z" transform="translate(0 0)"/></g></svg>