<svg
  xmlns="http://www.w3.org/2000/svg"
  viewBox="0 0 66 66"
  className="w-12 h-12"
>
  <path d="M23.9 65.9l22.6-12c.3-.2.5-.5.5-.9V31.5c0-.4-.3-.8-.6-.9L23.9 18.3c-.3-.2-.7-.2-.9 0-1.7.9-19.1 10.2-22.5 11.9-.3.2-.5.6-.5.9v19.7c0 .3.2.7.5.8l22.4 14.1c.2.1.3.2.5.2.2.1.4 0 .5 0zm.5-2.6V44.4l7.3-4v5.8c0 .4.2.7.5.9.2.1.3.1.5.1s.3 0 .5-.1l5.5-3c.3-.2.5-.5.5-.9v-6.9l5.8-3.2v19.2l-20.6 11zm-8.8-38.8l21.6 11.8v6.3l-3.5 1.9v-5.8-.1-.1c0-.1 0-.2-.1-.3-.1-.1-.1-.2-.2-.3l-.1-.1-.1-.1-21.1-11.3 3.5-1.9zm7.8-4.2l20.5 11.2-5.7 3.1-20.5-11.2 5.7-3.1zM9.9 27.5l20.7 11.2-7.2 3.9L3.1 31.1l6.8-3.6zM2 50.3V32.8l20.4 11.5v18.8L2 50.3z" />
  <path d="M19.3 48.3L6.2 40.7c-.5-.3-1.1-.1-1.4.4-.3.5-.1 1.1.4 1.4l13.1 7.6c.5.3 1.1.1 1.4-.4.3-.5.1-1.1-.4-1.4zM19.2 53.3L6.1 45.6c-.5-.2-1.1-.1-1.4.4-.3.5-.1 1.1.4 1.4L18.2 55c.5.3 1.1.1 1.4-.4.3-.4.1-1-.4-1.3zM56.1 32.1c.4 0 .7-.2.9-.5.4-.6 9.1-15 9.1-21.8C66 4.4 61.6 0 56.1 0s-9.9 4.4-9.9 9.9c0 7.1 8.7 21.2 9.1 21.8.1.3.4.4.8.4zm0-30.1C60.5 2 64 5.5 64 9.9c0 5-5.7 15.5-7.9 19.3-2.2-3.8-7.9-14-7.9-19.3 0-4.4 3.5-7.9 7.9-7.9z" />
  <path d="M61.6 9.7c0-3-2.5-5.5-5.5-5.5s-5.5 2.5-5.5 5.5 2.5 5.5 5.5 5.5 5.5-2.5 5.5-5.5zm-9 0c0-1.9 1.6-3.5 3.5-3.5s3.5 1.6 3.5 3.5-1.6 3.5-3.5 3.5c-2 0-3.5-1.6-3.5-3.5zM59.9 35.1c-.2-.2-.4-.3-.7-.3-.3 0-.5.1-.7.3l-5.8 5.8c-.4.4-.4 1 0 1.4.4.4 1 .4 1.4 0l4.1-4.1v24H40.9c-.6 0-1 .4-1 1s.4 1 1 1h18.3c.6 0 1-.4 1-1v-25l4.1 4.1c.4.4 1 .4 1.4 0 .4-.4.4-1 0-1.4l-5.8-5.8zM8.4 23.1c.6 0 1-.4 1-1V7.8h31l-4.1 4.1c-.4.4-.4 1 0 1.4.4.4 1 .4 1.4 0l5.8-5.8c.1-.1.2-.2.2-.3.1-.1.1-.3.1-.4 0-.1 0-.3-.1-.4 0-.1-.1-.2-.2-.3L37.7.3c-.4-.4-1-.4-1.4 0-.4.4-.4 1 0 1.4l4.1 4.1h-32c-.6 0-1 .4-1 1v15.3c0 .5.4 1 1 1z" />
</svg>
