<svg xmlns="http://www.w3.org/2000/svg" xmlns:xlink="http://www.w3.org/1999/xlink" width="900" height="600"><path fill="#fff" d="M0 0h900v600H0z"/><path id="a" d="M463.102 506.74a1.018 1.018 0 01-.347-.244l-.125-.117a21.368 21.368 0 01-1.582-1.643c-1.332-1.513-3.12-3.728-4.69-5.685-3.115-3.883-5.69-7.228-6.174-7.858l-.793-1.032-7.767-2.395-5.671-2.644 3.03-3.406 10.408 4.456 7.767 1.594 14.363 10.564-.011.009c-.03.024-2.09 1.738-4.136 3.599-.913.83-2.064 1.896-2.877 2.783-.375.408-.705.813-.93 1.14a2.554 2.554 0 00-.252.47l.892-.554.967.752-1.968.184-.09.02zm-53.34-16.02c-6.777 0-13.471-1.873-19.895-5.566l-.007-.004.003-.008s.84-1.601 2.878-3.096c1.94-1.425 5.442-3.128 11.1-3.15h.117c6.7 0 14.9 2.278 24.373 6.77-.32.213-7.756 5.055-18.566 5.055l.01.01zm-29.37-6.51c-1.253 0-2.38-.473-3.17-1.332-.65-.706-1.114-1.646-1.422-2.878-.504-2.018-.365-4.025-.351-4.217a4.349 4.349 0 011.562-.354l.112-.002c2.51 0 4.49 2.178 5.338 4.337.48 1.227.574 2.259.274 3.067-.3.81-1.24 1.37-2.34 1.37zm51.68-5.99c-17.36-2.478-24.717-8.754-27.833-13.582-3.323-5.15-2.641-9.912-2.634-9.96l.003-.014.013-.004c.005 0 1.06-.285 2.658-.293 4.618 0 16.43 2.323 27.798 23.842l.007.014-.02-.01zm-35.58-3.44c-7.416 0-13.062-1.28-16.782-3.803-2.138-1.45-3.184-3.043-3.686-4.125-.47-1.014-.577-1.856-.594-2.023.196-.09 3.232-1.438 7.765-1.65.383-.018.769-.03 1.174-.03 5.732 0 14.448 1.87 23.646 10.78l.009.009h-.011c-4.2.55-8.08.84-11.53.84zm-35.91-1.38c-7.82 0-18.563-2.387-25.263-9.086l-.007-.008.02-.005c.07-.018 7.342-1.863 15.523-2.062.488-.012.979-.02 1.475-.02 7.332 0 12.944 1.423 16.682 4.226 1.305.979 2.018 1.89 2.178 2.783.134.746-.26 1.55-1.056 2.15-1.683 1.27-4.692 1.949-8.945 2.017l-.6.02zm-25.34-13a3.206 3.206 0 01-2.48-1.166c-.505-.614-.857-1.416-1.107-2.522-.418-1.848-.292-3.656-.291-3.674v-.018a2.994 2.994 0 011.218-.275h.003c1.157 0 2.039.63 2.589 1.158a6.964 6.964 0 011.688 2.645c.365 1.03.424 1.892.18 2.635-.2.59-.88 1.21-1.8 1.21zm58.53-1.32c-1.253 0-2.38-.473-3.17-1.332-.65-.706-1.114-1.646-1.422-2.878-.504-2.018-.365-4.025-.351-4.217a4.349 4.349 0 011.562-.354l.112-.002c2.51 0 4.49 2.178 5.338 4.337.48 1.227.574 2.259.274 3.067-.3.82-1.25 1.37-2.34 1.37zm-28.51-1.18c-15.737-.553-23.904-5.026-27.984-8.682-2.297-2.058-3.574-4.098-4.24-5.447-.628-1.274-.866-2.25-.908-2.438l.02-.01c.004 0 1.49-.531 3.886-.578l.368-.004c5.307 0 16.11 2.229 28.852 17.153v.01zm17.09-1.59c-12.661-1.927-19.834-7.362-23.622-11.584-3.971-4.425-5.16-8.546-5.213-8.738.023-.007 1.57-.41 3.9-.47a17.83 17.83 0 011.077 0c6.368.14 17.934 3.024 23.855 20.786h.01zm-65-6.08c-4.15 0-8.174-.48-11.962-1.426-6.63-1.658-9.473-4.19-10.691-6.021-.692-1.04-.943-1.952-1.031-2.534a4.268 4.268 0 01-.031-1.073l.03-.011c.018-.004 4.4-1.235 10.465-1.328a43.783 43.783 0 019.289.824c10.536 2.107 16 10.06 16.053 10.14l.005.009-.013.003c-.06.01-5.08 1.42-12.12 1.42zm29.39-10.68c-1.27 0-2.395-.462-3.172-1.303-.64-.691-1.104-1.643-1.42-2.908-.506-2.015-.365-4.002-.351-4.185a4.349 4.349 0 011.562-.354l.112-.002c2.506 0 4.488 2.179 5.339 4.338.468 1.188.55 2.208.243 3.034-.31.84-1.22 1.38-2.31 1.38zm-22.1-3.03c-.095-.022-5.977-1.535-11.967-5.224-5.544-3.413-12.326-9.45-13.153-18.83v-.005l.014-.004s.516-.125 1.278-.154a8.82 8.82 0 01.334-.006c1.656 0 5.046.466 9.147 3.584 5.22 3.98 10.04 10.92 14.35 20.65zm14.43-.53c-.037-.014-4.23-1.692-9.47-6.083-4.881-4.092-11.745-11.46-16.715-23.33.003-.001 1.142-.608 2.886-.718.1-.007.203-.01.306-.01.15 0 .305.006.463.01 2.41.068 6.083 1.07 10.154 5.463 4.676 5.047 8.85 13.34 12.404 24.65l.01.033-.03-.01zm-37.39-1.09c-4.821 0-6.471-2.614-6.957-3.74-.798-1.848-.556-3.688-.554-3.706l.003-.02c.78-.195 1.605-.303 2.398-.314l.165-.001c3.799 0 6.798 1.929 8.084 3.84.255.38 1.037 1.695.39 2.722-.52.81-1.7 1.22-3.53 1.22zm-10.68-13.47c-2.692 0-6.811-.164-11.141-.951-4.294-.781-6.728-4.432-8.013-7.356-1.4-3.185-1.794-6.223-1.798-6.254h.012c13.282.39 19.555 4.27 22.478 7.457 3.018 3.29 3.197 6.706 3.206 6.922h-.01c-.02 0-1.89.18-4.74.18zm13.83-13.82a53.416 53.416 0 01-3.033-4.227c-1.573-2.445-3.028-4.996-3.028-7.084 0-2.016-.474-6.266-.757-8.62-.358-2.984-.72-5.54-.75-5.756l.013.004c.337.123 8.308 3.114 8.308 10.59 0 7.49-.738 15.015-.745 15.09l-.001.01h-.01zm-10.33-.71c-.084 0-.167-.007-.25-.02-2.356-.393-6.496-2.194-11.073-4.818-5.082-2.914-9.21-6.036-11.62-8.791-2.198-2.512-3.503-6.457-3.88-11.726-.267-3.74.053-6.854.087-7.163.412-.137.85-.204 1.315-.204 1.764.029 3.647.823 6.189 2.574 1.98 1.365 4.165 3.22 6.49 5.514 4.012 3.957 7.168 7.932 7.199 7.97l.032.04c.265.476 2.537 4.572 4.307 8.559 1.124 2.532 1.767 4.357 2.024 5.746.147.79.19 1.31-.004 1.78-.081.196-.235.377-.385.449-.14.06-.28.09-.44.09z" fill="#4e5b31"/><use xlink:href="#a" transform="matrix(-1 0 0 1 900 0)"/><path d="M727.132 103.967l-2.355.938-.923.368-2.854-.157-2.673 1.283-4.74 3.239-.21.15-1.766.46-1.641-.707-.932.424-.321 1.92-.887 1.379-1.092.767-3.783.387-3.19 1.645-4.15-1.111-1.928.755-4.1 3.692-2.094.992-.732-.042-2.778-.143-1.173.384-1.752 1.693-3.315.258-1.033.715-1.618 3.26-1.753 1.808-1.003.212-1.087-.398-.817.144-.37 2.086-.793.874-2.22.764-1.772 1.477-1.556.799-2.084-.052h-.48l-2.075 1.146-3.905.342-1.624 1.549-.358.33-.758.459-1.24.74-.304.184-1.495-.267-1.75.693-.708-1.09-1.211.728-1.604.069-1.998-.89-1.522-.677-1.113.16-.387 1.94-.04.207-1.17 1.557-2.183 1.323-.297.387-2.485 3.208-4.722 4.966-3.993 2.028-4.14 1.259-2.896 2.38-7.6 3.767-11.993 5.967-2.453.786-3.52.562-6.278 2.312-5.54 1.67-.307.095-1.096.332-7.81 2.363-3.635-.384-2.153.782-5.605-.622-3.897.077-2.467.513-4.637 2.224-7.827 3.762-2.586 2.366-4.027 2.1-4.715 1.494.01-1.981-.027-.084-1.636.517-1.181.373-3.825.59h-2.128l-1.321-.384-.204.069-7.818 2.576-8.72.842-4.362 1.399-3.26-.052-2.038.607-3.995.488-1.428-.381-.322-.088-11.75.51-5.372-.607-2.564.583-4.296-1.445-6.27-.727-1.464-.44-3.295-.977-1.491.859-1.116.119-2.667-.967-.96-.025-2.202.796-1.267-.325-1.177-.938-2.761-.411-1.682-1.414-9.402 1.246-2.551-.75-8.554-2.492-1.361.069-1.696 1.27-2.548.93-2.212.575-3.012.105-3.497-.918-3.606-1.748-1.333-.317-2.974.3-.91.083-5.466-2.932-7.042-4.404-4.778-2.296-1.794-.291-.241.853.89 2.805.303 2.774-.091 2.563-.05 1.587.447 1.425 1.725 1.912.719 1.92.526 5.284-.006 5.362-.84 8.55-.282 1.303-1.001 4.43-.914 4.069-3.546 10.833-.974 1.343-2.391 1.63-5.42 3.689-3.99 2.3-1.262.524-3.24.245-2.017-.105-2.513-1.361-2.467-.635-3.232-2.324-3.595-.744-3.941-2.278-1.026-1.233-2.146-.202-2.976-.893.002-.005-1.093-.327-.755-.22v-.001l-3.796-.104-3.54-1.634-1.864-.45-2.547-.13-2.666 1.24-.001-.004-1.351.629-1.707-.678-1.235.077-1.4 2.115-.208.328-.964.51-1.2-.017-.94-.025-1.015.444-1.368.593v.003l-1.208.527-.59.255-.01-.01-.363.073-.645.112-.8.153-1.41-.824-.75-.442-1.257-.256-.677.489-.133 2.3-.618 1.379-1.961 1.734-1.993 1.755-1.39 2.047-3.675 8.39-2.303 3.385-.715.789-2.408 2.656-2.136 1.657-4.922 3.815-4.66 1.74-4.012.82-1.951.009-3.696-.492-3.323-1.02-3.65-2.282-4.003-3.217-5.794-5.724-.82-.493-.171-.114-1.825-1.167-1.354.035-.53.874-.29 1.263-.245 1.12-.664 6.367.049.369.349 2.622 4.4 6.15 1.359 3.267.223.373.908 1.525.69 1.163.07.118 1.504 4.488-1.057 2.534.534 1.697-1.336 1.037-.245 1.465 3.95 4.953.863 2.185-.963 3.029-1.536 1.67-.43.458.217 1.28 1.818 1.635 3.089 2.75 1.647 4.086 1.253 1.096 1.456-.31.81.618 1.228-.021 1.208 1.208.782.379 1.236.616.977 1.272.216 3.91 1.822 4.86.028 2.636.01.374 1.134 1.948.356 1.538-.604 4.069 1.445 1.306 1.567-.32 1.012.16 1.626 1.354 1.969 3 1.926-.281 1.222.589 5.902 5.334 1.339.676.074.042.963.483 1.197 1.208 1.856-1.232.206-.021 2.018-.178.886.597 1.704 1.149 2.234-.03 4.844 1.486 2.119.543 4.26 2.648 1.812 1.12 1.072.87 1.424 1.162 2.845 1.224 2.44.584 1.322.314.995.384.025-.062.014.004-.024.063 5.284 2.023 2.862.668 2.648.975 1.927.703 1.414.023 2-1.682 1.937-.112 1.609.4 1.57-.262 2.485-1.531.485-.72 1.762-.838 5.944-.738 1.737.564 4.46-1.94 2.988.83 2.645-.937 5.779 1.284 1.536 1.08 1.717 1.966.21.009 1.912.037-.8 1.33 2.524 2.648 2.279 3.445.154.455 1.657 4.864 1.232 1.723.862 2.405.042 1.568-1.34 1.022-.22.583-.076.216.272.655.506-.276.963-.533 1.166-.181 2.066.22 1.364.143 2.154-1.07 1.427-.71 2.293.988 2.52-.028 1.058.47 2.995 1.359 1.529.144.565-.371.36-.856-.185-.996-1.145-1.323-2.531-2.938-1.036-1.51-.79-2.186-.244-2.794-.174-1.885.314-2.477.68-.884.5-1.968h.009l.129-.515 1.406-1.866 3.724-2.393 4-3.582 3.162-2.085 3.26-1.412.087-.396.363.146 8.292-2.82.137-.015 3.692-.643 24.92 1.755.924-.28.004-.005.83-2.33.447-.432.297-.282 2.74-1.206 1.28-.183 3.557.878 1.456.359 2.332-1.307 1.654.028 3.417-1.866 2.11.053.804-.321 4.112-2.955 3.96-1.135 1.03-.548.364-.2 4.06-2.143 2.579-1.981 2.226-1.183 2.438-.63 6.38-.448 1.283-2.138 2.744-.366 1.657-1.87 1.896-.771 1.359-1.958 1.139-1.641 1.59-.921 5.1-.32 6.046.749.799-.485 1.366-4.875 1.43-.915 3.85-5.612.014-2.045.004-1.708.633-2.432-.43-4.391.51-4.446 2.394-5.65 2.109-2.28 3.4-2.3 1.73-.753 2.449-.412v-.006l.36-.061.624-.107 8.433-.116c.117-.087 3.067-.042 3.067-.042l2.812-.038 7.114 1.266.506.088 2.405.779 2.774 2.157 2.936 2.868.55.535 1.903.8.575.252 1.57-.251 2.238-1.165 1.688-1.427 2.3-1.257.057-.08 1.295-1.948.039-.04.028.007.003-.011-.022-.005.51-.775 4.448-1.733 5.23-.304.588-.318.327-.175 1.382-1.623 1.295-.011 3.135 1.134 2.204-.437 1.75.699 1.36-.161 2.565-.304 2.754 1.938 1.605.205 5.658 3.31.294.048.152.028.324.053.67-.2.999-.288.132-.04.126.175.643.907.882.126 1.044-1.393-.415-.632-.157-.23-2.021-.411-1.815-3.103 1.728-1.861-2.711-3.326-.45-.551-.153-.234-.937-1.423-4.746-7.235-6.182-4.935-.002.004-2.165-1.732-.014-.01-.758-.596-3.302-3.358-2.358-3.13-.31-.674-.486-1.062-1.413-3.078-2.462-1.896-2.006-2.191-.098-.13-4.14-5.625-.68-.943-.978-.565-2.066-.014-.195-.196-.116-.121.07-.074.99-.985 1.106-.278.476-1.09-2.108-6.103-.014-.213-.157-1.95 1.718-8.855.22-1.08 2.928-5.957 1.814-1.486 1.98-3.892 1.696-2.488 1.625-1.582.284-.168 2.934-1.776 2.465-.347 2.348-.331 4.099 1.264 3.9-.076.762-.081 1.77-.203 2.91-.917 1.375-.848.713-1.093 1.487-4.987.478-1.587.917-1.724 5.306-6.108 4.01-3.71 9.02-6.613 4.415-2.64 2.254-1.346 20.126-8.946 5.23-5.302 2.725-2.757 4.82-3.235 5.642-2.311 4.854-3.842 1.06-1.334 1.336-4.303 1.113-.27 1.005-2.173.286-.618 3.96-2.792.449-.223 15.388-7.71 2.236.307 1.197-1.793 4.477-.751.824-.14 1.104-.551.939-1.6v-.315l.129-4.273.956-1.155.52-2.816.492-.65.513-.676 1.268-.891-.22-.531z" fill="#d57800"/></svg>