<svg xmlns="http://www.w3.org/2000/svg" xmlns:xlink="http://www.w3.org/1999/xlink" width="450" height="300" viewBox="0 0 1050 700"><defs><linearGradient id="f" x1="91.962" x2="92.129" y1="207.731" y2="185.55" gradientTransform="matrix(1.0629 0 0 .8398 -3.221 474.303)" gradientUnits="userSpaceOnUse" xlink:href="#a"/><linearGradient id="g" x1="49.019" x2="62.98" y1="178.056" y2="164.967" gradientTransform="matrix(.9378 0 0 .9518 3.91 470.176)" gradientUnits="userSpaceOnUse" xlink:href="#b"/><linearGradient id="h" x1="104.852" x2="103.966" y1="159.461" y2="166.263" gradientTransform="matrix(.7891 0 0 1.1312 12.387 448.251)" gradientUnits="userSpaceOnUse" xlink:href="#c"/><linearGradient id="i" x1="52.271" x2="64.6" y1="179.008" y2="167.447" gradientTransform="matrix(.9239 0 0 .9662 4.705 469.63)" gradientUnits="userSpaceOnUse" xlink:href="#d"/><linearGradient id="j" x1="44.325" x2="55.467" y1="221.729" y2="211.282" gradientTransform="matrix(1.1431 0 0 .7809 -7.79 461.207)" gradientUnits="userSpaceOnUse" xlink:href="#e"/></defs><linearGradient id="a" x1="91.962" x2="92.129" y1="207.731" y2="185.55" gradientTransform="matrix(1.0629 0 0 .8398 -3.221 474.303)" gradientUnits="userSpaceOnUse"><stop offset="0" stop-color="#4A0000"/><stop offset="1" stop-color="#FFCF00"/></linearGradient><linearGradient id="b" x1="49.019" x2="62.98" y1="178.056" y2="164.967" gradientTransform="matrix(.9378 0 0 .9518 3.91 470.176)" gradientUnits="userSpaceOnUse"><stop offset="0" stop-color="#4A0000"/><stop offset="1" stop-color="#FFCF00"/></linearGradient><linearGradient id="c" x1="104.852" x2="103.966" y1="159.461" y2="166.263" gradientTransform="matrix(.7891 0 0 1.1312 12.387 448.251)" gradientUnits="userSpaceOnUse"><stop offset="0"/><stop offset="1" stop-color="#2b5df2"/></linearGradient><linearGradient id="d" x1="52.271" x2="64.6" y1="179.008" y2="167.447" gradientTransform="matrix(.9239 0 0 .9662 4.705 469.63)" gradientUnits="userSpaceOnUse"><stop offset="0" stop-color="#4A0000"/><stop offset="1" stop-color="#FFCF00"/></linearGradient><linearGradient id="e" x1="44.325" x2="55.467" y1="221.729" y2="211.282" gradientTransform="matrix(1.1431 0 0 .7809 -7.79 461.207)" gradientUnits="userSpaceOnUse"><stop offset="0" stop-color="#4A0000"/><stop offset="1" stop-color="#FFCF00"/></linearGradient><path fill="#fff" d="M0 233.333h286.183v233.334H0z"/><path d="M263.45 368.976c-2.468 1.682-5.096 2.06-7.028 1.03-1.502-.814-1.662-.324-.428 1.302.643.814 2.091 1.682 3.379 2.008 1.234.325 3.38 1.084 4.775 1.626 3.218 1.357 6.115 1.357 8.314 0 4.453-2.712 1.663-7.594-4.292-7.594-1.716 0-3.003.434-4.72 1.628zm12.928 5.913c-.268.596-.536 2.223-.536 3.687-.108 9.71-3.916 18.878-11.105 26.797-1.555 1.682-2.842 3.2-2.842 3.418 0 .542 8.046.38 9.119-.218.966-.487 1.072-.326 1.394 1.573.43 2.605 1.878 5.1 3.648 6.292 1.127.76 1.556.815 2.79.164 2.145-1.031 3.54-3.255 3.809-6.075.268-2.116.483-2.496 1.18-2.116.483.217 2.897.487 5.364.596l4.506.217-2.36-2.82c-4.453-5.316-5.9-7.323-7.671-10.85-2.467-4.827-3.487-8.623-3.916-14.373-.162-2.712-.536-5.424-.751-6.13-.537-1.464-1.878-1.573-2.63-.162zM94.015 350.847c-.698.868-1.502 2.496-1.663 3.527-.215 1.084-.858 2.983-1.395 4.23-1.395 3.146-1.34 5.805.16 8.083 1.878 2.875 5.044 2.82 6.546-.05 1.395-2.658 1.019-6.402-.858-9.222-1.663-2.44-1.878-4.665-.806-7.215.698-1.464-.536-1.084-1.984.651zm6.652 17.196c-1.02.433-2.146 1.194-2.521 1.736-3.004 3.96 3.808 8.299 8.744 5.64 5.31-2.928 5.471-2.982 7.992-2.115 2.146.706 2.253.706 1.825-.162-.86-1.628-2.2-2.387-7.404-4.177-5.954-2.007-6.169-2.007-8.636-.922zm-20.492 1.302c-2.468 1.682-5.097 2.06-7.028 1.03-1.502-.813-1.663-.324-.428 1.303.643.813 2.091 1.68 3.379 2.006 1.233.326 3.38 1.085 4.774 1.628 3.219 1.356 6.116 1.356 8.315 0 4.452-2.712 1.663-7.594-4.292-7.594-1.716 0-3.004.433-4.72 1.627zm12.928 5.913c-.268.596-.536 2.223-.536 3.688-.108 9.71-3.916 18.877-11.105 26.796-1.555 1.682-2.843 3.201-2.843 3.418 0 .542 8.047.38 9.12-.217.966-.489 1.072-.326 1.394 1.572.43 2.605 1.878 5.1 3.648 6.293 1.127.76 1.555.814 2.79.163 2.145-1.03 3.54-3.255 3.808-6.076.269-2.115.483-2.495 1.18-2.115.484.217 2.897.488 5.365.596l4.506.217-2.36-2.82c-4.453-5.316-5.901-7.323-7.671-10.848-2.468-4.828-3.488-8.625-3.916-14.375-.162-2.712-.537-5.425-.752-6.13-.536-1.465-1.877-1.573-2.628-.163zm91.601-24.63c-.697.869-1.502 2.496-1.663 3.527-.214 1.085-.858 2.983-1.395 4.231-1.394 3.146-1.341 5.804.161 8.082 1.878 2.876 5.042 2.821 6.545-.05 1.394-2.658 1.02-6.401-.859-9.221-1.663-2.441-1.877-4.666-.804-7.216.697-1.464-.537-1.084-1.985.651zm6.652 17.197c-1.02.433-2.146 1.193-2.522 1.735-3.004 3.96 3.81 8.299 8.744 5.641 5.311-2.929 5.473-2.983 7.994-2.115 2.145.705 2.253.705 1.823-.163-.858-1.627-2.2-2.386-7.403-4.176-5.954-2.008-6.169-2.008-8.636-.923zm-20.493 1.3c-2.467 1.683-5.095 2.062-7.027 1.032-1.502-.814-1.663-.325-.43 1.302.645.813 2.093 1.681 3.38 2.007 1.235.326 3.38 1.084 4.775 1.627 3.218 1.356 6.115 1.356 8.315 0 4.452-2.712 1.663-7.594-4.291-7.594-1.717 0-3.005.433-4.722 1.627zm12.93 5.914c-.269.596-.538 2.223-.538 3.689-.106 9.71-3.916 18.876-11.104 26.796-1.556 1.682-2.843 3.2-2.843 3.417 0 .542 8.046.38 9.12-.217.965-.488 1.073-.325 1.394 1.573.43 2.604 1.878 5.1 3.648 6.293 1.126.759 1.556.813 2.79.162 2.146-1.03 3.54-3.254 3.808-6.075.269-2.116.483-2.496 1.18-2.116.483.217 2.897.489 5.365.597l4.506.217-2.36-2.82c-4.452-5.317-5.901-7.323-7.672-10.849-2.467-4.828-3.486-8.625-3.916-14.375-.16-2.712-.536-5.424-.75-6.13-.537-1.464-1.878-1.573-2.629-.162zM5.176 350.479c-.698.867-1.502 2.495-1.664 3.525-.214 1.085-.857 2.984-1.395 4.23-1.394 3.147-1.34 5.805.162 8.084 1.877 2.874 5.043 2.82 6.545-.05 1.395-2.658 1.019-6.401-.858-9.222-1.663-2.441-1.879-4.665-.806-7.215.698-1.464-.536-1.084-1.984.651zm6.652 17.195c-1.02.434-2.147 1.193-2.522 1.736-3.003 3.96 3.81 8.299 8.745 5.641 5.31-2.929 5.471-2.983 7.992-2.115 2.146.705 2.253.705 1.825-.163-.86-1.628-2.2-2.388-7.404-4.178-5.954-2.006-6.169-2.006-8.636-.922zm263.274-145.008c-.268.596-.537 2.223-.537 3.688-.106 9.71-3.916 18.877-11.104 26.797-1.555 1.68-2.843 3.2-2.843 3.417 0 .542 8.046.38 9.12-.218.965-.487 1.073-.325 1.395 1.574.43 2.604 1.877 5.098 3.648 6.292 1.126.76 1.555.814 2.789.163 2.146-1.03 3.54-3.254 3.808-6.075.27-2.116.483-2.496 1.18-2.116.483.217 2.898.488 5.365.597l4.507.217-2.36-2.82c-4.454-5.317-5.902-7.323-7.672-10.85-2.468-4.827-3.487-8.624-3.917-14.374-.16-2.712-.536-5.424-.75-6.13-.537-1.464-1.878-1.573-2.628-.162zm-183.276.369c-.268.596-.536 2.223-.536 3.689-.107 9.71-3.916 18.876-11.104 26.796-1.556 1.682-2.843 3.2-2.843 3.417 0 .542 8.046.38 9.12-.217.965-.488 1.073-.325 1.395 1.572.428 2.605 1.877 5.1 3.647 6.294 1.127.758 1.556.813 2.79.162 2.145-1.03 3.54-3.254 3.808-6.075.268-2.116.483-2.496 1.18-2.116.483.217 2.897.489 5.365.597l4.506.216-2.36-2.82c-4.453-5.316-5.901-7.323-7.672-10.848-2.467-4.828-3.486-8.625-3.916-14.375-.16-2.712-.536-5.425-.751-6.13-.536-1.464-1.877-1.573-2.629-.162zm90.69-.219c-.268.597-.536 2.223-.536 3.689-.108 9.71-3.916 18.876-11.105 26.796-1.555 1.682-2.842 3.2-2.842 3.417 0 .542 8.046.38 9.119-.217.966-.488 1.072-.325 1.394 1.573.43 2.604 1.878 5.1 3.648 6.293 1.127.759 1.555.813 2.79.162 2.145-1.03 3.54-3.254 3.808-6.075.269-2.116.483-2.496 1.18-2.116.483.217 2.897.489 5.365.597l4.506.217-2.36-2.82c-4.453-5.317-5.901-7.323-7.671-10.849-2.468-4.827-3.488-8.625-3.916-14.375-.162-2.712-.537-5.424-.751-6.13-.537-1.464-1.878-1.573-2.63-.162zm-178.547-.15c-.268.596-.536 2.223-.536 3.688-.054 4.855-1.432 10.382-3.296 14.877L0 257.924c.43 2.604 1.878 5.099 3.648 6.292 1.127.76 1.555.814 2.79.163 2.145-1.03 3.54-3.254 3.808-6.075.268-2.115.484-2.495 1.18-2.115.484.217 2.897.487 5.365.596l4.506.217-2.36-2.82c-4.453-5.316-5.902-7.323-7.671-10.85-2.468-4.827-3.487-8.624-3.916-14.374-.162-2.712-.536-5.424-.752-6.13-.536-1.464-1.877-1.573-2.628-.162zM231.596 429.15c-.698.868-1.502 2.495-1.663 3.525-.215 1.086-.858 2.984-1.394 4.231-1.395 3.147-1.342 5.805.16 8.083 1.877 2.875 5.043 2.82 6.545-.05 1.395-2.658 1.02-6.401-.858-9.222-1.663-2.441-1.878-4.664-.805-7.214.697-1.465-.536-1.085-1.985.65zm6.652 17.195c-1.02.434-2.145 1.193-2.521 1.736-3.004 3.96 3.808 8.3 8.744 5.641 5.31-2.928 5.471-2.983 7.992-2.115 2.147.705 2.253.705 1.825-.164-.86-1.626-2.2-2.386-7.404-4.176-5.954-2.007-6.169-2.007-8.636-.923zm-20.492 1.302c-2.468 1.681-5.097 2.061-7.028 1.031-1.501-.814-1.663-.325-.428 1.301.643.815 2.091 1.682 3.379 2.008 1.233.326 3.38 1.084 4.775 1.627 3.218 1.356 6.115 1.356 8.314 0 4.452-2.713 1.663-7.595-4.292-7.595-1.716 0-3.004.434-4.72 1.628zm13.904 5.537c-.268.59-.536 2.203-.536 3.654-.108 9.62-3.915 18.703-11.101 26.55-1.555 1.665-2.842 3.17-2.842 3.386 0 .537 8.044.376 9.117-.216.965-.483 1.071-.323 1.393 1.558.43 2.58 1.878 5.052 3.647 6.234 1.127.753 1.555.807 2.79.162 2.144-1.021 3.539-3.224 3.807-6.019.268-2.096.482-2.472 1.18-2.096.483.215 2.895.483 5.363.591l4.505.215-2.36-2.795c-4.451-5.266-5.9-7.254-7.669-10.748-2.467-4.783-3.487-8.545-3.915-14.241-.161-2.687-.537-5.375-.751-6.073-.536-1.451-1.877-1.56-2.628-.162zM48.32 429.519c-.697.868-1.501 2.495-1.662 3.526-.215 1.085-.858 2.983-1.395 4.231-1.395 3.146-1.34 5.803.16 8.082 1.878 2.875 5.044 2.821 6.546-.05 1.395-2.658 1.019-6.401-.858-9.221-1.663-2.441-1.879-4.666-.805-7.215.697-1.465-.537-1.085-1.985.65zm6.653 17.195c-1.02.434-2.146 1.194-2.522 1.736-3.003 3.96 3.81 8.299 8.745 5.641 5.31-2.929 5.471-2.983 7.992-2.115 2.146.705 2.253.705 1.825-.163-.86-1.627-2.2-2.386-7.404-4.177-5.955-2.007-6.169-2.007-8.636-.923zm-20.492 1.302c-2.468 1.682-5.097 2.061-7.028 1.031-1.502-.814-1.663-.326-.43 1.301.644.815 2.093 1.682 3.38 2.008 1.234.326 3.38 1.084 4.774 1.626 3.22 1.357 6.117 1.357 8.316 0 4.452-2.712 1.663-7.593-4.292-7.593-1.717 0-3.004.433-4.72 1.627zm13.953 5.534c-.268.591-.536 2.203-.536 3.654-.108 9.62-3.915 18.702-11.102 26.549-1.556 1.667-2.843 3.171-2.843 3.386 0 .537 8.046.376 9.117-.215.966-.484 1.073-.323 1.395 1.558.43 2.58 1.877 5.052 3.647 6.235 1.126.752 1.555.806 2.788.16 2.146-1.02 3.54-3.224 3.809-6.019.268-2.096.482-2.472 1.18-2.096.482.215 2.895.483 5.363.591l4.504.215-2.36-2.793c-4.45-5.268-5.899-7.256-7.668-10.75-2.468-4.783-3.487-8.544-3.915-14.24-.161-2.688-.537-5.375-.751-6.074-.537-1.45-1.877-1.559-2.628-.161zm90.576-24.25c-.697.868-1.503 2.495-1.663 3.526-.215 1.085-.859 2.984-1.395 4.231-1.395 3.146-1.341 5.804.161 8.082 1.878 2.875 5.042 2.821 6.545-.05 1.394-2.658 1.018-6.4-.859-9.221-1.663-2.441-1.877-4.665-.804-7.215.697-1.465-.537-1.085-1.985.65zm6.651 17.195c-1.02.434-2.145 1.194-2.52 1.737-3.005 3.96 3.808 8.298 8.743 5.64 5.311-2.928 5.473-2.983 7.994-2.115 2.145.705 2.253.705 1.823-.162-.858-1.628-2.2-2.387-7.403-4.178-5.954-2.007-6.168-2.007-8.637-.922zm-20.492 1.302c-2.467 1.682-5.095 2.061-7.026 1.031-1.503-.814-1.664-.326-.43 1.301.644.815 2.093 1.682 3.38 2.008 1.234.326 3.379 1.085 4.774 1.627 3.219 1.356 6.115 1.356 8.315 0 4.452-2.712 1.662-7.593-4.291-7.593-1.717 0-3.005.432-4.722 1.626zm13.93 5.536c-.269.591-.537 2.203-.537 3.654-.108 9.62-3.915 18.703-11.101 26.55-1.555 1.666-2.842 3.17-2.842 3.385 0 .537 8.044.376 9.117-.215.965-.484 1.072-.322 1.394 1.558.429 2.58 1.877 5.053 3.647 6.235 1.126.752 1.555.806 2.789.161 2.144-1.021 3.539-3.224 3.807-6.02.268-2.095.483-2.472 1.18-2.095.483.215 2.896.483 5.363.59l4.505.216-2.36-2.794c-4.451-5.267-5.899-7.255-7.669-10.75-2.466-4.782-3.486-8.544-3.915-14.24-.16-2.688-.536-5.375-.751-6.074-.536-1.45-1.877-1.558-2.627-.16zm92.206-178.381c-.698.868-1.502 2.495-1.663 3.525-.215 1.086-.858 2.983-1.395 4.231-1.394 3.147-1.34 5.804.161 8.083 1.877 2.875 5.043 2.82 6.545-.05 1.395-2.66 1.02-6.401-.858-9.222-1.663-2.441-1.878-4.665-.805-7.215.697-1.464-.536-1.085-1.985.651zm6.652 17.195c-1.02.434-2.146 1.193-2.522 1.735-3.003 3.96 3.81 8.3 8.745 5.642 5.31-2.93 5.471-2.983 7.992-2.115 2.147.704 2.253.704 1.825-.164-.86-1.626-2.2-2.386-7.404-4.176-5.954-2.007-6.169-2.007-8.636-.923zm-20.492 1.302c-2.468 1.68-5.097 2.06-7.028 1.03-1.501-.814-1.663-.326-.43 1.302.644.813 2.093 1.682 3.38 2.007 1.234.325 3.38 1.085 4.775 1.627 3.22 1.357 6.116 1.357 8.315 0 4.452-2.712 1.663-7.594-4.292-7.594-1.717 0-3.004.434-4.72 1.628zm12.928 5.912c-.268.596-.536 2.224-.536 3.689-.108 9.71-3.916 18.877-11.105 26.797-1.556 1.68-2.843 3.2-2.843 3.416 0 .543 8.047.38 9.12-.217.965-.487 1.072-.326 1.394 1.574.43 2.603 1.877 5.098 3.648 6.292 1.126.76 1.556.813 2.79.163 2.146-1.031 3.54-3.255 3.809-6.075.268-2.116.482-2.496 1.18-2.116.483.217 2.896.488 5.364.597l4.506.217-2.36-2.821c-4.453-5.316-5.901-7.323-7.671-10.849-2.468-4.828-3.488-8.624-3.916-14.375-.162-2.712-.537-5.424-.751-6.129-.537-1.464-1.878-1.573-2.629-.163zM48.03 275.32c-.698.867-1.503 2.495-1.663 3.525-.215 1.085-.858 2.984-1.395 4.231-1.394 3.147-1.342 5.804.161 8.083 1.877 2.874 5.042 2.82 6.545-.05 1.394-2.658 1.019-6.401-.86-9.222-1.662-2.441-1.877-4.665-.803-7.215.697-1.464-.538-1.084-1.985.651zm6.652 17.195c-1.02.434-2.146 1.193-2.522 1.736-3.004 3.959 3.81 8.299 8.744 5.641 5.31-2.929 5.472-2.983 7.993-2.115 2.146.705 2.253.705 1.824-.164-.858-1.626-2.2-2.386-7.403-4.176-5.955-2.007-6.169-2.007-8.636-.922zm-20.493 1.302c-2.467 1.68-5.096 2.06-7.027 1.03-1.503-.814-1.663-.325-.43 1.302.644.814 2.093 1.682 3.38 2.008 1.234.325 3.38 1.084 4.775 1.626 3.218 1.357 6.115 1.357 8.315 0 4.452-2.712 1.663-7.594-4.292-7.594-1.717 0-3.004.434-4.721 1.628zm12.929 5.912c-.268.596-.537 2.224-.537 3.689-.107 9.71-3.916 18.877-11.105 26.796-1.555 1.682-2.842 3.2-2.842 3.418 0 .542 8.046.38 9.119-.218.966-.487 1.073-.326 1.395 1.573.43 2.605 1.877 5.1 3.648 6.292 1.126.76 1.555.815 2.79.164 2.145-1.031 3.54-3.254 3.808-6.075.269-2.116.483-2.496 1.18-2.116.483.217 2.897.487 5.364.596l4.507.217-2.36-2.82c-4.454-5.316-5.901-7.323-7.672-10.849-2.467-4.828-3.487-8.624-3.916-14.374-.16-2.712-.536-5.424-.75-6.13-.538-1.464-1.879-1.573-2.63-.163zm91.601-24.628c-.697.868-1.503 2.495-1.663 3.525-.215 1.086-.859 2.984-1.395 4.231-1.395 3.147-1.341 5.805.16 8.083 1.879 2.875 5.043 2.82 6.545-.05 1.395-2.658 1.02-6.401-.858-9.222-1.663-2.441-1.877-4.664-.805-7.214.698-1.465-.536-1.085-1.984.65zm6.651 17.195c-1.019.434-2.145 1.193-2.52 1.736-3.005 3.96 3.808 8.3 8.743 5.641 5.311-2.928 5.472-2.983 7.994-2.115 2.145.705 2.253.705 1.823-.164-.858-1.626-2.199-2.386-7.402-4.176-5.955-2.007-6.17-2.007-8.638-.923zm-20.492 1.302c-2.468 1.681-5.095 2.061-7.027 1.031-1.502-.814-1.663-.326-.429 1.301.644.815 2.092 1.682 3.379 2.008 1.235.325 3.38 1.084 4.775 1.627 3.218 1.356 6.115 1.356 8.314 0 4.453-2.713 1.663-7.595-4.291-7.595-1.716 0-3.004.434-4.72 1.628zm12.928 5.912c-.268.597-.536 2.224-.536 3.689-.107 9.71-3.916 18.877-11.104 26.797-1.556 1.68-2.843 3.2-2.843 3.417 0 .542 8.046.38 9.12-.218.965-.487 1.072-.326 1.393 1.574.43 2.604 1.879 5.098 3.648 6.292 1.127.76 1.557.814 2.79.163 2.146-1.03 3.54-3.254 3.809-6.075.268-2.116.483-2.496 1.18-2.116.483.217 2.897.488 5.365.597l4.505.217-2.36-2.82c-4.452-5.317-5.9-7.323-7.67-10.85-2.468-4.827-3.487-8.624-3.917-14.374-.161-2.712-.536-5.424-.751-6.13-.536-1.464-1.877-1.573-2.629-.163zM4.108 375.245c-.268.596-.536 2.223-.536 3.688-.054 4.854-1.432 10.381-3.296 14.876L.14 410.502c.428 2.605 1.877 5.1 3.646 6.294 1.127.758 1.557.813 2.79.162 2.146-1.031 3.54-3.254 3.809-6.075.268-2.116.483-2.496 1.18-2.116.483.217 2.897.488 5.365.597l4.506.217-2.36-2.82c-4.453-5.317-5.901-7.324-7.672-10.849-2.467-4.829-3.486-8.625-3.916-14.375-.16-2.712-.536-5.424-.751-6.13-.536-1.464-1.877-1.573-2.629-.162z"/><g transform="matrix(.9955 0 0 .99382 .872 -1.284)"><rect width="287.478" height="234.784" x="-.876" y="1.292" fill="#c00" ry="0"/><path fill="#08672f" d="M286.601 31.814V1.292h-35.158L-.877 205.554v30.522h35.159z"/><path fill="#08672f" d="M-.876 31.814V1.292h35.158l252.32 204.262v30.522H250.74z"/><path fill="#fff" d="M-.876 95.456l287.441-.25.036 46.705-287.441.251z"/><path fill="#fff" d="M119.248-1.026l46.627-.03.25 239.45-46.627.03z"/></g><path fill="#c00" d="M0 700h286.183V466.667H0z"/><g id="k"><g fill="none" stroke="#650000"><path fill="#2b5df2" d="M150.871 666.402c-.837 1.353 1.459 7.356 5.01 7.204-2.316-3.712-2.072-8.03-2.072-8.03zm-8.815-6.5c-1.28.189-4.369 8.081.556 10.896.157-4.899 2.476-7.807 2.476-7.807l-2.546-2.192z" transform="matrix(.99936 0 0 1.00396 -2.753 -4.878)"/><path fill="#2b5df2" d="M141.449 655.194c-1.244-1.307-6.621 2.491-6.4 8.157 3.305-3.778 7.217-3.483 7.217-3.483zm6.218-4.58c-.088-1.777-4.765-3.831-7.22-.278 3.531.402 5.543 3.718 5.543 3.718zm94.322 16.528c-.086 1.628.331 2.195 1.13 3.109.8.914 1.706 3.63 1.706 3.63s2.562-7.154 1.92-8.114c-.641-.96-4.598 1.329-4.756 1.375zm-13.552-2.961c-1.275-.245-3.687 5.669-1.68 9.726 1.009-4.701 3.767-6.747 3.767-6.747zm-6.218-1.779c-.993-1.133-5.286 2.157-5.11 7.068 2.638-3.273 5.761-3.017 5.761-3.017zm3.258-7.593c-.684-1.51-5.507-.266-6.461 4.471 3.25-1.952 6.154-.343 6.154-.343zM65.17 651.491c.464-1.662-3.145-6.263-6.457-4.483 3.076 2.433 3.885 6.616 3.885 6.616zm-13.829 10.384c-1.204-1.5-6.257 2.768-5.955 9.219 3.081-4.267 6.806-3.893 6.806-3.893zm.44-9.127c-.518-2.124-6.433-1.834-8.455 3.993 4.197-1.627 7.311 1.228 7.311 1.228zm6.025 17.233c-.324 1.569 0 2.242.648 3.363s1.134 4.036 1.134 4.036 3.563-6.278 3.077-7.399c-.485-1.121-4.697 0-4.859 0zm-14.679-72.195c0-2.242-5.671-4.586-8.933.039 4.352.317 6.642 4.401 6.642 4.401zm-5.886 8.93c-1.204-1.5-6.256 2.768-5.955 9.219 3.082-4.267 6.807-3.893 6.807-3.893zm20.584-9.7c.548-2.11-4.216-6.971-8.416-4.146 4.018 2.336 5.176 7.251 5.176 7.251zm6.726 7.704c.945-1.209-.832-7.541-4.371-7.961 1.988 4.06 1.383 8.309 1.383 8.309z" transform="matrix(.99936 0 0 1.00396 -2.753 -4.878)"/><path fill="#ffcf00" d="M83.455 612.149c-3.56-4.143-.042-11.699 3.15-8.476-1.672-3.092 1.062-5.54 2.302-3.991-.577-2.517 2.045-4.185 3.331-1.862-.462-2.807 3.426-4.45 4.434-1.382.068-2.759 3.868-4.937 4.707-.897.74-3.11 4.976-3.517 5.327.901 1.236-2.57 4.412-2.382 4.597 1.352 1.373-1.756 4.921.872 4.317 3.979 2.191-.475 4.869 3.962 2.198 7.233 4.738-2.528 5.858 5.667 2.978 9.388 1.49.909 1.621.106 2.935.788s3.697 1.805 5.877 2.289c1.971 0 9.198-.227 10.676-.455 1.478-.227 3.499-.999 5.913-1.819 2.529-.819 6.185-.85 9.522-1.66 2.644-.297 76.871 1.205 79.006.978 2.136-.227 5.252-2.28 5.088-4.781-.165-2.501-2.624-4.314-5.088-4.541-2.463-.227-15.11-.227-17.41.227-2.299.455-5.584 1.592-7.226 3.184-.79.508-2.094 2.433-3.2 3.698-1.035.873-3.957 1.002-3.957-.135 0-.744-.245.142-.963.431-.932.583-5.136.743-4.95 0 .329-.842-.022-1.107-1.127-.228-.822.682-6.631.934-7.698.258.64-1.069.645-1.008-1.101-.129-1.105.486-5.682.866-6.011-.068-.044-.736-.562-.375-1.208-.166-5.187 1.357-5.685-.214-4.864-.896.822-.682 2.065-4.584.751-4.357-1.314.227-9.526 1.819-12.318 2.274-2.792.454-22.995 0-25.787-.228-2.792-.227-5.912-2.855-6.077-6.593-.292-5.997 4.599-7.504 7.555-8.413 2.957-.91 10.348-2.274 13.304-2.274 2.957 0 11.389 1.046 13.689.137 2.299-.91 9.282-3.45 11.256-3.638 2.911-.271 11.25.715 15.224 5.494-2.069.94-3.042 1.493-.694.645 2.136-.455 11.301-2.365 13.436-2.865 7.391-.319 5.453.819 1.839 1.728-1.206 3.844-12.067 9.21-15.516 9.893-3.449.682-10.769.182-12.405-.116-1.643-.124-9.414-.512-12.244-2.345-4.571-3.101-13.017-5.139-16.72-5.068-3.464.07-13.346 1.108-13.304 4.548-.051 6.041 9.198 6.366 13.14 6.139 3.942-.228 13.797-.682 16.589-1.819 2.792-1.137 8.831-1.416 12.116-1.416s8.086.734 9.564.506c1.478-.227 4.928-.279 6.57-1.416 1.642-1.137 5.214-2.325 8.827-2.325 3.613 0 30.428-1.033 34.041-.806 5.231-.036 8.926 5.681 8.989 10.543.03 2.274-1.083 5.634-2.029 6.154 1.623.15 5.684.608 7.024.887 2.516.499 6.594 3.272 7.062 5.798-1.911-1.16-4.995-2.913-7.775-3.105-.544.006-59.076-.098-63.676-.07 12.507 1.479 22.066 11.112 24.454 16.627 2.135 3.41 7.391 2.046 9.362 1.591 1.971-.454 4.271-2.501 5.913-4.092 1.643-1.592 4.211-1.996 5.37-1.592 2.553-.227 3.007 2.501 2.021 3.866-.985 1.364.164.803 2.792.803 2.627 0 4.944.979 6.494 3.044-1.478 1.364-2.223.245-.088.473 2.135.227 4.713 4.143 3.121 5.248-1.392.69-1.807.436 0 .663 2.693.228 3.427 1.972 3.777 5.072-2.28.418-1.149-.297 0 .84 1.15 1.137 2.825 6.171-1.314 6.366-1.478-.682-1.451-.814-1.136.733.292 1.592-.506 5.406-2.806 5.406-3.186.614-6.077-1.137-6.405-3.183-.329-2.046-.286 3.949-4.802 4.895-4.265.949-6.531-1.484-6.86-2.621-.328-1.137-.164-.228-1.806-.455-1.643-.227-3.712-.248-4.599-2.956 0-1.591.32-3.689 3.246-3.972 1.314-.228 1.681-1.939.696-2.167-.986-.227-.165-3.638 1.971-2.728 2.135.909 7.062 1.137 8.212 2.273 1.15 1.137 1.478-.909-.329-2.728-1.806-1.819-12.811-5.457-15.767-4.093-6.884 3.469-18.396 2.956-20.367 2.501-1.971-.454-7.663.786-10.347-7.503-2.177-8.464-10.451-12.647-14.228-13.102-18.636-1.754-17.623-.405-5.538.168-.09 1.58-.528 4.815 1.431 5.289 3.285-.454 10.123-1.904 11.765-.54 1.643 1.364 3.285 2.501 2.957 5.684-.329 3.183.164 2.274-1.314 3.638-1.479 1.364-.822 4.093 1.478 5.002 2.299.91 3.285 2.047 4.763 3.411 1.478 1.364-.657 4.092-1.971 3.183-1.314-.91-1.314-.91-1.478.909-.165 1.819-1.797 5.262-4.573 5.514-.583-.22-.421-1.161-.355-1.876.165-1.591-.555 1.977-1.413 2.967-.547.668-5.197 1.976-6.51 1.294.586-1.424.247-.843-.903-.161-1.122.448-7.175 1.289-4.478-1.599.701-1.052-.962 1.315-1.878 1.727-.771.48-4.363.775-4.363-.59-1.14 1.003-3.854 1.003-4.27.228-.821-.91-.899.682-2.377.909-1.478.228-4.686-.227-4.85-2.046-.164-1.819.328-.682-1.478-.455-4.399 2.918-6.57-1.137-6.57-2.501 0-1.364-.164-2.956.328-3.865.493-.91-3.06-1.184-1.971-2.975 1.225-2.189 2.511-3.795 4.928-3.392 1.15.228.985-.454.493-1.364-.493-.909 1.314-1.364 3.449-.455 2.135.91 3.613 3.184 4.27 5.23.657 2.046 5.749.455 7.884.682 2.135.227 2.299-3.411.985-4.547-1.314-1.137-4.927-5.23-6.405-6.594-1.478-1.364-.493-6.139.821-7.276 7.649-5.171 3.449-6.821.657-6.366-2.792.454-9.967 3.326-12.267 5.827-2.299 2.501-20.164 14.759-21.807 16.124-1.642 1.364-4.031 1.695-5.016.104-.986-1.592-1.643-.455-1.479 1.818 1.305 8.588-6.406 11.325-7.758 11.217-.941-.098-2.289-.621-3.26-1.43-.959 4.799-5.197 5.277-9.027 4.803-.058-.567.715-1.625.293-1.22-1.266 1.649-5.156 1.476-8.496 1.225-.222-1.003 1.152-2.219.495-1.537-1.121 2.11-3.049 1.732-6.173 1.508-.036-.445 1.448-1.932.756-1.042-1.368 1.495-4.215 1.027-6.426 1.064-.262-.335 1.143-2.685-.142-1.132-1.228 1.326-3.829 1.547-6.315 1.191-.442-1.117.517-1.129.781-1.83.657-1.137-.328 0-1.149 0-.822 0-1.971.227-2.464-.91-.493-1.136-.21 1.137-.687 1.757-.477.536-1.015 1.798-2.658 2.252-1.642.455-5.913.91-6.57-1.136-.885-.942-1.314-2.956-.657-4.093s-3.127 2.193-4.763 2.501c-4.81.929-5.42-6.594-3.285-7.276 2.136-.682 1.807-1.819.657-2.728-1.149-.91-1.806-4.548-.328-5.685 1.478-1.136 4.899-1.767 7.062-.454 1.266.869 3.976 3.851 3.45 1.591-.366-1.396.57-3.173 1.619-3.936.91-.839 3.711-1.052 4.458.753 1.731 4.184 2.956 5.986 5.091 5.912 4.549-1.244 10.696-2.652 12.503-2.652 2.318-.551 14.591-1.755 14.591-2.892-7.361 2.548-10.336-.75-11.158-.522-.821.227-2.843-.739-2.843-1.373 0-1.364 1.854-1.201-.774-.747-1.574-.129-2.975-.202-4.299-1.844-.217-.839 1.74-3.723 2.45-6.147-1.696-.459-5.446 2.595-6.675 5.287-.861-1.033-1.21-.094-4.287.658-1.452.633-3.814.406-5.128-.276-1.313-.683-6.461-4.584-3.971-5.086-.656-.321-1.409-.505-1.905-.642-1.807-.771-3.515-2.271-2.99-2.682-.457-.683.524-.681-.2-.818-.985-.227-3.412-1.997-2.789-2.681-.622-.411-2.099-1.045-2.725-1.364-1.15-.682-2.301-3.049-2.466-4.186-1.059.102-3.32-1.903-2.299-2.501-1.726-1.282-3.195-3.392-2.045-4.074-1.008-.794-1.711-2.244-1.01-1.701-1.047-1.282-.723-2.638.099-2.638.821 0 .492-3.637-.986-3.637s-3.855 1.147-5.584 0c-1.422-1.088-2.628-5.912-1.314-7.958 1.314-2.047 3.942-4.321 5.256-4.093 1.314.227.657.682.328-1.364-.328-2.047 1.855-3.584 3.285-4.093 1.734-.793 5.092-.227 6.077.682.986.91 1.314.91 1.314-.682 0-1.118 1.269-1.701 2.398-1.994 1.88-.444 3.351.09 4.008.857 1.02 1.463 1.642 3.183.328 4.548-1.314 1.364-.174.207 1.962-.247 1.375-.455 3.856.131 4.279 1.611.57 1.591.986 4.32-.492 5.684-1.478 1.364-3.614 4.775-2.464 5.912 1.15 1.137 4.763 6.139 5.584 6.821.822.682 1.807 2.273 3.121 2.046 1.314-.227 2.792-.455 3.942-.682 4.563-.918 6.62-1.395.763-1.208 1.315-1.858 4.069-2.406 5.264-2.733-1.053-1.583 2.842-4.926 2.842-5.381z" transform="matrix(.99936 0 0 1.00396 -2.753 -4.878)"/><path stroke-width="1.081" d="M83.464 630.601c-3.148-.496-11.112 6.404-8.543 14.985" transform="matrix(.99936 0 0 1.00396 -2.753 -4.878)"/><path stroke="url(#f)" stroke-width="1.067" d="M83.943 622.907c-4.251 26.888 21.825 16.473 22.004 7.416" transform="matrix(.99936 0 0 1.00396 -2.753 -4.878)"/><path stroke-width=".992" d="M104.45 634.206c.348 3.532.553 13.4-3.097 15.923-3.65 2.523-8.22 2.821-11.787 1.611" transform="matrix(.99936 0 0 1.00396 -2.753 -4.878)"/><path d="M96.373 639.675c-.359 3.473-3.841 12.12-10.626 10.933m-44.241-48.125c3.548.351 5.322 3.157 6.082 5.613a96.941 96.941 0 001.267 3.858m-4.326 10.505c1.52.701 4.308 0 4.308 0" transform="matrix(.99936 0 0 1.00396 -2.753 -4.878)"/><path stroke-width=".909" d="M46.009 626.242c3.357 1.052 6.713-.702 6.713-.702" transform="matrix(.99936 0 0 1.00396 -2.753 -4.878)"/><path stroke="url(#g)" stroke-opacity=".261" stroke-width="1.017" d="M53.507 634.531c9.169 0 13.064-12.936 13.064-12.936" transform="matrix(.99936 0 0 1.00396 -2.753 -4.878)"/><path stroke-opacity=".089" stroke-width="1.232" d="M72.167 628.441c-2.534 6.665-2.28 6.665-5.574 8.068l-3.295 1.404" transform="matrix(.99936 0 0 1.00396 -2.753 -4.878)"/><path d="M61.778 641.42c3.548-1.052 5.828-3.157 5.828-3.157m-9.628-37.34c-2.027 2.456-1.774 7.016-1.774 7.016m43.584-6.859c.507 4.56-1.52 7.016-2.788 7.016-1.267 0-2.681 1.702-1.903 4.438m9.983-12.156c-2.281 3.157-2.787 6.665-2.027 9.472.76 2.806.039 3.622.039 3.622" transform="matrix(.99936 0 0 1.00396 -2.753 -4.878)"/><path stroke-width="1.244" d="M77.996 626.337c-4.055 1.088-5.706 8.508-3.546 12.498" transform="matrix(.99936 0 0 1.00396 -2.753 -4.878)"/><path d="M115.245 615.813h-2.787s-1.774 3.859-4.815 2.806c-3.041-1.052-.253 0-.253 0m-7.095-6.024c4.338.113 3.466 3.569.253 3.218.254 4.209-4.795 3.679-4.363.454-3.036.092-4.282-4.167.128-3.577m106.672 3.127c.893-2.721 5.003-5.195 5.003-5.195m-10.976 5.053c1.787-3.215 5.003-5.194 5.003-5.194m-13.725 5.494c2.715-1.636 3.477-2.282 4.369-3.125.962-.942 2.859-2.721 2.859-2.721" transform="matrix(.99936 0 0 1.00396 -2.753 -4.878)"/><path stroke-width=".951" d="M180.715 615.874c1.989-1.039 3.528-1.649 4.859-2.635 1.672-1.173 2.827-2.759 2.827-2.759" transform="matrix(.99936 0 0 1.00396 -2.753 -4.878)"/><path d="M182.346 607.285c-6.318-2.15-9.143-6.42-9.143-6.42m19.659-2.683c-4.183 1.745-12.687.99-13.044.99m-62.644 54.19c1.251-4.443 3.596-5.443 6.53-6.896 3.038-1.237 7.662-4.978 4.803-2.257-2.859 2.721-6.984 4.453-8.413 5.442-1.43.99-2.323 3.195-1.594 4.205" transform="matrix(.99936 0 0 1.00396 -2.753 -4.878)"/><path stroke-linecap="round" d="M111.174 636.541c2.68 4.452 1.024 10.649-2.371 12.381" transform="matrix(.99936 0 0 1.00396 -2.753 -4.878)"/><path d="M120.108 621.204c4.351 1.807 4.506 6.06 5.133 8.573-1.534-.709-2.648-.369-3.799-.892" transform="matrix(.99936 0 0 1.00396 -2.753 -4.878)"/><path stroke-width=".913" d="M118.393 623.652c2.955 4.043 4.081 6.516 4.252 7.925.278 2.446.293 8.478-6.693 8.38.651-1.797 1.473-6.542.355-8.447" transform="matrix(.99936 0 0 1.00396 -2.753 -4.878)"/><path d="M116.753 635.844c0 3.958-2.734 5.582-3.985 6.077m-6.597-23.685c.178 4.7-8.399 8.163-8.22.989" transform="matrix(.99936 0 0 1.00396 -2.753 -4.878)"/><path stroke-width="1.007" d="M97.926 619.473c-.181 3.463-4.901 4.205-6.534 1.236-1.271-1.979-1.997-2.968-2.905-3.215-.907-.248-.805-3.128-.989-3.551-.11-.577-.698-2.064-.992-2.623" transform="matrix(.99936 0 0 1.00396 -2.753 -4.878)"/><path fill="url(#h)" stroke-width="1.052" d="M91.11 620.473c2.192 3.827 7.418 1.531 8.767 3.061 1.349 1.531-1.31 6.863-2.153 9.924-1.948 2.636-6.286 2.465-7.882.507.859-3.656.931-11.451 1.099-11.706z" transform="matrix(.99936 0 0 1.00396 -2.753 -4.878)"/><path d="M51.799 598.131c.358 2.226-.178 2.721-.714 4.7s.178 5.442.178 5.442m-.406 51.947c1.787-.495 5.539 0 5.539 0m1.122 5.847c1.072-1.979 3.573-3.711 3.573-3.711m16.489 6.342c.894-1.236.894-5.194.894-5.194m5.625 5.165c1.422-1.623 1.5-5.106 1.5-5.106m3.682 5.017c1.429-2.721 1.196-5.865 1.196-5.865m6.922 6.163c.894-1.485.894-4.948.894-4.948m57.017-2.9c-3.216-.742-5.182 3.711-5.182 3.711m9.406-4.432c-.357 3.216-2.859 6.184-2.859 6.184m7.927-6.452c-.179 2.721-3.038 6.431-3.038 6.431m9.344-7.518c-.471 3.62-3.044 6.332-3.044 6.332m7.688-7.608c.178 3.216-1.43 8.163-2.502 9.152m8.041-7.779c.536 1.732 0 4.205 0 4.205m-34.943-10.952c2.144.495 3.395 2.968 3.395 2.968m-7.056 3.242c1.127-3.895 5.982-1.992 6.569-.947m85.13-16.996c-1.787-.247-4.467.742-4.467.742m12.777 2.67c-2.502.99-5.361 1.237-5.361 1.237m8.575 4.468c-2.144-.247-3.753-.247-3.753-.247m7.92 5.621c-2.144-.248-5.539 0-5.539 0m3.891 6.958c-.715-1.979-2.859-2.474-2.859-2.474m-18.204 7.079c.536-2.969 4.087-5.348 6.053-5.348h1.966m-10.968-1.215c2.144-.742 5.539-.99 5.539-.99M85.211 648.386c2.144-1.732 3.831-5.298 3.831-5.298m22.31-37.963c-2.144 2.227-2.322 2.474-2.322 2.474m4.467 1.732c-2.859.247-3.014.119-3.014.119" transform="matrix(.99936 0 0 1.00396 -2.753 -4.878)"/><path stroke-width="1.132" d="M103.318 607.662c2.114-.776 7.033-.123 6.962 1.679.003 2.214-1.923 2.349-7.005.255l.043-1.626z" transform="matrix(.99936 0 0 1.00396 -2.753 -4.878)"/><path stroke-width=".92" d="M96.654 607.892c.263-2.63-4.872-5.223-6.123-3.757-1.523 2.425 2.799 4.586 3.945 4.586 1.072 0 .437.138.437.138" transform="matrix(.99936 0 0 1.00396 -2.753 -4.878)"/><path stroke-opacity=".3" d="M111.897 627.602c1.62 3.14 2.097 8.469.266 11.055" transform="matrix(.99936 0 0 1.00396 -2.753 -4.878)"/><path d="M110.602 617.737c-1.944 5.381-.324 10.314-.324 10.314m-22.677-8.969c-1.619 1.345-2.915.897-2.915.897" transform="matrix(.99936 0 0 1.00396 -2.753 -4.878)"/><path stroke-opacity=".3" d="M106.066 634.778c1.62.897 3.888 6.278 3.564 8.072l-.324 1.794m-3.887-7.624c.971 2.691 2.267 6.727 1.943 8.072l-.324 1.345m-7.451-6.726c.648 2.69.324 7.175-.647 8.072l-.972.897m0-8.521c-.972 3.139-1.944 7.624-1.944 7.624" transform="matrix(.99936 0 0 1.00396 -2.753 -4.878)"/><path stroke-linecap="round" stroke-opacity=".102" stroke-width="2.161" d="M83.714 620.876c-1.944 2.691-4.535 5.381-4.535 5.381" transform="matrix(.99936 0 0 1.00396 -2.753 -4.878)"/><path stroke-opacity=".299" d="M82.418 631.639c-1.619 1.345-3.887 4.484-3.887 4.484m5.831 0c-2.592-1.794-5.507 1.345-5.507 1.345" transform="matrix(.99936 0 0 1.00396 -2.753 -4.878)"/><path stroke-opacity=".095" stroke-width="1.232" d="M68.243 640.923c-.648 1.794-5.507 3.139-5.507 3.139" transform="matrix(.99936 0 0 1.00396 -2.753 -4.878)"/><path stroke-linecap="round" stroke-width="1.94" d="M108.037 608.271l-.324 2.028" transform="matrix(.99936 0 0 1.00396 -2.753 -4.878)"/><path stroke-linecap="round" stroke-width="1.574" d="M94.711 604.607c-.381 1.526-1.056 3.094-1.056 3.094" transform="matrix(.99936 0 0 1.00396 -2.753 -4.878)"/></g><path fill="none" stroke="#650000" d="M79.487 620.437c-5.967 3.142-6.986 5.919-6.056 12.536" transform="matrix(.99936 0 0 1.00396 -2.753 -4.878)"/><path fill="none" stroke="#600" stroke-width="1.197" d="M120.028 611.393c-1.709.776-1.456 4.827-1.456 4.827" transform="matrix(.99936 0 0 1.00396 -2.753 -4.878)"/><path fill="none" stroke="#600" stroke-width="1.05" d="M83.695 605.753c1.824 1.288 1.094 5.152 1.094 5.152" transform="matrix(.99936 0 0 1.00396 -2.753 -4.878)"/><path fill="#390000" fill-opacity=".599" d="M71.694 667.956c-.133 3.857-3.762 2.836-5.307 2.847l1.34-2.518c.191-.002.627.245 1.151-.148z" transform="matrix(.99936 0 0 1.00396 -2.753 -4.878)"/><path fill="#390000" fill-opacity=".1" d="M103.556 634.837c.415 1.852.383 3.086.235 5.094-.474 3.214-.618 3.316-1.93 5.97-.465.741-.236-.051-1.458 2.433l-4.274-2.948c.23.939 0-.685.207-1.004.661-1.283.623-1.489.84-3.071.089-1.439 1.213-3.844 1.86-1.501zm-15.143 12.076c.977.282 3.384-.536 4.432-.759 1.676-.567.135-.858 1.503-2.14.38-.445.724-1.993 1.059-2.481l-1.816-.121c-.231 1.558-1.697.294-1.861.491-.661.643-.593.238-1.418.503-.752.145-1.571-.112-.333.351zm94.417-9.59c-.549 3.089-1.313 4.691-2.676 7.156-2.492 3.596-4.814 5.54-8.056 7.148a17.053 17.053 0 01-3.086.609l-.483-10.392c.46-.034.896-.101 1.348-.223 1.603-.738 2.627-1.688 3.831-3.482.956-1.792 1.384-4.418.846-.33z" transform="matrix(.99936 0 0 1.00396 -2.753 -4.878)"/><path fill="none" stroke="url(#i)" stroke-opacity=".261" stroke-width="1.405" d="M57.086 637.574c7.016-1.663 10.924-11.018 10.924-11.018" transform="matrix(.99936 0 0 1.00396 -2.753 -4.878)"/><path fill="none" stroke="url(#j)" stroke-opacity=".261" stroke-width="1.405" d="M48.897 629.225c7.112.419 12.355-7.585 12.355-7.585" transform="matrix(.99936 0 0 1.00396 -2.753 -4.878)"/><path fill="none" stroke="#700" stroke-opacity=".102" stroke-width="2.556" d="M218.617 649.933l.349-.966c-.768 2.128-.575 1.145 2.095-.967h5.237c2.173.03 3.266.479 5.237.967 1.204.666 2.312 1.67 3.491 2.416" transform="matrix(.99936 0 0 1.00396 -2.753 -4.878)"/><path fill="#390000" fill-opacity=".1" d="M82.041 642.595c-.224 1.066 2.528 2.533 4.139 2.604 1.687-1.048 1.746-1.451 2.909-3.203.299-.585-.059-.191.179-.81l-3.581-3.434c-.452.273-.734.527-.862.785-.555.874-.543 1.371-1.378 1.871-.786.351-.871.155-.273.469l-.605.987zm31.446-.168c1.003-1.101 1.411-2.066 1.996-3.706.735-2.805.906-5.123.738-8.126a31.619 31.619 0 00-.497-2.665l-3.919 1.791c.095.385.172.758.233 1.155.104 1.473-.005 2.514-.381 3.882-.433 1.163-1.295 2.068.076.765z" transform="matrix(.99936 0 0 1.00396 -2.753 -4.878)"/><path fill-opacity=".1" d="M116.172 624.214c1.286.152 2.005.661 3.133 1.614 1.7 1.84 2.727 3.709 3.721 6.44.233.893.421 1.772.58 2.702l-4.07 1.574a13.422 13.422 0 00-.236-1.185c-.469-1.356-.959-2.17-1.802-3.053-.816-.661-1.905-.756-.224-.723z" transform="matrix(.99936 0 0 1.00396 -2.753 -4.878)"/><path fill="#390000" fill-opacity=".1" d="M109.887 647.746c1.082-1.773 1.972-.741 2.297-2.94.182-3.632-.288-6.422-1.445-9.849a29.86 29.86 0 00-1.52-2.872l-4.996 3.991c.252.404.476.802.684 1.237.598 1.669.762 2.939.65 4.719-.257 1.568.034 2.066 1.223 2.562z" transform="matrix(.99936 0 0 1.00396 -2.753 -4.878)"/><path fill="none" stroke="#700" stroke-opacity=".102" stroke-width="2.556" d="M243.377 656.527c2.174.03 3.266.48 5.237.967 1.204.666 2.313 1.67 3.492 2.416m-18.962-17.293c2.135-.555 3.271-.408 5.272-.461 1.275.33 2.503 1.017 3.764 1.432" transform="matrix(.99936 0 0 1.00396 -2.753 -4.878)"/><path fill="none" stroke="#700" stroke-opacity=".102" stroke-width="1.926" d="M199.246 648.442c-1.411.043-2.126-.315-3.412-.679-.79-.544-1.522-1.386-2.297-2" transform="matrix(.99936 0 0 1.00396 -2.753 -4.878)"/><path fill="none" stroke="#700" stroke-opacity=".102" stroke-width="2.119" d="M212.891 622.211c-7.002-.215-12.234-.332-16.93-.463-4.531-.114-12.034-.351-16.95-.479" transform="matrix(.99936 0 0 1.00396 -2.753 -4.878)"/><path fill="none" stroke="#700" stroke-opacity=".102" stroke-width="1.926" d="M156.54 628.013c1.296-.773 2.056-.812 3.347-1.143.88.094 1.786.494 2.671.662" transform="matrix(.99936 0 0 1.00396 -2.753 -4.878)"/><path fill="#390000" fill-opacity=".1" d="M48.576 618.561c-.58 1.234-1.019 1.751-1.749 2.499-1.211.962-1.82.87-2.976.756-.339-.13-.329-2.84-.647-3.06l.623-1.846c.138.103.273.185.42.246.564.082.99-.079 1.583-.568.52-.553 1.002-1.612.289.069z" transform="matrix(.99936 0 0 1.00396 -2.753 -4.878)"/><path fill="none" stroke="#650000" stroke-width="1.052" d="M90.752 619.322c-.201 4.915-2.863 7.536-2.863 7.536" transform="matrix(.99936 0 0 1.00396 -2.753 -4.878)"/><path fill="none" stroke="#650000" stroke-width="1.161" d="M88.065 617.036c-1.371 5.356.385 9.66.385 9.66" transform="matrix(.99936 0 0 1.00396 -2.753 -4.878)"/><path fill="none" stroke="#650000" stroke-width="1.047" d="M101.631 623.308c-.325 4.862 2.033 7.888 2.033 7.888" transform="matrix(.99936 0 0 1.00396 -2.753 -4.878)"/><path fill="none" stroke="#650000" stroke-width="1.156" d="M104.537 621.516c.787 5.494-1.412 9.425-1.412 9.425" transform="matrix(.99936 0 0 1.00396 -2.753 -4.878)"/><path fill="#390000" fill-opacity=".1" d="M85.286 665.351c-.185 3.943-5.24 2.9-7.391 2.911l.604-1.036c.266-.001 2.136-1.288 2.866-1.69z" transform="matrix(.99936 0 0 1.00396 -2.753 -4.878)"/><path fill="#390000" fill-opacity=".1" d="M90.179 663.566c-.158 5.564-4.469 4.091-6.304 4.107l.516-1.461c.226-.003 1.821-1.819 2.444-2.385zm7.883.251c-.216 8.267-6.138 6.079-8.659 6.102l.708-2.171c.311-.004 2.502-2.702 3.357-3.544z" transform="matrix(.99936 0 0 1.00396 -2.753 -4.878)"/><path fill="#390000" fill-opacity=".1" d="M105.855 663.691c-.216 8.268-6.139 6.079-8.659 6.103l.708-2.172c.311-.003 2.502-2.701 3.357-3.543zm-28.211 0c-.185 8.268-5.24 6.079-7.391 6.103l.604-2.172c.266-.003 2.136-2.701 2.866-3.543z" transform="matrix(.99936 0 0 1.00396 -2.753 -4.878)"/><path fill="#390000" fill-opacity=".599" d="M81.433 641.123c-.697 2.097-1.845 3.72-1.663 5.022l-1.075-.488c.843.299-.958-3.391-1.393-2.696l1.008-.735.234-.404.502-.252z" transform="matrix(.99936 0 0 1.00396 -2.753 -4.878)"/><path fill="none" stroke="#650000" d="M120.779 618.418c.531.265 1.89.022 4.39 1.07-1.034 1.524-3.701 2.41-4.74 1.964" transform="matrix(.99936 0 0 1.00396 -2.753 -4.878)"/><path fill="none" stroke="#700" stroke-opacity=".102" stroke-width="2.066" d="M182.833 653.6c-1.589.406-2.453.238-3.963.213-.977-.331-1.935-.97-2.906-1.374" transform="matrix(.99936 0 0 1.00396 -2.753 -4.878)"/><path fill="none" stroke="#700" stroke-opacity=".102" stroke-width="3.17" d="M167.219 659.182c2.984.806 4.688.779 7.611 1.052 1.957-.2 3.943-.771 5.904-1.06" transform="matrix(.99936 0 0 1.00396 -2.753 -4.878)"/><path fill="none" stroke="#650000" stroke-linecap="round" d="M126.985 651.131c-3.075 1.049-4.516 1.122-5.521.194" transform="matrix(.99936 0 0 1.00396 -2.753 -4.878)"/><path fill="none" stroke="#650000" stroke-linecap="round" stroke-width=".965" d="M130.408 648.546c-2.697 1.049-4.234 1.409-5.573.553" transform="matrix(.99936 0 0 1.00396 -2.753 -4.878)"/><path fill="none" stroke="#650000" stroke-linecap="round" stroke-width=".787" d="M134.972 645.387c-1.794 1.049-2.815 1.409-3.706.553" transform="matrix(.99936 0 0 1.00396 -2.753 -4.878)"/><path fill="none" stroke="#650000" stroke-linecap="round" stroke-width=".871" d="M138.136 642.946c-2.196 1.049-3.446 1.409-4.536.553" transform="matrix(.99936 0 0 1.00396 -2.753 -4.878)"/><path fill="none" stroke="#650000" d="M51.537 598.131c.357 2.226-.179 2.721-.715 4.7s.179 5.442.179 5.442m7.328-7.35c-2.028 2.456-1.774 7.016-1.774 7.016" transform="matrix(.99936 0 0 1.00396 -2.753 -4.878)"/><path fill="none" stroke="#650000" stroke-width="1.011" d="M41.769 601.998c3.632.351 5.448 3.157 6.227 5.613a95.386 95.386 0 001.297 3.858" transform="matrix(.99936 0 0 1.00396 -2.753 -4.878)"/></g><use width="100%" height="100%" transform="translate(0 -98.986)" xlink:href="#k"/><path d="M277.29 350.478c-.697.868-1.502 2.496-1.662 3.526-.216 1.085-.86 2.984-1.395 4.23-1.395 3.147-1.342 5.805.16 8.084 1.878 2.874 5.043 2.82 6.545-.05 1.395-2.658 1.02-6.401-.858-9.222-1.663-2.441-1.878-4.665-.805-7.215.697-1.464-.536-1.084-1.984.651zm6.652 17.196c-1.02.434-2.145 1.193-2.521 1.736-3.004 3.96 3.808 8.299 8.744 5.641 5.31-2.929 5.471-2.983 7.993-2.115 2.146.705 2.253.705 1.824-.163-.858-1.628-2.2-2.388-7.403-4.178-5.955-2.006-6.169-2.006-8.637-.922z"/><path fill="#0092c8" d="M286.183 0h763.578v699.923H286.183z"/><path fill="#ffcf00" stroke="#000" stroke-width="1.148" d="M692.528 57.424c-2.17 2.176-2.895 4.35-2.46 7.251.579 4.206.579 4.206-5.21 3.046-10.998-1.886-31.548-.871-44.283 2.32-17.222 4.35-25.47 4.06-45.442-2.03-2.315-.726-2.17 0 1.447 6.67 4.342 7.977 6.368 9.572 16.498 13.197l6.512 2.32-11.722 3.046c-6.368 1.74-12.735 3.19-14.037 3.19-4.776 0-2.46 2.61 4.341 4.931 9.84 3.336 20.26 2.901 41.534-2.175 15.051-3.48 21.419-4.35 30.825-3.916 6.513.145 12.302 1.016 12.88 1.596.724.58-2.75 4.64-7.38 8.99-7.092 6.382-9.697 7.832-13.893 7.977-2.895 0-7.38.435-9.841.87-4.342.871-4.486 1.16-4.486 9.281v8.412l-33.575 31.615c-18.524 17.402-35.89 32.775-38.495 34.37-2.605 1.595-5.21 3.916-5.934 5.221-1.592 2.9.29 8.121 3.33 9.281 1.88.725.722 3.19-5.79 12.182-9.406 13.052-16.643 26.974-22.286 42.491l-4.053 10.876-2.315-7.976c-3.762-12.761-6.657-31.324-6.657-43.506 0-11.167 0-11.167 7.525-21.898 9.118-13.052 30.536-35.385 42.402-44.376 4.776-3.626 12.881-8.557 18.09-11.022 11.578-5.366 14.473-7.832 14.473-11.892 0-4.786-3.474-7.106-8.973-5.946-3.184.58-16.063-1.45-38.061-5.946-18.234-3.625-33.43-6.816-33.574-6.816 0-.145 1.447-6.381 3.472-13.922 2.317-8.846 4.776-15.082 7.092-17.547 4.342-4.642 4.486-10.007.145-14.068-7.237-6.816-18.09-.87-16.498 8.992l.723 4.931-9.551 1.014c-5.21.58-17.656 3.19-27.497 5.947-19.97 5.51-35.6 6.38-45.875 2.755-3.184-1.16-5.933-2.175-6.079-2.175-.288 0-.433 1.595-.433 3.626 0 6.235 3.907 11.745 10.275 14.937l6.077 3.044-4.051 1.016c-2.17.58-8.684.58-14.617.145-5.933-.435-10.709-.435-10.709 0 0 3.045 7.09 11.166 11.722 13.487 10.13 5.221 31.26 3.335 54.703-4.93 11.722-4.06 26.918-5.221 25.905-2.03-.579 1.74-20.984 17.111-56.005 42.2-17.657 12.617-20.406 16.098-17.657 22.189 1.448 3.335 1.014 4.64-3.328 11.892-9.407 15.951-18.234 43.361-18.234 57.283 0 6.96-.434 7.54-9.986 17.693-19.537 20.593-57.742 68.594-65.991 82.951l-2.605 4.496-2.75-3.48c-5.499-6.96-17.076-3.046-17.076 5.8 0 6.092 3.762 9.572 10.564 9.572 3.763 0 11.288 2.9 24.313 9.571l18.958 9.427-3.618 3.916c-6.946 7.54-8.394 13.486-4.776 18.562 1.737 2.32 3.907 2.756 12.011 2.756 8.684 0 11.578.725 21.564 5.656 9.84 4.93 13.603 7.976 28.075 23.058 44.717 46.842 55.716 56.558 82.488 73.09 15.486 9.572 43.706 23.494 57.599 28.57 45.151 16.242 94.934 19.288 141.968 8.701 21.708-4.93 37.627-10.586 58.466-21.028 11.577-5.945 17.222-7.976 17.51-6.816.435 1.015 1.737 5.221 3.04 9.281 2.46 7.977 9.696 20.159 12.735 21.318 1.013.291 24.167-2.9 51.664-7.105 27.496-4.206 50.362-7.686 50.94-7.832 2.75-.145 6.08-15.952 6.08-28.279 0-12.617-.29-13.487-6.368-25.378-7.815-15.082-19.682-27.554-31.115-32.775l-8.104-3.77 3.473-4.496c16.064-21.32 35.021-51.918 42.402-68.305L919.156 372l7.525-.146c4.053 0 7.815-.58 8.25-1.305.434-.58-.145-5.101-1.303-11.771-1.158-6.671-2.171-12.327-2.171-12.618 0-.145 2.605-.29 5.789-.29h5.788v-32.92l25.036-47.712c13.604-26.248 26.34-49.307 28.221-51.047 4.486-4.496 3.907-11.312-1.447-15.228-3.329-2.465-4.487-2.61-8.104-1.16-4.487 1.885-7.96 7.54-6.658 10.732.435 1.16-.723 4.35-2.315 7.25-2.605 4.497-3.762 5.076-6.946 4.497-2.17-.435-18.67-3.191-36.76-6.236l-32.705-5.51-16.064 29.003c-8.827 15.952-15.919 29.15-15.774 29.44.29.145 17.077 1.45 37.337 2.755s37.193 2.756 37.482 3.045c.29.145-4.63 9.282-10.854 20.159l-11.288 19.577H888.91c-28.943 0-33.285.291-34.877 2.32-1.447 2.03-2.17-.144-4.92-12.616-4.486-21.028-8.828-48.728-8.828-55.979 0-7.105 6.367-21.753 17.945-41.475 17.222-29.295 41.823-57.719 51.665-59.604 8.393-1.596 14.327-6.091 14.327-10.877 0-4.93-2.316-7.251-8.105-7.976-3.907-.435-54.992-20.593-57.308-22.623-1.447-1.16 5.788-26.104 8.393-29.15 7.67-8.7-7.09-21.173-15.34-12.907-3.184 3.19-3.762 10.007-1.013 12.907 1.911 2.287-.042 1.78-7.67.58-14.616-1.74-28.51-1.015-41.533 2.32-14.473 3.77-25.76 3.916-38.496.29-5.498-1.449-9.695-2.03-9.695-1.304 0 3.335 6.222 12.327 10.564 15.227 2.605 1.74 7.235 3.77 10.42 4.35l5.644 1.305-8.683 2.466c-4.631 1.305-11.433 3.191-15.051 4.06l-6.512 1.741 5.788 2.61c8.683 3.916 23.879 3.481 42.403-1.16 10.564-2.61 19.681-3.77 28.798-3.915 11.433-.145 16.932.87 14.762 2.465-19.393 15.372-86.107 65.985-93.633 71.06-11.577 7.832-13.314 10.152-13.314 16.968 0 3.77.724 4.931 4.197 6.236l4.197 1.45-5.065 7.976c-2.895 4.351-7.38 12.907-10.131 18.998l-5.065 11.022-2.605-5.076c-2.46-5.076-4.92-14.648-6.367-25.524-.723-5.075 0-7.396 6.077-17.838 8.54-14.937 22.287-33.5 30.102-40.751 3.328-3.045 6.512-6.38 7.092-7.25 1.157-2.03-3.184-7.252-6.079-7.252-2.17 0-53.98-35.965-53.98-37.415 0-4.061 7.815-24.944 10.13-27.12 1.592-1.45 2.895-4.495 2.895-6.815 0-8.702-11.143-13.197-17.51-6.816zm29.668 65.115c10.708 7.54 19.537 14.067 19.681 14.501 0 1.016-37.917 14.648-38.64 13.923-.289-.291 1.737-5.221 4.487-10.877 2.894-5.656 5.208-11.167 5.209-12.327.002-2.166-13.68-8.74-17.945-9.571-3.41-.664-4.052-2.466-2.17-8.701l1.737-5.8 4.051 2.61c2.17 1.304 12.735 8.7 23.59 16.242zm181.765 5.8c0 .87-58.177 18.998-58.9 18.418-.29-.29 8.104-30.019 10.42-36.835.434-1.16 8.538 1.595 24.456 7.976 13.17 5.365 24.024 10.007 24.024 10.441zm-225.037-16.097c-.434.87-1.591 1.595-2.46 1.595-.868 0-.868-.87.29-2.175 2.026-2.465 3.762-1.885 2.17.58zm155.283 20.013c-3.184 10.296-6.368 19.143-6.946 19.723-.87 1.015-20.84 7.541-53.546 17.548-10.721 3.26-13.088 3.873-8.683 1.014 2.025-1.594 19.247-14.937 38.35-29.728 19.103-14.648 36.003-27.69 36.437-27.69.58-.146-2.428 8.981-5.612 19.133zm-274.675-3.045c30.39 6.236 30.97 6.38 25.326 7.976-2.316.725-16.932 4.785-32.272 9.136l-28.075 7.831 1.013-3.915c3.184-13.343 6.946-26.25 7.67-26.25.58 0 12.301 2.321 26.338 5.222zm-44.138 6.671a759.09 759.09 0 01-3.618 12.181l-2.894 10.442-11.289 3.045c-6.078 1.595-15.629 4.351-21.129 5.947-5.499 1.45-9.551 2.464-9.261 2.03 1.157-1.016 48.046-35.385 48.48-35.385.145 0 .145.87-.29 1.74zm136.613 6.525c1.737-.435 3.04-.435 3.04-.145 0 2.321-26.773 36.255-29.378 37.27-1.737.726-10.276 3.771-18.814 6.962l-15.774 5.655 12.011-11.311c6.658-6.091 19.249-17.838 27.931-26.104 10.42-9.861 16.208-14.357 16.932-13.197.58 1.015 2.315 1.306 4.052.87zm13.025 11.892l-4.342 13.052-10.998 3.626c-6.078 2.03-11.144 3.625-11.288 3.335-.29-.145 5.065-7.686 11.722-16.677 9.696-12.907 12.88-16.243 15.629-16.243h3.618zm32.416-4.35l4.053 2.61-12.446 4.35c-6.802 2.466-12.157 3.626-11.867 2.756.29-.87 1.736-5.075 3.04-9.136l2.46-7.686 5.354 2.32c2.894 1.16 7.091 3.335 9.406 4.785zm19.103 88.172l3.763 7.687-3.618 11.892c-4.342 14.792-7.38 29.439-9.696 47.421-1.448 11.602-2.605 14.938-7.525 23.059-3.04 5.22-6.368 11.312-7.091 13.632-3.849 8.882-4.256 2.564-4.921-17.692-1.013-21.754.868-43.797 5.354-64.535 3.04-13.777 10.276-36.256 14.038-43.506l2.171-4.351 1.882 9.281c1.157 5.22 3.617 12.907 5.643 17.112zm-189 .146c.144 8.411 3.762 25.089 8.103 37.996 2.895 8.556 3.328 11.6 2.17 16.532-.722 3.19-2.026 13.051-2.893 21.608-2.75 27.7 1.736 54.093 13.603 78.602 3.618 7.106 6.802 14.646 7.38 16.532l1.013 3.48-4.051-3.045c-12.012-8.556-24.603-25.379-31.549-42.056-4.341-10.296-4.631-11.892-1.592-11.892 1.882 0 2.17-3.046 2.17-18.127v-18.128h-4.34c-3.763 0-4.486-.725-6.08-6.236-1.157-3.625-1.88-13.922-1.88-25.67 0-21.462 2.026-30.454 11.288-51.191 5.447-13.805 6.942-12.854 6.657 1.595zm309.84 26.684c1.881 13.342 7.525 42.056 10.709 54.238 1.881 7.396 1.881 8.701-.724 16.242-1.591 4.496-2.46 8.992-2.17 9.862.434 1.015-2.46 5.22-6.223 9.426-6.802 7.541-6.947 7.687-8.683 4.495-6.946-13.196-9.551-46.696-5.21-69.465 1.88-10.006 9.261-36.69 10.13-36.69.289 0 1.158 5.366 2.17 11.892zM425.669 291.78l2.026 8.846-12.012 44.087-12.156 43.941-4.631-.435c-6.078-.725-49.205-20.593-49.205-22.768 0-5.51 41.245-58.733 64.4-83.243l8.683-9.135.434 4.785c.29 2.756 1.448 8.992 2.46 13.922zm45.586-1.45c0 .725-1.882 7.395-4.052 14.936l-4.053 13.778-9.84.435c-5.5.291-10.565-.145-11.433-1.015-2.026-2.03.145-12.471 3.762-17.837 3.763-5.656 14.183-11.312 20.84-11.312 2.605 0 4.776.434 4.776 1.015zm31.26 20.447c2.749 3.626 4.92 7.107 4.92 7.687 0 .725-5.934 1.305-13.17 1.305h-13.17l.869-4.061c.579-2.175 2.026-7.396 3.184-11.6l2.17-7.543 5.065 3.916c2.895 2.175 7.38 6.816 10.131 10.296zm-67.73 7.977c2.606 6.09 3.185 10.441 3.185 22.478v14.792h9.407l.289 12.762c.144 6.961 1.591 17.838 3.183 24.074 2.895 12.326 2.316 18.272-2.315 18.272-1.303 0-8.972-3.915-17.076-8.7-7.96-4.787-16.499-9.282-18.959-10.152l-4.34-1.596 10.852-39.735c5.934-21.898 10.734-41.408 11.168-41.408.58 0 2.87 5.007 4.607 9.213zM709.46 368.06c3.329 16.823 9.407 32.63 18.813 49.163 4.487 7.83 7.96 14.501 7.67 14.792-1.447 1.305-16.208 3.626-17.51 2.9-2.026-1.305-10.13-18.853-15.63-33.935-6.223-16.968-11.867-40.46-10.853-44.812.434-2.03 3.618-9.28 6.946-16.097l5.933-12.327 1.158 14.213c.578 7.83 2.026 19.577 3.473 26.103zm108.394-4.786c5.644 2.901 7.236 4.351 6.946 6.817-.289 2.61.434 3.19 4.341 3.625 7.67.725 6.368 4.206-5.643 14.647-6.223 5.366-11.868 9.717-12.735 9.717-3.328 0-17.511-17.258-22.142-26.83l-4.776-10.151 3.907-1.015c8.394-2.03 22.576-.58 30.102 3.19zm-19.537 30.02l8.393 8.411-3.762 2.61c-5.065 3.481-38.35 19.868-39.074 19.288-.29-.29 3.329-13.341 7.815-29.004l8.394-28.57 4.92 9.428c2.75 5.22 8.683 13.196 13.314 17.837zm-49.204 9.427c-4.197 12.906-8.105 24.218-8.683 24.943-1.881 1.885-3.329-8.556-2.316-16.242 1.737-11.747 5.21-20.159 11.288-27.12 3.184-3.625 7.533-8.648 7.966-8.213.29.29-4.203 13.579-8.255 26.632zm-159.479-21.754c-.434 1.015-3.474 10.296-6.946 20.738-3.33 10.296-6.658 19.433-7.237 20.013-.578.725-3.618 0-6.802-1.595-4.775-2.465-5.933-3.916-7.525-10.297-1.736-7.105-1.736-7.685 1.882-13.921 4.63-7.832 11.432-13.198 19.103-15.083 7.814-1.885 8.248-1.885 7.525.145zm24.457 2.03c2.605.726 3.618 2.9 5.645 12.762 1.736 7.54 5.354 17.113 10.274 26.83l7.525 14.937-7.525-.871c-4.197-.435-14.182-2.32-22.142-3.915l-14.761-3.046 3.473-11.167c1.881-6.09 5.21-16.677 7.381-23.783 3.763-12.617 4.341-13.342 10.13-11.747zm31.983 12.182l15.05 7.251-6.657 7.541c-3.762 4.206-7.815 10.587-9.117 14.212-1.303 3.626-2.75 7.107-3.328 7.686-2.605 2.9-18.814-34.805-18.814-43.651 0-3.046 5.355-1.305 22.866 6.96zm30.39 16.097c15.92 9.717 37.193 25.814 34.298 26.104-.723 0-8.972.58-18.09 1.305-9.116.58-23.299.871-31.403.435l-14.761-.87.869-4.495c1.302-6.962 5.788-15.083 12.3-22.044 3.184-3.481 6.078-6.38 6.368-6.38.434 0 5.065 2.61 10.42 5.945z"/><path d="M692.34 57.116c-2.025 2.175-2.893 4.64-2.459 7.396l.579 3.915-7.38-1.015c-12.591-1.886-29.513-.552-41.669 2.783-14.182 3.77-24.747 3.915-37.482.29-5.354-1.45-9.794-2.914-9.794-2.189 0 2.466 4.15 10.02 7.768 13.356 1.882 1.886 6.657 4.496 10.42 5.946l7.09 2.755-8.682 2.465c-4.631 1.306-10.709 2.756-13.314 3.192-8.675.183-7.378 2.255 1.302 5.365 10.42 3.336 17.655 2.9 40.666-2.175 15.63-3.48 22.721-4.35 31.548-3.916 6.223.146 11.868 1.015 12.59 1.74.58.58-2.749 4.641-7.524 8.992-6.368 5.8-9.842 7.83-13.025 7.83-2.315 0-6.802.436-9.696.871l-4.945 1.385-.554 7.897v8.41l-32.996 31.035c-18.09 17.113-35.6 32.92-39.074 34.951-4.92 3.19-6.078 4.785-6.078 8.266 0 2.755 1.013 4.786 2.895 5.8 2.605 1.451 2.315 2.176-5.355 12.763-9.551 13.341-13.604 21.173-20.84 39.445l-5.354 13.778-3.04-10.152c-4.051-13.777-5.933-26.54-5.933-41.186 0-12.037 0-12.182 6.368-21.028 19.392-26.975 46.947-50.448 64.834-58.299 7.67-2.61 11.288-5.946 11.288-10.151 0-4.061-4.487-6.816-9.263-5.51-2.605.579-69.898-11.603-71.345-13.053-.29-.145 1.302-6.526 3.328-14.067 2.315-8.701 5.066-14.937 7.236-17.403 4.342-4.64 4.486-10.006.145-14.067-7.236-6.816-18.09-.58-16.353 9.281l.868 4.497-12.012 1.74c-6.512.87-18.813 3.625-27.062 6.09-18.532 4.257-34.739 6.218-43.994 2.32-7.091-3.045-6.657-3.19-6.657 1.741 0 5.511 4.92 11.456 12.157 14.793l4.228 2.6-2.492 1.024c-2.17.435-9.117.58-15.485.291-6.223-.435-11.433-.145-11.433.435 0 2.61 9.552 12.037 14.038 13.777 9.696 4.06 31.404 1.45 54.558-6.526 9.697-3.48 24.603-4.206 23.734-1.305-.434 1.015-15.629 12.762-33.864 25.959-18.234 13.341-34.876 25.814-37.048 27.844-4.486 4.06-5.209 8.556-2.025 11.456.282 1.98.742 2.69-.869 5.802-9.407 13.341-21.418 48.726-21.418 63.083 0 6.091-.724 7.252-12.735 20.448-24.168 26.54-53.256 63.085-61.65 77.442l-3.907 6.671-3.474-3.48c-4.196-4.206-9.84-4.496-13.747-.58-6.368 6.381-1.448 15.952 7.96 15.952 3.327 0 11.431 3.19 24.022 9.426l18.813 9.572-4.341 5.076c-10.42 11.747-5.79 22.623 8.538 20.157 12.88-2.175 32.706 9.862 53.111 32.34 32.417 35.531 50.362 51.483 76.411 67.58 7.236 4.496 13.748 8.557 14.473 9.282 3.038 2.465 35.31 17.547 45.296 21.173 45.152 16.242 95.08 19.287 141.968 8.7 21.708-4.93 37.627-10.586 58.466-21.027 11.578-5.946 17.222-7.976 17.51-6.816.435 1.015 1.737 5.22 3.04 9.281 2.46 7.976 9.696 20.158 12.735 21.319 1.013.29 24.168-2.9 51.664-7.107 27.497-4.206 50.362-7.686 50.94-7.83 2.75-.146 6.08-15.953 6.08-28.28 0-12.617-.29-13.487-6.368-25.234-7.815-14.937-19.248-27.118-30.825-32.774-7.526-3.626-8.105-4.206-6.513-6.671 1.013-1.45 6.079-8.412 11.143-15.373 11-15.372 27.641-43.07 33.43-56.123l4.342-9.572h7.96c7.525 0 7.96-.145 7.235-3.335-1.013-4.786-3.618-20.158-3.618-21.608 0-.58 2.75-1.16 6.079-1.16h5.933l-.869-15.373.243-16.826 24.36-47.418c14.037-26.829 26.918-50.322 28.798-52.498 5.934-6.236 3.763-13.777-4.63-16.387-4.631-1.45-11.428 3.798-11.428 9.309 0 2.465-.73 6.933-2.321 9.689-2.604 4.06-3.763 4.785-6.946 4.205-14.906-3.19-67.84-12.626-69.288-12.046-1.003.99-31.164 55.093-31.45 57.761-.094.866 2.909 1.272 5.514 1.272 2.46 0 17.655 1.016 33.574 2.176 15.919 1.16 31.007 2.698 33.178 2.698 3.762 0 3.436-.379-8.142 19.78l-11.722 20.302h-33.574c-33.574 0-33.581-.05-34.859 2.798-1.94-.09-1.065-.155-1.5-.589-1.301-1.16-9.083-39.769-11.254-56.591l-.785-15.467 7.153-18.033c17.366-35.965 49.783-77.151 62.228-79.472 8.394-1.45 14.473-5.946 14.473-10.731 0-4.93-2.316-7.542-6.802-7.542-3.328 0-56.44-20.883-58.756-23.058-1.447-1.45 5.355-25.233 8.394-29.584 3.04-4.496 2.75-8.701-1.157-12.327-4.342-4.061-9.842-4.061-13.749.145-3.328 3.48-4.341 10.297-1.736 11.892 3.328 2.03 1.013 3.19-3.908 2.03-10.268-2.835-32.57-2.127-44.573 1.595-14.616 3.626-28.364 3.626-39.653.145-4.92-1.45-8.827-2.465-8.827-2.175 0 .434.868 2.755 2.026 5.366 2.894 6.816 9.262 12.037 17.365 14.357l6.947 2.03-10.564 3.046c-5.934 1.74-12.59 3.625-15.05 4.06l-4.342 1.16 5.064 2.176c9.553 4.205 22.577 3.916 44.574-1.015 19.25-4.185 33.106-4.15 40.52-3.335 2.895.87-2.894 5.8-41.244 35.24-24.602 18.853-47.901 36.4-51.81 39.01-8.97 5.946-12.155 9.862-12.3 14.648-1.075 4.412 3.434 8.775 7.092 8.556 1.155-.07.723 1.45-1.159 4.06-3.762 5.366-16.525 29.69-16.525 31.865 0 .87-.579 1.595-1.302 1.595-2.316 0-6.63-13.447-8.366-24.759l-.438-11.126 6.226-12.657c7.96-13.632 22.721-33.21 30.97-41.04 7.845-5.337 7.498-9.666 1.4-12.333-5.5-2.32-54.222-35.96-55.09-37.845-.868-2.61 6.223-23.35 9.551-27.7 3.763-4.93 3.908-9.861.144-13.632-3.907-3.915-11.009-4.233-14.771-.172zm11.878 3.798c2.75 3.335.435 8.266-3.907 7.685-4.92-.578-7.38-4.495-4.92-7.54 2.46-2.9 6.512-3.046 8.828-.145zm159.19 4.35c2.026 2.466.724 7.397-2.315 8.557-3.184 1.16-7.815-1.596-7.815-4.641 0-5.511 6.657-8.122 10.13-3.916zM688.01 73.53c4.92.871 9.262 2.031 9.696 2.611.29.58-.724 5.076-2.316 10.007-2.46 7.25-3.472 8.846-5.499 7.976-1.302-.58-6.223-1.885-10.998-2.9-9.986-2.321-19.682-1.306-44.862 4.495-8.684 1.885-18.524 3.625-21.708 3.48l-5.789-.144 4.342-1.451c14.327-4.786 19.537-7.396 19.537-10.007 0-2.32-1.158-2.755-6.802-2.755-7.67 0-17.221-3.77-20.695-7.976-2.026-2.465-1.882-2.61.723-1.596 6.368 2.61 25.905 2.756 35.456.145 17.367-4.64 29.957-5.22 48.915-1.885zm-145.297 4.35c1.882 3.046-.289 7.397-3.763 8.122-2.315.435-6.946-3.335-6.946-5.51 0-2.176 4.631-5.946 6.946-5.51 1.159.289 2.895 1.594 3.763 2.899zm304.197 2.757c4.631 1.014 9.117 2.175 9.696 2.755 1.303 1.16-3.038 18.853-4.63 18.853-.435 0-4.053-1.015-7.96-2.176-10.71-3.335-23.734-2.61-45.297 2.176-10.564 2.32-22.142 4.35-25.47 4.205h-6.078l8.683-3.335c13.604-5.22 13.892-5.511 13.458-7.976-.289-1.595-2.75-2.61-8.393-3.19-7.96-.87-16.353-4.207-18.09-7.252-.724-1.015 1.013-1.16 5.934-.29 10.275 1.595 21.562.87 33.864-2.32 12.445-3.191 31.548-3.916 44.283-1.45zM534.9 94.269c0 .434-1.303 6.236-3.04 12.907l-3.039 12.036-12.445-.725c-11.143-.58-14.183-.145-26.339 3.771-26.339 8.41-42.981 9.717-51.664 3.77l-4.052-2.754 11.577-.871c6.368-.435 15.05-1.886 19.392-3.335l7.96-2.756-11.867-3.77c-10.565-3.48-17.945-7.687-16.063-9.282.288-.29 5.21.146 10.708.87 11 1.595 14.762 1.015 43.416-6.815 11.866-3.337 35.456-5.222 35.456-3.046zm155.861 7.105c-.434 1.16-1.592 4.642-2.605 7.977s-2.605 5.946-3.618 5.946c-1.882 0-1.447-1.596 3.04-14.212.288-.871 1.301-1.74 2.314-1.74.87 0 1.302.87.87 2.03zm27.496 18.419c12.59 8.7 23.01 16.532 23.3 17.111.434 1.16-37.338 15.083-38.35 14.068-.29-.29 1.881-5.511 4.92-11.747l5.5-11.167-3.33-2.61c-1.736-1.45-6.367-3.77-10.13-5.22-3.763-1.305-7.38-3.046-7.96-3.481-1.013-.87 1.592-13.052 2.751-13.052.289 0 10.709 7.251 23.299 16.098zm132.128-11.167c0 1.16-1.303 6.09-2.75 11.167-1.592 5.075-4.198 13.921-5.79 19.577-2.315 7.831-3.762 10.587-6.077 11.167-2.026.58-2.75.146-2.315-1.015.433-1.016 3.472-10.586 6.8-21.319 3.33-10.731 6.368-19.868 6.803-20.593 1.013-1.74 3.329-1.16 3.329 1.016zm53.545 19.868c0 .87-58.032 19.143-58.755 18.272-.434-.434 7.96-30.889 10.13-36.835.579-1.16 8.394 1.305 24.602 7.976 13.17 5.366 24.023 10.007 24.023 10.587zm-225.18-15.518c-1.096.784-2.492 1.064-2.316 1.45-.724-.434-.579-1.74.433-2.9 2.172-2.61 3.184-1.885 1.882 1.45zm155.57 19.143c-3.183 10.296-6.656 19.433-7.525 20.304-1.592 1.45-17.51 6.525-51.375 16.676-7.525 2.176-13.17 3.626-12.735 3.192 1.882-1.887 76.845-59.46 77.135-59.17.29 0-2.316 8.557-5.5 18.998zm-166.28-5.946c-1.157 10.731-2.895 11.747-2.895 1.74 0-6.38-.434-8.265-2.17-8.265-1.592 0-1.388 1.768-1.678 8.004l-1.072 8.673-1.738-4.898c-.434-3.916.002-10.33-.867-11.345-1.157-1.45-.144-1.885 4.92-1.885h6.368zm7.67-6.96c.29.724-.29 5.075-1.158 9.86l-1.736 8.702-.579-9.861c-.434-6.816-.145-9.717 1.158-9.717.868 0 1.88.435 2.315 1.015zm-20.695 9.136c0 4.785-.579 8.701-1.447 8.701-.868 0-1.447-3.916-1.447-8.701 0-4.786.58-8.701 1.447-8.701.868 0 1.447 3.915 1.447 8.701zm29.233-6.236c-.868 1.45-1.88 5.365-2.46 8.701-.578 3.48-1.591 6.236-2.46 6.236s-1.158-1.74-.579-4.496c.434-2.465.869-6.38.869-8.701 0-3.19.723-4.205 2.894-4.205 2.46 0 2.75.58 1.736 2.465zm16.788 3.335c3.328 1.45 6.077 3.481 6.077 4.35 0 .87-1.736 4.932-3.762 8.993-2.46 4.93-4.197 6.816-5.21 5.8-.868-.87-.434-3.335 1.593-7.251 1.736-3.335 3.038-6.96 3.038-8.266 0-4.35-3.038-2.03-6.078 4.64-4.052 8.557-3.908 8.267-4.775 7.396-.435-.434.289-3.48 1.447-6.96 2.604-7.541 2.75-10.152.289-10.152-1.013 0-3.184 3.77-4.631 8.266-3.039 9.282-4.63 7.541-2.315-2.465.723-3.481 1.013-6.96.578-7.686-1.157-1.885 5.79-.146 13.749 3.335zm-174.82 1.16c0 4.787-7.09 28.28-8.972 29.44-2.894 1.885-3.039.58-.58-7.977 1.304-4.495 3.33-11.746 4.632-16.096 2.17-7.687 4.92-10.733 4.92-5.366zm34.009 2.466c14.328 2.9 26.149 5.838 27.306 6.418 1.158.434-11.532 4.458-29.477 9.535-17.944 4.93-32.85 8.846-33.14 8.555-.29-.29.435-4.205 1.737-8.846 1.303-4.64 3.039-11.167 3.908-14.647.867-3.336 2.025-6.09 2.604-6.09.58 0 12.735 2.319 27.062 5.075zm359.624 4.206c0 3.045-3.329 5.22-12.59 7.976-4.632 1.45-27.931 9.571-51.81 18.128-23.878 8.556-57.018 20.448-73.661 26.393-22.72 8.121-31.693 10.732-36.18 10.442-4.34-.29-6.077-1.16-6.367-3.046-1.013-5.22 5.5-9.57 21.998-14.792 69.463-22.043 151.374-46.986 154.702-46.986 2.317-.146 3.908.58 3.908 1.885zm-406.947 12.036c-1.592 6.236-3.472 11.747-3.907 12.327-.868 1.016-13.458 4.786-36.903 11.167-3.184.87-5.065.87-4.342.29 2.027-1.886 47.034-34.95 47.613-34.95.289 0-.869 5.075-2.46 11.166zm97.251-6.816c0 2.32-4.775 4.061-48.625 17.258-93.488 27.989-109.118 32.34-111.288 31.615-1.737-.725-1.881-1.596-.435-4.496 1.738-4.06 2.46-4.35 35.167-13.052 10.42-2.756 39.942-10.877 65.847-18.128 58.466-16.242 56.874-15.807 58.321-15.082.579.29 1.013 1.16 1.013 1.885zm43.27 3.335c2.605-.579.29 3.192-10.564 17.983l-16.113 19.312-16.16 6.213c-10.13 3.624-18.522 6.525-18.812 6.38-.145-.29 12.156-11.891 27.352-26.104 19.681-18.273 28.074-25.378 29.233-24.363-.001 2.323 3.118 1.109 5.064.579zM665 154.308l-4.341 12.906-10.855 3.916c-5.933 2.175-11.143 3.77-11.287 3.48-.29-.29 4.775-7.83 11.287-16.822 9.841-13.632 12.302-16.242 15.63-16.387h3.907zm12.446-11.167c-5.5 17.983-6.947 21.463-8.972 21.463-1.159 0-1.882-.87-1.592-1.885.433-.87 2.17-6.091 3.907-11.602 2.026-5.8 4.052-9.716 5.354-9.716 1.013 0 1.736.87 1.303 1.74zm73.806-.435c-.869.725-18.38 7.977-39.074 16.098-20.695 8.121-56.874 22.333-80.318 31.469-23.445 9.281-45.007 17.403-47.757 17.983-5.934 1.45-10.13.434-10.13-2.175 0-2.466 5.643-4.786 50.65-21.029 20.261-7.25 55.427-20.012 78.148-28.278 37.048-13.632 52.533-17.983 48.481-14.068zm-53.835 7.252l4.052 2.61-12.012 4.35c-6.656 2.466-11.7 3.37-11.844 3.225-.29-.291.122-2.644 1.425-6.56 1.302-3.916 2.46-7.976 2.894-8.991.579-2.03 7.67.435 15.485 5.366zm189.725 7.686c-43.85 46.116-74.964 124.863-68.741 173.735.868 6.961 2.894 16.387 4.486 21.029 1.592 4.64 2.894 8.556 2.894 8.846 0 .145-3.184-1.016-6.946-2.755l-6.946-3.192-6.513-22.042c-3.473-12.038-6.513-21.754-6.801-21.464-.435.435 6.077 33.5 7.815 40.171.578 2.176-.146 2.61-4.343 2.61-5.643 0-4.341 2.901-13.458-29.583-2.17-7.832-4.197-13.632-4.341-12.908-.29.725 1.447 10.442 3.762 21.609 2.315 11.02 4.197 20.157 4.053 20.448-.146.145-2.027.579-4.053 1.16-3.762.87-3.762.725-9.986-21.028-3.472-11.893-6.367-21.608-6.656-21.319-.434.435 5.354 32.775 7.38 41.187.58 2.32-.145 3.625-2.315 4.93-4.052 2.176-4.342 1.74-9.986-18.562-2.605-8.992-5.065-16.097-5.355-15.808-.434.291 1.013 8.992 3.04 19.288l3.907 18.563-3.329 2.61c-3.762 3.19-3.907 3.045-8.393-13.052-1.881-6.671-3.618-11.747-3.907-11.456-.29.29.434 6.38 1.592 13.341 2.893 16.388 2.893 17.549-.435 19.434-2.605 1.305-3.04.725-5.354-7.252-3.04-11.166-4.197-10.297-1.882 1.45 1.303 7.107 1.303 9.572-.144 12.472-2.605 4.786-3.763 4.35-5.5-2.03-1.447-5.076-1.447-4.786-.868 2.61.723 8.847-1.158 13.923-3.907 10.152-1.158-1.595-1.303-1.015-.724 2.9.434 2.756 0 8.992-1.013 13.778l-1.881 8.555-5.21-10.73c-12.012-24.655-16.064-43.507-16.208-75.413 0-18.707.723-27.698 3.184-40.895 8.538-45.971 30.1-91.073 43.414-91.073 1.303 0 1.592 1.015 1.013 3.19-.723 2.755-.433 2.465 2.027-1.016 1.592-2.32 4.197-4.785 5.933-5.365 2.895-1.015 2.895-1.015.579 3.335-1.158 2.466-1.881 4.786-1.447 5.222.29.435 1.737-1.306 2.894-3.626 5.355-10.297 10.71-12.037 6.512-2.176-3.328 7.977-2.75 7.541 3.618-1.885 2.46-3.77 5.934-7.396 7.67-7.976 3.185-1.16 3.04-.725-1.736 8.847-2.75 5.655-4.92 10.15-4.486 10.15.29 0 3.907-5.22 7.96-11.456 4.196-6.236 8.827-11.746 10.274-12.182 2.316-.58 1.882 1.015-3.039 10.732-3.039 6.236-5.354 11.457-5.065 11.457.29 0 3.907-5.221 8.104-11.747 6.946-10.586 11.867-15.808 14.761-15.808.579 0-2.315 5.656-6.223 12.617-13.603 23.64-13.168 23.929 2.316 1.16 6.223-9.136 12.301-16.678 13.314-16.678 1.736 0 1.448 1.016-.723 4.642-9.263 15.662-17.511 30.165-16.932 30.165.289 0 6.512-8.702 13.748-19.434 8.104-11.747 14.472-19.723 16.352-20.302 1.738-.435 3.184-.58 3.474-.435.144.29-5.066 8.846-11.578 19.288-19.391 30.31-18.668 30.164 3.329-.58 12.88-17.983 19.248-24.944 20.984-23.203.29.29-4.775 8.555-10.999 18.562-13.458 21.028-15.05 23.784-13.314 22.768.58-.435 7.96-10.586 16.354-22.623 11.143-15.952 16.353-22.188 19.392-23.349 2.315-.725 4.486-1.16 4.92-.87.29.434-7.67 12.762-17.655 27.554-10.13 14.793-18.09 26.975-17.656 26.975.29 0 10.42-13.198 22.432-29.44l21.707-29.44 9.118-3.045c5.064-1.74 9.406-3.19 9.695-3.19.29-.146-3.328 3.915-7.959 8.846zm-153.546 4.35c-23.3 29.44-40.086 67-47.757 107.46-3.617 19.433-3.617 67.436.145 87.304 3.329 18.128 10.71 42.636 17.366 58.299 2.75 6.67 4.775 12.036 4.487 12.036-1.303 0-14.472-10.442-15.34-12.182-.58-.87-6.368-20.302-13.026-43.216-6.656-22.913-12.3-41.476-12.59-41.186-.145.29 4.052 18.562 9.552 40.606 5.499 22.043 9.696 40.026 9.406 40.026-.433 0-2.46-1.015-4.63-2.32-3.474-2.031-5.066-6.091-14.617-38.43-5.933-19.724-10.854-35.821-11.144-35.532-.29.146 3.184 15.228 7.526 33.21 4.341 18.128 7.96 33.21 7.96 33.645 0 .435-1.882-.145-4.198-1.45-4.63-2.32-4.63-2.175-16.932-44.521-3.038-10.297-5.643-18.273-5.933-17.983-.289.29 2.316 12.762 5.933 27.844 3.474 15.082 6.223 27.554 6.079 27.844-.29.145-2.605-.58-5.355-1.74-4.92-2.03-5.065-2.32-12.012-27.554-3.907-14.067-7.38-25.234-7.67-24.944-.289.146 1.737 11.022 4.487 23.784 5.065 24.219 4.92 25.233-1.737 21.463-2.605-1.45-4.775-5.8-8.972-18.417-6.223-18.563-7.091-18.418-2.895.724 1.592 7.106 2.605 13.197 2.316 13.488-.29.29-2.75 0-5.355-.58-4.486-1.16-5.354-2.32-8.972-12.182-2.17-6.092-3.618-8.557-3.184-5.656.579 2.755 1.302 7.251 1.736 9.717.724 4.35.435 4.785-2.605 4.785-4.92 0-6.223-1.305-9.84-8.702-2.895-6.236-3.04-5.8-1.013 3.19.868 3.771.579 4.062-4.052 4.062-3.473 0-5.21-.725-5.645-2.61-.579-1.886-.723-1.886-.867.58-.145 3.625-7.381 5.8-9.117 3.045-.725-1.16-1.159-1.015-1.159.434 0 1.16-2.17 3.626-4.776 5.366-2.605 1.885-6.367 5.945-8.248 9.137-2.026 3.19-4.197 5.8-4.776 5.8-1.736 0-9.407-18.127-12.735-30.31-4.341-15.952-5.354-45.971-2.026-65.404 4.631-28.134 16.642-56.558 32.128-76.716 7.525-9.716 9.406-11.167 18.524-14.938 5.499-2.32 10.853-3.77 11.866-3.48 1.013.435 1.88.146 1.88-.725 0-1.305 5.935-4.351 6.948-3.48.145.145-.29 2.175-1.158 4.495l-1.447 4.206 2.605-3.48c7.091-10.152 10.564-11.893 7.525-3.771-2.46 6.38-.578 5.946 2.75-.58 1.736-3.19 4.341-6.526 5.933-7.397 2.75-1.45 2.75-1.45-.144 5.222-4.053 9.57-2.46 9.426 2.894 0 2.46-4.35 5.788-8.701 7.38-9.572 3.763-2.03 3.763-1.74-1.447 10.297-2.315 5.51-3.907 10.006-3.617 10.006.289 0 3.762-5.51 7.814-12.182 4.052-6.67 8.394-12.472 9.551-13.052 2.895-1.014 2.895-1.16-3.473 12.907-3.183 6.816-5.5 12.327-5.354 12.327.289 0 3.907-5.656 8.248-12.616 4.197-6.962 8.828-13.778 10.276-15.228 6.078-6.091 5.209-1.596-2.316 12.616-4.486 8.412-7.814 15.228-7.525 15.228.29 0 5.644-7.831 11.722-17.402 9.696-15.082 13.748-19.868 13.748-16.533 0 .58-3.907 8.412-8.827 17.402-4.776 9.137-8.394 16.533-8.105 16.533.434 0 6.079-8.556 12.59-18.998 10.13-16.098 16.21-22.913 18.525-20.883.434.434-12.736 23.639-22.577 39.881-5.789 9.426 2.17-1.45 15.486-21.318 12.735-18.853 17.944-25.089 19.826-23.348.144.29-4.197 8.265-9.842 17.837-16.642 28.714-17.22 29.73-16.497 29.73.29 0 8.105-11.602 17.222-25.814 13.602-20.884 17.655-26.104 21.418-27.41 2.605-1.015 4.92-1.74 5.065-1.45.144.146-5.065 8.847-11.578 19.143-20.839 33.21-24.022 38.43-23.444 38.43.29 0 9.985-13.631 21.418-30.454 16.932-24.798 21.564-30.744 25.76-32.484 8.972-3.77 8.972-2.61.434 8.12zm-157.452-2.9c-23.88 19.723-45.442 46.842-58.033 72.946-9.985 20.737-14.037 37.125-14.037 57.718 0 12.907-.29 15.227-1.882 13.922-1.157-.87-2.026-4.64-2.17-8.41 0-3.627-.58-10.007-1.302-13.923-1.013-6.961-1.013-6.961-1.303 3.916 0 6.236-.435 11.311-.723 11.311-4.487 0-5.21-2.176-5.355-15.808-.145-11.746-.434-12.907-1.447-7.396-.58 3.626-1.158 9.282-1.158 12.618-.145 4.64-.579 5.945-2.17 5.365-1.304-.58-2.317-5.22-3.184-15.517l-1.303-14.792-.435 13.342c-.144 7.396-.579 13.487-1.013 13.487-3.907 0-5.064-2.465-5.209-10.732-.145-12.617-2.46-18.853-2.605-7.395-.29 10.876-1.303 15.226-3.908 15.226-1.446 0-2.026-1.885-2.17-6.236 0-3.335-.58-8.7-1.158-11.891-1.158-4.931-1.302-4.061-1.448 6.09-.144 9.282-.578 12.037-2.17 12.037-2.46 0-3.618-4.35-3.907-14.502-.29-7.831-.29-7.831-1.448 2.9-1.447 12.327-2.026 14.503-4.197 14.503-.723 0-1.447-3.336-1.447-7.687 0-5.365-.433-6.96-1.447-5.365-.724 1.16-1.447 5.511-1.447 9.716 0 4.06-.579 7.976-1.447 8.412-.868.58-1.447-1.016-1.447-3.916 0-3.625-.434-4.206-1.447-2.61-.724 1.16-1.448 3.915-1.448 6.09 0 5.802-1.592 9.137-3.04 6.671-.867-1.16-1.301.29-1.301 4.206 0 3.48-.579 6.236-1.158 6.236-3.183 0-7.815-21.319-8.538-38.43-.579-15.373-.29-19.144 3.038-31.615 3.763-14.937 14.183-38.286 19.972-44.812 1.736-2.03 4.92-4.206 6.802-4.786 3.04-.87 3.328-.725 2.46 1.596-.724 2.03 0 1.74 3.039-1.306 4.92-4.496 9.262-5.656 6.078-1.45-1.158 1.596-.434 1.305 1.592-.58 4.197-3.626 11.578-6.816 11.578-4.785 0 .725-.58 1.74-1.448 2.175-.724.435-2.17 2.32-3.039 4.06-1.013 1.886 1.447.29 5.644-3.77 10.854-10.152 12.88-9.427 4.776 1.886-2.75 3.915-1.737 3.335 5.065-3.046 7.67-7.396 13.603-11.312 13.603-9.137 0 .58-2.46 3.916-5.498 7.686-10.132 12.327-9.407 12.472 2.315.435 6.512-6.526 12.445-11.891 13.314-11.891 2.026 0 1.302 1.305-8.394 13.776l-7.67 10.151 12.735-13.341c10.854-11.311 19.248-17.547 19.248-14.212 0 .435-5.21 6.96-11.578 14.357-6.368 7.54-11.578 13.923-11.578 14.357 0 .435 5.355-4.93 11.868-11.747 18.234-19.433 18.957-20.302 22.72-21.318 2.75-.87 1.593 1.305-5.934 10.297-17.365 21.318-20.839 26.394-9.695 14.357 21.129-22.913 26.628-28.135 30.969-29.15 4.052-1.015 4.197-1.015 2.172 1.886-1.159 1.74-9.263 11.456-17.946 21.753-27.062 31.904-26.339 31.47 4.776-2.465 20.116-22.044 26.194-27.12 32.706-27.41.868-.145-1.737 2.611-5.788 5.946zm418.234 46.262c2.026 6.09-6.512 9.57-8.829 3.48-1.446-3.625.58-6.526 4.343-6.526 2.315 0 3.907 1.016 4.486 3.046zm-277.714 32.049l4.052 8.267-3.907 12.761c-4.92 16.098-7.815 30.31-9.697 47.277-1.302 10.442-2.46 14.647-5.787 19.868-2.172 3.625-5.645 9.572-7.381 13.342-1.882 3.916-3.763 6.961-4.342 6.961-1.737 0-3.184-27.698-2.316-45.681 1.448-28.28 7.237-54.819 17.222-78.893l4.63-11.02 1.738 9.426c.868 5.22 3.473 13.196 5.788 17.692zm226.194-16.967c20.984 3.48 38.35 6.67 38.784 6.96.58.725-19.102 38.576-20.839 40.316-.868.725-68.597-3.19-81.042-4.784-2.75-.435-2.026-2.321 9.407-22.914 12.735-22.624 14.761-26.104 15.195-26.104.145 0 17.51 2.9 38.495 6.526zm43.994-4.206c1.448 1.45-1.736 6.381-4.052 6.381-2.605 0-2.605-.725-.723-4.496 1.592-2.755 3.183-3.48 4.775-1.885zm-459.19 18.563c0 10.441 3.619 29.294 8.105 41.62 3.618 9.862 3.618 10.153 1.303 21.754-3.255 14.884-3.727 45.543-.145 59.604 2.75 14.212 5.644 22.479 13.459 38.43 3.618 7.397 6.223 14.213 5.933 15.083-.723 2.03-11.722-7.106-18.958-15.807-6.368-7.541-14.038-21.029-18.235-31.905-2.616-7.368-1.877-7.066-.144-7.54 2.652-.728 2.894-1.016 2.894-18.13v-18.127h-4.341c-3.618 0-4.486-.725-5.934-5.51-.868-2.9-2.026-12.908-2.316-22.043.631-12.814.068-18.88 2.316-29.295 3.04-12.907 12.591-35.965 14.762-35.965.723 0 1.302 3.48 1.302 7.83zm311.723 41.476c2.026 12.327 5.354 29.15 7.38 37.27l2.827 14.561-2.103 8.498c-1.592 4.495-2.46 8.7-2.026 9.426.434.726-2.46 4.786-6.512 8.992l-7.008 6.69-2.978-5.82c-7.701-20.614-8.245-57.474 2.75-93.394 1.591-5.366 3.183-9.426 3.473-9.137.289.145 2.17 10.587 4.197 22.914zm-413.748 14.502l2.026 10.877-12.012 43.506-12.012 43.506-4.92-.434c-5.933-.434-49.06-20.449-49.06-22.768 0-5.656 35.602-52.063 64.4-83.678 8.249-9.136 8.683-9.426 9.117-5.8.145 2.175 1.303 8.846 2.461 14.791zm531.838-16.242c0 .29-4.342 9.136-9.697 19.287-9.551 18.129-9.985 18.708-14.471 18.708-2.605 0-4.776-.435-4.776-.87 0-.58 4.92-9.57 10.999-20.013 9.986-17.257 11.432-19.143 14.471-18.563 1.881.29 3.474 1.016 3.474 1.45zM470.5 293.529c-.434 2.32-2.315 8.99-4.052 14.937l-3.329 10.586-11.143.435c-10.709.435-10.856.04-10.85-3.146.03-14.755 11.728-26.136 24.744-27.019 5.354 0 5.499.145 4.63 4.206zm11.289 4.35c-4.921 20.013-5.356 21.173-9.697 21.609-3.473.435-4.052 0-3.473-2.176 7.814-28.279 7.091-26.393 10.71-24.799 2.749 1.305 3.183 2.32 2.46 5.366zm21.417 13.632c2.316 3.19 4.197 6.381 4.197 7.106 0 .58-5.788 1.16-13.025 1.16-7.09 0-13.024-.435-13.024-.87 0-1.015 4.197-17.837 5.065-20.592 1.013-2.612 11.289 5.51 16.787 13.196zm-68.885 5.656c3.04 6.671 3.618 9.862 3.618 23.203v15.663h9.696V367.2c.144 6.236 1.592 17.257 3.328 24.653 3.33 14.212 2.605 19.288-2.604 19.288-1.448 0-8.828-3.625-16.353-8.122-7.381-4.495-15.92-9.28-18.814-10.586l-5.21-2.32 10.999-40.17c6.078-22.19 11.143-40.317 11.433-40.317.289 0 2.026 3.48 3.907 7.541zm502.894 4.35c0 2.611.434 8.267.868 12.328l1.014 7.685h-88.568l3.618-10.586c1.881-5.656 3.763-11.312 4.197-12.327.434-1.305 9.84-1.74 39.798-1.74h39.073zM517.533 337.18v13.052h-75.254v-26.104h75.254zm189.725 15.662c2.75 23.494 10.13 46.262 21.273 64.39 8.973 14.937 8.973 15.082.29 16.968-4.052.87-8.478 1.038-9.49 1.038-4.053 0-22.203-46.285-26.69-68.038-1.88-9.717-1.013-13.632 7.092-29.295l5.209-10.151.29 5.8a889.387 889.387 0 002.026 19.288zm221.129 3.336c.867 5.8 1.446 10.587 1.157 10.876-.29.435-21.852.435-47.757.291l-47.322-.435 9.117-10.441 8.973-10.442h37.047l37.047-.145zm-423.3 11.746c12.446 38.285 44.573 65.985 89.87 78.021 28.798 7.542 59.768 9.862 95.513 7.396 73.227-5.075 106.947-19.142 149.35-62.069l19.102-19.287h27.497c17.944 0 27.64.58 27.64 1.45 0 4.205-18.958 37.56-32.706 57.428-10.564 15.228-13.314 17.258-38.35 27.264-30.825 12.327-75.398 22.044-121.418 26.395-29.957 2.9-100.435 2.03-125.181-1.451-32.417-4.785-57.02-10.442-81.91-19.143-20.261-7.106-28.944-11.167-52.678-24.799-25.615-14.791-40.52-22.187-54.269-27.263-13.17-4.786-25.325-5.366-30.825-1.74-4.342 2.9-4.92 1.45-1.737-4.786 3.618-6.961 11.722-11.602 20.406-11.602 9.84 0 16.353 2.465 34.009 12.907 16.642 9.861 21.273 10.731 25.759 5.075 3.762-4.785 3.762-6.09.145-21.173-1.592-6.67-2.895-17.112-2.895-23.347v-11.167h48.77zm10.13-2.03c8.539 22.188 25.325 43.216 43.126 53.658 24.457 14.502 58.031 22.333 104.196 24.363 68.886 3.046 134.878-20.303 173.807-61.634 5.788-6.09 10.854-10.296 12.59-10.296 1.592 0 2.894.58 2.894 1.45 0 2.61-29.667 31.47-41.244 40.026-35.601 26.248-78.727 37.27-146.888 37.27-27.787 0-42.402-1.594-64.4-7.105-48.914-12.183-80.318-39.447-92.474-80.052l-2.171-7.541h3.473c2.895 0 3.908 1.594 7.091 9.86zm304.487-2.03c5.55 3.276 3.773 5.192 5.558 6.392-1.302 1.595-.022 2.925 3.162 3.36 2.17.29 4.304.254 5.172 1.559 1.737 2.9-2.315 7.831-14.617 17.258-8.827 6.96-9.84 6.67-19.97-4.786-5.355-6.236-15.196-23.059-15.196-26.249 0-1.595 6.658-2.175 17.367-1.885 8.393.29 12.59 1.305 18.524 4.35zm-481.911-1.741c2.75 2.756 2.026 6.671-1.158 7.687-3.183 1.014-7.236-1.305-7.236-4.206 0-2.176 2.895-5.22 5.066-5.22.867 0 2.315.724 3.328 1.739zm428.51 34.226l-8.973 30.454-5.5 1.45c-3.183.725-5.643 1.016-5.643.435 0-.435 4.052-13.778 8.972-29.585 8.828-28.133 9.117-28.86 14.183-31.47 2.75-1.45 5.21-2.465 5.499-2.174.29.145-3.619 14.066-8.539 30.89zm18.233-22.044c2.172 4.496 8.105 12.617 13.17 17.983l9.262 9.861-10.42 6.091c-13.946 6.612-32.15 16.233-32.706 14.647-.145-.58 3.184-13.197 7.67-28.134 4.342-14.937 7.96-27.409 7.96-27.844 0-2.175 1.447.145 5.064 7.396zm-398.118 13.342c2.46.726 2.46.87-.724 2.465-3.038 1.74-5.354.87-23.3-8.121-14.326-7.25-19.68-10.587-19.102-12.037.58-1.595 5.21 0 20.55 7.397 10.854 5.22 20.985 9.861 22.577 10.296zm362.808 14.792c-4.341 14.357-8.538 25.664-9.117 25.664-1.738 0-3.04-9.567-2.026-16.672 1.592-11.892 5.21-20.303 12.01-27.844 3.619-3.916 6.658-7.252 6.948-7.252.144 0-3.33 11.747-7.815 26.104zm-159.624-21.463c-.434 1.015-3.474 10.296-6.946 20.738-3.328 10.297-6.658 19.433-7.236 20.013-.58.726-3.763-.145-6.947-1.74-4.92-2.61-5.933-3.916-7.525-10.152-1.447-6.236-1.303-7.686 1.158-12.616 4.052-7.832 10.42-13.488 17.8-15.808 8.104-2.466 10.42-2.61 9.696-.434zm13.024.434c.29.291-2.75 10.877-6.946 23.64l-7.235 23.348-4.342-1.45c-2.316-.871-3.908-2.32-3.618-3.19.289-1.016 3.328-10.298 6.657-20.594 7.525-23.639 7.815-24.364 11.867-23.059a20.795 20.795 0 013.617 1.305zm14.544 4.478c.578.87 1.665 2.918 1.665 4.95 0 5.8 7.96 26.828 13.604 36.4 2.894 4.93 4.92 9.28 4.486 9.716-.87 1.016-20.55-1.885-33.864-4.93-7.091-1.45-10.275-2.901-9.84-4.062.434-1.014 3.906-11.746 7.669-23.928l7.177-20.754 4.11-.564c2.461.58 4.414 2.156 4.993 3.172zm24.675 7.124c24.01 12.094 20.593 8.19 13.46 15.953-6.224 7.106-10.436 16.961-12.13 20.808-1.501 3.412-2.749 2.32-7.814-6.67-5.354-9.427-12.185-28.495-12.185-33.57 0-1.741.725-3.046 1.592-3.046.869 0 8.538 2.9 17.077 6.525zm36.18 19.143c6.078 3.77 16.063 10.732 22.43 15.518l10.603 9.06-3.366.946c-4.921 1.595-59.19 2.175-60.637.725-.579-.434 0-4.496 1.303-8.991 1.736-5.656 4.486-10.297 9.696-15.953 4.052-4.495 7.815-8.121 8.248-8.121.434 0 5.644 3.046 11.723 6.816zm-271.636 4.206c13.315 4.785 28.365 12.327 53.835 26.974 30.68 17.693 51.23 26.103 84.66 34.515 38.93 9.716 73.661 13.487 122.431 13.487 75.832 0 137.337-11.457 194.645-36.256 1.159-.58-.144 1.886-3.038 5.511-3.04 3.771-8.394 7.977-13.025 10.297-11.578 5.8-37.048 13.777-59.189 18.563-17.222 3.77-18.38 4.205-9.407 3.48 18.958-1.45 41.678-7.106 65.123-15.807 1.737-.726.58 1.305-3.473 5.511-5.5 5.656-8.394 7.25-20.26 11.167-7.671 2.465-26.918 6.67-42.837 9.28-15.92 2.756-27.497 5.077-25.905 5.077 6.946.29 47.468-5.946 60.638-9.282 7.814-2.03 14.471-3.336 14.76-3.045.434.29-3.038 3.48-7.38 7.106-8.394 6.816-15.63 9.28-39.364 13.342-6.946 1.16-9.406 1.885-6.367 2.03 2.75 0 10.998-1.16 18.09-2.61 7.235-1.451 13.169-2.466 13.459-2.32.867.724-18.524 12.326-32.996 19.578-17.512 8.846-42.258 17.402-63.677 22.042-22.286 4.786-73.227 4.786-95.513 0-45.152-9.861-100.578-37.27-130.97-64.824l-7.235-6.526L482.8 488c10.563 4.786 30.68 10.732 40.52 12.183 4.053.58 1.013-.725-7.96-3.481-21.851-6.672-47.9-20.013-58.465-29.875-4.921-4.495-8.828-8.701-8.828-9.281 0-.58 7.38 2.61 16.353 7.251 20.26 10.587 39.219 17.548 64.11 24.074 23.589 5.945 31.548 6.38 11.433.58-48.192-14.067-91.752-35.096-114.183-54.964-14.76-13.051-27.64-19.578-38.784-19.723-4.487 0-7.815-.435-7.38-1.16 1.447-2.465 16.642-.87 26.772 2.756zm458.9 45.827c-.724 1.015-3.907 5.076-6.946 9.136l-5.644 7.251 8.973-8.556c9.985-9.716 13.169-10.007 5.933-.58l-4.776 6.236 6.512-5.946c7.092-6.816 11.433-7.251 7.526-.87-2.46 3.916-2.46 3.916.434 1.304 1.591-1.305 3.473-2.465 4.052-2.465.579 0 4.631 3.336 8.973 7.396 9.261 8.992 17.366 23.93 19.247 35.82 1.303 8.413 1.157 11.603-1.448 23.64l-1.446 6.526-47.757 7.54c-35.022 5.512-48.625 7.106-50.507 6.092-3.763-2.031-9.406-12.038-12.011-21.319l-2.17-7.396 13.169-9.716c7.814-5.656 22.72-19.288 35.745-32.63 20.839-21.463 25.614-25.96 22.142-21.463z"/><path d="M863.16 330.654v6.525h13.025v-13.051H863.16zm26.049 0v6.525h13.025v-13.051h-13.025zm26.049 0v6.525h13.025v-13.051h-13.025zm-56.44 27.554v6.526h13.026v-13.052h-13.026zm41.969 0v6.526h13.025v-13.052h-13.025zm-47.757 31.904c0 5.077 0 5.077 6.512 5.077 6.513 0 6.513 0 6.513-5.077 0-5.076 0-5.076-6.513-5.076-6.512 0-6.512 0-6.512 5.076zm30.39 0c0 5.077 0 5.077 6.513 5.077 6.512 0 6.512 0 6.512-5.077 0-5.076 0-5.076-6.512-5.076-6.513 0-6.513 0-6.513 5.076zm-334.298 62.36v9.426h13.025v-18.853h-13.025zm219.972 5.8v9.426h13.024v-18.852h-13.024zm-108.539 13.052v9.427h13.025v-18.853h-13.025zm-209.84-133.42v6.527h13.024v-13.052h-13.024zm26.049 0v6.527h13.024v-13.052h-13.024zm26.049 0v6.527h13.024v-13.052h-13.024zm276.4 184.548c.964.322 2.894.322 4.02 0 .965-.483.16-.806-2.09-.806-2.252 0-3.056.322-1.93.806z"/><path fill="#0091c8" d="M1049.716 523.345V700h-763V512.498c.752 2.992 12.434 6.68 20.703 9.673 15.035 5.237 16.164 5.237 30.823-4.488 19.921-13.093 32.325-12.719 54.877 1.495 33.83 21.322 42.85 21.696 52.999 2.993 7.518-14.588 24.432-14.588 53.374.375 12.404 6.358 25.184 11.221 28.943 11.221 3.382 0 11.652-5.985 18.042-13.092 14.284-16.458 22.553-15.336 59.388 5.985 29.695 17.581 39.843 18.703 42.85 4.115 4.136-18.329 7.518-21.322 24.808-21.322 10.525.374 26.312 4.863 42.475 12.344 13.907 6.734 28.19 11.97 30.821 11.97 3.007 0 6.39-5.236 7.894-11.595 1.128-6.36 6.014-13.84 10.149-16.833 10.148-6.359 20.672-3.74 53.75 13.092 33.077 16.458 42.475 14.963 42.475-7.107 0-6.733 7.14-11.222 18.041-11.222 3.383 0 17.291 6.734 31.198 15.336 30.07 17.956 38.34 17.956 40.97-.373 2.631-18.703 15.036-19.077 47.361-2.244 24.056 13.092 51.059 18.38 51.059 10.525z"/><path fill="none" stroke="#000" stroke-linecap="round" stroke-linejoin="round" stroke-width="8.739" d="M291.24 512.912c.748 2.993 7.07 7.482 15.318 10.476 14.996 5.238 16.12 5.238 30.742-4.49 19.87-13.095 32.241-12.72 54.735 1.496 33.742 21.327 42.739 21.702 52.861 2.994 7.498-14.592 24.369-14.592 53.236.375 12.373 6.36 25.119 11.223 28.868 11.223 3.374 0 11.622-5.986 17.995-13.094 14.247-16.462 22.494-15.34 59.234 5.986 29.617 17.585 39.74 18.708 42.74 4.116 4.123-18.333 7.497-21.327 24.742-21.327 10.498.375 26.244 4.864 42.365 12.347 13.87 6.735 28.117 11.972 30.742 11.972 2.998 0 6.372-5.237 7.873-11.598 1.124-6.36 5.998-13.843 10.122-16.836 10.122-6.36 20.62-3.741 53.61 13.095 32.992 16.463 42.365 14.966 42.365-7.109 0-6.735 7.122-11.224 17.995-11.224 3.374 0 17.245 6.735 31.116 15.34 29.992 17.959 38.24 17.959 40.864-.375 2.625-18.707 14.997-19.082 47.238-2.244 23.994 13.094 49.064 17.584 49.064 9.727"/><path fill="none" stroke="#fff" stroke-linecap="round" stroke-linejoin="round" stroke-width="8.739" d="M292.828 522.194c.75 2.993 8.623 7.483 16.87 10.475 14.997 5.239 16.122 5.239 30.743-4.49 19.87-13.094 32.241-12.72 54.735 1.498 33.741 21.326 42.739 21.7 52.861 2.992 7.498-14.591 24.369-14.591 53.236.375 12.372 6.361 25.119 11.225 28.868 11.225 3.374 0 11.622-5.986 17.995-13.095 14.247-16.463 22.494-15.34 59.234 5.986 29.617 17.585 39.74 18.707 42.739 4.115 4.124-18.332 7.498-21.325 24.743-21.325 10.498.374 26.243 4.863 42.365 12.346 13.87 6.735 28.117 11.973 30.742 11.973 2.998 0 6.373-5.238 7.873-11.6 1.124-6.359 5.998-13.842 10.122-16.836 10.122-6.36 20.62-3.741 53.611 13.096 32.99 16.462 42.364 14.965 42.364-7.11 0-6.733 7.122-11.223 17.995-11.223 3.374 0 17.245 6.734 31.116 15.34 29.992 17.958 38.24 17.958 40.864-.375 2.625-18.707 14.997-19.081 47.238-2.245 23.994 13.095 46.488 17.585 46.488 9.728"/><path fill="#fff" d="M358.647 573.862c-6.422 4.12-5.71 4.438 5.71 2.853 9.633-1.268 16.056.317 28.902 7.607 24.62 14.262 34.97 15.214 51.383 5.07 19.626-11.727 27.476-13.945 42.819-10.776 11.776 2.219 12.846 2.219 8.207-1.901-9.99-9.192-29.616-9.192-47.1 0-19.983 10.142-29.617 10.459-52.097.317-20.34-9.192-27.832-9.826-37.824-3.17zm368.245 9.508c-13.56 7.925-28.546 14.263-33.542 14.263-4.996 0-20.339-6.022-33.899-13.311-23.193-12.362-25.334-12.995-36.039-9.192-29.616 10.776-48.885 14.262-63.158 10.776-16.414-3.803-17.84-1.268-3.569 6.34 13.917 7.29 26.05 6.972 53.167-1.585 22.481-6.973 22.838-6.973 33.9-.951 44.602 23.77 57.448 25.038 80.642 8.557 26.762-19.017 37.824-20.602 76.004-9.509 22.837 6.656 24.621 6.656 35.683 1.902l11.775-5.388h-14.63c-8.207-.317-25.692-3.803-38.538-8.24-13.202-4.438-28.188-7.924-33.54-7.924-5.71 0-20.34 6.022-34.256 14.262zm209.814-1.584c-4.282 1.584-8.921 4.12-10.349 6.022-2.854 4.437-21.408 4.437-31.4 0-6.066-2.536-5.71-1.585 2.14 4.754 12.133 9.825 21.054 10.46 36.754 1.902 11.061-6.339 12.489-6.339 24.978-1.585 21.053 7.607 24.978 5.388 8.207-4.754-16.771-10.143-18.912-10.46-30.33-6.34zm-112.043 41.203c-10.349 6.973-22.838 12.679-27.476 12.679-4.283 0-17.842-4.438-29.26-9.826l-21.41-10.142-13.559 6.973c-7.493 3.803-17.841 8.557-23.194 10.46-5.709 2.217-9.99 5.07-9.99 6.338 0 4.754 11.418 2.535 27.118-5.706 17.484-9.191 27.475-8.557 44.603 1.903 23.551 15.213 31.044 14.58 57.092-3.804 16.415-11.727 27.833-12.044 55.665-1.268 20.697 7.607 23.194 7.924 33.899 3.804l11.775-4.438-12.49-.317c-6.778-.317-22.836-4.754-34.968-9.826-12.488-5.388-26.405-9.508-30.687-9.508s-16.771 5.705-27.119 12.678zm-292.242 1.585c-16.77 13.629-27.475 13.947-44.96 1.585-16.057-11.41-26.761-11.727-48.171-1.585-12.132 5.706-14.63 7.924-9.991 9.509 3.21 1.267 10.705-.318 16.77-2.853 15.7-7.29 23.551-6.339 43.534 6.022 9.99 6.023 19.624 11.093 21.052 11.093 1.427 0 9.277-4.436 17.485-9.508 24.977-16.164 29.973-16.798 54.237-7.923 22.123 8.557 28.546 7.923 39.251-3.487 4.638-5.072 4.282-5.072-2.855-1.901-11.418 5.388-19.624 4.754-41.034-4.121-24.622-10.143-28.904-10.143-45.318 3.169zm-194.826 20.92c-4.283 1.9-9.635 6.021-11.776 9.507-4.282 5.706-3.925 6.023 2.498 3.17 8.92-4.437 24.264-4.437 27.118 0 1.428 1.902 8.921 7.607 16.771 12.678 18.556 11.727 33.899 12.045 52.81.951 14.274-8.24 23.908-8.874 44.604-2.853 4.995 1.586 4.282-.317-3.568-6.021-13.56-10.46-27.476-10.46-48.172 0-18.912 9.508-25.334 8.557-48.885-8.241-19.625-13.63-20.339-13.947-31.4-9.192zm255.13 14.261c-6.78 4.438-14.986 9.192-17.841 10.778-2.854 1.584-4.282 3.486-3.212 4.436 1.07 1.268 9.635-1.585 18.912-6.022 9.278-4.437 19.626-7.923 22.837-7.923 3.568 0 13.916 5.705 23.907 12.995 19.626 14.263 25.692 14.58 47.816.95 16.413-9.825 19.981-9.508 39.607 1.903 20.339 12.044 28.546 12.044 52.81-.318 21.767-10.776 29.617-10.459 51.383 2.218 7.493 4.121 16.058 7.607 18.912 7.607 8.207 0 23.907-7.923 32.114-15.846l7.137-6.974-12.49 6.656c-16.77 8.875-27.118 8.24-48.17-2.853-22.481-11.727-28.903-11.727-48.53 0-19.982 11.728-30.329 12.045-49.955 0-19.982-11.727-30.33-12.043-48.17 0-17.486 11.728-21.767 11.728-37.111.634-14.63-10.776-26.405-16.48-32.829-16.48-2.497.316-10.347 3.803-17.127 8.24z"/></svg>