<svg height="600" width="1200" xmlns="http://www.w3.org/2000/svg"><clipPath id="a"><path d="M0 0v150h700v150H600zm0 300v50h300V0h300z"/></clipPath><path d="M0 0h1200v600H0z" fill="#012169"/><path d="M0 0l600 300m0-300L0 300" stroke="#fff" stroke-width="60"/><path clip-path="url(#a)" d="M0 0l600 300m0-300L0 300" stroke="#c8102e" stroke-width="40"/><path d="M0 150h700M300 0v350" stroke="#fff" stroke-width="100"/><path d="M0 150h700M300 0v350" stroke="#c8102e" stroke-width="60"/><path d="M0 300h600V0h600v600H0z" fill="#0095c8"/><g fill="#fedd00"><path d="M645.34 490.913l29.436 90.597-77.066-55.992h95.26l-77.067 55.993zM817.462 464l-29.436 90.597L758.589 464l77.066 55.992h-95.26zM817.462 342.016l-29.436 90.597-29.437-90.597 77.066 55.992-95.26.001zM943.467 433.168l-29.437 90.597-29.436-90.597 77.066 55.992-95.26.001zM943.467 167.755l-29.437 90.597-29.436-90.597 77.066 55.992H866.4zM996.442 339.965l29.436 90.597-77.066-55.992h95.26l-77.067 55.993zM1049.365 131.561l-29.437 90.597-29.437-90.597 77.067 55.992-95.26.001zM1102.836 271.474l29.437 90.597-77.067-55.992h95.26l-77.067 55.993zM1102.836 37.405l29.437 90.597-77.067-55.992h95.26l-77.067 55.993z"/></g></svg>