<?xml version="1.0" encoding="UTF-8" standalone="no"?>
<svg
   xmlns:dc="http://purl.org/dc/elements/1.1/"
   xmlns:cc="http://creativecommons.org/ns#"
   xmlns:rdf="http://www.w3.org/1999/02/22-rdf-syntax-ns#"
   xmlns:svg="http://www.w3.org/2000/svg"
   xmlns="http://www.w3.org/2000/svg"
   xmlns:sodipodi="http://sodipodi.sourceforge.net/DTD/sodipodi-0.dtd"
   xmlns:inkscape="http://www.inkscape.org/namespaces/inkscape"
   width="91.728"
   height="30.288"
   viewBox="0 0 24.27 8.014"
   version="1.1"
   id="svg913"
   sodipodi:docname="thelia.svg"
   inkscape:version="1.0.1 (3bc2e813f5, 2020-09-07)">
  <metadata
     id="metadata917">
    <rdf:RDF>
      <cc:Work
         rdf:about="">
        <dc:format>image/svg+xml</dc:format>
        <dc:type
           rdf:resource="http://purl.org/dc/dcmitype/StillImage" />
        <dc:title></dc:title>
      </cc:Work>
    </rdf:RDF>
  </metadata>
  <sodipodi:namedview
     pagecolor="#ffffff"
     bordercolor="#666666"
     borderopacity="1"
     objecttolerance="10"
     gridtolerance="10"
     guidetolerance="10"
     inkscape:pageopacity="0"
     inkscape:pageshadow="2"
     inkscape:window-width="1920"
     inkscape:window-height="985"
     id="namedview915"
     showgrid="false"
     inkscape:zoom="9.9424389"
     inkscape:cx="45.863998"
     inkscape:cy="15.144"
     inkscape:window-x="1920"
     inkscape:window-y="26"
     inkscape:window-maximized="1"
     inkscape:current-layer="svg913" />
  <defs
     id="defs903">
    <path
       id="a"
       d="M17.781 106.303h172.446v57.58H17.781z" />
  </defs>
  <g
     aria-label="thelia"
     transform="translate(-17.781 -109.607)"
     id="text911"
     style="font-weight:400;font-size:12.7px;line-height:1.15;font-family:REZ;-inkscape-font-specification:REZ;white-space:pre;shape-inside:url(#a)">
    <path
       d="m 21.19755,116.46549 v 1.1303 h -0.5588 q -0.5842,0 -1.1049,-0.2159 -0.5207,-0.2286 -0.9144,-0.6223 -0.3937,-0.3937 -0.6223,-0.9144 -0.2159,-0.5207 -0.2159,-1.1049 v -5.13079 h 1.1303 v 3.42899 h 2.286 v 1.1303 h -2.286 v 0.5715 q 0,0.3556 0.127,0.6731 0.1397,0.3175 0.3683,0.5588 0.2413,0.2286 0.5588,0.3683 0.3175,0.127 0.6731,0.127 z"
       style="fill:#4d4d4d"
       id="path919" />
    <path
       d="m 24.461433,111.8935 q 0.5969,0 1.1049,0.2286 0.5207,0.2159 0.9144,0.60959 0.3937,0.381 0.6096,0.9017 0.2286,0.508 0.2286,1.1049 v 2.8575 h -1.1303 v -2.8575 q 0,-0.3556 -0.1397,-0.6604 -0.127,-0.3175 -0.3683,-0.5461 -0.2286,-0.2413 -0.5461,-0.3683 -0.3175,-0.1397 -0.6731,-0.1397 -0.3556,0 -0.6731,0.1397 -0.3048,0.127 -0.5461,0.3683 -0.2286,0.2286 -0.3683,0.5461 -0.127,0.3048 -0.127,0.6604 v 2.8575 h -1.1303 v -7.98829 h 1.1303 v 2.8702 q 0.3556,-0.2794 0.7874,-0.4318 0.4445,-0.1524 0.9271,-0.1524 z"
       style="fill:#4d4d4d"
       id="path921" />
    <path
       d="m 32.119532,115.58919 0.8001,0.8001 -0.3937,0.3937 q -0.4064,0.4064 -0.9271,0.6223 -0.5207,0.2159 -1.0922,0.2159 -0.5715,0 -1.0922,-0.2159 -0.5207,-0.2159 -0.9271,-0.6223 -0.4191,-0.4191 -0.6223,-0.9398 -0.2032,-0.5334 -0.2032,-1.0795 0,-0.5461 0.2032,-1.0668 0.2032,-0.5207 0.6223,-0.9398 0.4191,-0.41909 0.9398,-0.62229 0.5334,-0.2159 1.0795,-0.2159 0.5461,0 1.0668,0.2159 0.5334,0.2032 0.9525,0.62229 l 0.3937,0.3937 -3.1623,3.1623 q 0.4826,0.2413 1.016,0.1651 0.5461,-0.0889 0.9525,-0.4953 z m -2.8321,-2.0447 q -0.508,0.508 -0.508,1.2192 0,0.3937 0.1778,0.7493 0.1524,-0.1524 0.4572,-0.4572 0.3175,-0.3175 0.6604,-0.6604 0.3556,-0.3556 0.6731,-0.6731 0.3302,-0.3175 0.508,-0.4953 -0.4826,-0.2413 -1.0287,-0.1651 -0.5334,0.0762 -0.9398,0.4826 z"
       style="fill:#4d4d4d"
       id="path923" />
    <path
       d="m 33.313327,109.6075 h 1.1303 v 7.98829 h -1.1303 v -7.98829 z"
       style="fill:#4d4d4d"
       id="path925" />
    <path
       d="m 34.875417,111.8935 h 1.1176 v 5.70229 h -1.1176 v -5.70229 z"
       style="fill:#4d4d4d"
       id="path927" />
    <path
       d="m 39.206094,111.8935 q 0.5969,0 1.1049,0.2286 0.5207,0.2159 0.9017,0.60959 0.3937,0.381 0.6096,0.9017 0.2286,0.508 0.2286,1.1049 v 2.8575 h -2.8448 q -0.5842,0 -1.1049,-0.2159 -0.5207,-0.2286 -0.9144,-0.6223 -0.3937,-0.3937 -0.6223,-0.9144 -0.2159,-0.5207 -0.2159,-1.1049 0,-0.5969 0.2159,-1.1049 0.2286,-0.5207 0.6223,-0.9017 0.3937,-0.39369 0.9144,-0.60959 0.5207,-0.2286 1.1049,-0.2286 z m 1.7145,4.57199 v -1.7272 q 0,-0.3556 -0.1397,-0.6604 -0.127,-0.3175 -0.3683,-0.5461 -0.2286,-0.2413 -0.5461,-0.3683 -0.3048,-0.1397 -0.6604,-0.1397 -0.3556,0 -0.6731,0.1397 -0.3175,0.127 -0.5588,0.3683 -0.2286,0.2286 -0.3683,0.5461 -0.127,0.3048 -0.127,0.6604 0,0.3556 0.127,0.6731 0.1397,0.3175 0.3683,0.5588 0.2413,0.2286 0.5588,0.3683 0.3175,0.127 0.6731,0.127 z"
       style="fill:#ee8126"
       id="path929" />
  </g>
</svg>
