<?xml version="1.0" standalone="no"?>
<!DOCTYPE svg PUBLIC "-//W3C//DTD SVG 20010904//EN"
 "http://www.w3.org/TR/2001/REC-SVG-20010904/DTD/svg10.dtd">
<svg version="1.0" xmlns="http://www.w3.org/2000/svg"
 width="250.000000pt" height="250.000000pt" viewBox="0 0 250.000000 250.000000"
 preserveAspectRatio="xMidYMid meet">
<metadata>
Created by potrace 1.11, written by Peter Selinger 2001-2013
</metadata>
<g transform="translate(0.000000,250.000000) scale(0.100000,-0.100000)"
fill="#000000" stroke="none">
<path d="M1160 2421 c0 -3 -21 -7 -48 -9 -57 -3 -74 -6 -87 -13 -5 -3 -38 -12
-73 -19 -34 -7 -65 -17 -68 -21 -3 -5 -13 -9 -22 -9 -10 0 -34 -9 -55 -20 -20
-11 -37 -17 -37 -13 0 5 -4 4 -8 -2 -4 -5 -25 -19 -47 -30 -86 -42 -194 -123
-280 -209 -99 -100 -135 -141 -135 -156 0 -5 -8 -14 -17 -19 -10 -6 -14 -11
-10 -11 5 0 -1 -13 -12 -29 -12 -16 -21 -34 -21 -40 0 -6 -4 -11 -10 -11 -5 0
-10 -7 -10 -15 0 -8 -5 -15 -12 -15 -6 0 -9 -3 -5 -6 3 -3 -6 -32 -20 -63 -29
-64 -47 -121 -74 -236 -14 -65 -17 -112 -15 -245 2 -91 6 -176 9 -190 5 -21
40 -150 51 -185 14 -44 76 -175 98 -207 11 -16 16 -28 13 -28 -4 0 0 -6 7 -14
7 -8 22 -26 33 -42 95 -133 239 -267 360 -334 36 -20 62 -33 145 -75 38 -20
157 -55 235 -70 55 -11 216 -14 733 -15 l662 -1 0 663 c-1 519 -4 676 -14 721
-7 32 -14 60 -15 62 0 3 -3 17 -7 33 -11 50 -36 116 -74 199 -42 89 -118 213
-132 213 -4 0 -8 6 -8 13 0 13 -99 119 -166 176 -47 40 -168 121 -182 121 -6
0 -12 4 -14 9 -7 20 -226 106 -298 117 -19 3 -51 9 -70 13 -19 4 -45 7 -57 6
-13 -1 -23 1 -23 5 0 4 -49 7 -110 7 -60 0 -110 -3 -110 -6z m211 -480 c13 2
29 1 34 -2 6 -3 33 -12 60 -19 28 -7 54 -17 60 -21 5 -5 15 -9 23 -9 8 0 26
-9 42 -20 15 -11 30 -17 34 -13 3 3 6 1 6 -5 0 -6 16 -19 35 -28 20 -9 44 -28
55 -42 11 -13 20 -21 20 -17 0 5 13 -7 29 -26 16 -19 40 -47 53 -62 31 -35
108 -183 108 -206 0 -9 4 -21 9 -26 19 -19 23 -97 26 -498 3 -374 2 -407 -13
-408 -85 -4 -740 1 -782 6 -154 20 -316 105 -419 220 -20 21 -44 47 -53 57
-10 10 -18 21 -18 26 0 4 -5 14 -12 23 -43 53 -91 196 -103 307 -2 23 -7 47
-10 52 -3 6 -3 10 2 10 4 0 8 26 8 58 -1 31 3 62 8 69 5 7 6 17 2 24 -4 6 -4
14 1 18 9 6 34 81 36 109 1 6 4 12 7 12 3 0 15 20 26 45 11 25 23 45 27 45 5
0 8 6 8 14 0 7 15 30 34 50 19 20 32 36 29 36 -7 0 30 33 77 69 19 14 41 32
48 39 7 6 20 12 28 12 8 0 12 5 9 10 -3 6 2 10 12 10 11 0 23 4 28 9 11 11
109 51 140 57 11 2 31 7 45 10 14 3 63 8 110 11 47 3 87 7 89 9 3 2 8 -1 11
-7 4 -6 18 -9 31 -8z"/>
</g>
</svg>
