<svg xmlns="http://www.w3.org/2000/svg" viewBox="0 0 24.27 8.014"><path d="M17.781 106.303h172.446v57.58H17.781z"/><g transform="translate(-17.781 -109.607)"><path d="M21.198 116.465v1.13h-.56q-.583 0-1.104-.215-.52-.229-.915-.622-.393-.394-.622-.915-.216-.52-.216-1.105v-5.13h1.13v3.428h2.287v1.13h-2.286v.572q0 .356.127.673.14.318.368.56.241.228.559.367.317.127.673.127zm3.263-4.571q.597 0 1.105.228.521.216.915.61.393.38.61.901.228.508.228 1.105v2.858h-1.13v-2.858q0-.355-.14-.66-.127-.318-.368-.546-.229-.242-.546-.369-.318-.14-.674-.14-.355 0-.673.14-.304.127-.546.369-.228.228-.368.546-.127.305-.127.66v2.858h-1.13v-7.988h1.13v2.87q.356-.28.787-.432.445-.153.927-.153zm7.659 3.696.8.8-.394.393q-.406.406-.927.622-.52.216-1.092.216-.572 0-1.093-.216-.52-.216-.927-.622-.419-.42-.622-.94-.203-.533-.203-1.08 0-.545.203-1.066.203-.52.622-.94.42-.419.94-.622.534-.216 1.08-.216t1.066.216q.534.203.953.622l.394.394-3.163 3.162q.483.241 1.016.165.546-.089.953-.495zm-2.833-2.046q-.508.508-.508 1.22 0 .393.178.749l.457-.457.66-.66.674-.674q.33-.317.508-.495-.483-.241-1.029-.165-.533.076-.94.482zm4.026-3.936h1.13v7.988h-1.13v-7.988zm1.562 2.286h1.118v5.702h-1.118v-5.702z" style="fill:#4d4d4d"/><path d="M39.206 111.894q.597 0 1.105.228.52.216.902.61.393.38.61.901.228.508.228 1.105v2.858h-2.845q-.584 0-1.105-.216-.52-.229-.914-.622-.394-.394-.623-.915-.215-.52-.215-1.105 0-.597.215-1.105.23-.52.623-.901.393-.394.914-.61.52-.228 1.105-.228zm1.715 4.571v-1.727q0-.355-.14-.66-.127-.318-.368-.546-.229-.242-.547-.369-.304-.14-.66-.14-.356 0-.673.14-.318.127-.559.369-.228.228-.368.546-.127.305-.127.66 0 .356.127.673.14.318.368.56.241.228.559.367.317.127.673.127z" style="fill:#ee8126" /></g></svg>
